<?xml version="1.0" encoding="utf-8"?>
<!-- Generator: Adobe Illustrator 18.1.1, SVG Export Plug-In . SVG Version: 6.00 Build 0)  -->
<svg version="1.1" id="Layer_1" xmlns="http://www.w3.org/2000/svg" xmlns:xlink="http://www.w3.org/1999/xlink" x="0px" y="0px"
	 viewBox="0 0 1024 1024" enable-background="new 0 0 1024 1024" xml:space="preserve">
<g>
	<path fill="#231F20" d="M991.3,165.5L914.7,89c-12-12-28-19.4-45-20.8L677.1,52.4c-32.9-2.7-62.9,17.5-73.6,47.6
		c-28.4-13.4-60.2-20.9-93.6-20.9c-31.9,0-62.2,6.9-89.6,19.1c-11.2-29.1-40.6-48.4-72.8-45.8L154.8,68.2c-17,1.4-32.9,8.8-45,20.8
		l-76.6,76.6c-24.2,24.2-27.9,62.4-8.9,90.8c0.1,0.2,0.3,0.4,0.4,0.6l86.8,116.8C72.4,415,50.7,468.9,50.7,526.3
		c0,121.8,99.1,221,221,221c7.6,0,15-0.4,22.4-1.2c3.5,38.7,13.8,89.1,40.9,133.1c38.6,62.5,99.7,94.1,181.5,94.1
		c54.3,0,108.8-24.1,149.6-66.2c39.9-41.1,62.7-94.7,62.7-147.1c0-4.6-0.1-9.3-0.3-14.1c8,0.9,16.1,1.4,24.3,1.4
		c121.8,0,221-99.1,221-221c0-57.4-21.6-111.3-60.9-152.5l86.8-116.8c0.1-0.2,0.3-0.4,0.4-0.6
		C1019.2,227.9,1015.5,189.7,991.3,165.5z M589,128.2c1.3,0.3,2.7,0.3,3.9,0c14,6.8,27.1,15.2,38.9,25.1c0,0,0,0-0.1,0
		c10.3,7.2,16.5,14.2,20.1,19.4c0,0,0.1,0,0.1,0c7.6,8.5,14.4,17.6,20.4,27.3c-0.2,0.1-0.5,0.1-0.7,0.2c1,0.7,1.8,1.4,2.2,2
		c4.5,7.4,8.8,16.5,8.8,16.5s0.1,0.4,0.3,1c2.4,5.2,4.6,10.5,6.5,15.9l-29.7-16.2c-8.3-4.5-17.2-7.3-26.2-8.4
		c-19.9-32.2-49.9-59.4-88.9-79.9C564.8,123.1,588.8,128.1,589,128.2z M384.3,310.3c0.5,0,0.9,0.1,1.4,0.1c0.4,0.2,0.8,0.4,1.1,0.6
		c1.8,1.1,3.5,2.3,5.1,3.6c0.8,1.3,1.3,2.9,1.3,4.5c0,4.9-4,8.9-8.9,8.9c-4.9,0-8.9-4-8.9-8.9S379.4,310.3,384.3,310.3z
		 M376.7,286.3c2.9-20.1,9-38.9,18.1-56.1c6,1,11.8,3.1,17.3,6.3c16.1,9.2,26,25.8,26.5,44.3c0,0.5,0,0.9,0,1.4
		c-10.8,5.8-21,13-30.4,21.8c-0.8-0.8-1.7-1.5-2.5-2.2c-3.3-4-7.6-7.1-12.7-8.8C387.8,290.1,382.3,287.9,376.7,286.3z M384.3,346.8
		c9.8,0,18.4-5.1,23.3-12.9c2.7,5.4,4.5,11.2,5.3,17.3c-34.6,20.3-56.5,33.2-70.2,41.2l-3.3-4.9c0,0-3-6.6-6.7-17
		c-0.6-1.6-1.3-3.2-1.9-4.8c0.1-0.1,0.1-0.1,0.2-0.2c-1.9-5.7-3.9-12.2-5.7-19.2c-0.1,0.1-0.2,0.1-0.3,0.2c-1.7-6.6-2.9-13.3-3.9-20
		c-0.8-4.8-1.3-9.6-1.6-14.4l18-6.4c6.2-2.2,12.6-3.3,18.9-3.3c-0.2,4-0.4,8.1-0.4,12.2c0,1.3,0.3,2.5,0.7,3.6c0,0.3-0.1,0.7-0.1,1
		C356.7,334.4,369.1,346.8,384.3,346.8z M358.2,283.7c-9.1-0.2-18.2,1.2-27.1,4.4l-11.8,4.2c0.5-12.6,2.2-24.8,5-36.6l36.1-19.7
		c4.3-2.4,8.8-4,13.4-5.1C366.3,247.3,361,265,358.2,283.7z M328.4,425.5c5.2,8.1,10.1,15.9,14.6,23.5l-72.2,42.8
		c-13.4,8-30.7,4.5-40-8l-0.2-0.3L328.4,425.5z M352.4,465.2c5.8,10.3,10.7,19.9,14.7,28.6l-55.5,34.9c-16.4,10.3-37.3,8.2-51.2-5.1
		l-1.9-2.6L352.4,465.2z M245.6,452.9c-14.9,8.8-34.1,5-44.4-8.9l-0.2-0.2l103.8-62.4c3.9,9.7,8.4,19.2,13.7,28.3L245.6,452.9z
		 M175.7,409.7l-2.6-3.5l117.7-80.1c1.5,12.6,4.1,25,7.7,37.1L210,416.5C198.6,423.4,183.7,420.5,175.7,409.7z M295.7,246.9
		l-138.9,94.7c-11.8,8-27.7,5.3-36.2-6.1l-0.2-0.2L306,215.5C301.8,225.7,298.4,236.1,295.7,246.9z M290.9,272.8
		c-1.1,8.9-1.7,17.9-1.7,27.1c0,1.5,0,3.1,0.1,4.6l-106.8,72.7c-11.5,7.8-27.2,5.2-35.5-6l-0.2-0.2L290.9,272.8z M159.4,437.9
		L237,542.4c0.4,0.6,0.9,1.1,1.4,1.7c13.9,13.9,32.2,21.1,50.7,21.1c13.2,0,26.4-3.6,38.3-11.1l50.2-31.5c0.8,3.6,1.3,6.8,1.3,9.4
		c0,1.8,0.4,3.5,0.9,5c-5.3,55-51.8,98.1-108.2,98.1c-66.8,0-106.7-58.7-120.5-109C145,503.6,147.7,474.6,159.4,437.9z M378.2,450
		l54.3-31.1c-4.3,24.8-13.8,53.5-28.8,85.9C398.1,488.1,388.8,469,378.2,450z M368.8,433.8c-5.3-8.8-10.7-17.5-16-25.7
		c2.9-1.7,6.1-3.5,9.6-5.6c19.6-11.4,45.2-26.5,69.5-40.8c2.1-1.2,4.2-2.3,6.3-3.4c-0.6,13.3-1.4,25.7-2.6,37.1L368.8,433.8z
		 M430.1,341.5c-2-8.3-5.3-16.1-9.9-23.1l0.4-0.4c5.8-5.4,11.9-10.2,18.3-14.3c0.1,11.7,0.1,22.9-0.1,33.6
		C435.9,338.6,433,340,430.1,341.5z M425.6,222.8c-1.3-0.9-2.7-1.8-4.1-2.6c-5.2-3-10.7-5.3-16.3-6.9c18.7-27.1,45.8-49.8,80.9-67.5
		c6.4,9.1,9.6,21.4,9.6,36.8c0,1.5,0.4,3,1.1,4.3C460.1,190.1,434.3,213.6,425.6,222.8z M500.6,205.2c23.8-1.4,47.8,8.6,71.2,29.7
		c-9.4,10.7-15.5,24-17.2,38.5c-31.6-11.3-66.3-11.2-97.8,0.5c-1.7-14.6-7.7-28-17.1-38.8C447.4,227.2,469.9,207,500.6,205.2z
		 M661.4,318c0.4-1.1,0.7-2.2,0.7-3.5c0-4-0.1-8-0.4-12c5.5,0.3,10.9,1.3,16.3,3.2l22.5,8c-0.4,5.6-1.2,11.3-2.2,16.9
		c-1,6.4-2.4,12.7-4,18.9c-0.1-0.1-0.2-0.1-0.3-0.2c-5.9,21.6-13.4,38.1-13.4,38.1l-4.3,6.4c-13.8-7.7-36.7-20.6-74-41.6
		c0.8-6.6,2.7-12.8,5.6-18.5c0.7,0.6,1.5,1.1,2.4,1.5c4.8,8,13.6,13.4,23.7,13.4c15.2,0,27.6-12.4,27.6-27.6
		C661.6,320,661.5,319,661.4,318z M553.9,567.1c17.6-9.3,40.7-6.9,68.9,7.2c0,0,0,0,0,0v0c4.8,2.9,9.4,6,13.7,9.3
		c7.3,8.2,13.9,17,19.8,26.2c-22.6-5.6-40.9-3.4-54.6,6.5c-13.6,9.9-19.3,25.2-21.7,37.3c-8.3-5.4-16.9-10.6-25.4-15.8
		c-3.5-2.1-7-4.3-10.6-6.4c-8.3-5.1-15.9-10.6-22.8-16.3C525.2,600.4,534.4,577.5,553.9,567.1z M506,601
		c-15.7-16.1-27-33.5-35.3-50.3c0.6-0.9,1.1-1.9,1.4-3c0.1-0.5,12.4-46.4,45.2-58c18.9-6.7,41.7-0.6,67.9,17.9
		c2.6,6.3,5.4,12.7,8.3,19.3c2.9,6.4,6,13,9.3,19.6c-9.2-2.5-17.9-3.7-26.2-3.6c-11.4,0.1-21.9,2.7-31.5,7.8
		C523.6,562.1,512,583.8,506,601z M617.3,500.9c-2.4,6.7-11.8,6.9-14.5,0.4c0-0.1-0.1-0.1-0.1-0.2c-0.2-1.7-0.8-3.4-2-4.8
		c-6.1-15.2-11-29.6-14.8-43c0,0,0-0.1,0-0.1c-2.8-12.7-5.2-26.7-7.1-41.5l63.1,37.4C632.4,466,623.3,484.4,617.3,500.9z
		 M577.7,389.1c-0.5-0.3-0.9-0.5-1.4-0.6c-1-9.9-1.7-20.1-2.3-30.5c1.7,0.9,3.3,1.7,5,2.6c25.7,14.5,52.9,29.9,73.8,41.6
		c4.8,2.7,9.2,5.2,13.2,7.4l-7,10.6c-0.2,0.4-0.4,0.8-0.5,1.2c-2.3,3.6-4.6,7.5-7,11.5L577.7,389.1z M572.9,336.7
		c-0.4-11.2-0.5-22.5-0.5-33.9c7.7,4.8,15,10.5,21.7,17.2c-4.2,6.9-7.3,14.5-9.1,22.6C581.1,340.5,577,338.5,572.9,336.7z
		 M668.5,463l97.7,58l-1.9,2.6c-13.9,13.3-34.8,15.4-51.2,5.1l-59.4-37.3C658,482.3,663,472.7,668.5,463z M634,330
		c-4.9,0-8.9-4-8.9-8.9s4-8.9,8.9-8.9c4.9,0,8.9,4,8.9,8.9S638.9,330,634,330z M618.7,295.2c-4.7,3-9,6.4-12.9,10.2
		c-10.1-9.7-21.3-17.7-33.1-23.9c0-0.2,0-0.4,0-0.7c0.5-18.5,10.4-35.1,26.5-44.3c7.4-4.3,15.5-6.6,23.6-7
		c9.3,17.3,15.5,36.1,18.4,56.2C633.4,287.6,625.8,290.7,618.7,295.2z M589.9,220.2c-1.3,0.8-2.6,1.6-3.9,2.4
		c-22.9-21.1-46.7-33.1-71-35.6c0.7-1.3,1.1-2.8,1.1-4.4c0-16.8,3.9-29.9,11.5-39.2c1.2,0.8,2.5,1.4,3.8,2.1
		c34.8,17.5,61.7,39.8,80.5,66.4C604.4,213.5,596.9,216.2,589.9,220.2z M554,329.8c-31.4-9.3-65-9.2-96.3,0.4
		c0.1-11.6,0.1-23.7-0.1-36.4c30.8-13.1,65.5-13.3,96.2-0.6C553.6,305.5,553.7,317.8,554,329.8z M554.7,349.7
		c0.7,15.2,1.8,29.9,3.3,44.1c0,0.3,0,0.6,0,0.9c0,6.9,0.4,14.1,1.3,21.7c-20.8-16.1-41.5-22.4-61.7-18.7
		c-19.7,3.6-35.5,16.3-47.2,29.7c3.7-21.6,6-47.4,7-77.4C488.7,338.9,523.2,338.8,554.7,349.7z M501,416.1
		c19.5-3.6,40.6,6.3,62.8,29.5c0.3,0.3,0.7,0.6,1.1,0.9c2.5,10.4,5.7,21.3,9.6,32.7c-23-11.5-44.2-14-63.4-7.2
		c-27.3,9.7-43,35.8-50.8,53.5c-11.3-33.3-11.5-59.9-11.5-62.1c0-0.5-0.1-0.9-0.1-1.4C457.4,446.8,475.6,420.7,501,416.1z
		 M475.4,611.9c13.9,16.2,31.2,31.6,52.9,44.9c3.6,2.2,7.2,4.4,10.7,6.5c45.4,27.6,81.3,49.3,81.3,94.8
		c0,51.5-47.4,106.6-117.8,106.6c-62,0-93.9-55.2-95-164.1C436.8,677.9,460.5,647.6,475.4,611.9z M597.2,665.5
		c0.7-8.7,3.6-25.4,15.5-34c11.5-8.3,29.4-8,53.3,0.9c1.1,0.4,2.3,0.6,3.5,0.6c7.9,15.9,14,32.5,18.5,48.9
		c-9.6-2.9-18.8-3.3-27.6-1.2c-13.4,3.3-22.7,12-28.4,19C622.8,686.6,610.7,675.5,597.2,665.5z M647.1,551.5c-1.9-8.1-3-16.6-3-25.2
		v0c0-2.3-0.6-4.5-1.5-6.4l54.5,34.2c11.9,7.5,25.1,11.1,38.3,11.1c18.5,0,36.8-7.2,50.7-21.1c0.5-0.5,1-1.1,1.4-1.7l77.6-104.4
		c11.7,36.7,14.4,65.6,8.2,88.1c-13.9,50.3-53.7,109-120.5,109c-20.7,0-40.1-5.8-56.7-16C684,594.5,667.8,571.3,647.1,551.5z
		 M811.1,414.4l-88.9-53.5c3.5-12.3,5.9-24.9,7.3-37.8l122.1,83.1l-0.2,0.2C841.9,419,824.5,422.5,811.1,414.4z M842.1,377.2
		l-109.6-74.6c-0.6-0.4-1.2-0.7-1.8-0.9c0-0.6,0-1.2,0-1.7c0-10.4-0.8-20.6-2.2-30.6L877.7,371l-0.2,0.2
		C869.2,382.4,853.6,385,842.1,377.2z M867.8,341.6l-141-96.1c-1-0.7-2.1-1.2-3.3-1.4c-1.3-4.9-2.8-9.8-4.4-14.6l0-0.1
		c-0.7-4.8-1-9.5-0.9-14.1l186,120l-0.2,0.2C895.6,346.9,879.6,349.6,867.8,341.6z M823.6,443.8l-0.2,0.2
		c-10.3,13.9-29.5,17.7-44.4,8.9l-76.1-45.1c0.8-1.1,1.5-2.2,2.3-3.3c1.4-2,2.2-4.2,2.5-6.4c3.1-6.2,5.9-12.6,8.4-19L823.6,443.8z
		 M794,483.6l-0.2,0.2c-9.3,12.6-26.6,16-40.1,8l-75.9-45c3.5-5.8,7.1-11.6,10.6-17.1c1.5-2.1,2.9-4.1,4.4-6.2L794,483.6z
		 M684.3,288.1c-8-2.9-16.2-4.3-24.4-4.4c-2.6-17.7-7.5-34.5-14.6-50.4c1.9,0.8,3.7,1.6,5.6,2.6l45.8,25c2.2,10.7,3.6,21.7,4,33
		L684.3,288.1z M510,109.1c11.3,0,22.3,1,33,2.9c-7.4,2.3-14.7,5.9-21.3,11.2c-6.7,5.3-11.9,12-15.8,19.8
		c-3.9-7.8-9.1-14.4-15.8-19.8c-5.7-4.6-12-7.9-18.4-10.2C484.1,110.4,496.9,109.1,510,109.1z M395.9,147.1c0.3-0.2,0.5-0.4,0.8-0.6
		c10.1-7.5,20.9-14,32.4-19.4c9.2-1.1,26.8-1.8,41.5,5.6c-37.4,20.2-66.3,46.7-85.7,77.9c-11.4,0.2-22.8,3.1-33.3,8.8l-19,10.4
		c1.5-3.7,3-7.4,4.7-11.1c0,0,4.3-9.1,8.8-16.5c6.2-10.4,13.4-20.1,21.4-29.1c5.8-7.8,13.2-13.9,19.9-19.2c0,0-0.1,0-0.1,0
		C390.1,151.6,392.9,149.3,395.9,147.1z M49.2,239.5L49.2,239.5c-11-16.6-8.7-38.7,5.3-52.8l76.6-76.6c7-7,16.3-11.3,26.2-12.1
		l192.6-15.7c0.3,0,0.7-0.1,1-0.1c26.1-1.5,38.2,31.3,18.1,48c-19.4,16.1-35.9,35.4-48.9,57.2c-5.3-15.7-14.9-29.2-27.8-38.3
		c-21.9-15.6-50.2-16.5-77.9-2.7c-0.2,0.1-0.5,0.2-0.7,0.3c-0.7,0.3-1.3,0.6-2,1c-0.7,0.4-1.3,0.8-1.8,1.3L63.9,242.2
		C59.1,245.3,52.6,244.1,49.2,239.5z M66.6,262.9l-0.1-0.2l155.7-99.4c16.8-8.5,33.1-10.3,47.2-5.4L98.9,268.7
		C88.3,275.7,74.2,273.1,66.6,262.9z M91.4,296.3l-0.2-0.2l195.8-127.3c7.4,7,12.9,16.1,16.1,26.5c-0.5,0.2-1.1,0.5-1.6,0.8
		l-167.3,108C120.2,313.2,101.4,309.8,91.4,296.3z M271.7,717.3c-105.3,0-191.1-85.7-191.1-191c0-43.3,14.2-84.4,40.4-117.8
		c4.2-5.4,12.5-5.2,16.6,0.3l0.1,0.1c-19.3,51.7-24.4,92.7-15.5,125.1c21.9,79.5,80.6,130.9,149.4,130.9
		c69.5,0,127.2-51.4,137.1-118.1h0.1v-0.7c0.6-3.9,1-7.9,1.2-11.9c5-9.9,9.6-19.5,13.8-28.8c3,14.3,7.8,31.2,15.6,48.9
		c4.1,9.4,9,19.1,14.9,28.7c-0.4,0.7-0.7,1.4-1,2.2c-18.8,57.8-63,101.7-117.9,121.1c-9.1,3.2-18.4,5.7-28,7.6
		C295.9,716.1,283.9,717.3,271.7,717.3z M323.7,741.1c19.1-4.6,37.4-11.7,54.4-21.1c0.5,10.6,1.3,20.7,2.4,30.2
		c-0.1,0.2-0.3,0.4-0.4,0.6c-0.1,0.1-8,15.3-23,18.7c-9.2,2.1-19.7-0.6-31.1-7.8C325,755.1,324.3,748.2,323.7,741.1z M329.8,784.8
		c7.1,2.8,14.1,4.3,20.8,4.3c3.6,0,7.1-0.4,10.6-1.2c9.8-2.2,17.4-7.3,23-12.5c3.3,17.4,7.8,32.4,13.2,45.4c-2.3,5.6-7,14-15.7,18.5
		c-9.1,4.7-20.9,4.5-35.2-0.7C339.7,822.9,333.9,805.1,329.8,784.8z M412.4,916.2c-20.1-12.5-39-30.3-54.3-55.5
		c3.1,0.4,6.1,0.7,9,0.7c8.5,0,16.4-1.8,23.4-5.5c7.5-3.9,13-9.4,17-15c8.5,14.3,18.3,25.1,28.8,33.1c1.5,5.6,2.4,13.1-0.4,20.6
		C432.7,903.3,424.7,910.6,412.4,916.2z M522.8,911.8c-1.1,10.9-8.7,21.3-22.5,31c-21-1.4-44.8-5.8-68.1-16.2
		c10.4-6.9,17.6-15.5,21.3-25.7c1.9-5.2,2.8-10.4,2.9-15.3c15.1,6.6,31,9.1,46.1,9.1c5.6,0,11.1-0.3,16.5-0.9
		C521.4,898.7,523.4,905,522.8,911.8z M595.8,923.1c-21,11.1-43.9,18.1-67.6,19.8c7.7-9.1,12.2-18.8,13.2-29.2
		c0.8-8.6-0.8-16.4-3.4-22.9c13.6-3.1,26.6-8.1,38.6-14.7c5.5,2.2,12.8,6.3,17.2,13.7C598.9,898.1,599.5,909.3,595.8,923.1z
		 M616.8,910.3c0.6-11.4-1.6-21.5-6.9-30.2c-4.2-7-9.8-12-15.3-15.7c5.3-4,10.3-8.3,15-13.1c5-5,9.6-10.3,13.8-15.9
		c0.2,0,0.5,0,0.7,0c0.2,0,17.2-1.6,28.2,9.1c5.2,5.1,8.5,12.4,9.8,21.7C649.4,883.2,634,898.1,616.8,910.3z M675.5,845.7
		c-2.6-5.6-5.9-10.5-10.1-14.6c-9.7-9.4-21.5-12.8-30.4-14c5.8-10.8,10-22.2,12.5-33.8c3.7-3.5,12.9-11,24.7-11c0.2,0,0.3,0,0.5,0
		c8.2,0.2,16.4,4,24.5,11.3C694,805.5,686.4,826.5,675.5,845.7z M699,761.6c-8.4-5.2-17.2-7.9-26.2-8c-0.2,0-0.4,0-0.6,0
		c-8.4,0-15.8,2.3-21.9,5.3c0-0.3,0-0.5,0-0.8c0-15.2-2.9-28.4-8-40.2c0.3-0.7,7.9-15.5,22.6-19.1c8.4-2.1,18-0.2,28.5,5.6
		c3.9,19.7,5.6,38.7,5.6,55.5C699,760.5,699,761.1,699,761.6z M943.9,526.3c0,105.3-85.7,191-191.1,191c-9.2,0-18.3-0.7-27.2-2
		c-2.6-18.4-6.9-37.5-13.1-56.4c12.8,3.9,26.3,6,40.3,6c68.8,0,127.4-51.4,149.4-130.9c8.9-32.4,3.8-73.4-15.5-125.1l0.1-0.1
		c4.1-5.5,12.4-5.8,16.6-0.3C929.7,441.9,943.9,482.9,943.9,526.3z M933.2,296.3c-10,13.5-28.8,16.9-42.9,7.8L723,196.1
		c-0.5-0.3-1-0.6-1.6-0.8c3.2-10.4,8.7-19.6,16.1-26.5l195.8,127.3L933.2,296.3z M958,262.9c-7.6,10.2-21.7,12.7-32.3,5.8L755.2,158
		c14.1-4.9,30.4-3.1,47.2,5.4l155.7,99.4L958,262.9z M975.5,239.4L975.5,239.4c-3.5,4.7-10,5.9-14.8,2.8l-146.1-93.3
		c-0.6-0.5-1.2-1-1.8-1.3c-0.7-0.4-1.4-0.7-2.1-1c-0.2-0.1-0.4-0.2-0.5-0.3c-27.7-13.8-56-12.9-77.9,2.7
		c-14.3,10.2-24.5,25.8-29.4,43.7c-12.6-22.6-29.1-42.8-48.5-59.6c-20.8-18-7.6-52.7,19.8-50.8c0.2,0,0.4,0,0.6,0L867.3,98
		c9.9,0.8,19.2,5.1,26.2,12.1l76.6,76.6C984.2,200.7,986.4,222.8,975.5,239.4z"/>
	<path fill="#FFFFFF" d="M271.4,717.3c-105.3,0-191.1-85.7-191.1-191c0-43.3,14.2-84.4,40.4-117.8c4.2-5.4,12.5-5.2,16.6,0.3
		l0.1,0.1c-19.3,51.7-24.4,92.7-15.5,125.1c21.9,79.5,80.6,130.9,149.4,130.9c69.5,0,127.2-51.4,137.1-118.1h0.1v-0.7
		c0.6-3.9,1-7.9,1.2-11.9c5-9.9,9.6-19.5,13.8-28.8c3,14.3,7.8,31.2,15.6,48.9c4.1,9.4,9,19.1,14.9,28.7c-0.4,0.7-0.7,1.4-1,2.2
		c-18.8,57.8-63,101.7-117.9,121.1c-9.1,3.2-18.4,5.7-28,7.6C295.6,716.1,283.6,717.3,271.4,717.3z"/>
	<path fill="#FFFFFF" d="M943.9,526.3c0,105.3-85.7,191-191.1,191c-9.2,0-18.3-0.7-27.2-2c-2.6-18.4-6.9-37.5-13.1-56.4
		c12.8,3.9,26.3,6,40.3,6c68.8,0,127.4-51.4,149.4-130.9c8.9-32.4,3.8-73.4-15.5-125.1l0.1-0.1c4.1-5.5,12.4-5.8,16.6-0.3
		C929.7,441.9,943.9,482.9,943.9,526.3z"/>
</g>
<path fill="#FFFFFF" d="M384.2,310.5c0.5,0,0.9,0.1,1.4,0.1c0.4,0.2,0.8,0.4,1.1,0.6c1.8,1.1,3.5,2.3,5.1,3.6
	c0.8,1.3,1.3,2.9,1.3,4.5c0,4.9-4,8.9-8.9,8.9c-4.9,0-8.9-4-8.9-8.9S379.3,310.5,384.2,310.5z"/>
<path fill="#FFFFFF" d="M633.9,330.2c-4.9,0-8.9-4-8.9-8.9s4-8.9,8.9-8.9c4.9,0,8.9,4,8.9,8.9S638.8,330.2,633.9,330.2z"/>
</svg>
