<svg xmlns="http://www.w3.org/2000/svg" viewBox="0 0 124 123.16"><defs><style>.cls-1{fill:#515151;}</style></defs><title>apricots</title><g id="Layer_2" data-name="Layer 2"><g id="Layer_1-2" data-name="Layer 1"><g id="Layer_1-3" data-name="Layer 1"><path class="cls-1" d="M30,39.57c-.08-1.39-.16-2.79-.16-4.18a26.67,26.67,0,0,1,1-6.73c.25-1.15.57-2.22.9-3.28a1.74,1.74,0,0,1,1.81-1.15c.66,0,.9.41,1.31.9a4.55,4.55,0,0,0,1.39.9,6.41,6.41,0,0,0,.41-1c.74-1.89,1.31-3.77,2.13-5.66a15.07,15.07,0,0,1,3-4.51,31.83,31.83,0,0,1,3.45-3.2,22.24,22.24,0,0,1,3.69-2.46,29.49,29.49,0,0,1,2.87-1,18.68,18.68,0,0,1,7.88-1.48c3.69,0,7.3.25,11,.25a22.15,22.15,0,0,0,4-.33c2.54-.41,5.17-.41,7.3-2a33.07,33.07,0,0,0,2.63-2.13c.66-.66,1.15-1.39,1.81-2.05.25-.25.49-.74,1.07-.41-.57,1.48-1.15,3-1.64,4.43a14.79,14.79,0,0,0-.66,1.72c-.16.82-.25,1.72-.41,2.54-.16,1.15-.49,2.38-.66,3.53-.41,3.2-.74,6.4-1.31,9.52a34.66,34.66,0,0,1-2.05,6.24A10.87,10.87,0,0,1,78.86,31c-1.48,1.72-3,3.36-4.68,5a30.21,30.21,0,0,1-3.36,2.54,54.27,54.27,0,0,1-5.74,3,14.37,14.37,0,0,1-5.25,1.15,10.47,10.47,0,0,0-1.39.16,8.21,8.21,0,0,1,.82.74,26.92,26.92,0,0,1,5.09,5.91A50.79,50.79,0,0,1,66.8,54.1c1,2.38,1.81,4.76,2.71,7.3,2.13-.49,4.35.33,6.32-.74a4.65,4.65,0,0,1,.66-1.07c.57-.57,1.15-1.15,1.72-1.64A25.19,25.19,0,0,1,81,55.57a24.9,24.9,0,0,1,3.86-2.05,12.38,12.38,0,0,1,5.66-1.23,25.18,25.18,0,0,1,6.07.82,43.74,43.74,0,0,1,6.15,2.46,23.66,23.66,0,0,1,3.12,1.81A20.43,20.43,0,0,1,108.48,59a47.38,47.38,0,0,1,3.61,3.45c1.15,1.23,2.3,2.54,3.36,3.86.49.57.9,1.23,1.31,1.81.66,1.07,1.15,2.13,1.72,3.28,1,1.89,2,3.77,2.79,5.74a38.84,38.84,0,0,1,1.64,5.5A32.21,32.21,0,0,1,124,91.92a29.54,29.54,0,0,1-.41,5.42,31.86,31.86,0,0,1-2.3,6.65,43.09,43.09,0,0,1-3,5.42,33.41,33.41,0,0,1-2.71,3.94,13.12,13.12,0,0,1-2.13,2.13c-.66.57-1.31,1.15-2,1.64-.9.66-1.89,1.31-2.79,2,.08.08.16.25.33.41-.33.16-.49.33-.82.33-.66.16-1.31.25-2,.41a26.55,26.55,0,0,1-2.71,1.07c-1.81.49-3.53,1-5.33,1.39a26.74,26.74,0,0,1-10.83-.16A35.71,35.71,0,0,1,78,119.08,29.83,29.83,0,0,1,72.87,116c-.66-.57-1.56-1-2.3-1.56A13.39,13.39,0,0,1,68.93,113c-1.81-1.64-3.61-3.2-5.33-4.92-.74-.74-1.39-1.56-2.13-2.46A7.25,7.25,0,0,1,60.16,107a24.58,24.58,0,0,1-6.32,4.1,18.91,18.91,0,0,1-8,1.89,19.68,19.68,0,0,1-6.15-.66c-1.15-.41-2.05-1.07-3.45-.66a17.66,17.66,0,0,1-4.18.33,26,26,0,0,1-4.35.16,25.3,25.3,0,0,1-5.42-1.07,18.46,18.46,0,0,1-7.14-4.18c-2-1.81-3.86-3.77-5.66-5.74a20.59,20.59,0,0,1-3.86-5.33C4.77,94,3.87,92.08,3,90.28a26.3,26.3,0,0,1-2.3-8.61A70.51,70.51,0,0,1,0,73.21,37.6,37.6,0,0,1,.34,68a31.5,31.5,0,0,1,.9-4.84c.74-2.79,1.48-5.58,2.38-8.29.49-1.56,1.48-3,2.13-4.51A24.3,24.3,0,0,1,9.12,45a17.39,17.39,0,0,1,6.32-4.84c1.07-.49,2.22-.66,3.28-1.15a10,10,0,0,1,6.56-.49c1.48.41,3,.9,4.51,1.39A.62.62,0,0,0,30,39.57ZM51.71,29.32v-.25a6.21,6.21,0,0,0-1.23.08c-.16-.16-.41-.25-.57-.41,0,.08-.08.25-.08.33.25,0,.49.08.74.08C51,29.24,51.3,29.24,51.71,29.32Zm-14.52,2.3c.08-.16.25-.33.33-.49-.08,0-.08-.08-.16-.16-.74.74-1.39,1.56-2.22,2.38,1.07.16,1.56-.82,2.38-1.07,0-.16.08-.41.08-.57.41-.16.82-.25,1.15-.41.9-.49,1.72-1.07,2.63-1.64-.82-.33-2.87.82-3.69,2.05a1,1,0,0,0-.49-.08ZM75.83,31C75,31,74.51,31,74,31.12a11.31,11.31,0,0,1-.49,1.31c.25.16.57.33.82.49-.41,0-.82.08-1.31.08a7.22,7.22,0,0,0-.49.82c.25.08.49.16.82.25.33-.41.66-.74.9-1.07C74.76,32.35,75.17,31.78,75.83,31ZM58.1,105.37c-.08,0-.25.08-.33.08v1.07c-1.15-.16-1.48.08-1.64,1.07.33.16.74.33,1.15.49l2.54-2c-.57,0-.9-.08-1.31-.08A1.45,1.45,0,0,1,58.1,105.37ZM56.3,29.56c-1.39-.08-2.71-.16-4.35-.25a6.75,6.75,0,0,0,1.31.49,54.24,54.24,0,0,0,8.94,1c2.3-.08,4.59,0,6.89-.08a3,3,0,0,0,2.63-1.07l-2.22.25c-1.07.08-2.13.25-3.2.25a63.41,63.41,0,0,1-6.81.16,13.41,13.41,0,0,1-3-.66l3.12.25a17.15,17.15,0,0,0,2.05.08,1.2,1.2,0,0,0,.66-.41A.9.9,0,0,1,62,29.4c-1.64.33-3.2-.16-4.76-.16-.33,0-.74-.16-.66.41C56.38,29.65,56.38,29.56,56.3,29.56ZM55.07,40.48c1,.9,2,.16,3,.08a1.52,1.52,0,0,0,.57-.16c0,.08.08.25.08.33a17.18,17.18,0,0,1-1.89.66v.16a6.38,6.38,0,0,0,1.31-.16c1.31-.41,2.54-.9,3.86-1.31.16-.08.41,0,.57,0v.25c-.74.33-1.48.66-2.46,1.07,1.81.33,3-.82,4.35-1.07-.16.16-.41.33-.57.49,0,.08.08.08.08.16.57-.25,1.07-.41,1.64-.66v-.16l-2.71-.49c-2.63-.33-5.25-.57-7.79-1-1.89-.33-3.77-.9-5.66-1.31-1.07-.25-2.13-.49-3.12-.74s-2-.66-3-.82a7.06,7.06,0,0,0-2.63,0,6,6,0,0,0-2.13,1.15,5.15,5.15,0,0,0,3-.82c0,.16.08.33.08.49,1.39.16,2.79.25,4.18.41a14.37,14.37,0,0,1,5.17,1.48c1.15.66,2.54,1.31,3.94,2ZM40,20.13c.49-.82,1-1.81,1.56-2.79.08,0,.16.08.33.08-.08.25-.16.57-.25.82l.16.16,1.56-1.81c.25.66-.16.82-.49,1.15-.9,1-1.81,2.05-2.63,3a.62.62,0,0,0-.08.66c.66-.74,1.23-1.48,1.89-2.13.08,0,.16.08.25.08-.08.16-.08.41-.16.49-.82,1-1.64,2-2.46,3a1.39,1.39,0,0,0-.25.82c.57-.57,1.23-1.15,1.81-1.72.08.08.16.16.25.16-.16.25-.25.41-.41.66a30.54,30.54,0,0,0-3.53,3.77c-.74,1.15-2.13,1.89-1.89,3.53-.33,0-.49.08-.74.08a.85.85,0,0,0,.08.33c.25,0,.49,0,.57-.16A6,6,0,0,0,37,29c-.16,0-.33.08-.49.08a.25.25,0,0,1-.08-.16,26.13,26.13,0,0,1,5.17-5.25c-.33,1.23-1.64,1.64-2.22,2.71.66-.33,1.23-.66,1.89-1l.16.16c-.08.16-.25.33-.33.49a17.57,17.57,0,0,0-1.56,1.07.64.64,0,0,0-.25.57c1-.49,1.89-.9,2.87-1.39A35.4,35.4,0,0,1,46.78,11.6c-.08-.08-.16-.16-.25-.16-1.07.82-2.05,1.72-3.12,2.54,0,.08.08.08.08.16a7.62,7.62,0,0,1,.82-.41c.33.57,0,.9-.33,1.15-1.07,1-2.3,1.81-3.36,2.87a10,10,0,0,0-1.23,1.81,6.84,6.84,0,0,1-.66,1,.29.29,0,0,1,.16.08c.16-.33.25-.74.41-1.07C39.48,19.88,39.73,20,40,20.13ZM77.3,114.89a28.6,28.6,0,0,0,6.65,5.5c-.41-.08-.82-.25-1.23-.33a.3.3,0,0,1-.08.25c1.39.41,2.79.74,4.18,1.15,0-.08,0-.08.08-.16l-7.14-4.18c.08-.08.08-.16.16-.33a27.66,27.66,0,0,1,2.63,1.56l.08-.08c-1.48-1.31-3-2.71-4.51-4,.08-.08.08-.16.16-.25,2.46,2.13,4.92,4.43,8.2,5.17A43,43,0,0,1,80.75,114c2.38,1.64,4.27,4.27,7.38,4.84L84,115.22c0-.08.08-.08.08-.16,1.72,1.15,3,2.87,5.5,3-.82-.74-1.56-1.39-2.3-2l.25-.25c1.48,1,2.54,2.46,4.43,2.87-.66-.49-1.23-1-1.89-1.56.08-.08.08-.16.16-.25,2.05,1.31,3.94,2.87,6.65,3-1.64-1.31-3.61-2-4.76-3.69,2.71,1.64,5.17,3.69,8.37,4.27,0-.08.08-.16.08-.25-.33-.08-.66-.16-1.07-.25a4,4,0,0,0,.57-.25l-5.17-2.71c.08-.08.08-.16.16-.33,1.23.57,2.54,1.23,3.77,1.81s2.71.9,4.43,1.48a23.82,23.82,0,0,0,2.3-.74v-.25c-.49,0-1.07-.16-1.31,0-.82.66-1.56.25-2.22,0-1.48-.49-3-1.15-4.43-1.72-.08,0-.16-.16-.16-.33,1,.25,1.89.57,2.87.82s1.89.57,2.87.9c0-.08.08-.16.08-.25-1.15-.49-2.3-1-3.36-1.48,0-.08.08-.16.08-.25.25.08.41.08.66.16,1.39.41,2.71.9,4.1,1.31a4.62,4.62,0,0,0,1.07,0V118c-.74-.33-1.48-.66-2.13-1a.3.3,0,0,1,.08-.25c1.31.33,2.54.74,3.86,1.07,0-.08.08-.16.08-.25-.74-.33-1.48-.74-2.13-1.07,0-.08.08-.16.08-.25,1.15.41,2.38.74,3.53,1.15l.74-.49v-.16c-.57-.08-1.23-.08-1.81-.16-.08-.08-.25-.16-.41-.33s-.41-.16-.57-.25c0-.08.08-.16.08-.33a6.54,6.54,0,0,1,1.23.25.65.65,0,0,0,.9-.49c.57-.25,1.07-.49,1.64-.74,0-.08,0-.08-.08-.16a18.87,18.87,0,0,1-2.87.82,27.65,27.65,0,0,1-9.68.74,41.42,41.42,0,0,1-5.42-.9,45.43,45.43,0,0,1-4.76-1.39c-1.31-.41-2.46-1.07-3.77-1.56-1.48-.57-3-1.07-4.43-1.81a23.87,23.87,0,0,1-3.45-2.05c-1.89-1.31-3.77-2.71-5.58-4.18a30.76,30.76,0,0,1-6.56-6.89c-.66-1-1.56-1.89-2.3-2.87C61.39,93.31,60.73,92.08,60,91c-1.23-1.72-1.64-3.77-2.22-5.83l-1-3.69a15.94,15.94,0,0,1-.08-5.58A20.32,20.32,0,0,1,57,73.7l.74-3a5.23,5.23,0,0,0,.16-.57c-2,1.48-4.27,13.78-3,16.49.08-.9.16-1.56.25-2.3h.33v1.81c1.15,1,.66,2.46,1.15,3.69a3.55,3.55,0,0,0,.41.08c.16.74.33,1.39.49,2.22.33-.16.57-.33.9-.49.57,1.81.08,3.94,1.72,5.58.08-1.15-.66-2.3-.16-3.36.66,2.54.57,5.33,2.79,7.22-.16-1.07-.25-2.22-.41-3.28.08,0,.25-.08.33-.08.08.25.25.41.25.66A15.74,15.74,0,0,0,64.91,105a7.5,7.5,0,0,0,1.72,1.89c-.74-1.89-1.72-3.69-1.72-5.83,0-.08.16-.25.16-.33.66,1.89,1.31,3.86,2.05,5.66a9,9,0,0,0,4.1,4.27c-1.15-2.38-2.22-4.68-3.36-7.06a1.13,1.13,0,0,1,.33-.25,2.83,2.83,0,0,1,.66.74c.57,1.23,1,2.54,1.56,3.69a30,30,0,0,0,2.13,3.45c.08.08.25.16.41.33a28.45,28.45,0,0,1-1.39-3.94c.08,0,.16-.08.33-.08.16.33.33.57.49.9C73,109.72,73.45,111,74,112.1a2.12,2.12,0,0,0,.74.74c-1-1.56-2.05-3.12-2.13-5a.29.29,0,0,0,.16-.08c.08.16.25.33.33.49a14.19,14.19,0,0,0,3,5.42c.25.25.66.33,1,.57a4.3,4.3,0,0,1,.82.9h0A1.22,1.22,0,0,1,77.3,114.89ZM17.82,79.37h-.08c.41.49.82.9,1.23,1.39l-.25.25c-.41-.49-.82-.9-1.23-1.39-.08,0-.16.08-.25.08L19,83.88c-1-1.89-2.87-3-4.1-4.59a.43.43,0,0,1-.33.16c.57,1,1.07,2.13,1.72,3s1.64,1.81,2.54,2.79c-.57-.41-1-.74-1.48-1.15-.08.08-.16.08-.25.16l4.18,6.65-.16.16a3.85,3.85,0,0,0-2.05-1.72c-.82-.41-1.48-1-2.3-1.48,1,1.48,1.64,3.2,3.28,4.18l-1-.25.08-.08c-2.13-1.56-4.27-3.2-6.65-4.92a15.08,15.08,0,0,0,5.83,6.73c-.08.08-.08.16-.16.16-.49-.33-.9-.66-1.39-1,.08.9,2.22,3.36,2.87,3.53a10,10,0,0,1,1,1.56c.41.82.66,1.64,1.07,2.46a2.54,2.54,0,0,0,2,1.23c-.57-1.23-1.07-2.38-1.64-3.45a.29.29,0,0,0,.16-.08c.33.66.74,1.31,1.07,2,.25.41.49.82.74,1.31.33.82,1.15.74,1.72,1.07l.16-.16c-.49-.82-1-1.56-1.39-2.38.08,0,.08-.08.16-.08,1.15,1.07,2.22,2.22,3.36,3.28l.16-.16c-1-1.89-1.89-3.69-2.87-5.58a9.59,9.59,0,0,1-1.56-4.43,1,1,0,0,1,.16-.66c.25.74.41,1.48.66,2.22a14.54,14.54,0,0,0,1.23,2.54c.57,1.23,1.23,2.38,1.89,3.53a33.21,33.21,0,0,0,1.89,2.79,25.53,25.53,0,0,0,1.89,2.3,19.46,19.46,0,0,0,4.1,3.69,18.91,18.91,0,0,0,6.89,2.54c1.39.16,2.79,0,4.18.08a12.87,12.87,0,0,0,5.25-1.15c1.39-.49,2.79-1.15,4.18-1.72a2.26,2.26,0,0,0,.74-.57,2.22,2.22,0,0,0-2.46.25c-.9.66-2,.49-2.87.82a29.33,29.33,0,0,1-2.87.82c-.57-.74-1.31-.25-2.05-.16H43.42c0,.08-.08.08-.08.16.33.16.57.25.9.41-.08.08-.16.25-.25.33-.25-.08-.49-.08-.57-.16-1.07-1-2.46-.74-3.69-.9a15.32,15.32,0,0,1-4.92-1.72c-.08,0-.08-.16-.08-.33a8,8,0,0,0,5.66,1.23c-1.23-1-2.38-1.89-3.53-2.79a.08.08,0,0,0-.08.08c.49.66,1,1.31,1.48,2.05a.62.62,0,0,1-1,.16,23.5,23.5,0,0,0-4.76-3.77.64.64,0,0,0-.08-.25c.49.16.82.33,1.39.49-1.56-2.3-4.18-3.2-5.66-5.33l.16-.16c.49.41,1,.74,1.56,1.23-1.23-2.38-3.36-3.86-4.43-6.15,1.31,1.39,2.46,2.87,3.86,4.18s2.63,2.71,4.51,3.36a1.72,1.72,0,0,0-.33-.49c-.66-.82-1.23-1.64-2-2.46-.9-.9-1.89-1.72-2.79-2.63a18.19,18.19,0,0,1-3.86-4.76,6.66,6.66,0,0,1-.25-.9h.66c.66,2.3,2.3,3.69,3.69,5.25.08,0,.08-.08.16-.08-.66-.9-1.23-1.72-1.89-2.63l.16-.16c.25.16.41.25.66.41-2-3.61-4.27-7.06-5.09-11.16a9.47,9.47,0,0,0,4.18,5.25,15,15,0,0,0-1.07-2c-.66-1-1.48-1.89-2.22-2.87a9,9,0,0,1-.66-1.23c-.08-.08,0-.33,0-.41a.29.29,0,0,0,.16-.08c.25.41.49.9.74,1.31.08,0,.16-.08.25-.08a23.43,23.43,0,0,1-2.3-7.38c.08,0,.25-.08.33-.08a9.44,9.44,0,0,1,.49,1.39c.25,2.3,1.39,4.35,2.22,6.48.74,2,2.38,3,3.86,4.18,1.23,1,2.46,1.89,3.61,2.87a43.9,43.9,0,0,1-5.74-3.86c.66,1.56,1.31,3.12,3,4a31.86,31.86,0,0,1,3.86,2.63.64.64,0,0,1,.33.33c-.08.08-.08.16-.16.25-1.64-1.07-3.28-2.13-5.09-3.28a3.11,3.11,0,0,0,1.39,2.13c2.46,1.56,4.92,3.12,7.3,4.76.33.25.74.41,1.07.66a17.56,17.56,0,0,1,1.81-.82l.08.08c-.49.41-.9.74-1.31,1.07-.82.25-1.64.49-2.63.74.9.57,1.72,1,2.54,1.48v.16c-.33-.08-.66-.16-1.15-.33a12.15,12.15,0,0,0,.66,1.07c.66-.33,1.23-.57,1.81-.82a4.78,4.78,0,0,1-.41-.9c.41.25.57.41.9.57a24,24,0,0,0,5.5-4.1c-.08.9-2.46,3-5.33,4.51a12,12,0,0,0,1.31,1.56c.74.57,1.15-.57,1.89-.57a4.71,4.71,0,0,1-.33-.57.29.29,0,0,0,.16-.08c.33,0,.66.16.9,0a24.05,24.05,0,0,0,6.56-5.25,12.94,12.94,0,0,0,.82-1.31,2.46,2.46,0,0,1-.82,2c-1.56,1.39-3.2,2.79-4.92,4.35.16.08.41.33.74.57,1.39-1.15,2.79-2.22,4.1-3.36a20.48,20.48,0,0,0,1.89-1.89c1.48-1.31,1.64-2.87,1.07-4.76a24.5,24.5,0,0,1-.9-8.12,45.22,45.22,0,0,1,.49-5.83,36.89,36.89,0,0,1,1.39-4.92,9.85,9.85,0,0,1,2.05-3.61,4.11,4.11,0,0,1,.57-.66c-.08-.16-.16-.41-.33-.74a3.47,3.47,0,0,1,.57.41c1.15-.82.66-1.31-.08-2.22a10.72,10.72,0,0,0-1-.9c.66-.08.66-.08,2.13,1.64.41-.33.82-.74,1.31-1.15a19.57,19.57,0,0,0-3.77-3.12c.57-.25,2.13.74,4.1,2.71.16-.08.33-.25.57-.41a7.74,7.74,0,0,1-.74-.25c.16-.16.25-.33.41-.49C59.5,61,57,59.67,54.66,58a1.6,1.6,0,0,1,.66.08c2.13,1.31,4.35,2.54,6,4.51a4.88,4.88,0,0,1,.49,1.31c1-.57,2.13-1.15,3.45-1.81-.74-.82-1.39-1.56-2.13-2.3-.08.08-.16.08-.16.16v.41A7.26,7.26,0,0,0,62,59a7.81,7.81,0,0,0-1.72-1.15,36.5,36.5,0,0,0-8.53-5.58.3.3,0,0,1,.08-.25,2.91,2.91,0,0,1,.9.25c2.05,1.23,4.1,2.54,6.15,3.86a6.11,6.11,0,0,1,1,.74c.08-.16.08-.25.16-.33.41,1.15,1.48,1.64,2.46,2.46,0-.74-.08-1.31-.74-1.64a13.68,13.68,0,0,1-1.31-1c-.08-.08-.33.08-.49.16-.08-.9-.9-1.15-1.48-1.56-2.22-1.56-4.51-3-6.81-4.51a21.65,21.65,0,0,0-2.38-1.23,1.72,1.72,0,0,1-.49-.33c0-.08,0-.16.08-.16a1.6,1.6,0,0,1,.66.08c1.31.74,2.54,1.39,3.77,2.13.9.57,1.81,1.23,2.79,1.81-.25-1-.25-2.13-1.23-2.79s-2.13-1.39-3.28-2.13c.08.57.08,1,.16,1.39a.3.3,0,0,0-.25.08,5,5,0,0,0-.25-1.07,2.24,2.24,0,0,0-.74-1c-1.39-.82-2.79-1.56-4.27-2.3-.41-.25-.9-.66-1.48-.25a1.39,1.39,0,0,1-.41-.16c.74-.57.08-1-.08-1.39-.41-.9-1-1.72-1.56-2.79-1.89-.16-4.1-.33-6.4-.57a5.1,5.1,0,0,0,.82-.25c.25-.08.49-.08.74-.16a10.3,10.3,0,0,1,6.48.25,10.05,10.05,0,0,0,1.56.16.54.54,0,0,1,.49-.08,16,16,0,0,1,1.81.66l5.42,2.71c1,.49,1.81,1.23,2.79,1.72a5,5,0,0,0,1.07.25c.08-.08.08-.16.16-.25.16.25.25.41.41.66.08-.08.08-.16.16-.25a6.43,6.43,0,0,1,1.23.82c.74.82,1.31,1.72,2.05,2.71,1.31,0,1.64,1.31,2.22,2.3a24.19,24.19,0,0,1,1.39,3.36c.49,1.31.9,2.54,1.56,4.18.08.57.16,1.48.25,2.54.33.16.74.33,1.15.49l.25-.25c-.25-.74-.41-1.56-.66-2.3-.57-1.56-1.07-3-1.72-4.59a22.39,22.39,0,0,0-3.2-5.83,25.19,25.19,0,0,0-2.38-2.79,36.75,36.75,0,0,0-6.73-5,25,25,0,0,0-6.15-2.54,15.77,15.77,0,0,0-5.91-.49c.08.08.16.16.25.16l3.77,1.23a2.18,2.18,0,0,1,.49.41c-1.72-.57-3.36-1.23-5.09-1.72a6,6,0,0,0-2.38.16,48.18,48.18,0,0,0-4.92,1.31,18.21,18.21,0,0,0-7.79,5.33,21.14,21.14,0,0,0-3.2,6.73,1.32,1.32,0,0,1-.33.57c0-2.3.9-4.43.74-6.73a.3.3,0,0,1-.25-.08c-.49,2.54-1,5.17-1.48,7.71h-.16c.08-.74.08-1.48.16-2.13s.41-1.48-.41-2.38c-.08.66-.08,1.07-.16,1.48l-.25,3a3.84,3.84,0,0,1-.16,1.39,16.44,16.44,0,0,0-.82-2.13.3.3,0,0,0-.25.08,31.78,31.78,0,0,0-.16,7.38c-.16-1-.33-2-.49-2.87h-.16c.08,1.31.25,2.63.33,3.94-.82-2-.08-4.35-1.56-6.15H17c.41,3.28.74,6.56,1.15,9.76a29.37,29.37,0,0,1-.9-2.87c.08-.16.25-.33.25-.41-.25-2-.41-4-1.56-5.83,0-.08-.08-.08-.33-.08A16.14,16.14,0,0,0,16,58a23.82,23.82,0,0,0,1.31,3.36c-.33-.41-.57-.9-.9-1.31-.25.41-.25.9.33,2.63A24.3,24.3,0,0,0,18,65.17c-.08,0-.08.08-.16.08-.16-.33-.41-.57-.57-.9-.08,0-.16.08-.25.08.41.82.82,1.56,1.31,2.46-.25-.16-.41-.25-.82-.49q.62,2.58,1.23,4.68C17.9,70,17,68.78,16,67.47a7,7,0,0,0,2.79,5.66c-.08.08-.16.16-.25.16-.49-.57-1-1.07-1.56-1.72-.41,1.48.82,2.13,1.23,3.12-.25-.16-.41-.25-.82-.49q.12.74.25,1.23c-.74-.82-.33-2.3-1.64-3,.49,2,1,3.86,1.56,5.74A8.28,8.28,0,0,0,17,77a8.39,8.39,0,0,0-1.15-1.81,6.22,6.22,0,0,0,1.56,3.61,1.6,1.6,0,0,0,.08-.57C17.66,78.87,17.74,79.12,17.82,79.37Zm104.36,3.2a35.73,35.73,0,0,0-3.36-9.11c-1-1.81-1.89-3.69-3-5.5-.41-.74-1.07-1.31-1.48-2.05a27.38,27.38,0,0,0-4.1-4.59,19.08,19.08,0,0,0-5.09-3.77A64.3,64.3,0,0,0,97.57,54a19.44,19.44,0,0,0-8.94-.9,30.15,30.15,0,0,0-5,1.72,17.2,17.2,0,0,0-4.59,3,7.38,7.38,0,0,0-2.3,2.71c-.49,1.23-1.64,1.39-2.79,1.48-1.39.08-2.71.08-4.1.16A13.74,13.74,0,0,0,63.6,64a9.16,9.16,0,0,0-4.76,5.83c-.33,1.23-1.07,2.3-1.23,3.53A49.09,49.09,0,0,0,57,79.45a13.27,13.27,0,0,0,1,5c.49,1.39.9,2.87,1.39,4.27.33.9,1,1.72,1.39,2.63a33.09,33.09,0,0,0,4.43,6.24c1.31,1.48,2.54,3,3.94,4.51a19.93,19.93,0,0,0,2.46,2.13c1.31,1.07,2.71,2.05,4.1,3a22.76,22.76,0,0,0,3,1.81c1.64.82,3.36,1.64,5.09,2.38.9.41,1.81.74,2.71,1.07A40.43,40.43,0,0,0,91,114.07a65.71,65.71,0,0,0,7.88,1.31,20.58,20.58,0,0,0,7.06-.57c1.39-.41,2.79-.57,4.1-1.07a45.47,45.47,0,0,0,4.84-2.63c.49-.25.74-.9,1.15-1.31a19.62,19.62,0,0,0,1.81-1.89,23.2,23.2,0,0,0,2.38-3.86,39.79,39.79,0,0,0,2.38-6.15,37,37,0,0,0,.74-4.84A56.32,56.32,0,0,0,122.18,82.57ZM3,66.24c-.49,1.64-1.07,3.2-1.39,4.84a41.75,41.75,0,0,0-.33,4.59h.33c.08-.82.08-1.64.16-2.46h.08c.33,3,.66,5.83,1,8.78h.25V78.63h.16a8.86,8.86,0,0,1,.25,1.56,20.69,20.69,0,0,0,2,8.61c.25.41.33.9.57,1.39a.67.67,0,0,0,.41.41A31.3,31.3,0,0,1,5,79.94c.66,4.68.82,9.52,4.1,13.46A5.22,5.22,0,0,0,8,90.52a8,8,0,0,1-1.39-3.77c.74.33.57.9.74,1.31s.33.9.49,1.31c.08,0,.25-.08.33-.08C7.73,88.06,7.4,86.83,7,85.6c.74-.9,0-1.64-.25-2.54.25.25.57.41.74.74.74,1.89,2.38,3,3.77,4.27.66.57,1.31,1.23,2,1.81a1.65,1.65,0,0,0,.66.33c-.49-.82-1-1.64-1.39-2.46a10.61,10.61,0,0,0-2.71-3,8.75,8.75,0,0,1-2.71-3.61c.9.25.82,1.07,1.23,1.48s.82,1,1.31,1.48.9.82,1.48,1.31a.62.62,0,0,1,.16-.33c1.81,2.13,4.1,3.61,6.24,5.33l.16-.16-.25-.49a18.1,18.1,0,0,0-4.76-4.92C11,83.39,9.21,82.07,8.22,80a.61.61,0,0,1-.08-.41c1,1.15,2,2.3,3,3.36a30.57,30.57,0,0,0,3.53,3,7.54,7.54,0,0,0-1.64-2.54A13.6,13.6,0,0,1,9.45,79.2a1.52,1.52,0,0,1-.16-.57L12.9,83c.08-.08.16-.08.25-.16-.66-1.72-.57-3.69-2.05-5.17.57,0,.49,0,1.81,1.81a7.15,7.15,0,0,0,2.05,1.72c-1.23-2.13-2.46-4.27-3.69-6.32.41,0,.41,0,.82.82.25.41.49.74.66,1.07.08,0,.16-.08.25-.08-.16-.57-.33-1.23-.49-1.81.08,0,.16-.08.33-.08a14.14,14.14,0,0,1,.57,1.72,4.35,4.35,0,0,0,1.56,2.71c.82.82,1.72,1.64,2.63,2.46-.25-.57-.49-1.31-.82-2-.66-1.23-1.39-2.38-2.05-3.61s-1.07-2.3-1.64-3.45c-.16-.25-.25-.57-.41-.82-.66-1-1.23-1.89-1.89-2.87a1.19,1.19,0,0,1-.16-.57c.08,0,.16-.08.25-.08.57.9,1.07,1.89,1.72,2.79a21.38,21.38,0,0,0,2.22,2.54c-.25-1.15,0-2.38-.82-3.45a20.58,20.58,0,0,1-2.13-3.69.61.61,0,0,1-.08-.41.29.29,0,0,0,.08-.16c.82,1.39,1.64,2.79,2.54,4.27a1.07,1.07,0,0,0,0-1.56c-.9-1.39-1.81-2.71-2.63-4.18A2.81,2.81,0,0,1,11.42,63a18.87,18.87,0,0,0,2.87,4.76c.08,0,.16-.08.25-.08-.74-2.38-1.39-4.84-2.13-7.22.16,0,.25-.08.41-.08a17.53,17.53,0,0,0,.74,2.79c.41.82,1.07,1.56,1.64,2.46.08-.16.16-.25.08-.25-.49-2-.74-4-1.89-5.83a26.82,26.82,0,0,1-1.15-2.71c.08,0,.16-.08.25-.08.57,1.31,1.23,2.71,1.81,4a.3.3,0,0,0,.25-.08,20.17,20.17,0,0,1-.16-2.3h.08l-1.23-3.69c.08,0,.16-.08.25-.08a3.33,3.33,0,0,1,.41.74c.66,1.81,1.39,3.61,2.05,5.42.08,0,.25-.08.33-.08-.08-.66-.25-1.31-.33-2-.41-2-.9-3.94-1.23-5.91a8.82,8.82,0,0,1,.08-2.54,15.1,15.1,0,0,0,2.38,5.83,6.75,6.75,0,0,0-.49-3.12,26,26,0,0,1-1.56-3.45c.08-.08.16-.08.33-.16.49,1.07,1,2.13,1.39,3.2.74-1.72-.49-3.2-.25-5.09.74.74-.08,2.05,1,2.38.16.9.33,1.64.49,2.46a23,23,0,0,0-.08-8.2.49.49,0,0,0,.33-.08c.33,1.81.74,3.69,1.07,5.5a.3.3,0,0,0,.25-.08c.9-2-.33-3.86-.33-5.74.08,0,.16-.08.25-.08a7.28,7.28,0,0,1,.25,1.15c.08.41.16.82.25,1.39a2,2,0,0,0,.57-.41c-.16-.9-.25-1.72-.41-2.63a5.23,5.23,0,0,1-.57.16l-.16-.16a19.62,19.62,0,0,1,1.81-1.89c.66-.57,1.39-1.07,2.13-1.64-1.31-.41-2-.25-2.54.74S19.63,42.2,19,43.18c-.08-.08-.16-.08-.25-.16l1.72-3.2a4.72,4.72,0,0,1-.82.16c-.82,1.07-1.48,2.05-2.22,3-.08,0-.16-.08-.25-.08.41-.74.82-1.48,1.23-2.3-1.72-.08-2.3,1.07-2.79,2.38a.29.29,0,0,1-.16-.08c.08-.25.08-.41.16-.66a2.4,2.4,0,0,0,.16-.74c-1.72.82-2.05,2.63-3.28,3.86l1.23-2.46c-.08-.08-.16-.08-.25-.16-1.23,1.15-2.38,2.3-3.61,3.53A12.48,12.48,0,0,0,7.4,50.08c-.9,1.89-2,3.61-2.71,5.58a63.75,63.75,0,0,0-2.13,7.47c-.57,2.38-1,4.76-1.39,7.14-.33.33-.33.82-.33,1.48.74-2.38,1.48-4.68,2.13-7H3.3A9.54,9.54,0,0,1,3,66.24Zm44.72-39.3c.74-.16,1.56,0,1.81-.9.82-.25,1.56-.49,2.3-.74l.08.08-.49.49c.49.33,2-.41,2.54-1.23.41.16.9.25,1.48.41a12.27,12.27,0,0,0,1.48-.74v.57c.41-.16.82-.33,1.15-.49s.66-.33,1.07-.57l.16.16c-.16.16-.33.49-.49.57a15.78,15.78,0,0,0-2.05,1c-1.07.74-2.05,1.56-3.12,2.38,1,.49,1.81-.16,2.87-.57a7.74,7.74,0,0,1-.25.74c.57,0,1.15.08,1.64.08a5.42,5.42,0,0,1,1.15.08v.25a1.93,1.93,0,0,0-.66.16v.25a18.5,18.5,0,0,0,2.13,0,9.25,9.25,0,0,0,2-.66c.08.08.16.16.16.25a4,4,0,0,1-.57.25c.66.08,1.23.33,1.81-.16a4.6,4.6,0,0,1,1.64-1c-.41.41-.82.82-1.23,1.31,1.15.33,2-.41,2.87-.9-.16.25-.41.49-.66.82h.66c.74-.66,1.39-1.23,2.05-1.89l.08.08a4.65,4.65,0,0,0-.66,1.07c1.31.49,1.89-.57,2.63-1.31l.16.16c-.08.16-.16.25-.25.41a.88.88,0,0,0-.16.49c1.31-.41,1.48-1.81,2.46-2.46-.41.74-.82,1.39-1.31,2.3,1.81-.25,2-1.81,2.79-2.79a2.92,2.92,0,0,0-.16.82c.82.49.9.41,1.64-1.64-.16-.08-.33-.08-.49-.16,0-.08-.08-.08-.08-.16.33-.08.66-.33.9-.25,1.15.16,1.39-.57,1.64-1.39a5.65,5.65,0,0,1,.25-.66c.08,0,.16.08.25.08-.16.57-.25,1.15-.41,1.72.82,0,1.31-1.15,1.72-3.69.25.33.33.49.57.82.16-.66.25-1.23.41-1.89a8.52,8.52,0,0,0-1.07.33,34.08,34.08,0,0,1-9,2.38c-2,.25-3.86.66-5.83.9-1.72.25-3.36.25-5.09.41-1.07.16-2.13.41-3.2.66-1.48.41-2.87.9-4.35,1.39-1.64.57-3.36,1.07-5,1.72a13.66,13.66,0,0,0-2.3,1.48C46.37,28.09,47.52,27.68,47.69,26.94ZM46.37,31.7c.08.08.08.16.16.25l-1.39.82a14.55,14.55,0,0,0,1.81.08v.25c-.41.08-.82.16-1.15.25l.08.08c-.25.25-.57.49-.82.74v.16c.66-.25,1.23-.41,1.89-.66,0,.08.08.08.08.16-.16.16-.41.33-.57.49C47.36,35,48,34,48.83,34l.25.25-.74.25c1,.57,1.64-.08,2.46-.25a1.6,1.6,0,0,0-.08.57c.25.08.57.08.82.16v.16H49.08c1.56.82,2.87.16,4.35-.08-.25.33-.41.57-.57.82.74.08,1.48.25,2.13.33,1-.74,2.13-.41,3.2-.49a.3.3,0,0,0,.08.25c-.66.08-1.23.25-1.89.33,2.05.9,3.86.25,5.58-1,.08.08.08.25.16.33-.57.41-1.23.82-1.89,1.23,1.81.41,2.71-.82,3.86-1.72.08,0,.08.08.16.08-.25.25-.41.57-.66.82a5.11,5.11,0,0,1-1,.74,1.86,1.86,0,0,0,2.22-.66c.82-.9,1.72-1.72,2.63-2.54,0,.16-.08.41-.08.57,1.48.41,2-.9,2.79-1.72.49.82-.33,1.07-.49,1.48.57.16.57.08,1.15-.74A14.54,14.54,0,0,1,72,31.86c.25,1.07-.66,1.39-.82,2.05a1.56,1.56,0,0,0,1.39-1.15c.41-.57.74-1.07,1.15-1.64L73.53,31a8.08,8.08,0,0,1-1.39.16c-3.12,0-6.24-.16-9.35.08a38.34,38.34,0,0,1-9.19-.82,37.76,37.76,0,0,1-9.44-2.3c-1.15-.49-1.89.41-3,.66,1.07.57,1.64-.33,2.38-.49.08.08.08.16.16.16-.25.16-.57.41-.9.66l2.71.49c-.57.66-1.48.82-2.22,1.39,1,.57,1.72-.33,2.79-.33-.74,1-1.81,1.07-2.63,1.64.08.08.08.16.16.33A9.55,9.55,0,0,0,46.37,31.7ZM81.73,6.43c.33.49.25.9-.41,1-.49.08-1.07.25-1.56.33l-5.42,1c-.9.16-1.72.16-2.63.25a.3.3,0,0,0-.08-.25c.33-.08.66-.25,1-.33l3.86-.74a1.13,1.13,0,0,0,.66-.41c-.66.08-1.39.25-2.05.33A11.35,11.35,0,0,0,68.52,10c-1.56,1.23-3.28,2.3-4.84,3.53a12.51,12.51,0,0,0-1.81,1.81c-1,1.15-2.05,2.22-3,3.36S57,20.87,56.22,22a.29.29,0,0,0,.08.16l2.05-.74c2.46-.82,5-1.64,7.38-2.54,1.64-.66,3.28-1.39,4.92-2.13,1.07-.49,2.13-1.07,3.2-1.64,1.56-.9,3-2,4.51-2.87A18.66,18.66,0,0,0,82.14,8.4,15.54,15.54,0,0,0,83.7,5.93c0-.08-.08-.08-.08-.16C83,5.93,82.39,6.18,81.73,6.43ZM48.18,24.48a1.19,1.19,0,0,0,.66-.74l2.46-4.92A29.36,29.36,0,0,1,53.67,15a44.72,44.72,0,0,1,3.77-4.1,43,43,0,0,1,3.36-3.2c-1.89.16-3.61.25-5.09.41a4.29,4.29,0,0,1-.66.9l3.45-1c.33.49.33.49-.57.9v.57c-.66.33-1.23.66-1.89,1a.29.29,0,0,0,.08.16c-4.59,1.48-7.22,2.54-7.63,3.28.66-.25,1.31-.57,2-.82s1.39-.41,2.05-.66c.33.57-.16.57-.41.74-1.15.41-2.3.82-3.45,1.31-.25.08-.49.41-.74.57,0,.08.08.08.08.16.82-.33,1.72-.74,2.54-1.07l.16.16c-.16.16-.25.41-.41.49-.82.41-1.64.74-2.38,1.07-.25.08-.41.41-.74.74h1.07c-.16.74-1.81.49-1.23,1.48-.49,1.48-1,2.71-1.39,4-.33.16-.74.33-1.23.57a4.16,4.16,0,0,1-.74-.16c0-.08-.08-.08-.08-.16.33-.16.66-.33,1.07-.57,0-.41-.08-.82-.08-1.31.16-.57.49-1.15.66-1.81.25-1,.41-2.05.74-3a22.18,22.18,0,0,1,2.54-4.76,1.44,1.44,0,0,1,.33-.41l-.16-.16a2.93,2.93,0,0,0-.9.82c-1,2.05-2.13,4-3,6.07a58.84,58.84,0,0,0-1.72,6.24,13.52,13.52,0,0,0-.33,2.63C44.57,25.63,46.37,25.05,48.18,24.48Zm31.75-8.61a.29.29,0,0,1,.16.08c1-1.23,1.31-2.79,2.05-4.18a1.79,1.79,0,0,1,.41.25c.41-1.31.9-2.63,1.39-4-.33.08-.41.08-.41.16a27.38,27.38,0,0,1-4.1,4.59,17.55,17.55,0,0,1-5.66,3.77c-1.89.9-3.77,2-5.66,2.87-1.39.66-2.87,1.07-4.35,1.64a5.65,5.65,0,0,0-.66.25v.16c.41,0,.82-.08,1.23-.08,1.56-.16,3.12-.41,4.68-.57a50.35,50.35,0,0,0,8.53-1.56,47.32,47.32,0,0,0,4.92-2c-.74-.66-.41-1.07-.25-1.64.33-1,.66-2.05,1-3.12-.08,0-.16-.08-.25-.08-.49,1.31-1,2.63-1.48,4.1-.33-.33-.57-.49-.66-.57-.33.25-.66.57-1.07.9l-.33-.66c-.66.41-1.23.82-1.89,1.31l-.25-.25c.82-.74,1.64-1.48,2.46-2.13l.16.16C80,15.37,79.93,15.62,79.93,15.86ZM52,20.7A6.84,6.84,0,0,0,50.8,21c-.41.9-.9,1.89-1.48,3,.74-.16,1.23-.25,1.81-.41a19.49,19.49,0,0,0,3.12-.9,5.78,5.78,0,0,0,1.56-1.31c.82-.9,1.64-1.89,2.46-2.87,1.15-1.31,2.22-2.71,3.45-3.86a56.9,56.9,0,0,1,4.76-4.1C67.62,9.71,68.93,9,70.25,8H68c0,.08,0,.16.08.16A6.19,6.19,0,0,1,67,8.64l-4.43,1a2.33,2.33,0,0,0-.9.66c1.72-.49,3.53-.9,5.25-1.39.25.49.08.66-.33.74a22.5,22.5,0,0,0-6.07,1.81,3.58,3.58,0,0,0-1.23.82c1.56-.49,3.12-.9,4.68-1.39.25.57,0,.66-.41.74-1.81.57-3.61,1.15-5.42,1.81-.25.08-.33.25-.49.49,1.15-.41,2.3-.74,3.45-1.15.08.08.08.16.16.25a2.18,2.18,0,0,1-.49.41c-1.23.49-2.54,1-3.77,1.48a1.39,1.39,0,0,0-.49.49c.66-.25,1.23-.49,1.89-.74.08.08.08.16.16.25a3.57,3.57,0,0,1-.57.49l-2.22,1a5.59,5.59,0,0,1-.57.41h.74c.08.08.08.16.16.16l-1.64,1.15a1.81,1.81,0,0,0,.08.66c-.74.74-2.05.82-2.38,2.13a7.5,7.5,0,0,0,1.15-.57c.33.66-.41.66-.57,1,.57-.16,1.07-.25,1.72-.41,0,.25.08.33,0,.41s-.25.33-.41.33c-1.31.08-2.38,1.31-3.86,1C50.56,21.93,52,21.93,52,20.7ZM5.76,93.23l.16-.16a3.53,3.53,0,0,1,.74.82,36.07,36.07,0,0,0,6.89,9.85.88.88,0,0,1,.16.66c0,.49.16.57.41.49,1,.9,1.89,1.89,2.87,2.63a17.51,17.51,0,0,0,3.45,1.89,26.71,26.71,0,0,0,3.61,1.23,8.64,8.64,0,0,0,3.86.49l-6.4-3-.16.16L23.24,110c-.33.25-.74.33-1.23-.25a13.44,13.44,0,0,1-1.64-2.13,7,7,0,0,0-2.3-1.81c-.08.08-.16.16-.16.25.66.41,1.23.9,1.89,1.39-.9.41-1.39-.16-1.89-.66s-.9-1-1.39-1.56c-.49.49-1,.25-1.39-.16-.9-1-1.89-1.89-2.79-2.87A42,42,0,0,1,7,93.89c-.41-.74-.82-1.56-1.23-2.3-.16.16-.25.33-.41.49-1.48-2.54-1.89-5.33-2.63-8S1.33,78.63.67,76.25a40,40,0,0,0,2.3,13,32.14,32.14,0,0,0,7,11.57C8.71,98.32,6.83,96,5.76,93.23ZM32.67,35.72h.16c-.16-1.15-.41-2.3-.66-3.45.08-.08.16-.08.25-.16.16.16.41.33.66.57-.25-.82-.57-1.56-.9-2.54a3.78,3.78,0,0,1,.82.41c-.08-.33-.16-.66-.25-.9A10.66,10.66,0,0,0,33,28.42c.25.33.33.57.49.82a2.08,2.08,0,0,0,.66.82c-.08-1-.16-2-.33-3,.08,0,.16-.08.25-.08.25.25.49.57.74.82.08,0,.08-.08.16-.08-.33-.9-.74-1.81-1.07-2.63-1-.41-1.15-.25-1.39.66-.16.57-.49,1.15-.66,1.81a18.11,18.11,0,0,0-.66,2.87c-.25,2.13-.41,4.27-.57,6.4A4.84,4.84,0,0,0,30.78,38H31l-.49,1.48c.08.08.16.08.16.16a5.92,5.92,0,0,0,1.64-.74,1.54,1.54,0,0,0,.16-1.23c-.08-.9-.33-1.81-.49-2.71.08,0,.16-.08.25-.08A3.83,3.83,0,0,0,32.67,35.72ZM26,89.38c.66,1.15,1.39,2.38,2.05,3.53a.64.64,0,0,0,.33.33c2.38,1.64,4.84,3.2,7.22,4.84.9.66,1.64-.08,2.46-.25-4.27-2.79-8.78-5-12.22-9.11,1,.08,1.15.82,1.56,1.23s.9.82,1.39,1.23c-.66-2.05-2.63-2.71-3.86-4.1-.08,0-.08.08-.16.08Zm25.52,10.91c1.23-1.15,2.38-2.38,3.61-3.53a1.78,1.78,0,0,0,.08-2.46c-.25.33-.33.66-.57.82-1.48,1.39-2.87,2.79-4.35,4.18a20.32,20.32,0,0,1-2.13,1.56c-.33.25-.41.57-.08.82a7.17,7.17,0,0,0,.82.66l.9-.66a7.62,7.62,0,0,0-.33-1.07,6.66,6.66,0,0,1,.82.74C50.64,101,51.13,100.7,51.54,100.29ZM48.1,35.22c-.08-.08-.16-.16-.25-.16-1.81.25-3.53-.66-5.33-.82C42,34.24,41.45,34,41,34a107.38,107.38,0,0,0,23.88,4.92.85.85,0,0,0,.08-.33c0,.08.08.08.08.16a12.52,12.52,0,0,1,1.31-.9c0-.08-.08-.16-.08-.25a2.91,2.91,0,0,0-.9.25c-1.23.74-2.54.49-3.86.33-1.64-.25-3.28-.57-4.92-.9-1.48-.33-3-.66-4.51-1a3.55,3.55,0,0,1-.41-.08c-1.48.49-2.71-.74-4.1-.66-.08,0-.16-.08-.41-.16A7.94,7.94,0,0,0,48.1,35.22ZM21.27,100.86c0-.08.08-.08.08-.16l-3.2-2.46L18,98.4c.9.82.57,2.38,1.81,2.71a10.06,10.06,0,0,0,.33,1.31,9.15,9.15,0,0,0,1.64,2.22,6.49,6.49,0,0,0,2.3,1,15,15,0,0,0-2.54-3.86v-.08c.08-.08.08-.16.25-.25-.49-.25-1-.41-1.39-.57,0-.08,0-.16.08-.16C20.69,100.78,20.94,100.78,21.27,100.86Zm12.88-1.64c.08-.25.16-.33.16-.41v-.08A7.61,7.61,0,0,0,36,100.29c.66.33,1.23,1.07,2.13,1.07-.41-1.72-1.81-2.22-3-3l-5.5-3.77a4.58,4.58,0,0,0-.66-.41C29.88,96.76,32.34,97.58,34.15,99.22Zm22.07-6.73c-.33-1.72-.57-3.53-.82-5.25h-.16c0,.49.08.9.08,1.39-.25,3.53,1.07,6.65,2.46,9.68.33.74.57,1.39.9,2.13.08.08.08.25.16.33.49-.82-.16-4.51-.57-4.76L57,92.08c-.08,0-.25.08-.33.08.41,1.72.9,3.45,1.31,5.17A10.13,10.13,0,0,1,56.22,92.49Zm5.91-37.82c-.08-.08-.25,0-.25,0L59.5,52.78c-.08.08-.16.08-.25.16a9.49,9.49,0,0,0,.82,2.3A12.26,12.26,0,0,0,62.21,57c-.08-.57-.16-.82-.25-1.23A17.52,17.52,0,0,0,63,57.62a8.57,8.57,0,0,0,1.64,1.23A4.25,4.25,0,0,0,62.13,54.67ZM13,80.35c.33,1.56.49,3,1.89,4,1,.82,1.89,1.72,2.87,2.54a5,5,0,0,1,.49.33C17.82,85.6,14.54,81.09,13,80.35Zm3.45,16.08c.08-.33.16-.41.25-.74.66,2.13,2.63,2.63,4,3.94A3.87,3.87,0,0,0,19.38,97c-1.31-1.07-2.71-2.05-4-3.12a4.3,4.3,0,0,1-.9-.82l-.16.16A36.12,36.12,0,0,0,16.43,96.43Zm1.48-.9A18.84,18.84,0,0,0,11.5,89C12.9,91.92,15.36,93.72,17.9,95.53Zm2.87,8.78c-1.31-2.22-2.38-4.43-4.76-5.66C16.26,100.78,18.8,103.82,20.77,104.31Zm39.05-1.72c1.39,1.64,3,3.45,4.68,5.33.08-.08.16-.08.25-.16-2.71-2.63-3.61-6.24-5.25-9.44C59.17,99.63,60.32,100.86,59.83,102.58ZM12,95.2c.57,2.71,2.63,4.35,4.43,6.07A9.49,9.49,0,0,0,12,95.2ZM17.9,69.44A23.45,23.45,0,0,0,17.08,66,17.36,17.36,0,0,0,15,63,9.45,9.45,0,0,0,17.9,69.44Zm51.77,40.69c1.23,2.38,6.89,7.14,9.11,8C75.66,115.47,72.63,112.76,69.67,110.13ZM56.05,50.9a21.78,21.78,0,0,0,.9,2.46c.33.49,1,.66,1.48,1a6.12,6.12,0,0,1,1,.57C59.42,52.78,57.94,51.72,56.05,50.9ZM18,103.73a4.35,4.35,0,0,0-1.39-.66.29.29,0,0,1,.08-.16c.33.08.66.25.9.33-.74-1.56-2.3-2.13-3.28-3.53.08,1.81,2.79,5,4.68,5.42A6,6,0,0,0,18,103.73ZM45.39,44c0-.08.08-.08.08-.16,1.72.9,3.36,1.81,5.17,2.71-.57-.9-1-1.81-2.05-2.22s-1.89-.9-2.87-1.31c-.25-.08-.49-.16-.9-.33A4.86,4.86,0,0,0,45.39,44ZM33.74,101.44c1.31,2.13,3.53,3,5.66,4.1C38.58,104,34.56,101.11,33.74,101.44Zm31.83-39.3c.57-.16,1.07-.33,1.81-.57-1.56-1.23-3-2.38-4.43-3.53-.08.08-.08.16-.16.16.25,1.56,1.81,2.13,2.71,3.2A2.83,2.83,0,0,0,65.57,62.14ZM8.14,87.73c1.31,1.56,2.54,3.12,3.94,4.59a13.47,13.47,0,0,0,2,1.72,2.73,2.73,0,0,1-.49-.82,12.83,12.83,0,0,0-3-3.36,14.26,14.26,0,0,1-2.05-2.38A4.51,4.51,0,0,0,8,86.75c-.08,0-.16.08-.25.08A9.62,9.62,0,0,1,8.14,87.73ZM34.8,100.21a24.47,24.47,0,0,0-3-2.13,1.29,1.29,0,0,0-1-.08c1,.9,1.31,2.3,2.79,2.63A7.87,7.87,0,0,1,36,102c.08,0,.08-.08.16-.08A5.85,5.85,0,0,0,34.8,100.21ZM55.15,49.58a3,3,0,0,0-1.48-2.3c-1.07-.49-2-1.15-3.12-1.81C51.38,47.78,53.51,48.27,55.15,49.58ZM45.39,42.2c1.07.49,2.13,1,3.28,1.56-.49-1.56-2.05-1.64-3.2-2.3,0-.16.08-.33.08-.49-.57-.16-1.23-.25-2.05-.49.49.82.82,1.48,1.23,2.22A1.39,1.39,0,0,1,45.39,42.2ZM14.21,96.43a8.14,8.14,0,0,0-3.45-4.68C10.93,94.13,12.73,95.12,14.21,96.43ZM52.12,44.91C51,44.41,50.06,43.76,49,43.27c1.07,2.05,3.28,2.63,5.09,3.94A3,3,0,0,0,52.12,44.91ZM35.87,35.47c0-.08-.08-.08-.08-.16-.57.41-1.15.9-1.81,1.39a4.25,4.25,0,0,1,2.46-2.3,3.42,3.42,0,0,1,.16.49,7.21,7.21,0,0,1,.82-.49,4.1,4.1,0,0,0-3.12.08c0,1.23-1.39,2.05-.9,3.53C34.31,37.11,35,36.29,35.87,35.47Zm-5.58,75a2.68,2.68,0,0,0-2.87-1.15c.57.57,1.07,1.15,1.81,1.89.82-.08,1.89-.08,3.12-.16A1.4,1.4,0,0,0,30.29,110.46ZM14.21,94.87c-.08,1.31,2.05,4,3.94,4.76A14.09,14.09,0,0,0,14.21,94.87Zm-3.12,1.89c1,1.89,1.48,4.1,3.53,5.33C13.64,100.12,13.06,98,11.09,96.76Zm47.34-84.1c0-.08-.08-.16-.08-.25h-.57c0-.08-.08-.08-.08-.16,1-.49,1.89-1.07,2.87-1.56,0-.08-.08-.16-.08-.25l-1.81.25c-.08-.08-.08-.16-.16-.25-.9,1.07-1.89,2.05-2.79,3.12.08.08.16.25.25.33A17.22,17.22,0,0,0,58.43,12.66Zm5.91,43.73c.66,1.48.41,3.28,2.22,4A3.41,3.41,0,0,0,64.34,56.39ZM19,104.14a4.38,4.38,0,0,0,3.77,3C22.09,105.46,20.69,104.72,19,104.14Zm33.8-2.87c.9-1.15,2.54-1.72,2.38-3.69-1.07,1-2.13,1.89-3.28,3A4.35,4.35,0,0,0,52.77,101.27Zm2-.57c.08.08.16.08.33.25L57,98.81c-.33-.82-.66-1.56-1.07-2.46-.25.33-.33.57-.49.82.57,1.23.33,2-1,3.2C54.58,100.45,54.58,100.62,54.74,100.7Zm-34.87-11c-.74-2.13-3-2.63-4.43-4.1C16.1,87.82,18.23,88.47,19.87,89.7Zm-6-24.86c.49,1.89.49,3.77,2.05,5.09C15.61,68.21,15.52,66.4,13.88,64.84ZM63.77,52.62c-.25-.16-.41-.25-.66-.41.08,1.31,1.15,2,2,2.71-.74-2-1.39-3.94-3-5.42A5.06,5.06,0,0,0,63.77,52.62ZM16.59,64.35c-.08-1.89-1.15-3.36-1.89-5C14.13,61.48,15.44,63,16.59,64.35ZM58.43,51.8c-.25-2.05-1.89-2.46-3.2-3.45C55.48,50.4,57.12,50.81,58.43,51.8ZM66,108.57c.08-.08.16-.08.25-.16L62.54,103c-.08.08-.16.08-.25.16A15.92,15.92,0,0,0,66,108.57ZM12.24,97c-.66-1.81-1.23-3.45-2.87-4.59A7.89,7.89,0,0,0,12.24,97ZM57.53,49.25c-.33-1.81-1.89-2.22-3.28-3.12A5.18,5.18,0,0,0,57.53,49.25ZM41.7,102.09l.16-.16c-.33-.41-.57-.82-1-1.31-.66.25-1.23.41-1.81.66.82,1.48,1.81,1.89,2.63,1.15-.25-.16-.49-.41-.74-.57a4.69,4.69,0,0,1-.66-.57.29.29,0,0,0,.08-.16A6.85,6.85,0,0,0,41.7,102.09Zm9.44-81.8a1.9,1.9,0,0,0,1.56-1.15c.49-1.23,1.15-2.38,1.72-3.53.08-.08.08-.25.16-.41-.08-.08-.16-.08-.25-.16C53.26,16.76,52.2,18.49,51.13,20.29Zm6.56,28.06c0,1.72,1.64,2.05,2.71,3.12A3.73,3.73,0,0,0,57.69,48.35ZM8.47,93.64a16,16,0,0,0,2.87,5.17C10.6,97,10.11,95,8.47,93.64ZM26.52,106c-.41-1.31-1.48-1.64-2.71-2C24.79,105.95,25.53,106.93,26.52,106ZM77.14,31l.25.25c.25-.41.49-.74.66-1.07-.82.33-1.81.08-2.3,1.23a10.35,10.35,0,0,1-2.05,2.63l-.25.25.16.16A27.94,27.94,0,0,0,77.14,31ZM10.85,88.14c-1-.9-1.81-1.89-2.71-2.87l-.33.33C8.88,87,10,88.31,11.17,89.87A1.5,1.5,0,0,0,10.85,88.14ZM41.7,27.51c-1.81,1-3.77,1.72-5.33,3.2l-.25.25c1.07-.57,2.05-1.15,3-1.64l3.28-1.64C42.11,27.59,41.78,27.43,41.7,27.51ZM8.38,88.8c-.25,1.07.74,3,2.05,3.94C10.6,90.93,9.21,90,8.38,88.8ZM61.14,53.52a3.38,3.38,0,0,0-2.54-2.87C58.52,51.8,58.76,52,61.14,53.52ZM49.33,12.33c2.46-1.07,4.92-2.05,7.38-3.12C55.15,9.3,49.74,11.51,49.33,12.33Zm14.28,43c.16-1.07-.74-2.22-2.3-2.87C61.39,53.77,62,54.59,63.6,55.33ZM25.86,106.85a1.93,1.93,0,0,0,2.63,1.72C28,107.34,26.93,107.1,25.86,106.85ZM80.59,24.48c-.49,1-1.07,2-1.48,3a1.13,1.13,0,0,0,0,.74,13,13,0,0,0,2.38-5.58C81.16,23.16,80.91,23.82,80.59,24.48ZM60.73,104.88c-.33-.41-.66-.82-1.15-1.39-.49.49-.9.9-1.39,1.48.74.33,1.23.57,1.81.82A7.14,7.14,0,0,1,60.73,104.88ZM60.4,49.09s-.08,0-.33.16c.57.49,1.15.9,1.64,1.39.08-.9-1.56-3.36-2.54-3.61C59.58,47.7,59.91,48.35,60.4,49.09Zm-29.45,52.1a10.66,10.66,0,0,0,3.53,3.36C34,102.67,32,102.34,30.95,101.19Zm24.37,0c.33.25.57.49,1.07.82a2.09,2.09,0,0,1-.16-.57h.57c.74-1.31,1.07-1.48.33-2.22C56.46,100,56,100.53,55.32,101.19ZM39.73,35.64c-2.05-.66-2.79,1.15-4,1.81.08.08.08.25.16.33C37.1,37.11,38.33,36.46,39.73,35.64ZM30.46,110c.25-.16.41-.33.66-.49-.82-.82-1-2.3-2.79-2C29.06,108.41,29.8,109.15,30.46,110ZM64.67,36.78c0,.08.08.16.08.33.41-.08,1-.08,1.23-.33a12.89,12.89,0,0,0,1.72-2C66.23,34.65,65.82,36.29,64.67,36.78Zm20.68,82.37c-.08.08-.08.16-.16.25,1.56.74,2.71,2.22,4.59,2.38.08-.08.08-.25.16-.33C88.46,120.72,86.9,119.9,85.34,119.16ZM78.12,28.33l2.22-4.43a.29.29,0,0,1-.16-.08c-1,1.56-1.89,3-2.87,4.68C77.63,28.42,77.8,28.42,78.12,28.33ZM60.57,50.16c-.08,1.56,1.15,2.05,2.3,2.87A4.12,4.12,0,0,0,60.57,50.16ZM18.64,53.6a5.31,5.31,0,0,0-.16-4.18A9,9,0,0,0,18.64,53.6Zm34.21,51.94a8.17,8.17,0,0,0,.9-.82,16.64,16.64,0,0,0-1.48-1.07,10.25,10.25,0,0,1-1,.74C51.87,104.8,52.36,105.21,52.85,105.54ZM56.14,45c.33,1.48,1.81,1.72,2.71,2.54A3.57,3.57,0,0,0,56.14,45Zm56,70.23c.41-.74,1.39-1.07,1.81-2.22-1.31.82-2.38,1.56-3.53,2.3,0,.08.08.08.08.16ZM43.25,26.77a.49.49,0,0,0,.08.33,4.16,4.16,0,0,0,1.07-.16c1.39-.49,2.71-1.07,4.1-1.56,0-.08-.08-.16-.08-.25C46.7,25.63,45,26.2,43.25,26.77Zm5.09,75.89a13.62,13.62,0,0,0-1.15-1.07c-.33.25-.74.49-1.15.82a13.62,13.62,0,0,0,1.15,1.07C47.69,103.16,48,102.91,48.34,102.67ZM70.49,36.78c.82-.66,1.56-1.48,2.38-2.13,0-.08-.08-.16-.08-.25a7.21,7.21,0,0,1-.82.49c-.25.16-.41.25-.66.41l-1,1c-.16.16-.41.33-.57.49V37C70,36.95,70.33,36.95,70.49,36.78Zm-1.81,74.33c.08.25.08.49.16.82q1.72,1.35,3.69,2.71c.08-.08.08-.16.16-.16C71.31,113.41,70.08,112.27,68.69,111.12ZM55.4,103.32a7.4,7.4,0,0,1,.82-.74c-.49-.41-.82-.74-1.23-1.07a8.69,8.69,0,0,0-1,.82A14.5,14.5,0,0,1,55.4,103.32Zm-1.81-.74a7.14,7.14,0,0,0-.9.74,15.77,15.77,0,0,1,1.39,1.07,6,6,0,0,0,.9-.74A9,9,0,0,0,53.59,102.58ZM81.73,18.32c.33,1.81-.74,3.2-1.23,4.84.08,0,.16.08.33.08.57-1.72,1.23-3.45,1.81-5.17-.08-.08-.16-.08-.25-.16C82.14,18.08,82,18.16,81.73,18.32ZM51.38,106.44l.33-.33a2.73,2.73,0,0,0,.25-.49,8.69,8.69,0,0,1-1-.82c-.41.25-.74.49-1.23.82Zm-36.26-35a4.25,4.25,0,0,0,1.39,4.1C16,74.2,15.61,73,15.11,71.49ZM65.74,56.72c-.08-1.15-1.07-1.56-1.81-2.3A2.15,2.15,0,0,0,65.74,56.72ZM44.57,105c-.82-.08-1.39-1-2.38-.33C43.09,105.95,43.58,106,44.57,105ZM14,102.5a4.64,4.64,0,0,0,2.3,2.38A4.1,4.1,0,0,0,14,102.5Zm55.38,8.78.25-.25c-1-1.15-2.05-2.3-3-3.45-.08.08-.25.16-.33.25C67.29,109,68.36,110.13,69.43,111.28Zm21.74,8c0-.08,0-.16.08-.16-.82-.33-1.64-.57-2.63-1,.9,1.07,2.87,2.22,3.77,2.05-.57-.25-1.15-.41-1.72-.66v-.16A1,1,0,0,0,91.17,119.24ZM17.9,54.75c.33-1.23-.25-2.13-.74-3.2A3.19,3.19,0,0,0,17.9,54.75Zm15.75,55.71a6.71,6.71,0,0,0-.74-.66,1.32,1.32,0,0,0-.33.57c1,1.23,2.13.25,3.12.41C35,110,34.39,110.38,33.66,110.46Zm-4.59-3.69a2.63,2.63,0,0,0-2.22-1.56A2,2,0,0,0,29.06,106.77Zm-8.94-58a3.4,3.4,0,0,0,0,3.53Zm26.25,51.77c-.49.25-.9.49-1.31.74.49,1.07.82,1.07,1.89.08A3,3,0,0,0,46.37,100.53Zm-20.18,8.29a10.78,10.78,0,0,1-1.23.41c.9.49,1.81.9,2.63,1.31,0-.08.08-.08.08-.16C27.17,109.89,26.6,109.31,26.19,108.82Zm16.66-6.32c.9.08,1.72.82,2.46-.25a8.65,8.65,0,0,0-.9-.57C44.07,101.85,43.58,102.17,42.84,102.5Zm53.82,19.12c0,.08-.08.16-.08.25.74-.08,1.48-.25,2.22-.33-1.56-.33-3-.57-4.43-.9,0,.08,0,.08-.08.16C95.11,121,95.85,121.29,96.67,121.62ZM46.29,106.19a9.27,9.27,0,0,0-.9.9,1.1,1.1,0,0,0-.41.08c.25.9,1,.74,2.05-.33C46.78,106.69,46.62,106.44,46.29,106.19ZM15.11,76.25c.08,0,.16-.08.25-.08A3.26,3.26,0,0,0,14,73.54c-.08,0-.16.08-.25.08A26.57,26.57,0,0,1,15.11,76.25Zm5.83-29.45a.49.49,0,0,1,.33.08c1.07-.74.08-1.81.33-2.71a.74.74,0,0,1-.41-.08A15.11,15.11,0,0,1,20.94,46.79Zm32.82-1.89c.57,1.15,1.89,1.31,2.79,2.05C56.05,45.64,54.66,45.64,53.76,44.91ZM16.51,72.72a2.86,2.86,0,0,0-1.15-2.46A2.75,2.75,0,0,0,16.51,72.72Zm34,28.88a7.14,7.14,0,0,1,.9.74,7.7,7.7,0,0,0,1-.74c-.25-.33-.49-.57-.74-.9Zm-1.72,1.31c-.41.25-.74.41-1.23.74a11.08,11.08,0,0,1,.9.74c.33-.25.66-.41,1.15-.74A7.4,7.4,0,0,1,48.75,102.91Zm-6.32,3.28-1.31-1.07c-.25.16-.41.25-.66.41C41.45,106.77,41.53,106.77,42.43,106.19Zm48.41,14.93c.08-.16.16-.25.16-.41-1-.49-2-1.07-3-1.56-.08.08-.08.25-.16.33C88.87,120.06,89.86,120.63,90.84,121.13ZM49.08,102.67a7.4,7.4,0,0,1,.82.74,12,12,0,0,1,1.07-.74c-.33-.33-.66-.57-.9-.82A10.42,10.42,0,0,0,49.08,102.67ZM26.44,39.9c-.33,1,.57,1.48.49,2.22h.25c.08-.57.16-1.23.25-1.89A4.63,4.63,0,0,1,26.44,39.9ZM61.3,100.29c-.08.08-.16.08-.25.16.66.9,1.23,1.81,1.89,2.71.08-.08.16-.08.25-.16C62.95,101.85,62,101.19,61.3,100.29ZM63,9.05q2.09-.49,4.43-1A6.73,6.73,0,0,0,63,9.05ZM25.94,40.48c-.49.25-.66,1.72-.41,3.2C26.68,42.69,25.45,41.54,25.94,40.48Zm19.94,65.47c-.49-.74-.74-1-1.89,0C45.22,106.6,45.39,106.6,45.88,105.95Zm-2.79,2.46v.16a12.43,12.43,0,0,1-1.89.16c.74.74,1.56.74,2.71,0C43.5,108.57,43.34,108.49,43.09,108.41Zm9.68-63.67c0-.08.08-.16.08-.25a17.51,17.51,0,0,0-3.45-1.89.29.29,0,0,1-.08.16A36.87,36.87,0,0,0,52.77,44.74Zm2.54.57c-.08-.74-1.31-1.64-2.46-1.81C53.51,44.5,54.49,44.66,55.32,45.32ZM52.77,27.1c0,.08.08.16.08.25,1.39-.33,2.3-1.48,3.61-2,0-.08-.08-.16-.08-.25C55.15,25.79,53.92,26.45,52.77,27.1ZM23,102.67c.33,1.39,1.48,1,2.05,1.48.08-.16.16-.25.16-.33C24.63,103.49,23.89,103.16,23,102.67Zm-.16,3c0,.08-.08.08-.08.16.82.57,1.64,1.15,2.63,1.81C25,106.11,23.65,106.19,22.83,105.7ZM67.7,37.85c-1.07-.08-1.48,1.15-2.46,1.23C66.56,39.49,67,38.51,67.7,37.85Zm-18.3,67.52c.41-.33.74-.57,1.23-.9a7.22,7.22,0,0,1-.82-.49,12,12,0,0,1-1.07.74ZM57,104.23c1,.74,1.31.74,1.48-.25a7.22,7.22,0,0,0-.82-.49A5.31,5.31,0,0,0,57,104.23ZM42.84,33.83c1,.49,1.72-.08,2.63-.41C44.4,32.93,43.66,33.42,42.84,33.83ZM22.58,42.69c-.82.33-.9,1.23-.41,2.3h.25A20.17,20.17,0,0,0,22.58,42.69Zm35.2,58c-.25.33-.41.74-.66,1.15l1,.49C58.84,101.6,57.94,101.27,57.78,100.7Zm-25.19,8.78c-.66-.66-1.23-1.31-2-2.05C30.7,108.41,31.77,109.64,32.59,109.48Zm26.75-60.8A5.62,5.62,0,0,0,57.12,47C57.37,48.11,58.6,48.11,59.34,48.68ZM46.29,108c0,.08,0,.16.08.16.66-.08,1.31-.08,2-.16,0-.08,0-.08.08-.16-.33-.25-.57-.49-.9-.74C46.95,107.51,46.62,107.75,46.29,108Zm-1.48-4.84c.66.33,1.23.57,1.81.82a.43.43,0,0,0,.16-.33c-.33-.33-.74-.66-1.15-1.07A3,3,0,0,1,44.81,103.16ZM54.17,105a8.17,8.17,0,0,0-.9.82,4.51,4.51,0,0,1,.74.57l1-.74A4.73,4.73,0,0,0,54.17,105ZM72.79,29c1.07.16,1.31-.57,1.81-1.23C73.61,27.68,73.28,28.33,72.79,29ZM52,103.49a4.11,4.11,0,0,0-.66-.57c-.33.25-.66.41-1.07.74a7.22,7.22,0,0,1,.82.49ZM53.67,102c.33-.33.66-.57,1-.9a3.57,3.57,0,0,1-.57-.49,14,14,0,0,1-1.15.9C53.26,101.76,53.51,101.85,53.67,102Zm24-77.94c-.74-.33-.74-.33-1.23,1.56C77.39,25.38,77.22,24.48,77.71,24.07Zm-2.38,4.51c1-.16,1.07-1.07,1.56-1.64C76,27.1,75.83,28,75.33,28.58ZM42,106.93a12,12,0,0,0,1.07.74c.16-.08.41-.25.74-.41C43.17,106.6,42.68,106.36,42,106.93ZM76.81,116l.33-.33L75,113.58l-.25.25C75.5,114.56,76.15,115.3,76.81,116ZM57.2,103.16l-.74-.49a8.17,8.17,0,0,1-.82.9,9.62,9.62,0,0,1,.9.41A2.08,2.08,0,0,0,57.2,103.16ZM35,37.28c0,.08.08.08.16.16.74-.57,1.48-1.15,2.22-1.81-.08-.08-.08-.16-.16-.25A6.19,6.19,0,0,0,35,37.28ZM49.49,42c0,.08-.08.16-.08.25.9.41,1.72.82,2.63,1.23,0-.08.08-.16.08-.25A9.63,9.63,0,0,0,49.49,42ZM54.91,15.7c.57-.41,1.15-.74,1.72-1.15,0-.08-.08-.08-.08-.16C55.23,14.55,55,14.8,54.91,15.7Zm.41,89.43c.25-.25.49-.41.82-.74-.33-.25-.57-.33-.74-.49a4.29,4.29,0,0,1-.9.66C54.82,104.8,55.07,105,55.32,105.13Zm-30.52-2.54a2.27,2.27,0,0,0,2.05,1.07C26.44,102.75,25.61,102.83,24.79,102.58Zm27.57.49a7.14,7.14,0,0,0,.9-.74c-.25-.25-.41-.33-.66-.57-.33.25-.57.41-1,.74A8,8,0,0,1,52.36,103.08Zm-13.78,2.79c-.08.08-.08.25-.16.33.74.33,1.39.66,2.13,1,.08-.08.08-.25.16-.33C40,106.52,39.23,106.19,38.58,105.87ZM42,29.65c-.49.33-.9.66-1.39,1,.57.25.57.25,2.05-.74A3.38,3.38,0,0,0,42,29.65Zm7.79,78.44c.57.82,1.07.82,1.81.16V108A13.91,13.91,0,0,0,49.82,108.08ZM71,29.07c1,.25,1.07.16,2-.82-.08-.08-.08-.16-.16-.25C72.22,28.33,71.72,28.66,71,29.07ZM41.37,103.24c.66.16,1,.82,1.89.49C42.43,102.83,42.11,102.75,41.37,103.24Zm35-74.74c.57-.08,1.31-1,1.72-2.22L78,26.2C77.39,26.94,76.89,27.68,76.32,28.5Zm-51,79.83a.43.43,0,0,0,.16-.33c-.57-.41-1.23-.82-1.81-1.15a1.13,1.13,0,0,0-.25.33C24.06,107.59,24.71,108,25.29,108.33Zm2.54-3.61c-.57-.25-1.23-.57-1.89-.9A1.53,1.53,0,0,0,27.83,104.72Zm29.7.49c-.33-.25-.66-.41-1-.66,0,.41-.08.74-.08,1.07a4,4,0,0,0,.57.25C57.2,105.62,57.37,105.46,57.53,105.21ZM55.07,25.38c-1.15-.41-1.48.57-2.13.66.08.16.08.25.16.33A21.75,21.75,0,0,1,55.07,25.38ZM24.79,41.46c-.82.16-.82.25-.49,1.64a.3.3,0,0,1,.25.08C24.63,42.53,24.71,42,24.79,41.46Zm-.74,2.13c-.74.33-.9.82-.49,1.89C23.73,44.82,23.89,44.25,24.06,43.59ZM36.77,26.12v.74l1.81-2.05-.16-.16C37.92,25.13,37.35,25.54,36.77,26.12Zm40.94-.9c.74-.08.82-.82,1.31-1.39C77.88,23.74,78.12,24.81,77.71,25.22Zm-39.46-2.3c-.08,0-.16-.08-.33-.08A22.75,22.75,0,0,1,37.1,25c.08,0,.25.08.33.08C37.76,24.31,38,23.57,38.25,22.92Zm11.24,4.68c0-.08-.08-.16-.08-.25l-1.64.25v.25l1,.25A5.76,5.76,0,0,0,49.49,27.59ZM67.54,38.75c.08.08.08.16.16.25.66-.41,1.23-.74,2-1.23C68.44,37.44,68.2,38.34,67.54,38.75ZM48,106.52c.33,1,1.07,1.31,1.64.82ZM38.74,31.78c.9.49,1.23-.16,1.89-.57C39.73,30.88,39.32,31.53,38.74,31.78Zm29.13,3.86c.08.08.08.16.16.25.49-.25,1-.57,1.56-.82-.08-.08-.08-.25-.16-.33C68.61,34.57,68.36,35.31,67.87,35.64ZM41.78,30.88c.9.33,1.07.33,2.22-.74C43.09,30.06,42.6,30.71,41.78,30.88Zm7,75.4c.66.33,1.15.57,1.72.82C50,106.19,49.41,105.95,48.75,106.28ZM12.9,102.09c.08-.08.16-.08.25-.16-.41-.66-.9-1.31-1.31-1.89-.08.08-.16.16-.25.16C12,100.86,12.41,101.44,12.9,102.09Zm26.91,1.48a.62.62,0,0,0,.16-.33c-.66-.41-1.31-.74-1.89-1.15,0,.08-.08.16-.08.25C38.58,102.75,39.23,103.16,39.81,103.57Zm9.11,4.92a13.42,13.42,0,0,1-1.81.16C47.85,109.39,48.1,109.31,48.92,108.49Zm-4.51-5.09c-.08.08-.08.16-.16.25.41.41.82.9,1.48.74,0-.08.08-.16.08-.25C45.39,103.9,44.9,103.65,44.4,103.41ZM51,9.38l-2.05.9C49.65,10.61,50.39,10.28,51,9.38ZM73,29.81c-.9-.33-1.31.16-1.72.66.08.08.08.08.08.16C72,30.3,72.54,30.06,73,29.81ZM52.77,106a1.92,1.92,0,0,1-.57.57.29.29,0,0,0,.08.16h1.23v-.25A1.94,1.94,0,0,1,52.77,106ZM43.25,32.19c-.66-.66-1.07-.49-1.48,0a.3.3,0,0,0,.08.25A7,7,0,0,0,43.25,32.19Zm8-5.5c0-.08-.08-.25-.08-.33-.57.16-1.07.25-1.64.41,0,.16.08.25.08.41C50.06,27,50.64,26.86,51.21,26.69ZM36.28,105.95c.08-.08.16-.16.25-.16-.57-.66-1.15-1.23-1.72-1.89l-.16.16ZM22.5,101.68c-.08.08-.08.16-.16.25.66.25,1.23.57,1.89.82.08-.08.08-.25.16-.33C23.73,102.17,23.07,101.93,22.5,101.68ZM54.08,9.38A.29.29,0,0,0,54,9.22c-.9.33-1.81.66-2.71,1.07.08.08.08.16.16.16A25.06,25.06,0,0,1,54.08,9.38ZM84.28,4.79A7.59,7.59,0,0,1,84.69,4l-.16-.16c-.49.33-1,.66-1.39,1l.08.08A5,5,0,0,0,84.28,4.79ZM51,27.84c-.74-.33-.82-.33-1.64.33,0,.08.08.16.08.25C50.06,28.25,50.47,28,51,27.84ZM40.38,32c0,.08.08.16.08.25a9.12,9.12,0,0,0,1.31-.57c0-.08-.08-.16-.08-.33C41,31.2,40.79,31.78,40.38,32Zm34.54-2.54a1.42,1.42,0,0,1-.33-.25c-.08.16-.25.33-.33.49a.29.29,0,0,0,.08.16l1.72-.49c0-.08-.08-.25-.08-.33A4.12,4.12,0,0,1,74.92,29.48ZM41.7,33.09c0-.08-.08-.25-.08-.33-.49.16-.9.25-1.39.41.08.16.08.25.16.41C40.79,33.42,41.29,33.26,41.7,33.09ZM18.48,56.23h.33c-.08-.57-.08-1.23-.16-1.81h-.33C18.39,55,18.39,55.57,18.48,56.23ZM74.76,26.12a6.12,6.12,0,0,0-.57,1l.16.16a12.42,12.42,0,0,0,1.15-.74A1.94,1.94,0,0,1,74.76,26.12ZM13.39,104.39h0a17.91,17.91,0,0,0-1.72-1.81l-.08.08C12.24,103.24,12.82,103.82,13.39,104.39Zm7.79-61.62c-.66.41-.9.82-.33,1.48C20.94,43.84,21.1,43.27,21.18,42.77ZM45,21.77a1.6,1.6,0,0,0,.66-.08c.08-.41.08-.82.16-1.23-.08,0-.16-.08-.25-.08A10,10,0,0,1,45,21.77Zm-5.83,82.37c.57,1,.9,1.15,1.48.74A12.34,12.34,0,0,0,39.15,104.14Zm43-90.74a.29.29,0,0,1-.16-.08c-.25.66-.49,1.23-.74,1.89.08,0,.25.08.33.08C81.73,14.71,81.9,14.06,82.14,13.4ZM48.92,12.25l-.16-.16c-.66.08-.82.74-1.07,1.23l.16.16C48.26,13,48.59,12.66,48.92,12.25Zm-3,92.47c.57.25.9.74,1.56.41C46.95,104.72,46.62,104.31,45.88,104.72ZM63.77,8.07V7.9c-.49-.08-1-.08-1.48-.16,0,.08,0,.08-.08.16a3.47,3.47,0,0,0,.57.41C63.19,8.23,63.44,8.15,63.77,8.07ZM51.21,26.94c0,.08.08.25.08.33a6.84,6.84,0,0,0,1.23-.33c0-.16-.08-.25-.08-.41C52,26.69,51.62,26.77,51.21,26.94Zm15.42,9.68c.82.25,1.31.08,1.56-.66A14.92,14.92,0,0,0,66.64,36.62ZM43.17,33.34c0-.08-.08-.25-.08-.33-.41.16-.9.25-1.31.41.08.16.08.25.16.41Zm21.25-3.45a.49.49,0,0,0-.08-.33l-1.39.25a.49.49,0,0,0,.08.33A4.17,4.17,0,0,1,64.42,29.89Zm9.85-1.07c1-.16.9-.9,1.31-1.31-.08-.08-.16-.08-.16-.16C75.09,27.76,74.76,28.25,74.27,28.83Zm4.51.25a.43.43,0,0,1-.16-.33,12.15,12.15,0,0,1-1.07.66,1.79,1.79,0,0,1,.25.41A7.7,7.7,0,0,1,78.78,29.07ZM21.43,48.52a.49.49,0,0,1,.33.08c.08-.57.16-1.07.25-1.64a.62.62,0,0,1-.33-.08C21.59,47.45,21.51,47.94,21.43,48.52ZM61.88,8.72c0-.08-.08-.16-.08-.33-.49.16-1,.41-1.48.57,0,.08.08.16.08.25A6.23,6.23,0,0,0,61.88,8.72ZM47.6,105.29a.3.3,0,0,1-.08.25c.33.25.66.66,1.15.33a.62.62,0,0,1,.08-.33A2.9,2.9,0,0,1,47.6,105.29ZM37.76,32.44v.25h1.07a1,1,0,0,0-.08-.49C38.5,32.27,38.09,32.35,37.76,32.44Zm1.56-10.26c-.08-.08-.16-.08-.25-.16-.25.41-.49.9-.74,1.31.08.08.25.08.33.16C38.91,23.08,39.07,22.67,39.32,22.18Zm41.6,97.22a.29.29,0,0,1,.08-.16,19.63,19.63,0,0,1-1.72-1.07c0,.08-.08.16-.08.25Zm12.72,2.46h1.15c0-.08,0-.08.08-.16-.41-.16-.74-.33-1.23-.57ZM68.77,36.13c.08.08.08.16.16.33.41-.25.74-.41,1.15-.66-.08-.08-.08-.25-.16-.33A5.23,5.23,0,0,1,68.77,36.13Zm-14.85-7.3v-.25c-.49,0-.9-.08-1.39-.08v.33ZM60.24,10c-.08-.25-.25-.41-.33-.66-.25.25-.57.49-.82.74a.29.29,0,0,0,.08.16C59.5,10.2,59.83,10.12,60.24,10Zm-4.68,6.07c-.08-.08-.08-.16-.16-.25-.41.25-.82.49-1.15.74a1.13,1.13,0,0,1,.25.33A5.27,5.27,0,0,1,55.56,16.11ZM34.15,32.85c.08.08.16.08.16.16.41-.41.74-.9,1.15-1.31-.08-.08-.16-.08-.16-.16A16.43,16.43,0,0,0,34.15,32.85ZM22.91,41.79a8.17,8.17,0,0,0,.82-.9c-.08-.08-.16-.16-.25-.16C23.07,40.8,22.58,40.89,22.91,41.79Zm22.32,66.79c0,.08-.08.16-.08.33.41.16.74.33,1.15.49,0-.08.08-.16.16-.33Zm-5-75.73c0-.08-.08-.25-.08-.33-.33.08-.74.25-1.07.33,0,.16.08.25.16.41A5,5,0,0,1,40.22,32.85ZM24.38,44.74c.08.08.16.08.33.16.16-.41.33-.74.49-1.15-.08-.08-.25-.08-.33-.16C24.71,43.92,24.55,44.33,24.38,44.74Zm86.48,71.38V116h-1.64v.16ZM22.17,42.28c.08-.33.16-.57.25-.9-.08,0-.08-.08-.16-.08-.16.16-.41.33-.66.57C21.84,42,21.92,42.12,22.17,42.28Zm16.41-7.47v-.25H37.51v.33C37.92,34.9,38.25,34.81,38.58,34.81Zm-.66-1.48V33a4,4,0,0,1-1-.08v.33A4,4,0,0,0,37.92,33.34Zm2.46,74.5c0,.08-.08.16-.08.33a4.63,4.63,0,0,1,1,.33.49.49,0,0,1,.08-.33C41,108.08,40.71,107.92,40.38,107.84Zm30.6-73a4.71,4.71,0,0,0-.57-.33c-.16.25-.33.41-.49.66l.16.16C70.33,35.14,70.58,35.06,71,34.81ZM55.32,107.18c.41-.33.74-.57,1.07-.82C55.81,106.19,55.64,106.28,55.32,107.18Zm.16-78.76v.25c.41.08.82.08,1.23.16v-.25C56.3,28.5,55.89,28.5,55.48,28.42Zm-7.55-.08c0,.08,0,.16-.08.16.49.16,1,.25,1.48.41,0-.08.08-.16.08-.25A9.54,9.54,0,0,1,47.93,28.33Zm-9.35,79c.08-.08.08-.16.16-.25a7.22,7.22,0,0,0-.82-.49c-.08.08-.08.16-.16.25C38,107,38.33,107.18,38.58,107.34Zm-3.28-1.07.16-.16c-.16-.25-.41-.57-.57-.82-.08.08-.16.16-.25.16A3.21,3.21,0,0,0,35.3,106.28ZM46.95,14.63c.08.08.16.16.16.25.25-.25.49-.41.74-.66L47.6,14A5,5,0,0,1,46.95,14.63ZM71.4,36.78l.16.16,1.23-1-.08-.08A7.44,7.44,0,0,1,71.4,36.78Zm-26.83,71.3a.3.3,0,0,1,.08-.25c-.33-.08-.57-.08-.9-.16a.62.62,0,0,1-.08.33C44,108,44.32,108.08,44.57,108.08Zm.16-80.82c0,.08.08.16.08.25.41-.16.82-.33,1.31-.57,0-.08,0-.08-.08-.16C45.55,26.94,45.14,27.1,44.73,27.27Zm-6.65,78.6.25-.25a4.11,4.11,0,0,1-.66-.57c-.08.08-.08.16-.16.16A5.36,5.36,0,0,0,38.09,105.87Zm7.38-86.15c.08.08.16.08.25.16.16-.25.33-.41.49-.66-.08-.08-.16-.08-.25-.16A4.55,4.55,0,0,0,45.47,19.72Zm-4.1,83.93c0,.08-.08.16-.08.25l.74.49c.08-.08.08-.16.16-.33C41.94,103.9,41.61,103.82,41.37,103.65ZM74.19,29.56c-.08-.08-.08-.16-.16-.25l-.82.57c.08.08.08.16.16.25A5,5,0,0,0,74.19,29.56Zm-24.53,79.5c-.25-.49-.25-.49-1,.16C49.08,109.15,49.41,109.15,49.65,109.07Zm17.72,1.64c.08-.08.08-.16.16-.16a7.4,7.4,0,0,0-.82-.74c-.08.08-.08.16-.16.16A7.4,7.4,0,0,0,67.38,110.71Zm-52.18-57H15c0,.33.08.74.08,1.07h.25A5.65,5.65,0,0,1,15.19,53.69ZM54.66,17.5a.29.29,0,0,0-.08-.16,5,5,0,0,0-.82.57c.08.08.08.16.16.16A5.79,5.79,0,0,1,54.66,17.5ZM24,40.64c.08.08.16.08.25.16.16-.16.25-.41.41-.57-.08-.08-.16-.08-.25-.16A2.49,2.49,0,0,1,24,40.64ZM23.24,108c0,.08-.08.08-.08.16a5,5,0,0,1,.82.57c.08-.08.08-.16.16-.16A5.52,5.52,0,0,0,23.24,108ZM76.48,29.15v.16a3.08,3.08,0,0,0,.9-.08V29A3,3,0,0,1,76.48,29.15ZM47.27,15.78c-.08-.08-.08-.16-.16-.25-.16.08-.41.25-.57.33.08.08.16.16.16.25A1.32,1.32,0,0,0,47.27,15.78ZM64,37.77c.25.49.25.49.82,0Zm-9.6,68.75.25.25a8,8,0,0,1,.41-.9Zm-2.05-78.6c0-.08-.08-.16-.08-.33l-.74.25c0,.08.08.16.08.25A2.4,2.4,0,0,0,52.36,27.92Zm54,90.41v.33c.25,0,.49-.08.82-.08v-.25ZM65.41,29.56v.25c.33-.08.66-.08,1-.16V29.4A4.12,4.12,0,0,1,65.41,29.56ZM53.26,19a.29.29,0,0,0,.08.16c.25-.16.57-.25.82-.41,0-.08-.08-.16-.08-.25C53.84,18.65,53.51,18.82,53.26,19Zm-6.73-.9c-.08-.08-.08-.16-.16-.16-.16.16-.41.25-.57.41.08.08.08.16.16.16C46.13,18.32,46.37,18.24,46.54,18.08ZM75.83,30.22v-.16a4.12,4.12,0,0,1-1,.16v.16C75.17,30.3,75.5,30.3,75.83,30.22Zm-7,6.89c0-.08,0-.16-.08-.16-.25.08-.49.08-.66.16a.3.3,0,0,0,.08.25A.93.93,0,0,1,68.85,37.11Zm-44.8,2.3v.16c.25,0,.41.08.66.08v-.16C24.47,39.49,24.22,39.41,24.06,39.41ZM46.86,16.93l-.16-.16-.49.49.25.25A1.47,1.47,0,0,1,46.86,16.93ZM59.5,101.19c-.08,0-.16.08-.25.08a5.65,5.65,0,0,0,.25.66c.08,0,.16-.08.25-.08A5.65,5.65,0,0,1,59.5,101.19Zm-15.42,3.28c0-.08.08-.08.08-.16-.25-.08-.41-.25-.66-.33,0,.08-.08.16-.08.25A5.65,5.65,0,0,1,44.07,104.47Zm47.59,17.39v-.16c-.25-.08-.49-.08-.74-.16v.25C91.17,121.78,91.42,121.87,91.66,121.87ZM38.74,28.25,38.5,28c-.08.16-.25.25-.33.41l.25.25A.82.82,0,0,0,38.74,28.25ZM47,104.06c0,.08-.08.16-.08.25a1.19,1.19,0,0,0,.57.16.29.29,0,0,1,.08-.16A4,4,0,0,1,47,104.06Zm18.62,5.09.16-.16c-.16-.16-.25-.33-.41-.49-.08.08-.16.16-.16.25C65.41,108.9,65.57,109,65.65,109.15ZM39.4,34.81V35a2.4,2.4,0,0,1,.74.16V34.9A2.27,2.27,0,0,1,39.4,34.81ZM25.12,39.9l.16.16c.16-.08.25-.16.41-.25-.08-.08-.16-.16-.16-.25A.89.89,0,0,0,25.12,39.9ZM67.29,29.48v.16a2,2,0,0,0,.66-.08v-.25A1.93,1.93,0,0,1,67.29,29.48ZM53.59,107v.25h.49V107Zm5.25-4c.08-.08.16-.08.16-.16l-.25-.49c-.08.08-.16.08-.25.16A1.72,1.72,0,0,1,58.84,103ZM76.4,26.45a.29.29,0,0,0-.08-.16l-.49.25c0,.08.08.16.16.25A.82.82,0,0,1,76.4,26.45Zm-8.2,3v.16a1.81,1.81,0,0,0,.66-.08v-.25C68.69,29.32,68.44,29.32,68.2,29.4ZM39.73,33.67v.16c.16,0,.41.08.57.08v-.16A1.6,1.6,0,0,0,39.73,33.67Zm30-4.43v.16c.25,0,.49-.08.66-.08a.3.3,0,0,0-.08-.25A3.34,3.34,0,0,0,69.76,29.24Zm-49.06,19h.16c0-.16.08-.41.08-.57h-.25A1.34,1.34,0,0,1,20.69,48.27Zm3.12-5.58c-.08,0-.08,0-.16-.08-.08.16-.08.33-.16.49.08,0,.16,0,.16.08C23.73,42.94,23.73,42.77,23.81,42.69ZM38.66,21.36H38.5c-.08.16-.08.41-.16.57h.25A1.22,1.22,0,0,1,38.66,21.36ZM23.81,45.89A.29.29,0,0,1,24,46c.08-.08.16-.25.25-.33-.08,0-.08-.08-.16-.08A1.13,1.13,0,0,0,23.81,45.89Zm35.28.49c.08,0,.08-.08.16-.08-.16-.16-.25-.33-.41-.49l-.08.08A5,5,0,0,0,59.09,46.38Z"/><path class="cls-1" d="M55.07,40.48a6.18,6.18,0,0,0,3.36-1,.3.3,0,0,0-.08-.25c-1.07.25-2.13.49-3.28.82v.41Z"/><path class="cls-1" d="M93.14,85.27A7.7,7.7,0,0,0,92.65,84c-.57-1-1.15-1.89-1.72-2.79A6.2,6.2,0,0,0,90,80.1c.08-.08.16-.16.25-.16a10.74,10.74,0,0,1,1.39,2,14.43,14.43,0,0,0,3,4c1.23,1.15,2.46,2.3,3.69,3.36,1,.82,2.05,1.56,3.12,2.38.16.16.41.16.82.41-.08-.41-.08-.74-.25-.82a30,30,0,0,0-2.54-2l-2.87-2.13a22.53,22.53,0,0,1-2.13-1.81,13.6,13.6,0,0,1-1.89-2.54A13.16,13.16,0,0,0,89,78.3a6,6,0,0,0-1-.41A5.89,5.89,0,0,1,88.05,79h-.16c-.41-.49-.74-1.07-1.15-1.56-.08.08-.16.08-.25.16.74,1.23,1.39,2.46,2.13,3.69.16-.08.25-.08.41-.16-.25-.74-.41-1.39-.66-2.13.74.25,1.81,2.71,1.81,4.1.25.08.49.16.82.25.16.41.25.9.41,1.39H92c.25.33.41.57.66.9C93,85.36,93.06,85.36,93.14,85.27Z"/><path class="cls-1" d="M92.73,74.94c-.33-.25-.66-.41-1.15-.74.49,1.23,1.48,2.05,1.39,3.28a1.29,1.29,0,0,1-.57-.57,10,10,0,0,0-.57-1.39c-.16-.49-.49-1-.66-1.48a1.35,1.35,0,0,0-1.23-.74c.16.9,1.31,1.39,1.07,2.54-1.31.16-.74-1.15-1.31-1.56-.74.74-1.15-.08-1.56-.41-.57-.49-1-1.07-1.48-1.56l-.25.25c.49,1,1.07,1.89,1.56,2.87-.08,0-.08.08-.16.08-.41-.57-.74-1.07-1.15-1.64-.9.08-3.45-2.3-3.28-3.12,1,.9,2.05,1.81,3,2.71.08,0,.08-.08.16-.08-.41-.74-.74-1.39-1.23-2.3l2.38,1.31c.08-.25.25-.49.33-.74C89.28,71.74,92.48,74,92.73,74.94Zm-4-2.54c-.08,0-.08.08-.16.08.08.16.25.33.33.49L89,72.8A1.79,1.79,0,0,1,88.71,72.39Z"/><path class="cls-1" d="M99.87,87a.61.61,0,0,0-.08-.41c-.41-.57-.9-1.15-1.31-1.81L96,81.58a14,14,0,0,0-.9-1.15c-.57-.66-1.15-1.31-1.72-1.89A25.13,25.13,0,0,0,91,76.82c-.49-.33-1-.74-1.48-1.07-.08.08-.08.16-.16.25.74.66,1.48,1.31,2.13,2,1.15,1,2.3,2.05,3.36,3a9,9,0,0,1,.74,1.15C96.75,83.63,97.9,85,99,86.5a3.79,3.79,0,0,0,.57.57C99.78,87.08,99.87,87.08,99.87,87Z"/><path class="cls-1" d="M114.47,72.64c-.16-.25-.16-.41-.25-.49a30,30,0,0,0-2.54-2c-2.38-1.64-4.84-3.2-7.22-4.76a5,5,0,0,0-1.15-.57,2.74,2.74,0,0,0-.82,0A110.7,110.7,0,0,1,114.47,72.64Z"/><path class="cls-1" d="M97.49,81.58c-.33-.16-.66-.33-1.07-.49-.08.66.49.82.82,1.07a3.1,3.1,0,0,0,.66-.57,5.12,5.12,0,0,1,.82,1.31,6,6,0,0,1,0,1.72c.49-.49.49-.49.33-2.63a18.09,18.09,0,0,1-1.31-1.39c-.74-.9-1.56-1.81-2.3-2.63-.08.08-.16.08-.25.16.82,1.07,1.64,2.22,2.46,3.28C97.65,81.33,97.57,81.42,97.49,81.58Z"/><path class="cls-1" d="M73,89.29a4.93,4.93,0,0,0-1.07-.74c-1.89-1.07-3.77-2.05-5.66-3-1.07-.57-2.05-1.15-3.12-1.72A2.67,2.67,0,0,0,62,83.47c3.45,2.13,7.22,3.94,11,5.83Z"/><path class="cls-1" d="M117.83,78c-2.46-2.79-5.66-4.43-8.78-6.24C111.84,73.87,115,75.59,117.83,78Z"/><path class="cls-1" d="M103.23,105.87c-3.94-2.38-7.88-4.76-11.9-7.22.25.25.33.49.57.57l6.89,4.18c1,.57,1.89,1.15,2.87,1.72.16.08.25.33.41.41.33.25.66.41.9.57A.26.26,0,0,0,103.23,105.87Z"/><path class="cls-1" d="M100.93,108.16a.61.61,0,0,0-.08-.41c-1.31-.9-2.63-1.81-4-2.63s-2.79-1.48-4.18-2.22c-1-.49-1.89-1.07-2.87-1.64-.08-.08-.16-.08-.33-.08C93.14,103.65,97.24,105.37,100.93,108.16Z"/><path class="cls-1" d="M83.46,72a3.55,3.55,0,0,1-.41.08,5.52,5.52,0,0,1-.57-.9l-.16.16A8.51,8.51,0,0,0,85,75.18c.08-.08.16-.08.25-.16-.25-.33-.57-.66-.82-1a10.69,10.69,0,0,1-.82-1.23c.74.74,1.48,1.39,2.22,2.13a1.13,1.13,0,0,0,.25-.33C85.26,73.7,84.36,72.88,83.46,72Z"/><path class="cls-1" d="M82,66.89h-.66a5.87,5.87,0,0,0,1.23,4c.33-.66.57-1.31.82-1.89-.08-.08-.16-.08-.25-.16a4.11,4.11,0,0,0-.66.57c-.16-.82-.33-1.72-.49-2.54Z"/><path class="cls-1" d="M78.45,79.61a18.43,18.43,0,0,0,2.22,6.48,14.17,14.17,0,0,0,3.69,4.27,51.32,51.32,0,0,0,4.92,3.28c1,.57,2.13.9,3.12,1.39a7.86,7.86,0,0,0,3.86.9c1,0,1.89.08,2.87.08h.08a.08.08,0,0,0,.08.08c3.2,2.05,6.32,4.1,9.52,6.07.25.16.57-.25.25-.41-3-2-6.15-3.77-9.27-5.74.82,0,1.56-.08,2.38-.08,0,.08,0,.16.08.16a29.72,29.72,0,0,0,3.36,2.22c.25.16.41-.25.25-.33-1.15-.66-2.3-1.39-3.36-2.05,1-.08,2-.08,3-.16a2.19,2.19,0,0,1,2.13.9c.33.41.66.9,1.23.08-.33-1.39-.66-2.79-.9-4.18a1.8,1.8,0,0,0,.49-.41c-1.07-1-.74-2.13-.57-3.36a10.46,10.46,0,0,0-.08-1.64c0-.33.25-.74.16-1.07a19.15,19.15,0,0,0-.57-2.05c-.33-1-.74-2-1.07-3s-.33-2.3-1.15-3.28c-.49-.57-.49-1.48-.9-2.05-.66-1-1.39-2-2.13-2.87a29.72,29.72,0,0,0-3-3.45,11.28,11.28,0,0,0-6-2.79A27.83,27.83,0,0,0,89.53,66a34.24,34.24,0,0,0-4.1.08c-.9,0-1.89.16-2.79.25-.41,0-.66.25-.57.74a21.31,21.31,0,0,1,2.13-.25c1.56,0,3.12.08,4.59.08a7.67,7.67,0,0,1,2,.16,10.09,10.09,0,0,1,2.05,1.15c-.08.16-.08.25-.16.41-.57-.16-1.15-.25-1.81-.41a11,11,0,0,1-6.89-1.31c.74,1.64,2,1.81,3.2,2,1.48.16,2.87.16,4.35.25a18.9,18.9,0,0,1,2.3.49,4.38,4.38,0,0,1,1.48.41,30,30,0,0,1,2.54,2c.16.16.41.33.57.49l.16-.16c-.25-.25-.49-.57-.74-.82l.08-.08c-.16-.41-.41-.74-.66-1.31.49.33,1,.57,1.39.82.08-.08.08-.16.16-.25-.66-1.15-2.13-1.31-3-2.3.08-.08.08-.16.16-.25a13.66,13.66,0,0,1,2.3,1.48,50.84,50.84,0,0,1,3.94,4.59,21.19,21.19,0,0,1,1.56,3c.33.57.66,1.07,1,1.56a.87.87,0,0,1,.08.66c-.66-.9-1.23-1.89-2-2.87-.41.9.9,1.56.16,2.22-.33-.74-.66-1.48-.9-2.22a1.44,1.44,0,0,1-.49.08c-.82-.66-1.64-1.31-2.38-2s-1.31-1.56-2-2.22a19,19,0,0,0-2-1.64.52.52,0,0,0-.49,0c-1.81.57-3.45-.25-5.17-.66a15.1,15.1,0,0,1-2.05-.74.54.54,0,0,0-.49.08c1,1.07,2.46.82,3.77,1.56H89.69v.16c.25.16.49.25.57.33.25.41.33.74.57.9,1.23.66,2.46,1.23,3.77,1.89,0,0,.08,0,.33-.16a4.11,4.11,0,0,0-.66-.57c-1-.57-2.05-1.07-3-1.56a3.33,3.33,0,0,1,.74-.41,2.18,2.18,0,0,1-.41-.49,7,7,0,0,1,1.39.25,2.72,2.72,0,0,0,1.81,0c.57-.16,1.07.33,1.07,1.23-.33-.33-.66-.57-1-.9l-.25.16c.25.41.49.82.74,1.31-.08.16-.25.33-.41.57.41.25.82.41,1.31.74,0-.41.08-.66.08-.82h.16L97,75.18l-.16.08a4.58,4.58,0,0,0,.66.41A3.42,3.42,0,0,1,98,75c.16.49.25.82.33,1.15a1.47,1.47,0,0,0,.41.57c.08-.25.16-.41.25-.66v-.25c.49,1,1,1.89,1.39,2.79.49-.16.49-.33.25-.82-.16-.33-.33-.66-.49-1.07.33-.08.57-.08.82-.16a16.52,16.52,0,0,0,1.15,2.05c.49.74,1.23,1.39,1.81,2.13,1,1.39,2.05,2.71,3,4.18A2.09,2.09,0,0,1,107,86a10.08,10.08,0,0,1-.16,2.22c-.16-.49-.25-1-.41-1.48-.08,0-.25.08-.33.08a11.82,11.82,0,0,0,.74,3.69c-.33-.16-.57-.33-.9-.49-.08,0-.16.08-.25.08.08.66.08,1.23.16,1.89a.08.08,0,0,0-.08.08c-.49-1-1.15-2-1.56-3-.74-1.81-1.23-3.77-2-5.58a4.42,4.42,0,0,0-.74-1c-.33-.41-.74-.74-.57-1.39,1.07.57,2,1,2.13,2.3a18.75,18.75,0,0,0,1,3,1.72,1.72,0,0,0,.49.66c.16-.57.33-1.07.49-1.64.25.57.41.9.57,1.23l.25-.08c-.33-2.38-2.22-3.86-3.36-5.83,0,.08-.08.08-.08.16a5.66,5.66,0,0,1-1.23-.57c-.74-.57-1.31-1.15-2.05-1.72a1.83,1.83,0,0,0-1.23-.33c.49.66,1.07,1.23,1.56,1.89l-.16.16c-.41-.41-.9-.82-1.39-1.39a2.91,2.91,0,0,1-.08.57c.66.82,1.31,1.64,2,2.38a8.52,8.52,0,0,0,1.39,1,2.18,2.18,0,0,1,.49.41l-.25.08a5.75,5.75,0,0,0-.25,1.15c0,1,.08,2,.16,3a2.52,2.52,0,0,0,.33.74,7.39,7.39,0,0,0,.41-.74c.16.49.25.9.41,1.48.49-1-.08-3.28-.74-3.69-.08-.41-.16-.74-.25-1.15a.29.29,0,0,0,.16-.08,15.3,15.3,0,0,1,.82,1.64c.33,1.23.57,2.46.82,3.69,0,.16.08.33,0,.41-.41.66,0,.82.57,1,0,.25.08.41.08.66a.3.3,0,0,0-.16.41c.25.33.41.74.66,1.07h-.16a8.18,8.18,0,0,0-1.64-1.72.35.35,0,0,0-.49.49c.57.57,1.15,1.23,1.72,1.81v.08l-1-1c-.25-.33-.74.16-.49.49l.74.74V94c-.74-.74-1.39-1.56-2.22-2.3-.33-.33-.9.16-.57.57.74.82,1.64,1.64,2.38,2.46a9.54,9.54,0,0,0-1.48.33.08.08,0,0,0-.08-.08,5,5,0,0,1-.66-.66h0l.16-.16.25.25c.33.25.82-.16.49-.49L98.8,91.51l-.08-.08c0-.08-.08-.08-.08-.16-1.15-.08-1.48-1.39-2.38-1.81l-.16.16c.49.49.9,1.07,1.39,1.56.66.74,1.31,1.39,2,2.13v.08a1.13,1.13,0,0,1,.25.33c-.16.08-.16.49.08.49.08,0,.16,0,.16-.08.33.33.57.66.9,1l-1.07.25c-.33.08-.74,0-1.07.08a4.68,4.68,0,0,1-1.81.33c-.08-.16-.16-.25-.25-.41.08,0,.16.08.25.08.33.16.66-.33.33-.49s-.74-.33-1.07-.49a29.89,29.89,0,0,1-2.05-4.68c-.16-.41-.74-.25-.57.16a22.53,22.53,0,0,0,1.64,4.1c-.25,0-.49.49-.16.57s.41.16.66.25a5.52,5.52,0,0,0,.57.9c-.57,0-1.23-.08-1.81-.08A23.7,23.7,0,0,1,91.83,90c-.16-.41-.82-.25-.66.16a24.79,24.79,0,0,0,2.63,5.33,4.63,4.63,0,0,1-1-.33,23.13,23.13,0,0,1-3.94-1.56c-1.72-1.07-3.28-2.46-4.92-3.61a9.69,9.69,0,0,1-3-3.53A18.15,18.15,0,0,1,78.86,80a24.23,24.23,0,0,1-.16-3.45c.41.57.74,1.15,1.15,1.72l-.08.08c-.16-.08-.25-.16-.41-.25s-.08.08-.16.08c.57.9,1.07,1.81,1.64,2.71.33-.33.33-.33-.16-1.23A5,5,0,0,1,81,79.2c-.74-1.07-1.48-2.22-2.46-3.77a13,13,0,0,1,.57-3,26,26,0,0,1,1.39-3.12,9.6,9.6,0,0,0,.41-1.64c-.08-.08-.16-.08-.25-.16-.16.33-.41.57-.57.9s-.41.82-.66,1.23C77.71,72.47,78,76,78.45,79.61ZM93.22,67.3c.57.49,1.23,1.07,1.89,1.56C94.62,68.95,93.47,68.13,93.22,67.3Zm2,.57c0,.08-.08.16-.08.25-.25-.08-.57-.16-.9-.25,0-.08.08-.16.08-.25C94.62,67.72,94.94,67.8,95.19,67.88ZM106.92,95l.16-.16.66.66-.25.25C107.33,95.53,107.09,95.28,106.92,95Zm-.66-4.43c.9.33.66.9.49,1.39A13.28,13.28,0,0,1,106.27,90.61Zm-1.07,1.64c-.25-.41-.49-.82-.82-1.31l-.16-.16a1.6,1.6,0,0,1,.08-.57c.41.74.74,1.31,1.15,2C105.28,92.25,105.28,92.25,105.2,92.25Z"/><path class="cls-1" d="M81.9,66.89Z"/><path class="cls-1" d="M89,82.32c-1.48-1.89-2.79-3.61-4.18-5.58,0,.33,0,.57.08.66a17,17,0,0,0,3.2,4.43A7.43,7.43,0,0,0,89,82.32Z"/><path class="cls-1" d="M74.19,75.59c-.49-.9-5.25-4-7.63-4.92Z"/><path class="cls-1" d="M72,86.5a18,18,0,0,0-2.05-1.39c-1.56-1-3.2-2-4.76-3-.49-.25-1-.49-1.39-.74,0,.08-.08.08-.08.16.57.33,1.07.74,1.64,1.07,2,1.23,3.94,2.38,6,3.53a2.46,2.46,0,0,0,.66.33Z"/><path class="cls-1" d="M111.35,71.9c-.08-.66-5-4.35-5.83-4.27C107.5,69.11,109.38,70.5,111.35,71.9Z"/><path class="cls-1" d="M112.75,76.49l6.4,4.18C118.74,79.78,115.54,77.64,112.75,76.49Z"/><path class="cls-1" d="M103.48,107.84c-2.46-1.56-4.92-3.12-7.47-4.68,0,.08-.08.08-.08.16,2.46,1.56,4.92,3.2,7.38,4.76C103.39,108,103.48,107.92,103.48,107.84Z"/><path class="cls-1" d="M73.94,79.12a14,14,0,0,0-5.66-3.86C70.17,76.58,72.05,77.81,73.94,79.12Z"/><path class="cls-1" d="M100.6,86.18a10.2,10.2,0,0,0-.49-3.94h-.33a15.93,15.93,0,0,0,.16,2C100.19,84.78,99.62,85.6,100.6,86.18Z"/><path class="cls-1" d="M117,75.76c-1.81-1.39-3.53-2.63-5.25-3.94-.08,0-.08,0-.16.08.08.16.08.33.16.41,1.56,1.15,3.12,2.3,4.76,3.36C116.6,75.76,116.77,75.76,117,75.76Z"/><path class="cls-1" d="M99.62,108.66a15.44,15.44,0,0,0-4.43-3.12c1.48,1.07,2.87,2.22,4.35,3.28A.25.25,0,0,1,99.62,108.66Z"/><path class="cls-1" d="M117.83,84l-1.48-1.48-1.64-1.39A14.22,14.22,0,0,0,113,79.69L114.31,81c1.07,1,2.22,2,3.28,3,.08,0,.16-.08.25,0Z"/><path class="cls-1" d="M68.28,70.91c1.56.9,3,1.72,4.51,2.63C72.71,72.88,69.84,71.24,68.28,70.91Z"/><path class="cls-1" d="M115.87,85.11c1,.74,1.89,1.56,2.87,2.3A3.26,3.26,0,0,0,115.87,85.11Z"/><path class="cls-1" d="M98.23,87.65c.08-1.15-.41-2.13-1.07-2.22C97.08,86.59,97.57,87.65,98.23,87.65Z"/><path class="cls-1" d="M84.93,69.52c-.08.82,1.39,1.72,2.46,1.56C86.49,70.5,85.75,70.09,84.93,69.52Z"/><path class="cls-1" d="M73.12,75.76c-.16-.16-.25-.41-.49-.57-1-.66-2.05-1.23-3-1.81,0,.08-.08.08-.08.16,1.15.82,2.38,1.48,3.61,2.22Z"/><path class="cls-1" d="M102.41,88.8a35.32,35.32,0,0,1,4.84,5.66.33.33,0,1,1-.57.33,35,35,0,0,0-3.94-4.68c-.41,0-.74-.33-.9-.9h0C101.59,89,102.08,88.47,102.41,88.8Z"/><path class="cls-1" d="M96.09,85.44a2.29,2.29,0,0,0-.08-.82,6.65,6.65,0,0,1-.9-.25C95,85,95.27,85.36,96.09,85.44Z"/><path class="cls-1" d="M93.71,72c-.08.33-.08.66-.16,1.07h1A4,4,0,0,1,94,72C94,71.9,93.79,72,93.71,72Z"/><path class="cls-1" d="M97.24,108.57A18.81,18.81,0,0,1,99.13,110C99.37,109.56,98.39,108.82,97.24,108.57Z"/><path class="cls-1" d="M71,82a2,2,0,0,0-2-1.15c.66.33,1.31.74,2,1.15Z"/><path class="cls-1" d="M89.77,99.3v.33c.57.33,1.23.74,1.89,1.07h0L89.77,99.3Z"/><path class="cls-1" d="M73,89.21c.66.33,1.31.74,2,1.07,0-.08.08-.16.08-.25A15.27,15.27,0,0,1,73,89.21Z"/><path class="cls-1" d="M78.29,91.84c-.41-.25-.9-.49-1.31-.74,0,.08-.08.08-.08.16.41.25.9.49,1.31.74A.29.29,0,0,0,78.29,91.84Z"/><path class="cls-1" d="M97.4,109.56c.33.25.66.41,1,.66.08-.08.08-.16.16-.25-.33-.16-.66-.41-1.07-.57C97.4,109.39,97.4,109.48,97.4,109.56Z"/><path class="cls-1" d="M71,82l1.07.82c0-.08.08-.16.16-.25-.41-.16-.82-.41-1.23-.57Z"/><path class="cls-1" d="M91.66,100.62c.25.25.57.49.82.74.08-.08.08-.16.16-.25a2.77,2.77,0,0,1-1-.49Z"/><path class="cls-1" d="M75.74,93.07a5.52,5.52,0,0,1-.9-.57c0,.08-.08.08-.08.16a5.52,5.52,0,0,1,.9.57A.25.25,0,0,1,75.74,93.07Z"/><path class="cls-1" d="M89.77,99.3a5.52,5.52,0,0,1-.9-.57.29.29,0,0,1-.08.16,5,5,0,0,0,1,.41Z"/><path class="cls-1" d="M73.61,87.57c-.16-.16-.41-.33-.57-.49,0,.08-.08.08-.08.16.16.16.41.33.57.49A.25.25,0,0,0,73.61,87.57Z"/><path class="cls-1" d="M72,86.5a3.33,3.33,0,0,1,.41.74,1.44,1.44,0,0,1,.33-.41c-.25-.08-.49-.25-.74-.33Z"/><path class="cls-1" d="M94.62,102.58a4.58,4.58,0,0,1,.66.41l.08-.08a2.88,2.88,0,0,0-.66-.41C94.7,102.42,94.62,102.5,94.62,102.58Z"/><path class="cls-1" d="M73.12,75.76a1.47,1.47,0,0,0,.57.41c0-.08.08-.16.08-.25a1.55,1.55,0,0,1-.66-.16Z"/><path class="cls-1" d="M94.29,102.17c-.16-.08-.41-.16-.57-.25a.08.08,0,0,1-.08.08,2.06,2.06,0,0,1,.57.33C94.29,102.34,94.29,102.26,94.29,102.17Z"/><path class="cls-1" d="M117.83,83.88a1.19,1.19,0,0,1,.16.57c.08-.08.16-.08.25-.16l-.41-.41Z"/><path class="cls-1" d="M25.61,75.1c.16-.57.41-.25.57,0,1.31,1.15,2.71,2.3,4,3.36a.61.61,0,0,0,.41.08,7.74,7.74,0,0,0-.82-.82c-1.39-1.15-2.71-2.38-4.1-3.53a3.64,3.64,0,0,1-.66-.9c-.41-.82-.74-1.64-1.07-2.38,0-.08.08-.16.16-.41,1.48,2.87,4,4.68,6.32,6.56l.16-.16-1.31-1.31C28.4,74.77,27.5,74,26.68,73c-.66-.74-1.23-1.56-1.89-2.3a1.31,1.31,0,0,0-.82-.41c-.16-.41-.33-.9-.49-1.23a13,13,0,0,0,.74,6.15.91.91,0,0,1,0,.66c-.25-.33-.57-.66-.82-1-.08,0-.08,0-.16.08s-.08.33,0,.41a10.16,10.16,0,0,0,1.15,1.48,6.12,6.12,0,0,1,1.39,3c-1.23-.82-1.56-2.13-2.3-3-.08,0-.16.08-.25.08a1.4,1.4,0,0,0,.08.57A11,11,0,0,0,26,81a8.31,8.31,0,0,1,1.15,1.64c.08-.08.16-.08.25-.16,1.89,1.48,3.69,3,5.5,4.35.08-.08.16-.16.16-.25-.33-.25-.57-.57-.9-.82a8.72,8.72,0,0,1-.9-.74,34,34,0,0,1-4-3.61,12.66,12.66,0,0,1-1.39-2.79.29.29,0,0,0,.16-.08c2.13,1.64,4.18,3.28,6.32,4.92l.16-.16a2.21,2.21,0,0,0-.57-.66c-2.05-1.72-4.18-3.45-6.24-5.25A3.08,3.08,0,0,1,25,75.84,52.07,52.07,0,0,0,31.85,81c-1.89-2-4.59-3.45-6.24-5.91-.08.08-.16.25-.25.16A2.24,2.24,0,0,1,24.55,73C25,73.87,25.29,74.44,25.61,75.1Z"/><path class="cls-1" d="M28.81,71.16c-.66-.66-1.31-1.31-2-1.89a1.71,1.71,0,0,1-.57-2l2.3,2.54c.08,0,.08-.08.16-.08-.82-1.15-1.64-2.3-2.38-3.53A10,10,0,0,1,25,62.05c1.23,1.48,2.38,2.87,3.53,4.18.08-.08.16-.08.25-.16-.08-.16-.25-.33-.33-.49-1.07-1.39-2.13-2.71-3.12-4.1a5.73,5.73,0,0,1-.74-2c-.25-1.07-.41-2.22-.57-3.28-.08-.82,0-1.64-.08-2.46a4.12,4.12,0,0,0-.16-1h-.25c0,1.31-.08,2.63,0,3.94a15.31,15.31,0,0,0,.33,2.05c.08.33,0,.66.08,1,.66,2.71,1.31,5.42,1.89,8.12-.08,0-.16.08-.25.08a18,18,0,0,1-2.87-6.07c-.08.08-.25.08-.33.16.33.9.66,1.89,1,2.79.25.74.66,1.56.82,2.3.16.49,0,1.07.25,1.56a9.37,9.37,0,0,0,2.22,3.2,20.54,20.54,0,0,1,1.81,2c.16-.08.25-.08.25-.16-.49-.57-1-1.23-1.48-1.81-.66-.9-1.31-1.81-1.89-2.71A5.61,5.61,0,0,1,25,68.13c1.31,1.23,2.46,2.22,3.53,3.28Z"/><path class="cls-1" d="M27.42,45.48a33.6,33.6,0,0,0-.49,4,31,31,0,0,0,.49,3.86c-.16,0-.41-.08-.66-.08-.16-.82-.41-1.56-.57-2.38a6.45,6.45,0,0,0,1.23,5c-.08,0-.16,0-.16.08-.16-.25-.33-.41-.57-.74v1.89a7.39,7.39,0,0,0,.41.74c-.08.08-.16.08-.25.16C26.27,57,25.61,55.9,25,54.75c.16,2.54,1.89,4.27,2.71,6.4-.74-1.07-1.48-2.05-2.3-3.28,0,2.71,2.3,4.1,3.12,6.15a5.52,5.52,0,0,1-1.15-1.23C26.27,61.4,25,60.17,25,58.2c0-.16-.08-.25-.08-.41A10.8,10.8,0,0,1,24.79,52c.66,0,.66-.41.66-.9.08-1,.16-1.89.25-2.87.33.08.49.08.74.16.25-1,.41-2,.66-2.87Zm-2.05,9.19c.33.33.33.9.57,1.39a3.57,3.57,0,0,0,.33.57c.08,0,.16-.08.25-.08-.33-1.39-.74-2.71-1.07-4.1H25.2C25.2,53.19,24.63,53.93,25.37,54.67Z"/><path class="cls-1" d="M20.94,80.6a59.78,59.78,0,0,1-.66-13.78c-.08,0-.16-.08-.25-.08a2.61,2.61,0,0,0-.25.74c0,2.71,0,5.5.16,8.2a35.62,35.62,0,0,0,.57,4.27,1.93,1.93,0,0,0,.16.66Z"/><path class="cls-1" d="M33.33,88.72c-3-3-6.65-5.33-8.86-9-.08,0-.16.08-.25.08.08.25.08.41.16.66a13.35,13.35,0,0,0,3.12,3.69c1.72,1.39,3.45,3,5.17,4.35a1.32,1.32,0,0,0,.57.33Z"/><path class="cls-1" d="M63.52,62.71a6.78,6.78,0,0,0-.57-1.07c-.57-.57-1.23-1.07-1.72-1.64a4.16,4.16,0,0,1-.57-1.23v.66a27.62,27.62,0,0,0-2.87-1.81c-.9-.41-1.56-1.39-2.71-1.39,2.79,2.22,6.24,3.53,8.29,6.65A.18.18,0,0,1,63.52,62.71Z"/><path class="cls-1" d="M40.63,52.21c2.05,2.87,4.84,5.25,5.83,8.86,0-.25.08-.57,0-.74a30.19,30.19,0,0,0-1.89-3.61c-.82-1.31-1.89-2.46-2.79-3.69-.25-.33-.57-.66-.9-1.07Z"/><path class="cls-1" d="M46.86,57.62a26.56,26.56,0,0,0-6.81-8.53C42.43,51.8,45.14,54.34,46.86,57.62Z"/><path class="cls-1" d="M34.23,43c1.64-.33,3.28-.57,4.92-.82.16.25.33.41.41.57a6.05,6.05,0,0,1,1.07-.66,2.61,2.61,0,0,0-.74-.25c-1.15.08-2.38.25-3.53.41-.74.16-1.48.41-2.22.57C34.23,42.86,34.23,42.94,34.23,43Z"/><path class="cls-1" d="M28,47.2V44.58h-.16V47.2Z"/><path class="cls-1" d="M21.27,94.79c-.57-.74-1.07-1.48-1.64-2.22-.08,0-.08.08-.16.08.57.74,1.07,1.48,1.56,2.22C21.1,94.87,21.18,94.79,21.27,94.79Z"/><path class="cls-1" d="M21.51,95.36c.33.41.74.82,1.07,1.23l.08-.08c-.33-.41-.66-.82-1.07-1.31C21.59,95.28,21.51,95.28,21.51,95.36Z"/><path class="cls-1" d="M45.8,63.12c-.16-.33-.25-.74-.41-1.07a.29.29,0,0,0-.16.08,5.7,5.7,0,0,1,.41,1.07A.29.29,0,0,0,45.8,63.12Z"/><path class="cls-1" d="M44.32,111.45c.33-.16.66-.25,1-.41,0-.08-.08-.08-.08-.16a5,5,0,0,1-1,.41C44.32,111.36,44.32,111.36,44.32,111.45Z"/><path class="cls-1" d="M10.85,50.08a4.58,4.58,0,0,0-.66.41A31,31,0,0,1,8.8,53.36a6.87,6.87,0,0,0-1.15,3c-.25,2-.33,3.94-.49,5.91a.89.89,0,0,0,.25.57c.16-2,.33-4,.49-6h.33v3.45c.16-3.53.66-7,2.79-9.93C10.93,50.24,10.93,50.16,10.85,50.08Z"/><path class="cls-1" d="M6.33,64.19V58.12C5.68,58.53,5.6,62.38,6.33,64.19Z"/><path class="cls-1" d="M77.88,115.22c.33.08.74.25,1.07.33-.33-.25-.49-.82-1.07-.33Z"/><path class="cls-1" d="M63.93,15.45a13.52,13.52,0,0,1,7.71-4.51c0-.25-.08-.41-.08-.66,1.56-.9,3.61-.25,5.17-1.39-.16-.16-.16-.25-.25-.25-1.64.25-3.36.41-5,.82a4,4,0,0,0-2.22,1.07c-.9,1.07-2.38,1.23-3.28,2.22l-2.22,2.46C63.85,15.29,63.93,15.37,63.93,15.45Z"/><path class="cls-1" d="M59.58,19.31c.9-.66,1.72-1.39,2.63-2.05-.08-.08-.16-.25-.25-.33l-2.63,2.13Z"/><path class="cls-1" d="M46.45,24.23c-.74-.25-1.39.08-2.54,1.07a1.18,1.18,0,0,1,.16.25Z"/><path class="cls-1" d="M45.55,22.84a18.76,18.76,0,0,1-2,1.23A1.67,1.67,0,0,0,45.55,22.84Z"/><path class="cls-1" d="M37.18,31.61A13.62,13.62,0,0,0,36,32.68l.16.16c.41-.41,1-.57,1-1.23Z"/><path class="cls-1" d="M79.35,79.28a.33.33,0,0,0,.66,0c.08-1,.25-1.89.41-2.79a9,9,0,0,1,.49.9c-.16,1-.33,1.89-.41,2.87-.16-.16-.33-.25-.41-.33.16.16.25.41.41.57a.61.61,0,0,1-.08.41.35.35,0,0,0,.57.25h0a12.64,12.64,0,0,0-.08,3.53c.08.49.82.49.74,0-.08-.9-.08-1.72-.08-2.63h0a9,9,0,0,0,.49.9,16.44,16.44,0,0,0,0,4c.08.49.82.33.74-.25a11.62,11.62,0,0,1-.16-2.46c0,.08.08.16.08.25l.25-.08c-.08-.25-.16-.49-.25-.82a8.08,8.08,0,0,1,.16-1.39c.16.16.25.33.41.49A15.28,15.28,0,0,0,84,88.8c.16.49,1,.25.82-.25a16.19,16.19,0,0,1-.57-2.13.85.85,0,0,0-.16-1.15A14.52,14.52,0,0,1,84,83.39a3.57,3.57,0,0,0,.57.49A11.21,11.21,0,0,0,85.18,89c.16.41.9.25.74-.16l-.25-.74c.08.16.33.16.57.25l.08-.08a7.08,7.08,0,0,0,1.15,2.38c-.74-.33-1.48-.74-2.22-1.15a.42.42,0,1,0-.41.74,26.49,26.49,0,0,0,5.42,2.38.48.48,0,0,0,.16.74l.74.25a.08.08,0,0,0,.08.08c.08.16.25.08.25,0a18.6,18.6,0,0,0,7.06.57h.08a.36.36,0,0,0,.41-.08l1.31-.25c.08,0,.08.08.16.08a.3.3,0,0,0,.49-.25h.08c.41-.08.25-.74-.16-.66-.16,0-.25.08-.41.08-.82-.57-1.72-1.15-2.54-1.72-.08-.25-.25-.41-.33-.66a.28.28,0,0,0-.49-.08c-.49-.57-1.07-1.07-1.56-1.64,0,.08-.08.16-.16.33-1-.49-2.05-.9-3-1.39-.41.33-.41.66-.08.9.49.41,1,.9,1.48,1.39.33.33.66.57,1.07,0l.74,1c0,.08-.08.08-.08.16A8.06,8.06,0,0,1,94,90.85a22.41,22.41,0,0,0-4.51-2.05,8.91,8.91,0,0,1-.33-2.05h.08c.08.08.16.25.33.25h.08a.29.29,0,0,1,.16.08H90a.22.22,0,0,0,.25.25c.16,0,.25-.08.25-.16s.08.08.16.08.25-.08.25-.25c.08,0,.08-.08.08-.16.25,0,.49.08.74.08.08,0,.08,0,.16-.08.16.08.25,0,.33-.08a20,20,0,0,0,2.05,1.64c.33.25.66-.33.33-.57A26,26,0,0,1,91.42,85a.34.34,0,0,0-.57.25c-.08-.08-.16-.08-.16-.16-.25-.25-.66.16-.41.41l1.23,1a6.63,6.63,0,0,1-2.22-.41c-.08-.08-.16-.08-.33-.16h0c-.08-.08-.16-.08-.25-.16a.35.35,0,0,0-.33-.33c-.16,0-.25.08-.25.16-.08-.08-.25-.08-.33-.16-.25-.16-.49.25-.25.41s.41.16.66.25h.08a.62.62,0,0,1,.33.16,5.14,5.14,0,0,0,.25,2.22,9.77,9.77,0,0,1-1.23-.74L87.4,86a.37.37,0,0,0-.74,0,6.33,6.33,0,0,0,.16,1.23l-.08-.08a12.24,12.24,0,0,1-.16-1.72h0a1.17,1.17,0,0,0,.49.16c-.57-.57-1.15-1.07-1.72-1.64l.25-2h0a5,5,0,0,0,1.31,1l.08.08c.33,1.31,1.64,1.48,2.46,2.13.08.08.33.08.41.16s.08-.08.16-.08a1.33,1.33,0,0,0-.41-.74,11.26,11.26,0,0,0-2.22-1.81c-1.15-.57-1.72-1.64-2.54-2.54a1.44,1.44,0,0,1-.33-.41v-.08c.08-.25-.08-.41-.33-.41a.3.3,0,0,1-.08-.25.29.29,0,0,1,.08-.16.36.36,0,0,0-.41-.57,4,4,0,0,0-.33-.9,7.59,7.59,0,0,0-.41-.82c-.16.33-.25.41-.41.74a7.7,7.7,0,0,1-.82-2.3c.08-.25.16-.57.25-.82s-.16-.41-.41-.33a11.75,11.75,0,0,0-.49-2.79,2.52,2.52,0,0,0-.33.74L81.08,73a.36.36,0,0,0-.66,0c0,.08-.08.08-.08.16a3.22,3.22,0,0,0-.41-1.07c0,.57-.08,1-.08,1.48-.16,0-.33-.08-.49-.08,0,.16-.08.33,0,.49-.16.08-.25.16-.25.33L79,75.43c0,.33.25.41.49.41C79.6,77.15,79.35,78.22,79.35,79.28ZM94.86,90.11c-.08.08-.08.16-.16.25-.33-.25-.74-.49-1.07-.74.08-.08.08-.16.16-.25A4.17,4.17,0,0,1,94.86,90.11Zm-3.36.16.08-.08c1.31.66,2.63,1.39,3.94,2.05a.35.35,0,0,0,.08.57l1.89,1H96.17c.08-.16-.08-.41-.33-.49a14.78,14.78,0,0,1-2.63-.49c-.08-.33-.08-.57-.16-.9l.9.25c.33.08.49-.41.16-.49a8.73,8.73,0,0,1-2.05-.74A4.69,4.69,0,0,1,91.5,90.28ZM88.38,90c.08.08.25.08.33.16.41.82,1,1.64,1.48,1.64-.25-.41-.41-.82-.66-1.23.08,0,.16.08.25.08.16.41.41.9.57,1.31L89,91.51A11,11,0,0,1,88.38,90Zm-3-3.45a5.31,5.31,0,0,0,.74.66,3.49,3.49,0,0,0,.16.9c-.16-.33-.41-.57-.57-.9-.08,0-.16.08-.25.08A2.27,2.27,0,0,1,85.43,86.59Zm-.08-1.89a5,5,0,0,0,.82.57c-.08,0-.16.08-.16.25,0,.41.08.82.08,1.31-.08,0-.08-.08-.16-.08a.64.64,0,0,1-.33-.33l-.16.16A14.52,14.52,0,0,1,85.34,84.7Zm-1.15-2a17.77,17.77,0,0,1,.33-2.05,8.72,8.72,0,0,0,.74.9q-.12,0-.25.25c-.08.49-.16,1-.25,1.56C84.61,83.14,84.36,83,84.2,82.73Zm-1-1.15a6,6,0,0,1,.74-1.81c0,.08.08.08.08.16-.16.66-.33,1.39-.49,2.05A1.44,1.44,0,0,0,83.21,81.58Zm-1.48,0a4.12,4.12,0,0,1,.16-1,6.78,6.78,0,0,0,.57,1.07,3,3,0,0,0-.16.9C82.06,82.16,81.9,81.91,81.73,81.58Zm-.57-1c.08-.9.16-1.89.33-2.79h.08a.08.08,0,0,0-.08-.08,9.54,9.54,0,0,1,.33-1.48,4.72,4.72,0,0,0,1.39,2.38,1.44,1.44,0,0,1,.33.41,12.35,12.35,0,0,0-.9,1.81A5.23,5.23,0,0,1,82,79.69a9.44,9.44,0,0,1,.49-1.39c.16-.41-.49-.57-.66-.16C81.57,79,81.32,79.78,81.16,80.6ZM80.83,76c.16-.16.16-.74.08-1.48.16-.41.25-.82.41-1.23v-.08c0,.25.08.41.08.66s0,.74.08,1.07L81,76.66A2.54,2.54,0,0,0,80.83,76Z"/><path class="cls-1" d="M105.53,95.69c.16.08.33.08.41.16s.08.41-.08.33-.33-.08-.41-.16S105.36,95.61,105.53,95.69Z"/><path class="cls-1" d="M106.18,96.76c1.23.82,2.46,1.56,3.61,2.38.16.08,0,.33-.16.25-1.23-.82-2.46-1.64-3.61-2.38C105.86,96.84,106,96.68,106.18,96.76Z"/><path class="cls-1" d="M101.26,96.27c.9.49,1.81,1,2.79,1.48.25.08,0,.41-.16.33-.9-.49-1.81-1-2.79-1.56C100.85,96.43,101,96.19,101.26,96.27Z"/><path class="cls-1" d="M87.81,84.94c.16,0,.16.33,0,.33S87.56,84.94,87.81,84.94Z"/></g></g></g></svg>