<?xml version="1.0" encoding="utf-8"?>
<!-- Generator: Adobe Illustrator 21.0.2, SVG Export Plug-In . SVG Version: 6.00 Build 0)  -->
<svg version="1.1" id="Layer_1" xmlns="http://www.w3.org/2000/svg" xmlns:xlink="http://www.w3.org/1999/xlink" x="0px" y="0px"
	 viewBox="0 0 151 150.1" style="enable-background:new 0 0 151 150.1;" xml:space="preserve">
<style type="text/css">
	.st0{fill:#4D4D4D;}
</style>
<g>
	<g>
		<path class="st0" d="M36.5,48.3c-0.1-1.7-0.2-3.4-0.2-5.1c-0.1-2.8,0.6-5.5,1.2-8.2c0.3-1.4,0.7-2.7,1.1-4
			c0.3-0.9,1.1-1.4,2.2-1.4c0.8,0,1.1,0.5,1.6,1.1c0.4,0.5,1,0.7,1.7,1.1c0.3-0.6,0.4-0.9,0.5-1.2c0.9-2.3,1.6-4.6,2.6-6.9
			c0.9-2,2.1-3.9,3.7-5.5c1.3-1.4,2.7-2.7,4.2-3.9c1.4-1.1,2.9-2.2,4.5-3c1.1-0.6,2.3-0.7,3.5-1.2c3.1-1.4,6.3-1.8,9.6-1.8
			c4.5,0,8.9,0.3,13.4,0.3c1.6,0,3.3-0.1,4.9-0.4c3.1-0.5,6.3-0.5,8.9-2.4c1.1-0.8,2.2-1.7,3.2-2.6c0.8-0.8,1.4-1.7,2.2-2.5
			c0.3-0.3,0.6-0.9,1.3-0.5c-0.7,1.8-1.4,3.6-2,5.4c-0.3,0.7-0.6,1.4-0.8,2.1c-0.2,1-0.3,2.1-0.5,3.1c-0.2,1.4-0.6,2.9-0.8,4.3
			c-0.5,3.9-0.9,7.8-1.6,11.6c-0.5,2.6-1.5,5.1-2.5,7.6c-0.5,1.3-1.4,2.4-2.3,3.5c-1.8,2.1-3.7,4.1-5.7,6.1C89,45,87.7,46.2,86.3,47
			c-2.3,1.4-4.6,2.5-7,3.6c-2,0.9-4.2,1.3-6.4,1.4c-0.5,0-1,0.1-1.7,0.2c0.5,0.4,0.7,0.6,1,0.9c2.3,2.2,4.6,4.4,6.2,7.2
			c1,1.9,2.2,3.7,3,5.7c1.2,2.9,2.2,5.8,3.3,8.9c2.6-0.6,5.3,0.4,7.7-0.9c0.2-0.5,0.5-0.9,0.8-1.3c0.7-0.7,1.4-1.4,2.1-2
			c1.1-1,2.2-2.1,3.4-2.9c1.5-1,3.1-1.8,4.7-2.5c2.2-1,4.5-1.6,6.9-1.5c2.5,0.1,5,0.3,7.4,1c2.6,0.7,5,1.9,7.5,3
			c1.3,0.6,2.6,1.4,3.8,2.2c1.1,0.7,2.3,1.2,3.2,2c1.5,1.3,3,2.7,4.4,4.2c1.4,1.5,2.8,3.1,4.1,4.7c0.6,0.7,1.1,1.5,1.6,2.2
			c0.8,1.3,1.4,2.6,2.1,4c1.2,2.3,2.4,4.6,3.4,7c0.9,2.1,1.4,4.4,2,6.7c1,3.7,1.4,7.5,1.3,11.3c-0.1,2.2,0,4.5-0.5,6.6
			c-0.6,2.8-1.6,5.5-2.8,8.1c-1,2.3-2.3,4.5-3.6,6.6c-1,1.7-2.1,3.3-3.3,4.8c-0.7,1-1.7,1.8-2.6,2.6c-0.8,0.7-1.6,1.4-2.4,2
			c-1.1,0.8-2.3,1.6-3.4,2.4c0.1,0.1,0.2,0.3,0.4,0.5c-0.4,0.2-0.6,0.4-1,0.4c-0.8,0.2-1.6,0.3-2.4,0.5c-1.1,0.4-2.1,1-3.3,1.3
			c-2.2,0.6-4.3,1.2-6.5,1.7c-4.4,0.9-8.9,0.7-13.2-0.2c-3.9-0.9-7.8-2.2-11.4-4.2c-2.2-1.2-4.4-2.2-6.3-3.8
			c-0.8-0.7-1.9-1.2-2.8-1.9c-0.7-0.5-1.4-1.1-2-1.7c-2.2-2-4.4-3.9-6.5-6c-0.9-0.9-1.7-1.9-2.6-3c-0.6,0.7-1,1.3-1.6,1.7
			c-2.4,2-4.8,3.8-7.7,5c-3.1,1.3-6.2,2.4-9.7,2.3c-2.5,0-5,0-7.5-0.8c-1.4-0.5-2.5-1.3-4.2-0.8c-1.6,0.5-3.4,0.3-5.1,0.4
			c-1.8,0.1-3.6,0.4-5.3,0.2c-2.2-0.2-4.4-0.6-6.6-1.3c-3.3-1-6.2-2.8-8.7-5.1c-2.4-2.2-4.7-4.6-6.9-7c-1.8-2-3.6-4-4.7-6.5
			c-1.1-2.3-2.2-4.6-3.3-6.8c-1.7-3.3-2.3-6.9-2.8-10.5C0.3,96.3,0.1,92.8,0,89.3c-0.1-2.1,0.2-4.3,0.4-6.4c0.2-2,0.6-4,1.1-5.9
			c0.9-3.4,1.8-6.8,2.9-10.1c0.6-1.9,1.8-3.6,2.6-5.5c1.1-2.3,2.4-4.5,4.1-6.5c2.2-2.5,4.6-4.6,7.7-5.9c1.3-0.6,2.7-0.8,4-1.4
			c2.6-1.1,5.3-1.3,8-0.6c1.8,0.5,3.6,1.1,5.5,1.7C36.4,48.6,36.5,48.4,36.5,48.3z M63,35.8c0-0.1,0-0.2,0-0.3c-0.5,0-1,0-1.5,0.1
			c-0.2-0.2-0.5-0.3-0.7-0.5c0,0.1-0.1,0.3-0.1,0.4c0.3,0,0.6,0.1,0.9,0.1C62.1,35.7,62.5,35.7,63,35.8z M45.3,38.6
			c0.1-0.2,0.3-0.4,0.4-0.6c-0.1,0-0.1-0.1-0.2-0.2c-0.9,0.9-1.7,1.9-2.7,2.9c1.3,0.2,1.9-1,2.9-1.3c0-0.2,0.1-0.5,0.1-0.7
			c0.5-0.2,1-0.3,1.4-0.5c1.1-0.6,2.1-1.3,3.2-2c-1-0.4-3.5,1-4.5,2.5C45.7,38.6,45.5,38.6,45.3,38.6L45.3,38.6z M92.4,37.8
			c-1,0.1-1.6,0.1-2.2,0.2c-0.2,0.6-0.4,1.2-0.6,1.6c0.3,0.2,0.7,0.4,1,0.6c-0.5,0-1,0.1-1.6,0.1c-0.2,0.3-0.4,0.6-0.6,1
			c0.3,0.1,0.6,0.2,1,0.3c0.4-0.5,0.8-0.9,1.1-1.3C91.1,39.5,91.6,38.8,92.4,37.8z M70.8,128.5c-0.1,0-0.3,0.1-0.4,0.1
			c0,0.4,0,0.9,0,1.3c-1.4-0.2-1.8,0.1-2,1.3c0.4,0.2,0.9,0.4,1.4,0.6c0.9-0.7,1.8-1.4,3.1-2.4c-0.7,0-1.1-0.1-1.6-0.1
			C71,129,70.9,128.8,70.8,128.5z M68.6,36.1c-1.7-0.1-3.3-0.2-5.3-0.3c0.7,0.3,1.1,0.5,1.6,0.6c3.6,0.5,7.2,1.3,10.9,1.2
			c2.8-0.1,5.6,0,8.4-0.1c1.1,0,2.2-0.1,3.2-1.3c-1,0.1-1.9,0.2-2.7,0.3c-1.3,0.1-2.6,0.3-3.9,0.3C78,37,75.2,37.1,72.5,37
			c-1.2,0-2.5-0.5-3.7-0.8c1.3,0.1,2.5,0.2,3.8,0.3c0.8,0.1,1.7,0.1,2.5,0.1c0.2,0,0.5-0.2,0.8-0.5c-0.3-0.1-0.4-0.2-0.4-0.2
			c-2,0.4-3.9-0.2-5.8-0.2c-0.4,0-0.9-0.2-0.8,0.5C68.7,36.2,68.7,36.1,68.6,36.1z M67.1,49.4c1.2,1.1,2.4,0.2,3.7,0.1
			c0.2,0,0.5-0.1,0.7-0.2c0,0.1,0.1,0.3,0.1,0.4c-0.8,0.3-1.5,0.6-2.3,0.8c0,0.1,0,0.1,0,0.2c0.6-0.1,1.1,0,1.6-0.2
			c1.6-0.5,3.1-1.1,4.7-1.6c0.2-0.1,0.5,0,0.7,0c0,0.1,0,0.2,0,0.3c-0.9,0.4-1.8,0.8-3,1.3c2.2,0.4,3.6-1,5.3-1.3
			c-0.2,0.2-0.5,0.4-0.7,0.6c0,0.1,0.1,0.1,0.1,0.2c0.7-0.3,1.3-0.5,2-0.8c0-0.1,0-0.2,0-0.2c-1.1-0.2-2.2-0.4-3.3-0.6
			c-3.2-0.4-6.4-0.7-9.5-1.2c-2.3-0.4-4.6-1.1-6.9-1.6c-1.3-0.3-2.6-0.6-3.8-0.9c-1.2-0.3-2.4-0.8-3.6-1c-1.1-0.2-2.2-0.2-3.2,0
			c-0.9,0.2-1.8,0.8-2.6,1.4c1.3,0.2,2.5-0.4,3.7-1c0,0.2,0.1,0.4,0.1,0.6c1.7,0.2,3.4,0.3,5.1,0.5c2.2,0.2,4.3,0.8,6.3,1.8
			C63.7,47.8,65.4,48.6,67.1,49.4L67.1,49.4z M48.7,24.6c0.6-1,1.2-2.2,1.9-3.4c0.1,0,0.2,0.1,0.4,0.1c-0.1,0.3-0.2,0.7-0.3,1
			c0.1,0.1,0.1,0.1,0.2,0.2c0.6-0.7,1.2-1.4,1.9-2.2c0.3,0.8-0.2,1-0.6,1.4c-1.1,1.2-2.2,2.5-3.2,3.7c-0.2,0.2-0.2,0.5-0.1,0.8
			c0.8-0.9,1.5-1.8,2.3-2.6c0.1,0,0.2,0.1,0.3,0.1c-0.1,0.2-0.1,0.5-0.2,0.6c-1,1.2-2,2.4-3,3.7c-0.2,0.3-0.3,0.6-0.3,1
			c0.7-0.7,1.5-1.4,2.2-2.1c0.1,0.1,0.2,0.2,0.3,0.2c-0.2,0.3-0.3,0.5-0.5,0.8c-1.4,1.5-3.2,2.9-4.3,4.6c-0.9,1.4-2.6,2.3-2.3,4.3
			c-0.4,0-0.6,0.1-0.9,0.1c0,0.2,0.1,0.4,0.1,0.4c0.3,0,0.6,0,0.7-0.2c0.7-0.5,1.3-1,1.8-1.7c-0.2,0-0.4,0.1-0.6,0.1
			c-0.1-0.1-0.1-0.2-0.1-0.2c1.8-2.5,3.9-4.5,6.3-6.4c-0.4,1.5-2,2-2.7,3.3c0.8-0.4,1.5-0.8,2.3-1.2c0.1,0.1,0.2,0.2,0.2,0.2
			c-0.1,0.2-0.3,0.4-0.4,0.6c-0.6,0.4-1.3,0.8-1.9,1.3c-0.2,0.1-0.3,0.4-0.3,0.7c1.2-0.6,2.3-1.1,3.5-1.7c0.6-6.4,2.4-12.4,5.6-17.9
			c-0.1-0.1-0.2-0.2-0.3-0.2c-1.3,1-2.5,2.1-3.8,3.1c0,0.1,0.1,0.1,0.1,0.2c0.3-0.2,0.6-0.3,1-0.5c0.4,0.7,0,1.1-0.4,1.4
			c-1.3,1.2-2.8,2.2-4.1,3.5c-0.6,0.6-1,1.4-1.5,2.2c-0.2,0.4-0.5,0.8-0.8,1.2c0.1,0,0.2,0.1,0.2,0.1c0.2-0.4,0.3-0.9,0.5-1.3
			C48.1,24.3,48.4,24.4,48.7,24.6z M94.2,140.1c2.3,2.7,5.1,4.8,8.1,6.7c-0.5-0.1-1-0.3-1.5-0.4c0,0.1,0,0.2-0.1,0.3
			c1.7,0.5,3.4,0.9,5.1,1.4c0-0.1,0-0.1,0.1-0.2c-2.9-1.7-5.8-3.4-8.7-5.1c0.1-0.1,0.1-0.2,0.2-0.4c1.1,0.6,2.2,1.2,3.2,1.9
			c0,0,0.1-0.1,0.1-0.1c-1.8-1.6-3.6-3.3-5.5-4.9c0.1-0.1,0.1-0.2,0.2-0.3c3,2.6,6,5.4,10,6.3c-2.5-1.9-4.9-4-7-6.3
			c2.9,2,5.2,5.2,9,5.9c-1.7-1.5-3.3-2.9-5-4.4c0-0.1,0.1-0.1,0.1-0.2c2.1,1.4,3.7,3.5,6.7,3.7c-1-0.9-1.9-1.7-2.8-2.4
			c0.1-0.1,0.2-0.2,0.3-0.3c1.8,1.2,3.1,3,5.4,3.5c-0.8-0.6-1.5-1.2-2.3-1.9c0.1-0.1,0.1-0.2,0.2-0.3c2.5,1.6,4.8,3.5,8.1,3.7
			c-2-1.6-4.4-2.4-5.8-4.5c3.3,2,6.3,4.5,10.2,5.2c0-0.1,0.1-0.2,0.1-0.3c-0.4-0.1-0.8-0.2-1.3-0.3c0.3-0.1,0.5-0.2,0.7-0.3
			c-2.1-1.1-4.2-2.2-6.3-3.3c0.1-0.1,0.1-0.2,0.2-0.4c1.5,0.7,3.1,1.5,4.6,2.2c1.6,0.6,3.3,1.1,5.4,1.8c0.7-0.2,1.8-0.5,2.8-0.9
			c0-0.1,0-0.2,0-0.3c-0.6,0-1.3-0.2-1.6,0c-1,0.8-1.9,0.3-2.7,0c-1.8-0.6-3.6-1.4-5.4-2.1c-0.1,0-0.2-0.2-0.2-0.4
			c1.2,0.3,2.3,0.7,3.5,1c1.2,0.3,2.3,0.7,3.5,1.1c0-0.1,0.1-0.2,0.1-0.3c-1.4-0.6-2.8-1.2-4.1-1.8c0-0.1,0.1-0.2,0.1-0.3
			c0.3,0.1,0.5,0.1,0.8,0.2c1.7,0.5,3.3,1.1,5,1.6c0.4,0.1,0.8,0,1.3,0c0-0.1,0-0.2,0-0.3c-0.9-0.4-1.8-0.8-2.6-1.2
			c0-0.1,0-0.2,0.1-0.3c1.6,0.4,3.1,0.9,4.7,1.3c0-0.1,0.1-0.2,0.1-0.3c-0.9-0.4-1.8-0.9-2.6-1.3c0-0.1,0.1-0.2,0.1-0.3
			c1.4,0.5,2.9,0.9,4.3,1.4c0.3-0.2,0.6-0.4,0.9-0.6c0-0.1,0-0.1,0-0.2c-0.7-0.1-1.5-0.1-2.2-0.2c-0.1-0.1-0.3-0.2-0.5-0.4
			c-0.2-0.1-0.5-0.2-0.7-0.3c0-0.1,0.1-0.2,0.1-0.4c0.5,0.1,1,0.1,1.5,0.3c0.7,0.2,1-0.2,1.1-0.6c0.7-0.3,1.3-0.6,2-0.9
			c0-0.1,0-0.1-0.1-0.2c-1.2,0.4-2.3,0.8-3.5,1c-3.9,1-7.9,1.3-11.8,0.9c-2.2-0.2-4.4-0.6-6.6-1.1c-2-0.5-3.9-1-5.8-1.7
			c-1.6-0.5-3-1.3-4.6-1.9c-1.8-0.7-3.6-1.3-5.4-2.2c-1.5-0.7-2.9-1.6-4.2-2.5c-2.3-1.6-4.6-3.3-6.8-5.1c-3-2.5-5.9-5.1-8-8.4
			c-0.8-1.2-1.9-2.3-2.8-3.5c-0.9-1.4-1.7-2.9-2.6-4.2c-1.5-2.1-2-4.6-2.7-7.1c-0.4-1.5-0.8-3-1.2-4.5c-0.6-2.3-0.3-4.5-0.1-6.8
			c0.1-0.9,0.1-1.8,0.3-2.7c0.3-1.2,0.6-2.4,0.9-3.6c0.1-0.2,0.1-0.4,0.2-0.7c-2.4,1.8-5.2,16.8-3.7,20.1c0.1-1.1,0.2-1.9,0.3-2.8
			c0.1,0,0.3,0,0.4,0c0,0.3,0,0.7,0,1c0,0.4,0,0.8,0,1.2c1.4,1.2,0.8,3,1.4,4.5c0.1,0,0.3,0.1,0.5,0.1c0.2,0.9,0.4,1.7,0.6,2.7
			c0.4-0.2,0.7-0.4,1.1-0.6c0.7,2.2,0.1,4.8,2.1,6.8c0.1-1.4-0.8-2.8-0.2-4.1c0.8,3.1,0.7,6.5,3.4,8.8c-0.2-1.3-0.3-2.7-0.5-4
			c0.1,0,0.3-0.1,0.4-0.1c0.1,0.3,0.3,0.5,0.3,0.8c0.2,2.9,1.1,5.6,2.5,8.1c0.5,0.9,1.3,1.6,2.1,2.3c-0.9-2.3-2.1-4.5-2.1-7.1
			c0-0.1,0.2-0.3,0.2-0.4c0.8,2.3,1.6,4.7,2.5,6.9c0.9,2.4,2.9,3.9,5,5.2c-1.4-2.9-2.7-5.7-4.1-8.6c0.1-0.1,0.2-0.2,0.4-0.3
			c0.3,0.3,0.6,0.5,0.8,0.9c0.7,1.5,1.2,3.1,1.9,4.5c0.7,1.5,1.7,2.8,2.6,4.2c0.1,0.1,0.3,0.2,0.5,0.4c-0.6-1.7-1.4-3.2-1.7-4.8
			c0.1,0,0.2-0.1,0.4-0.1c0.2,0.4,0.4,0.7,0.6,1.1c0.7,1.5,1.3,3,2,4.4c0.2,0.4,0.5,0.6,0.9,0.9c-1.2-1.9-2.5-3.8-2.6-6.1
			c0.1,0,0.2-0.1,0.2-0.1c0.1,0.2,0.3,0.4,0.4,0.6c0.6,2.5,2.1,4.6,3.7,6.6c0.3,0.3,0.8,0.4,1.2,0.7c0.4,0.3,0.7,0.7,1,1.1l0,0
			C94.6,140.4,94.4,140.2,94.2,140.1z M21.7,96.8c0,0-0.1,0-0.1,0c0.5,0.6,1,1.1,1.5,1.7c-0.1,0.1-0.2,0.2-0.3,0.3
			c-0.5-0.6-1-1.1-1.5-1.7c-0.1,0-0.2,0.1-0.3,0.1c0.7,1.7,1.4,3.4,2.1,5.1c-1.2-2.3-3.5-3.6-5-5.6c-0.1,0.1-0.2,0.2-0.4,0.2
			c0.7,1.2,1.3,2.6,2.1,3.7c0.9,1.2,2,2.2,3.1,3.4c-0.7-0.5-1.2-0.9-1.8-1.4c-0.1,0.1-0.2,0.1-0.3,0.2c1.7,2.7,3.4,5.4,5.1,8.1
			c-0.1,0.1-0.1,0.1-0.2,0.2c-0.5-1.1-1.5-1.6-2.5-2.1c-1-0.5-1.8-1.2-2.8-1.8c1.2,1.8,2,3.9,4,5.1c-0.4-0.1-0.8-0.2-1.2-0.3
			c0,0,0.1-0.1,0.1-0.1c-2.6-1.9-5.2-3.9-8.1-6c1.6,3.6,4,6.2,7.1,8.2c-0.1,0.1-0.1,0.2-0.2,0.2c-0.6-0.4-1.1-0.8-1.7-1.2
			c0.1,1.1,2.7,4.1,3.5,4.3c0.4,0.6,0.9,1.2,1.2,1.9c0.5,1,0.8,2,1.3,3c0.5,0.8,1.3,1.4,2.4,1.5c-0.7-1.5-1.3-2.9-2-4.2
			c0.1,0,0.2-0.1,0.2-0.1c0.4,0.8,0.9,1.6,1.3,2.4c0.3,0.5,0.6,1,0.9,1.6c0.4,1,1.4,0.9,2.1,1.3c0.1-0.1,0.1-0.1,0.2-0.2
			c-0.6-1-1.2-1.9-1.7-2.9c0.1,0,0.1-0.1,0.2-0.1c1.4,1.3,2.7,2.7,4.1,4c0.1-0.1,0.1-0.1,0.2-0.2c-1.2-2.3-2.3-4.5-3.5-6.8
			c-0.9-1.7-1.9-3.4-1.9-5.4c0-0.3,0-0.5,0.2-0.8c0.3,0.9,0.5,1.8,0.8,2.7c0.4,1.1,0.9,2.1,1.5,3.1c0.7,1.5,1.5,2.9,2.3,4.3
			c0.7,1.2,1.5,2.3,2.3,3.4c0.7,1,1.5,1.9,2.3,2.8c1.6,1.6,3,3.4,5,4.5c2.6,1.5,5.4,2.7,8.4,3.1c1.7,0.2,3.4,0,5.1,0.1
			c2.3,0.1,4.3-0.6,6.4-1.4c1.7-0.6,3.4-1.4,5.1-2.1c0.3-0.1,0.6-0.4,0.9-0.7c-1.1-0.6-2.2-0.3-3,0.3c-1.1,0.8-2.4,0.6-3.5,1
			c-1.1,0.4-2.3,0.7-3.5,1c-0.7-0.9-1.6-0.3-2.5-0.2c-1.3,0-2.5,0-3.8,0c0,0.1-0.1,0.1-0.1,0.2c0.4,0.2,0.7,0.3,1.1,0.5
			c-0.1,0.1-0.2,0.3-0.3,0.4c-0.3-0.1-0.6-0.1-0.7-0.2c-1.3-1.2-3-0.9-4.5-1.1c-2.1-0.3-4.1-1.1-6-2.1c-0.1,0-0.1-0.2-0.1-0.4
			c2.1,1.2,4.3,2,6.9,1.5c-1.5-1.2-2.9-2.3-4.3-3.4c0,0-0.1,0-0.1,0.1c0.6,0.8,1.2,1.6,1.8,2.5c-0.3,0.4-0.7,0.6-1.2,0.2
			c-1.8-1.7-3.6-3.4-5.8-4.6c0,0,0-0.1-0.1-0.3c0.6,0.2,1,0.4,1.7,0.6c-1.9-2.8-5.1-3.9-6.9-6.5c0.1-0.1,0.1-0.1,0.2-0.2
			c0.6,0.5,1.2,0.9,1.9,1.5c-1.5-2.9-4.1-4.7-5.4-7.5c1.6,1.7,3,3.5,4.7,5.1c1.7,1.6,3.2,3.3,5.5,4.1c-0.1-0.2-0.2-0.4-0.4-0.6
			c-0.8-1-1.5-2-2.4-3c-1.1-1.1-2.3-2.1-3.4-3.2c-1.8-1.7-3.5-3.5-4.7-5.8c-0.1-0.3-0.2-0.6-0.3-1.1c0.5,0,0.7,0,0.8,0
			c0.8,2.8,2.8,4.5,4.5,6.4c0.1,0,0.1-0.1,0.2-0.1c-0.8-1.1-1.5-2.1-2.3-3.2c0.1-0.1,0.1-0.1,0.2-0.2c0.3,0.2,0.5,0.3,0.8,0.5
			c-2.4-4.4-5.2-8.6-6.2-13.6c1,2.6,2.5,5,5.1,6.4c-0.4-0.8-0.8-1.7-1.3-2.4c-0.8-1.2-1.8-2.3-2.7-3.5c-0.3-0.5-0.6-1-0.8-1.5
			c-0.1-0.1,0-0.4,0-0.5c0.1,0,0.2-0.1,0.2-0.1c0.3,0.5,0.6,1.1,0.9,1.6c0.1,0,0.2-0.1,0.3-0.1c-1.5-2.8-2.3-5.9-2.8-9
			c0.1,0,0.3-0.1,0.4-0.1c0.2,0.6,0.5,1.1,0.6,1.7c0.3,2.8,1.7,5.3,2.7,7.9c0.9,2.4,2.9,3.6,4.7,5.1c1.5,1.2,3,2.3,4.4,3.5
			c-2.5-1.3-4.7-3-7-4.7c0.8,1.9,1.6,3.8,3.6,4.9c1.7,0.9,3.2,2.1,4.7,3.2c0.2,0.1,0.3,0.2,0.4,0.4c-0.1,0.1-0.1,0.2-0.2,0.3
			c-2-1.3-4-2.6-6.2-4c0.3,1.2,0.8,2.1,1.7,2.6c3,1.9,6,3.8,8.9,5.8c0.4,0.3,0.9,0.5,1.3,0.8c0.7-0.4,1.5-0.7,2.2-1
			c0,0,0.1,0.1,0.1,0.1c-0.6,0.5-1.1,0.9-1.6,1.3c-1,0.3-2,0.6-3.2,0.9c1.1,0.7,2.1,1.2,3.1,1.8c0,0.1,0,0.1,0,0.2
			c-0.4-0.1-0.8-0.2-1.4-0.4c0.3,0.5,0.5,0.9,0.8,1.3c0.8-0.4,1.5-0.7,2.2-1c-0.2-0.3-0.3-0.6-0.5-1.1c0.5,0.3,0.7,0.5,1.1,0.7
			c2.5-1.2,4.6-3.1,6.7-5c-0.1,1.1-3,3.6-6.5,5.5c0.5,0.6,1,1.4,1.6,1.9c0.9,0.7,1.4-0.7,2.3-0.7c-0.2-0.3-0.3-0.5-0.4-0.7
			c0.1,0,0.2-0.1,0.2-0.1c0.4,0,0.8,0.2,1.1,0c3-1.8,5.8-3.7,8-6.4c0.3-0.4,0.6-0.9,1-1.6c0,1.2-0.4,1.8-1,2.4
			c-1.9,1.7-3.9,3.4-6,5.3c0.2,0.1,0.5,0.4,0.9,0.7c1.7-1.4,3.4-2.7,5-4.1c0.8-0.7,1.6-1.5,2.3-2.3c1.8-1.6,2-3.5,1.3-5.8
			c-0.9-3.2-1.3-6.5-1.1-9.9c0.1-2.4,0.2-4.8,0.6-7.1c0.3-2,1.1-4,1.7-6c0.5-1.7,1.4-3.1,2.5-4.4c0.2-0.3,0.4-0.5,0.7-0.8
			c-0.1-0.2-0.2-0.5-0.4-0.9c0.3,0.2,0.5,0.3,0.7,0.5c1.4-1,0.8-1.6-0.1-2.7c-0.3-0.4-0.8-0.7-1.2-1.1c0.8-0.1,0.8-0.1,2.6,2
			c0.5-0.4,1-0.9,1.6-1.4c-1.3-1.6-3-2.6-4.6-3.8c0.7-0.3,2.6,0.9,5,3.3c0.2-0.1,0.4-0.3,0.7-0.5c-0.4-0.1-0.6-0.2-0.9-0.3
			c0.2-0.2,0.3-0.4,0.5-0.6c-2-2.9-5.1-4.5-7.9-6.5c0.3,0,0.6,0,0.8,0.1c2.6,1.6,5.3,3.1,7.3,5.5c0.3,0.4,0.4,1,0.6,1.6
			c1.2-0.7,2.6-1.4,4.2-2.2c-0.9-1-1.7-1.9-2.6-2.8c-0.1,0.1-0.2,0.1-0.2,0.2c0,0.3,0,0.5,0,0.5c-0.3-0.5-0.7-1.2-1.2-1.7
			c-0.5-0.5-1.2-0.9-2.1-1.4c-2.9-2.8-6.6-4.8-10.4-6.8c0-0.1,0-0.2,0.1-0.3c0.4,0.1,0.8,0.1,1.1,0.3c2.5,1.5,5,3.1,7.5,4.7
			c0.4,0.2,0.7,0.5,1.2,0.9c0.1-0.2,0.1-0.3,0.2-0.4c0.5,1.4,1.8,2,3,3c0-0.9-0.1-1.6-0.9-2c-0.6-0.3-1-0.8-1.6-1.2
			c-0.1-0.1-0.4,0.1-0.6,0.2c-0.1-1.1-1.1-1.4-1.8-1.9c-2.7-1.9-5.5-3.7-8.3-5.5c-0.9-0.6-1.9-1-2.9-1.5c-0.2-0.1-0.4-0.2-0.6-0.4
			c0-0.1,0-0.2,0.1-0.2c0.3,0,0.6,0,0.8,0.1c1.6,0.9,3.1,1.7,4.6,2.6c1.1,0.7,2.2,1.5,3.4,2.2c-0.3-1.2-0.3-2.6-1.5-3.4
			c-1.3-0.8-2.6-1.7-4-2.6c0.1,0.7,0.1,1.2,0.2,1.7c-0.1,0-0.2,0-0.3,0.1c-0.1-0.4-0.1-0.9-0.3-1.3c-0.2-0.4-0.5-1-0.9-1.2
			c-1.7-1-3.4-1.9-5.2-2.8c-0.5-0.3-1.1-0.8-1.8-0.3c-0.1,0-0.3-0.1-0.5-0.2c0.9-0.7,0.1-1.2-0.1-1.7c-0.5-1.1-1.2-2.1-1.9-3.4
			c-2.3-0.2-5-0.4-7.8-0.7c0.5-0.1,0.7-0.2,1-0.3c0.3-0.1,0.6-0.1,0.9-0.2c2.7-0.9,5.3-0.5,7.9,0.3c0.6,0.2,1.3,0.1,1.9,0.2
			c0.2-0.1,0.4-0.2,0.6-0.1c0.7,0.2,1.5,0.5,2.2,0.8c2.2,1.1,4.4,2.2,6.6,3.3c1.2,0.6,2.2,1.5,3.4,2.1c0.4,0.2,0.9,0.2,1.3,0.3
			c0.1-0.1,0.1-0.2,0.2-0.3c0.2,0.3,0.3,0.5,0.5,0.8c0.1-0.1,0.1-0.2,0.2-0.3c0.5,0.3,1.1,0.6,1.5,1c0.9,1,1.6,2.1,2.5,3.3
			c1.6,0,2,1.6,2.7,2.8c0.7,1.3,1.2,2.7,1.7,4.1c0.6,1.6,1.1,3.1,1.9,5.1c0.1,0.7,0.2,1.8,0.3,3.1c0.4,0.2,0.9,0.4,1.4,0.6
			c0.1-0.1,0.2-0.2,0.3-0.3c-0.3-0.9-0.5-1.9-0.8-2.8c-0.7-1.9-1.3-3.7-2.1-5.6c-1-2.5-2.2-5-3.9-7.1c-0.9-1.2-1.8-2.3-2.9-3.4
			c-2.5-2.4-5.2-4.3-8.2-6.1c-2.4-1.4-4.9-2.4-7.5-3.1c-2.3-0.7-4.7-0.8-7.2-0.6c0.1,0.1,0.2,0.2,0.3,0.2c1.5,0.5,3.1,1,4.6,1.5
			c0.2,0.1,0.4,0.3,0.6,0.5c-2.1-0.7-4.1-1.5-6.2-2.1c-0.9-0.2-1.9,0-2.9,0.2c-2,0.5-4.1,0.9-6,1.6c-3.7,1.4-6.9,3.4-9.5,6.5
			c-2,2.5-2.9,5.3-3.9,8.2c-0.1,0.3-0.2,0.5-0.4,0.7c0-2.8,1.1-5.4,0.9-8.2c-0.1,0-0.2,0-0.3-0.1c-0.6,3.1-1.2,6.3-1.8,9.4
			c-0.1,0-0.1,0-0.2,0c0.1-0.9,0.1-1.8,0.2-2.6c0.1-0.9,0.5-1.8-0.5-2.9c-0.1,0.8-0.1,1.3-0.2,1.8c-0.1,1.2-0.2,2.4-0.3,3.6
			c0,0.6,0,1.2-0.2,1.7c-0.3-0.9-0.6-1.8-1-2.6c-0.1,0-0.2,0-0.3,0.1c-0.5,3-0.4,6-0.2,9c-0.2-1.2-0.4-2.4-0.6-3.5
			c-0.1,0-0.2,0-0.2,0c0.1,1.6,0.3,3.2,0.4,4.8c-1-2.4-0.1-5.3-1.9-7.5c-0.1,0-0.2,0-0.3,0c0.5,4,0.9,8,1.4,11.9
			c-0.4-1.1-0.8-2.3-1.1-3.5c0.1-0.2,0.3-0.4,0.3-0.5c-0.3-2.4-0.5-4.9-1.9-7.1c0-0.1-0.1-0.1-0.4-0.1c0.1,1.2,0.2,2.4,0.5,3.5
			c0.4,1.4,1,2.8,1.6,4.1c-0.4-0.5-0.7-1.1-1.1-1.6c-0.3,0.5-0.3,1.1,0.4,3.2c0.4,1.1,1,2.1,1.5,3.1c-0.1,0-0.1,0.1-0.2,0.1
			c-0.2-0.4-0.5-0.7-0.7-1.1c-0.1,0-0.2,0.1-0.3,0.1c0.5,1,1,1.9,1.6,3c-0.3-0.2-0.5-0.3-1-0.6c0.5,2.1,1,4,1.5,5.7
			c-1-1.3-2.1-2.8-3.3-4.4c-0.1,2.9,1.3,5.1,3.4,6.9c-0.1,0.1-0.2,0.2-0.3,0.2c-0.6-0.7-1.2-1.3-1.9-2.1c-0.5,1.8,1,2.6,1.5,3.8
			c-0.3-0.2-0.5-0.3-1-0.6c0.1,0.6,0.2,1.1,0.3,1.5c-0.9-1-0.4-2.8-2-3.6c0.6,2.4,1.2,4.7,1.9,7c-0.2-0.5-0.4-1-0.7-1.5
			c-0.4-0.8-0.8-1.5-1.4-2.2c0.3,1.6,0.6,3.1,1.9,4.4c0.1-0.3,0.1-0.5,0.1-0.7C21.5,96.2,21.6,96.5,21.7,96.8z M148.9,100.7
			c-0.9-3.9-2.2-7.6-4.1-11.1c-1.2-2.2-2.3-4.5-3.6-6.7c-0.5-0.9-1.3-1.6-1.8-2.5c-1.3-2.2-3.3-3.8-5-5.6c-1.8-1.9-3.9-3.4-6.2-4.6
			c-3-1.5-6.1-3.2-9.3-4.3c-3.5-1.1-7.2-1.7-10.9-1.1c-2.1,0.4-4,1.3-6.1,2.1c-2.2,0.8-3.8,2.3-5.6,3.7c-1.1,0.9-2.2,1.9-2.8,3.3
			c-0.6,1.5-2,1.7-3.4,1.8c-1.7,0.1-3.3,0.1-5,0.2c-2.7,0.1-5.3,0.9-7.6,2.2c-2.8,1.6-5,3.8-5.8,7.1c-0.4,1.5-1.3,2.8-1.5,4.3
			c-0.4,2.4-0.6,4.9-0.7,7.4c-0.1,2.1,0.5,4.1,1.2,6.1c0.6,1.7,1.1,3.5,1.7,5.2c0.4,1.1,1.2,2.1,1.7,3.2c1.4,2.8,3.4,5.2,5.4,7.6
			c1.6,1.8,3.1,3.7,4.8,5.5c0.9,1,2,1.8,3,2.6c1.6,1.3,3.3,2.5,5,3.7c1.2,0.8,2.4,1.6,3.7,2.2c2,1,4.1,2,6.2,2.9
			c1.1,0.5,2.2,0.9,3.3,1.3c1.8,0.6,3.5,1.5,5.4,1.9c3.2,0.7,6.4,1.3,9.6,1.6c2.8,0.2,5.8,0.1,8.6-0.7c1.7-0.5,3.4-0.7,5-1.3
			c2.1-0.9,4-2.1,5.9-3.2c0.6-0.3,0.9-1.1,1.4-1.6c0.7-0.8,1.6-1.4,2.2-2.3c1.1-1.5,2.1-3,2.9-4.7c1.1-2.4,2.2-4.9,2.9-7.5
			c0.6-2.2,0.7-4.6,0.9-5.9C150.1,108.6,149.8,104.6,148.9,100.7z M3.6,80.8c-0.6,2-1.3,3.9-1.7,5.9c-0.3,1.8-0.3,3.7-0.4,5.6
			c0.1,0,0.3,0,0.4,0c0.1-1,0.1-2,0.2-3c0,0,0,0,0.1,0C2.6,92.9,3,96.4,3.4,100c0.1,0,0.2,0,0.3,0c0-1.4,0-2.7,0-4.1
			c0.1,0,0.1,0,0.2,0c0.1,0.6,0.3,1.2,0.3,1.9c0.1,3.7,0.8,7.2,2.4,10.5c0.3,0.5,0.4,1.1,0.7,1.7c0.1,0.2,0.2,0.4,0.5,0.5
			c-1.2-4.3-2-8.5-1.7-13c0.8,5.7,1,11.6,5,16.4c-0.2-1.3-0.5-2.5-1.4-3.5c-1-1.3-1.4-2.8-1.7-4.6c0.9,0.4,0.7,1.1,0.9,1.6
			c0.2,0.5,0.4,1.1,0.6,1.6c0.1,0,0.3-0.1,0.4-0.1c-0.5-1.5-0.9-3-1.4-4.5c0.9-1.1,0-2-0.3-3.1c0.3,0.3,0.7,0.5,0.9,0.9
			c0.9,2.3,2.9,3.6,4.6,5.2c0.8,0.7,1.6,1.5,2.4,2.2c0.2,0.2,0.5,0.3,0.8,0.4c-0.6-1-1.2-2-1.7-3c-0.8-1.5-2-2.6-3.3-3.7
			c-1.4-1.1-2.5-2.5-3.3-4.4c1.1,0.3,1,1.3,1.5,1.8c0.6,0.6,1,1.2,1.6,1.8c0.5,0.5,1.1,1,1.8,1.6c0-0.1,0.1-0.3,0.2-0.4
			c2.2,2.6,5,4.4,7.6,6.5c0.1-0.1,0.1-0.1,0.2-0.2c-0.1-0.2-0.2-0.4-0.3-0.6c-1.4-2.5-3.6-4.2-5.8-6c-2-1.7-4.2-3.3-5.4-5.8
			c-0.1-0.1-0.1-0.3-0.1-0.5c1.2,1.4,2.4,2.8,3.7,4.1c1.3,1.3,2.8,2.5,4.3,3.6c-0.5-1.2-1.1-2.2-2-3.1c-1.7-1.5-3.4-3-4.4-5.1
			c-0.1-0.2-0.2-0.5-0.2-0.7c1.5,1.8,2.9,3.5,4.4,5.3c0.1-0.1,0.2-0.1,0.3-0.2c-0.8-2.1-0.7-4.5-2.5-6.3c0.7,0,0.6,0,2.2,2.2
			c0.6,0.8,1.5,1.5,2.5,2.1c-1.5-2.6-3-5.2-4.5-7.7c0.5,0,0.5,0,1,1c0.3,0.5,0.6,0.9,0.8,1.3c0.1,0,0.2-0.1,0.3-0.1
			c-0.2-0.7-0.4-1.5-0.6-2.2c0.1,0,0.2-0.1,0.4-0.1c0.2,0.7,0.6,1.4,0.7,2.1c0.2,1.4,0.9,2.4,1.9,3.3c1,1,2.1,2,3.2,3
			c-0.3-0.7-0.6-1.6-1-2.4c-0.8-1.5-1.7-2.9-2.5-4.4c-0.7-1.4-1.3-2.8-2-4.2c-0.2-0.3-0.3-0.7-0.5-1c-0.8-1.2-1.5-2.3-2.3-3.5
			c-0.1-0.2-0.2-0.4-0.2-0.7c0.1,0,0.2-0.1,0.3-0.1c0.7,1.1,1.3,2.3,2.1,3.4c0.8,1.1,1.7,2.1,2.7,3.1c-0.3-1.4,0-2.9-1-4.2
			c-1.1-1.3-1.8-3-2.6-4.5c-0.1-0.1-0.1-0.3-0.1-0.5c0,0,0.1-0.1,0.1-0.2c1,1.7,2,3.4,3.1,5.2c0.6-0.7,0.5-1.2,0-1.9
			c-1.1-1.7-2.2-3.3-3.2-5.1c-0.3-0.5-0.4-1.1-0.4-1.8c0.9,2.1,2,4,3.5,5.8c0.1,0,0.2-0.1,0.3-0.1c-0.9-2.9-1.7-5.9-2.6-8.8
			c0.2,0,0.3-0.1,0.5-0.1c0.3,1.1,0.4,2.3,0.9,3.4c0.5,1,1.3,1.9,2,3c0.1-0.2,0.2-0.3,0.1-0.3c-0.6-2.4-0.9-4.9-2.3-7.1
			c-0.6-1-0.9-2.2-1.4-3.3c0.1,0,0.2-0.1,0.3-0.1c0.7,1.6,1.5,3.3,2.2,4.9c0.1,0,0.2,0,0.3-0.1c-0.1-0.9-0.2-1.8-0.2-2.8
			c0,0,0.1,0,0.1,0c-0.5-1.5-1-3-1.5-4.5c0.1,0,0.2-0.1,0.3-0.1c0.2,0.3,0.4,0.6,0.5,0.9c0.8,2.2,1.7,4.4,2.5,6.6
			c0.1,0,0.3-0.1,0.4-0.1c-0.1-0.8-0.3-1.6-0.4-2.4c-0.5-2.4-1.1-4.8-1.5-7.2c-0.2-1,0-2.1,0.1-3.1c0.4,2.6,1.5,4.9,2.9,7.1
			c-0.1-1.3,0.1-2.6-0.6-3.8c-0.8-1.3-1.3-2.8-1.9-4.2c0.1-0.1,0.2-0.1,0.4-0.2c0.6,1.3,1.2,2.6,1.7,3.9c0.9-2.1-0.6-3.9-0.3-6.2
			c0.9,0.9-0.1,2.5,1.2,2.9c0.2,1.1,0.4,2,0.6,3c0.7-3.3,0.4-6.6-0.1-10c0.1,0,0.3,0,0.4-0.1c0.4,2.2,0.9,4.5,1.3,6.7
			c0.1,0,0.2,0,0.3-0.1c1.1-2.4-0.4-4.7-0.4-7c0.1,0,0.2-0.1,0.3-0.1c0.1,0.5,0.3,1,0.3,1.4c0.1,0.5,0.2,1,0.3,1.7
			c0.4-0.2,0.6-0.4,0.7-0.5c-0.2-1.1-0.3-2.1-0.5-3.2c-0.2,0.1-0.4,0.1-0.7,0.2c-0.1-0.1-0.1-0.1-0.2-0.2c0.7-0.8,1.4-1.6,2.2-2.3
			c0.8-0.7,1.7-1.3,2.6-2c-1.6-0.5-2.4-0.3-3.1,0.9c-0.8,1.1-1.5,2.3-2.3,3.5c-0.1-0.1-0.2-0.1-0.3-0.2c0.7-1.3,1.4-2.6,2.1-3.9
			c-0.4,0.1-0.8,0.2-1,0.2c-1,1.3-1.8,2.5-2.7,3.7c-0.1,0-0.2-0.1-0.3-0.1c0.5-0.9,1-1.8,1.5-2.8c-2.1-0.1-2.8,1.3-3.4,2.9
			c-0.1,0-0.2-0.1-0.2-0.1c0.1-0.3,0.1-0.5,0.2-0.8c0.1-0.3,0.2-0.6,0.2-0.9c-2.1,1-2.5,3.2-4,4.7c0.5-1,1-2,1.5-3
			c-0.1-0.1-0.2-0.1-0.3-0.2c-1.5,1.4-2.9,2.8-4.4,4.3c-1.4,1.3-2.2,3-3,4.6c-1.1,2.3-2.4,4.4-3.3,6.8c-1.1,3-1.9,6.1-2.6,9.1
			c-0.7,2.9-1.2,5.8-1.7,8.7C1,86.1,1,86.7,1,87.5c0.9-2.9,1.8-5.7,2.6-8.5C3.7,79,3.9,79,4,79C3.9,79.6,3.8,80.2,3.6,80.8z
			 M58.1,32.9c0.9-0.2,1.9,0,2.2-1.1c1-0.3,1.9-0.6,2.8-0.9c0,0,0.1,0.1,0.1,0.1c-0.2,0.2-0.4,0.4-0.6,0.6c0.6,0.4,2.4-0.5,3.1-1.5
			c0.5,0.2,1.1,0.3,1.8,0.5c0.5-0.2,1.1-0.5,1.8-0.9c0,0.2,0,0.4,0,0.7c0.5-0.2,1-0.4,1.4-0.6c0.4-0.2,0.8-0.4,1.3-0.7
			c0.1,0.1,0.1,0.1,0.2,0.2c-0.2,0.2-0.4,0.6-0.6,0.7c-0.8,0.4-1.8,0.7-2.5,1.2c-1.3,0.9-2.5,1.9-3.8,2.9c1.2,0.6,2.2-0.2,3.5-0.7
			c-0.1,0.4-0.2,0.6-0.3,0.9c0.7,0,1.4,0.1,2,0.1c0.5,0,0.9,0,1.4,0.1c0,0.1,0,0.2,0,0.3c-0.3,0-0.5,0.1-0.8,0.2c0,0.1,0,0.2,0,0.3
			c0.9,0,1.7,0.1,2.6,0c0.8-0.1,1.6-0.5,2.4-0.8c0.1,0.1,0.2,0.2,0.2,0.3c-0.2,0.1-0.4,0.2-0.7,0.3c0.8,0.1,1.5,0.4,2.2-0.2
			c0.5-0.5,1.2-0.9,2-1.2c-0.5,0.5-1,1-1.5,1.6c1.4,0.4,2.4-0.5,3.5-1.1c-0.2,0.3-0.5,0.6-0.8,1c0.3,0,0.6,0,0.8,0
			c0.9-0.8,1.7-1.5,2.5-2.3c0,0,0.1,0.1,0.1,0.1c-0.3,0.4-0.6,0.8-0.8,1.3c1.6,0.6,2.3-0.7,3.2-1.6c0.1,0.1,0.1,0.1,0.2,0.2
			c-0.1,0.2-0.2,0.3-0.3,0.5c-0.1,0.2-0.2,0.3-0.2,0.6c1.6-0.5,1.8-2.2,3-3c-0.5,0.9-1,1.7-1.6,2.8c2.2-0.3,2.4-2.2,3.4-3.4
			c-0.1,0.3-0.2,0.7-0.2,1c1,0.6,1.1,0.5,2-2c-0.2-0.1-0.4-0.1-0.6-0.2c0-0.1-0.1-0.1-0.1-0.2c0.4-0.1,0.8-0.4,1.1-0.3
			c1.4,0.2,1.7-0.7,2-1.7c0.1-0.3,0.2-0.6,0.3-0.8c0.1,0,0.2,0.1,0.3,0.1c-0.2,0.7-0.3,1.4-0.5,2.1c1,0,1.6-1.4,2.1-4.5
			c0.3,0.4,0.4,0.6,0.7,1c0.2-0.8,0.3-1.5,0.5-2.3c-0.5,0.2-1,0.2-1.3,0.4c-3.5,1.5-7.2,2.4-11,2.9c-2.4,0.3-4.7,0.8-7.1,1.1
			c-2.1,0.3-4.1,0.3-6.2,0.5c-1.3,0.2-2.6,0.5-3.9,0.8c-1.8,0.5-3.5,1.1-5.3,1.7c-2,0.7-4.1,1.3-6.1,2.1c-1,0.4-1.9,1.2-2.8,1.8
			C56.5,34.3,57.9,33.8,58.1,32.9z M56.5,38.7c0.1,0.1,0.1,0.2,0.2,0.3c-0.5,0.3-1,0.6-1.7,1c0.9,0.1,1.5,0.1,2.2,0.1
			c0,0.1,0,0.2,0,0.3c-0.5,0.1-1,0.2-1.4,0.3c0,0,0.1,0.1,0.1,0.1c-0.3,0.3-0.7,0.6-1,0.9c0,0.1,0,0.1,0,0.2
			c0.8-0.3,1.5-0.5,2.3-0.8c0,0.1,0.1,0.1,0.1,0.2c-0.2,0.2-0.5,0.4-0.7,0.6c1.1,0.8,1.9-0.4,2.9-0.4c0.1,0.1,0.2,0.2,0.3,0.3
			c-0.3,0.1-0.6,0.2-0.9,0.3c1.2,0.7,2-0.1,3-0.3c-0.1,0.3-0.1,0.5-0.1,0.7c0.3,0.1,0.7,0.1,1,0.2c0,0.1,0,0.2,0,0.2
			c-0.9,0-1.8,0-3,0c1.9,1,3.5,0.2,5.3-0.1c-0.3,0.4-0.5,0.7-0.7,1c0.9,0.1,1.8,0.3,2.6,0.4c1.2-0.9,2.6-0.5,3.9-0.6
			c0,0.1,0,0.2,0.1,0.3c-0.8,0.1-1.5,0.3-2.3,0.4c2.5,1.1,4.7,0.3,6.8-1.2c0.1,0.1,0.1,0.3,0.2,0.4c-0.7,0.5-1.5,1-2.3,1.5
			c2.2,0.5,3.3-1,4.7-2.1c0.1,0,0.1,0.1,0.2,0.1c-0.3,0.3-0.5,0.7-0.8,1c-0.3,0.3-0.7,0.6-1.2,0.9c1.1,0.4,1.8,0.1,2.7-0.8
			c1-1.1,2.1-2.1,3.2-3.1c0,0.2-0.1,0.5-0.1,0.7c1.8,0.5,2.4-1.1,3.4-2.1c0.6,1-0.4,1.3-0.6,1.8c0.7,0.2,0.7,0.1,1.4-0.9
			c0.4-0.5,0.8-1,1.4-1.6c0.3,1.3-0.8,1.7-1,2.5c0.8,0,1.4-0.6,1.7-1.4c0.5-0.7,0.9-1.3,1.4-2c-0.1-0.1-0.1-0.1-0.2-0.2
			c-0.6,0.1-1.1,0.2-1.7,0.2c-3.8,0-7.6-0.2-11.4,0.1c-3.8,0.3-7.5-0.4-11.2-1c-3.9-0.6-7.8-1.2-11.5-2.8c-1.4-0.6-2.3,0.5-3.6,0.8
			c1.3,0.7,2-0.4,2.9-0.6c0.1,0.1,0.1,0.2,0.2,0.2c-0.3,0.2-0.7,0.5-1.1,0.8c1.1,0.2,2.2,0.4,3.3,0.6c-0.7,0.8-1.8,1-2.7,1.7
			c1.2,0.7,2.1-0.4,3.4-0.4c-0.9,1.2-2.2,1.3-3.2,2c0.1,0.1,0.1,0.2,0.2,0.4C54.2,39.7,55.4,39.2,56.5,38.7z M99.6,7.9
			c0.4,0.6,0.3,1.1-0.5,1.2c-0.6,0.1-1.3,0.3-1.9,0.4c-2.2,0.4-4.4,0.8-6.6,1.2c-1.1,0.2-2.1,0.2-3.2,0.3c0-0.1,0-0.2-0.1-0.3
			c0.4-0.1,0.8-0.3,1.2-0.4c1.6-0.3,3.1-0.6,4.7-0.9c0.3-0.1,0.6-0.2,0.8-0.5c-0.8,0.1-1.7,0.3-2.5,0.4c-3,0.1-5.6,1.2-8,3
			c-1.9,1.5-4,2.8-5.9,4.3c-0.8,0.6-1.5,1.4-2.2,2.2c-1.2,1.4-2.5,2.7-3.7,4.1c-1.1,1.3-2.2,2.6-3.2,4c0,0.1,0.1,0.2,0.1,0.2
			c0.8-0.3,1.7-0.6,2.5-0.9c3-1,6.1-2,9-3.1c2-0.8,4-1.7,6-2.6c1.3-0.6,2.6-1.3,3.9-2c1.9-1.1,3.6-2.4,5.5-3.5
			c1.9-1.2,3.2-3.1,4.6-4.7c0.8-0.9,1.3-2,1.9-3c0-0.1-0.1-0.1-0.1-0.2C101.2,7.3,100.4,7.6,99.6,7.9z M58.7,29.9
			c0.3-0.1,0.7-0.5,0.8-0.9c1-2,2-4,3-6c0.9-1.6,1.8-3.2,2.9-4.6c1.4-1.8,3-3.4,4.6-5c1.2-1.3,2.5-2.5,4.1-3.9
			c-2.3,0.2-4.4,0.3-6.2,0.5c-0.3,0.5-0.5,0.8-0.8,1.1c1.4-0.4,2.8-0.8,4.2-1.2c0.4,0.6,0.4,0.6-0.7,1.1c0,0.1,0,0.2,0,0.4
			c0,0.1,0,0.2,0,0.3c-0.8,0.4-1.5,0.8-2.3,1.2c0,0.1,0.1,0.2,0.1,0.2c-5.6,1.8-8.8,3.1-9.3,4c0.8-0.3,1.6-0.7,2.4-1
			c0.8-0.3,1.7-0.5,2.5-0.8c0.4,0.7-0.2,0.7-0.5,0.9c-1.4,0.5-2.8,1-4.2,1.6c-0.3,0.1-0.6,0.5-0.9,0.7c0,0.1,0.1,0.1,0.1,0.2
			c1-0.4,2.1-0.9,3.1-1.3c0.1,0.1,0.2,0.2,0.2,0.2c-0.2,0.2-0.3,0.5-0.5,0.6c-1,0.5-2,0.9-2.9,1.3c-0.3,0.1-0.5,0.5-0.9,0.9
			c0.6,0,0.9,0,1.3,0c-0.2,0.9-2.2,0.6-1.5,1.8c-0.6,1.8-1.2,3.3-1.7,4.9c-0.4,0.2-0.9,0.4-1.5,0.7c-0.2,0-0.5-0.1-0.9-0.2
			c0-0.1-0.1-0.1-0.1-0.2c0.4-0.2,0.8-0.4,1.3-0.7c0-0.5-0.1-1-0.1-1.6c0.2-0.7,0.6-1.4,0.8-2.2c0.3-1.2,0.5-2.5,0.9-3.7
			c0.8-2,1.8-4,3.1-5.8c0.1-0.2,0.2-0.3,0.4-0.5c-0.1-0.1-0.1-0.1-0.2-0.2c-0.4,0.3-0.9,0.6-1.1,1c-1.2,2.5-2.6,4.9-3.6,7.4
			c-0.9,2.5-1.5,5.1-2.1,7.6c-0.3,1-0.3,2.1-0.4,3.2C54.3,31.3,56.5,30.6,58.7,29.9z M97.4,19.4c0.1,0,0.2,0.1,0.2,0.1
			c1.2-1.5,1.6-3.4,2.5-5.1c0.2,0.1,0.4,0.2,0.5,0.3c0.5-1.6,1.1-3.2,1.7-4.9c-0.4,0.1-0.5,0.1-0.5,0.2c-1.3,2.2-3.3,3.8-5,5.6
			c-1.9,2.1-4.4,3.4-6.9,4.6c-2.3,1.1-4.6,2.4-6.9,3.5c-1.7,0.8-3.5,1.3-5.3,2c-0.3,0.1-0.6,0.2-0.8,0.3c0,0.1,0,0.2,0,0.2
			c0.5,0,1-0.1,1.5-0.1c1.9-0.2,3.8-0.5,5.7-0.7c3.5-0.4,7-0.9,10.4-1.9c2-0.6,3.9-1.5,6-2.4c-0.9-0.8-0.5-1.3-0.3-2
			c0.4-1.2,0.8-2.5,1.2-3.8c-0.1,0-0.2-0.1-0.3-0.1c-0.6,1.6-1.2,3.2-1.8,5c-0.4-0.4-0.7-0.6-0.8-0.7c-0.4,0.3-0.8,0.7-1.3,1.1
			c-0.2-0.4-0.3-0.6-0.4-0.8c-0.8,0.5-1.5,1-2.3,1.6c-0.1-0.1-0.2-0.2-0.3-0.3c1-0.9,2-1.8,3-2.6c0.1,0.1,0.1,0.1,0.2,0.2
			C97.5,18.8,97.4,19.1,97.4,19.4z M63.4,25.3c-0.5,0.1-1,0.2-1.5,0.4c-0.5,1.1-1.1,2.3-1.8,3.7c0.9-0.2,1.5-0.3,2.2-0.5
			c1.3-0.3,2.6-0.6,3.8-1.1c0.7-0.3,1.3-1,1.9-1.6c1-1.1,2-2.3,3-3.5c1.4-1.6,2.7-3.3,4.2-4.7c1.8-1.8,3.8-3.4,5.8-5
			c1.4-1.1,3-2,4.6-3.2c-1.1,0-1.9,0-2.8,0c0,0.1,0,0.2,0.1,0.2c-0.4,0.2-0.9,0.5-1.3,0.6c-1.8,0.4-3.6,0.8-5.4,1.2
			c-0.4,0.1-0.8,0.5-1.1,0.8c2.1-0.6,4.3-1.1,6.4-1.7c0.3,0.6,0.1,0.8-0.4,0.9c-2.6,0.4-5,1.1-7.4,2.2c-0.5,0.2-1,0.5-1.5,1
			c1.9-0.6,3.8-1.1,5.7-1.7c0.3,0.7,0,0.8-0.5,0.9c-2.2,0.7-4.4,1.4-6.6,2.2c-0.3,0.1-0.4,0.3-0.6,0.6c1.4-0.5,2.8-0.9,4.2-1.4
			c0.1,0.1,0.1,0.2,0.2,0.3c-0.2,0.2-0.4,0.4-0.6,0.5c-1.5,0.6-3.1,1.2-4.6,1.8c-0.2,0.1-0.4,0.3-0.6,0.6c0.8-0.3,1.5-0.6,2.3-0.9
			c0.1,0.1,0.1,0.2,0.2,0.3c-0.2,0.2-0.4,0.4-0.7,0.6c-0.9,0.4-1.8,0.8-2.7,1.2c-0.2,0.1-0.3,0.3-0.7,0.5c0.4,0,0.7,0,0.9,0
			c0.1,0.1,0.1,0.2,0.2,0.2c-0.7,0.5-1.3,0.9-2,1.4c0,0.3,0,0.5,0.1,0.8c-0.9,0.9-2.5,1-2.9,2.6c0.5-0.2,0.9-0.4,1.4-0.7
			c0.4,0.8-0.5,0.8-0.7,1.2c0.7-0.2,1.3-0.3,2.1-0.5c0,0.3,0.1,0.4,0,0.5c-0.2,0.2-0.3,0.4-0.5,0.4c-1.6,0.1-2.9,1.6-4.7,1.2
			C61.6,26.8,63.3,26.8,63.4,25.3z M7,113.7c0.1-0.1,0.1-0.1,0.2-0.2c0.3,0.3,0.7,0.6,0.9,1c2.2,4.5,4.9,8.5,8.4,12
			c0.2,0.2,0.2,0.5,0.2,0.8c0,0.6,0.2,0.7,0.5,0.6c1.2,1.1,2.3,2.3,3.5,3.2c1.3,0.9,2.7,1.7,4.2,2.3c1.4,0.6,2.9,1.1,4.4,1.5
			c1.5,0.4,3,0.9,4.7,0.6c-2.6-1.2-5.2-2.4-7.8-3.6c-0.1,0.1-0.1,0.1-0.2,0.2c0.8,0.7,1.6,1.4,2.3,2c-0.4,0.3-0.9,0.4-1.5-0.3
			c-0.7-0.8-1.5-1.7-2-2.6c-0.7-1.1-1.8-1.5-2.8-2.2c-0.1,0.1-0.2,0.2-0.2,0.3c0.8,0.5,1.5,1.1,2.3,1.7c-1.1,0.5-1.7-0.2-2.3-0.8
			c-0.6-0.6-1.1-1.2-1.7-1.9c-0.6,0.6-1.2,0.3-1.7-0.2c-1.1-1.2-2.3-2.3-3.4-3.5c-2.6-3.1-4.7-6.5-6.5-10.1c-0.5-0.9-1-1.9-1.5-2.8
			c-0.2,0.2-0.3,0.4-0.5,0.6c-1.8-3.1-2.3-6.5-3.2-9.8c-0.9-3.3-1.7-6.6-2.5-9.5c0,5.2,1,10.6,2.8,15.8c1.9,5.3,4.6,10,8.5,14.1
			C10.6,119.9,8.3,117.1,7,113.7z M39.8,43.6c0.1,0,0.1,0,0.2,0c-0.2-1.4-0.5-2.8-0.8-4.2c0.1-0.1,0.2-0.1,0.3-0.2
			c0.2,0.2,0.5,0.4,0.8,0.7c-0.3-1-0.7-1.9-1.1-3.1c0.5,0.2,0.7,0.3,1,0.5c-0.1-0.4-0.2-0.8-0.3-1.1c0.1-0.4,0.2-0.8,0.3-1.5
			c0.3,0.4,0.4,0.7,0.6,1c0.2,0.4,0.4,0.7,0.8,1c-0.1-1.2-0.2-2.4-0.4-3.6c0.1,0,0.2-0.1,0.3-0.1c0.3,0.3,0.6,0.7,0.9,1
			c0.1,0,0.1-0.1,0.2-0.1c-0.4-1.1-0.9-2.2-1.3-3.2c-1.2-0.5-1.4-0.3-1.7,0.8c-0.2,0.7-0.6,1.4-0.8,2.2c-0.3,1.2-0.7,2.3-0.8,3.5
			c-0.3,2.6-0.5,5.2-0.7,7.8c0,0.5,0.1,1,0.2,1.4c0.1,0,0.2,0,0.3,0c-0.2,0.6-0.4,1.2-0.6,1.8c0.1,0.1,0.2,0.1,0.2,0.2
			c0.7-0.3,1.4-0.4,2-0.9c0.3-0.3,0.3-1,0.2-1.5c-0.1-1.1-0.4-2.2-0.6-3.3c0.1,0,0.2-0.1,0.3-0.1C39.4,42.9,39.6,43.3,39.8,43.6z
			 M31.7,109c0.8,1.4,1.7,2.9,2.5,4.3c0.1,0.2,0.2,0.3,0.4,0.4c2.9,2,5.9,3.9,8.8,5.9c1.1,0.8,2-0.1,3-0.3
			c-5.2-3.4-10.7-6.1-14.9-11.1c1.2,0.1,1.4,1,1.9,1.5c0.6,0.5,1.1,1,1.7,1.5c-0.8-2.5-3.2-3.3-4.7-5c-0.1,0-0.1,0.1-0.2,0.1
			C30.7,107.2,31.2,108.1,31.7,109z M62.8,122.3c1.5-1.4,2.9-2.9,4.4-4.3c0.9-0.9,0.8-1.9,0.1-3c-0.3,0.4-0.4,0.8-0.7,1
			c-1.8,1.7-3.5,3.4-5.3,5.1c-0.8,0.7-1.7,1.3-2.6,1.9c-0.4,0.3-0.5,0.7-0.1,1c0.3,0.3,0.6,0.5,1,0.8c0.4-0.3,0.7-0.5,1.1-0.8
			c-0.1-0.4-0.2-0.8-0.4-1.3c0.4,0.3,0.6,0.5,1,0.9C61.7,123.2,62.3,122.8,62.8,122.3z M58.6,43c-0.1-0.1-0.2-0.2-0.3-0.2
			c-2.2,0.3-4.3-0.8-6.5-1c-0.6,0-1.3-0.3-1.9-0.3c9.5,3,19.1,5.2,29.1,6c0,0,0.1-0.2,0.1-0.4c0,0.1,0.1,0.1,0.1,0.2
			c0.5-0.4,1.1-0.8,1.6-1.1c0-0.1-0.1-0.2-0.1-0.3c-0.4,0.1-0.8,0.1-1.1,0.3c-1.5,0.9-3.1,0.6-4.7,0.4c-2-0.3-4-0.7-6-1.1
			c-1.8-0.4-3.6-0.8-5.5-1.2c-0.2,0-0.4-0.1-0.5-0.1c-1.8,0.6-3.3-0.9-5-0.8c-0.1,0-0.2-0.1-0.5-0.2C58,43.1,58.3,43.1,58.6,43z
			 M25.9,123c0-0.1,0.1-0.1,0.1-0.2c-1.3-1-2.6-2-3.9-3c-0.1,0.1-0.1,0.1-0.2,0.2c1.1,1,0.7,2.9,2.2,3.3c0.2,0.7,0.2,1.2,0.4,1.6
			c0.6,1,1.2,2,2,2.7c0.7,0.6,1.8,0.9,2.8,1.2c-0.9-1.7-1.7-3.3-3.1-4.7c0,0.1,0,0,0-0.1c0.1-0.1,0.1-0.2,0.3-0.3
			c-0.6-0.3-1.2-0.5-1.7-0.7c0-0.1,0-0.2,0.1-0.2C25.2,122.9,25.5,122.9,25.9,123z M41.6,121c0.1-0.3,0.2-0.4,0.2-0.5
			c0-0.1,0-0.2,0-0.1c0.7,0.7,1.3,1.5,2.1,1.9c0.8,0.4,1.5,1.3,2.6,1.3c-0.5-2.1-2.2-2.7-3.6-3.7c-2.2-1.5-4.5-3.1-6.7-4.6
			c-0.2-0.2-0.5-0.3-0.8-0.5C36.4,118,39.4,119,41.6,121z M68.5,112.8c-0.4-2.1-0.7-4.3-1-6.4c-0.1,0-0.2,0-0.2,0
			c0,0.6,0.1,1.1,0.1,1.7c-0.3,4.3,1.3,8.1,3,11.8c0.4,0.9,0.7,1.7,1.1,2.6c0.1,0.1,0.1,0.3,0.2,0.4c0.6-1-0.2-5.5-0.7-5.8
			c-0.6-1.8-1.1-3.3-1.6-4.8c-0.1,0-0.3,0.1-0.4,0.1c0.5,2.1,1.1,4.2,1.6,6.3C69.3,117,68.8,114.9,68.5,112.8z M75.7,66.7
			c-0.1-0.1-0.3,0-0.3,0c-1-0.8-1.9-1.5-2.9-2.3c-0.1,0.1-0.2,0.1-0.3,0.2c0.3,1,0.5,2,1,2.8c0.6,0.8,1.6,1.4,2.6,2.2
			c-0.1-0.7-0.2-1-0.3-1.5c0.5,0.8,0.8,1.6,1.3,2.2c0.5,0.6,1.3,1,2,1.5C78.8,69.4,77.8,67.7,75.7,66.7z M15.8,98
			c0.4,1.9,0.6,3.7,2.3,4.9c1.2,1,2.3,2.1,3.5,3.1c0.2,0.1,0.3,0.2,0.6,0.4C21.7,104.4,17.7,98.9,15.8,98z M20,117.6
			c0.1-0.4,0.2-0.5,0.3-0.9c0.8,2.6,3.2,3.2,4.9,4.8c-0.1-1.3-0.7-2.4-1.6-3.2c-1.6-1.3-3.3-2.5-4.9-3.8c-0.4-0.3-0.8-0.6-1.1-1
			c-0.1,0.1-0.1,0.1-0.2,0.2C18.2,115,19,116.3,20,117.6z M21.8,116.5c-1.9-3.3-4.5-5.9-7.8-8C15.7,112.1,18.7,114.3,21.8,116.5z
			 M25.3,127.2c-1.6-2.7-2.9-5.4-5.8-6.9C19.8,122.9,22.9,126.6,25.3,127.2z M72.9,125.1c1.7,2,3.7,4.2,5.7,6.5
			c0.1-0.1,0.2-0.1,0.3-0.2c-3.3-3.2-4.4-7.6-6.4-11.5C72.1,121.5,73.5,123,72.9,125.1z M14.6,116.1c0.7,3.3,3.2,5.3,5.4,7.4
			C19.2,120.4,17.5,117.8,14.6,116.1z M21.8,84.7c-0.3-1.4-0.5-2.9-1-4.2c-0.6-1.3-1.6-2.4-2.5-3.6C18.4,80,19.7,82.5,21.8,84.7z
			 M84.9,134.3c1.5,2.9,8.4,8.7,11.1,9.8C92.2,140.8,88.5,137.5,84.9,134.3z M68.3,62.1c0.4,1,0.6,2.1,1.1,3
			c0.4,0.6,1.2,0.8,1.8,1.2c0.4,0.2,0.8,0.4,1.2,0.7C72.4,64.4,70.6,63.1,68.3,62.1z M21.9,126.5c-0.5-0.4-1.1-0.6-1.7-0.8
			c0-0.1,0.1-0.2,0.1-0.2c0.4,0.1,0.8,0.3,1.1,0.4c-0.9-1.9-2.8-2.6-4-4.3c0.1,2.2,3.4,6.1,5.7,6.6
			C22.7,127.6,22.4,126.9,21.9,126.5z M55.3,53.7c0-0.1,0.1-0.1,0.1-0.2c2.1,1.1,4.1,2.2,6.3,3.3c-0.7-1.1-1.2-2.2-2.5-2.7
			c-1.2-0.5-2.3-1.1-3.5-1.6c-0.3-0.1-0.6-0.2-1.1-0.4C54.8,52.8,55,53.2,55.3,53.7z M41.1,123.7c1.6,2.6,4.3,3.6,6.9,5
			C47,126.8,42.1,123.3,41.1,123.7z M79.9,75.8c0.7-0.2,1.3-0.4,2.2-0.7c-1.9-1.5-3.7-2.9-5.4-4.3c-0.1,0.1-0.1,0.2-0.2,0.2
			c0.3,1.9,2.2,2.6,3.3,3.9C79.8,75.1,79.8,75.4,79.9,75.8z M9.9,107c1.6,1.9,3.1,3.8,4.8,5.6c0.7,0.8,1.5,1.4,2.4,2.1
			c-0.2-0.3-0.5-0.6-0.6-1c-0.9-1.6-2.2-2.9-3.6-4.1c-1-0.8-1.7-1.9-2.5-2.9c-0.2-0.3-0.4-0.6-0.7-0.9c-0.1,0-0.2,0.1-0.3,0.1
			C9.6,106.2,9.7,106.6,9.9,107z M42.4,122.2c-1.1-1-2.4-1.8-3.6-2.6c-0.3-0.2-0.7-0.2-1.2-0.1c1.2,1.1,1.6,2.8,3.4,3.2
			c1,0.2,2,1.1,2.9,1.7c0.1,0,0.1-0.1,0.2-0.1C43.6,123.5,43.1,122.7,42.4,122.2z M67.2,60.5c-0.3-1.3-0.7-2.2-1.8-2.8
			c-1.3-0.6-2.4-1.4-3.8-2.2C62.6,58.3,65.2,58.9,67.2,60.5z M55.3,51.5c1.3,0.6,2.6,1.2,4,1.9c-0.6-1.9-2.5-2-3.9-2.8
			c0-0.2,0.1-0.4,0.1-0.6c-0.7-0.2-1.5-0.3-2.5-0.6c0.6,1,1,1.8,1.5,2.7C54.7,51.8,54.9,51.7,55.3,51.5z M17.3,117.6
			c-0.6-2.4-2.1-4.2-4.2-5.7C13.3,114.8,15.5,116,17.3,117.6z M63.5,54.8c-1.3-0.6-2.5-1.4-3.8-2c1.3,2.5,4,3.2,6.2,4.8
			C65.6,56.1,64.7,55.3,63.5,54.8z M43.7,43.3c0-0.1-0.1-0.1-0.1-0.2c-0.7,0.5-1.4,1.1-2.2,1.7c0.3-1.1,1.9-2.5,3-2.8
			c0.1,0.2,0.1,0.3,0.2,0.6c0.3-0.2,0.6-0.4,1-0.6c-1.4-0.6-2.5-0.3-3.8,0.1c0,1.5-1.7,2.5-1.1,4.3C41.8,45.3,42.7,44.3,43.7,43.3z
			 M36.9,134.7c-0.8-1-1.9-1.8-3.5-1.4c0.7,0.7,1.3,1.4,2.2,2.3c1-0.1,2.3-0.1,3.8-0.2C38.6,134.3,37.9,134.2,36.9,134.7z
			 M17.3,115.7c-0.1,1.6,2.5,4.9,4.8,5.8C20.9,119,19.2,117.3,17.3,115.7z M13.5,118c1.2,2.3,1.8,5,4.3,6.5
			C16.6,122.1,15.9,119.5,13.5,118z M71.2,15.5c0-0.1-0.1-0.2-0.1-0.3c-0.2,0-0.4,0-0.7,0c0-0.1-0.1-0.1-0.1-0.2
			c1.2-0.6,2.3-1.3,3.5-1.9c0-0.1-0.1-0.2-0.1-0.3c-0.7,0.1-1.5,0.2-2.2,0.3c-0.1-0.1-0.1-0.2-0.2-0.3c-1.1,1.3-2.3,2.5-3.4,3.8
			c0.1,0.1,0.2,0.3,0.3,0.4C69.2,16.6,70.2,16.1,71.2,15.5z M78.4,68.8c0.8,1.8,0.5,4,2.7,4.9C81.6,72.5,81,69.8,78.4,68.8z
			 M23.1,127c0.6,2,2.7,3.7,4.6,3.7C26.9,128.6,25.2,127.7,23.1,127z M64.3,123.5c1.1-1.4,3.1-2.1,2.9-4.5c-1.3,1.2-2.6,2.3-4,3.6
			C63.5,122.9,63.8,123.2,64.3,123.5z M66.7,122.8c0.1,0.1,0.2,0.1,0.4,0.3c0.8-0.9,1.5-1.7,2.3-2.6c-0.4-1-0.8-1.9-1.3-3
			c-0.3,0.4-0.4,0.7-0.6,1c0.7,1.5,0.4,2.4-1.2,3.9C66.5,122.5,66.5,122.7,66.7,122.8z M24.2,109.4c-0.9-2.6-3.7-3.2-5.4-5
			C19.6,107.1,22.2,107.9,24.2,109.4z M16.9,79.1c0.6,2.3,0.6,4.6,2.5,6.2C19,83.2,18.9,81,16.9,79.1z M77.7,64.2
			c-0.3-0.2-0.5-0.3-0.8-0.5c0.1,1.6,1.4,2.4,2.4,3.3c-0.9-2.4-1.7-4.8-3.6-6.6C75.8,62,76.7,63.1,77.7,64.2z M20.2,78.5
			c-0.1-2.3-1.4-4.1-2.3-6.1C17.2,75,18.8,76.8,20.2,78.5z M71.2,63.2c-0.3-2.5-2.3-3-3.9-4.2C67.6,61.5,69.6,62,71.2,63.2z
			 M80.4,132.4c0.1-0.1,0.2-0.1,0.3-0.2c-1.5-2.2-3-4.4-4.5-6.6c-0.1,0.1-0.2,0.1-0.3,0.2C76.8,128.3,78.5,130.4,80.4,132.4z
			 M14.9,118.3c-0.8-2.2-1.5-4.2-3.5-5.6C11.9,115,13,116.7,14.9,118.3z M70.1,60.1c-0.4-2.2-2.3-2.7-4-3.8
			C66.5,57.9,68.4,59.6,70.1,60.1z M50.8,124.5c0.1-0.1,0.1-0.1,0.2-0.2c-0.4-0.5-0.7-1-1.2-1.6c-0.8,0.3-1.5,0.5-2.2,0.8
			c1,1.8,2.2,2.3,3.2,1.4c-0.3-0.2-0.6-0.5-0.9-0.7c-0.3-0.2-0.6-0.5-0.8-0.7c0,0,0.1-0.1,0.1-0.2C49.7,123.8,50.3,124.2,50.8,124.5
			z M62.3,24.8c0.9-0.2,1.5-0.5,1.9-1.4c0.6-1.5,1.4-2.9,2.1-4.3c0.1-0.1,0.1-0.3,0.2-0.5c-0.1-0.1-0.2-0.1-0.3-0.2
			C64.9,20.5,63.6,22.6,62.3,24.8z M70.3,59c0,2.1,2,2.5,3.3,3.8C73.2,60.8,71.8,59.2,70.3,59z M10.3,114.2c0.8,2.3,1.9,4.4,3.5,6.3
			C12.9,118.3,12.3,115.9,10.3,114.2z M32.3,129.3c-0.5-1.6-1.8-2-3.3-2.4C30.2,129.2,31.1,130.4,32.3,129.3z M94,37.9
			c0,0,0.1,0.1,0.3,0.3c0.3-0.5,0.6-0.9,0.8-1.3c-1,0.4-2.2,0.1-2.8,1.5c-0.5,1.2-1.6,2.2-2.5,3.2c-0.1,0.1-0.2,0.2-0.3,0.3
			c0.1,0.1,0.2,0.2,0.2,0.2C91.3,40.9,92.6,39.4,94,37.9z M13.2,107.5c-1.2-1.1-2.2-2.3-3.3-3.5c-0.1,0.1-0.3,0.3-0.4,0.4
			c1.3,1.7,2.7,3.3,4.1,5.2C13.9,108.5,13.7,108,13.2,107.5z M50.8,33.6c-2.2,1.2-4.6,2.1-6.5,3.9c-0.1,0.1-0.2,0.2-0.3,0.3
			c1.3-0.7,2.5-1.4,3.7-2c1.2-0.6,2.4-1.2,4-2C51.3,33.7,50.9,33.5,50.8,33.6z M10.2,108.3c-0.3,1.3,0.9,3.7,2.5,4.8
			C12.9,110.9,11.2,109.8,10.2,108.3z M74.5,65.3c-0.1-1.6-1.3-2.9-3.1-3.5C71.3,63.2,71.6,63.4,74.5,65.3z M60.1,15.1
			c3-1.3,6-2.5,9-3.8C67.2,11.4,60.6,14.1,60.1,15.1z M77.5,67.5c0.2-1.3-0.9-2.7-2.8-3.5C74.8,65.6,75.6,66.6,77.5,67.5z
			 M31.5,130.3c0.2,1.7,1.9,2.8,3.2,2.1C34.1,130.9,32.8,130.6,31.5,130.3z M98.2,29.9c-0.6,1.2-1.3,2.4-1.8,3.6
			c-0.1,0.2-0.1,0.6,0,0.9c1.5-2.1,2.5-4.3,2.9-6.8C98.9,28.3,98.6,29.1,98.2,29.9z M74,127.9c-0.4-0.5-0.8-1-1.4-1.7
			c-0.6,0.6-1.1,1.1-1.7,1.8c0.9,0.4,1.5,0.7,2.2,1C73.4,128.6,73.6,128.3,74,127.9z M73.6,59.9c0,0-0.1,0-0.4,0.2
			c0.7,0.6,1.4,1.1,2,1.7c0.1-1.1-1.9-4.1-3.1-4.4C72.6,58.2,73,59,73.6,59.9z M37.7,123.4c1,1.8,2.6,2.9,4.3,4.1
			C41.4,125.2,39,124.8,37.7,123.4z M67.4,123.4c0.4,0.3,0.7,0.6,1.3,1c-0.1-0.3-0.2-0.5-0.2-0.7c0.3,0,0.5,0,0.7,0
			c0.9-1.6,1.3-1.8,0.4-2.7C68.8,121.9,68.2,122.6,67.4,123.4z M48.4,43.5c-2.5-0.8-3.4,1.4-4.9,2.2c0.1,0.1,0.1,0.3,0.2,0.4
			C45.2,45.3,46.7,44.5,48.4,43.5z M37.1,134.1c0.3-0.2,0.5-0.4,0.8-0.6c-1-1-1.2-2.8-3.4-2.4C35.4,132.2,36.3,133.1,37.1,134.1z
			 M78.8,44.9c0,0.1,0.1,0.2,0.1,0.4c0.5-0.1,1.2-0.1,1.5-0.4c0.8-0.7,1.5-1.6,2.1-2.4C80.7,42.3,80.2,44.3,78.8,44.9z M104,145.3
			c-0.1,0.1-0.1,0.2-0.2,0.3c1.9,0.9,3.3,2.7,5.6,2.9c0.1-0.1,0.1-0.3,0.2-0.4C107.8,147.2,105.9,146.2,104,145.3z M95.2,34.6
			c0.9-1.8,1.8-3.6,2.7-5.4c-0.1,0-0.2-0.1-0.2-0.1c-1.2,1.9-2.3,3.7-3.5,5.7C94.6,34.7,94.8,34.7,95.2,34.6z M73.8,61.2
			c-0.1,1.9,1.4,2.5,2.8,3.5C76.3,62.9,75.1,62,73.8,61.2z M22.7,65.4c0.5-1.7,0.7-3.4-0.2-5.1C22.3,62,22.1,63.7,22.7,65.4z
			 M64.4,128.7c0.4-0.3,0.7-0.6,1.1-1c-0.6-0.5-1.2-0.9-1.8-1.3c-0.4,0.3-0.7,0.6-1.2,0.9C63.2,127.8,63.8,128.3,64.4,128.7z
			 M68.4,54.9c0.4,1.8,2.2,2.1,3.3,3.1C71.3,56.3,70,55.4,68.4,54.9z M136.7,140.5c0.5-0.9,1.7-1.3,2.2-2.7c-1.6,1-2.9,1.9-4.3,2.8
			c0,0.1,0.1,0.1,0.1,0.2C135.3,140.7,136,140.6,136.7,140.5z M52.7,32.7c0,0.1,0,0.3,0.1,0.4c0.5-0.1,0.9,0,1.3-0.2
			c1.7-0.6,3.3-1.3,5-1.9c0-0.1-0.1-0.2-0.1-0.3C56.9,31.3,54.8,32,52.7,32.7z M58.9,125.2c-0.5-0.5-0.9-0.9-1.4-1.3
			c-0.4,0.3-0.9,0.6-1.4,1c0.5,0.5,0.9,0.9,1.4,1.3C58.1,125.8,58.5,125.5,58.9,125.2z M85.9,44.9c1-0.8,1.9-1.8,2.9-2.6
			c0-0.1-0.1-0.2-0.1-0.3c-0.3,0.2-0.6,0.4-1,0.6c-0.3,0.2-0.5,0.3-0.8,0.5c-0.4,0.4-0.8,0.8-1.2,1.2c-0.2,0.2-0.5,0.4-0.7,0.6
			c0,0.1,0,0.2,0,0.3C85.3,45.1,85.7,45.1,85.9,44.9z M83.7,135.5c0.1,0.3,0.1,0.6,0.2,1c1.4,1.1,2.9,2.2,4.5,3.3
			c0.1-0.1,0.1-0.2,0.2-0.2C86.9,138.3,85.4,136.9,83.7,135.5z M67.5,126c0.3-0.3,0.6-0.6,1-0.9c-0.6-0.5-1-0.9-1.5-1.3
			c-0.4,0.3-0.8,0.6-1.2,1C66.4,125.2,66.9,125.5,67.5,126z M65.3,125.1c-0.4,0.3-0.7,0.5-1.1,0.9c0.6,0.4,1.1,0.8,1.7,1.3
			c0.3-0.2,0.7-0.5,1.1-0.9C66.5,125.9,65.9,125.5,65.3,125.1z M99.6,22.4c0.4,2.2-0.9,3.9-1.5,5.9c0.1,0,0.2,0.1,0.4,0.1
			c0.7-2.1,1.5-4.2,2.2-6.3c-0.1-0.1-0.2-0.1-0.3-0.2C100.1,22.1,99.9,22.2,99.6,22.4z M62.6,129.8c0.2-0.2,0.3-0.3,0.4-0.4
			c0.1-0.2,0.2-0.3,0.3-0.6c-0.4-0.3-0.8-0.6-1.2-1c-0.5,0.3-0.9,0.6-1.5,1C61.4,129.2,62,129.5,62.6,129.8z M18.4,87.2
			c-0.5,1.6,0.4,4.1,1.7,5C19.5,90.5,19,89,18.4,87.2z M80.1,69.2c-0.1-1.4-1.3-1.9-2.2-2.8C77.9,67.9,78.6,68.8,80.1,69.2z
			 M54.3,128c-1-0.1-1.7-1.2-2.9-0.4C52.5,129.2,53.1,129.3,54.3,128z M17.1,125c0.7,1.2,1.4,2.4,2.8,2.9
			C19.5,126.4,18.3,125.7,17.1,125z M84.6,135.7c0.1-0.1,0.2-0.2,0.3-0.3c-1.2-1.4-2.5-2.8-3.7-4.2c-0.1,0.1-0.3,0.2-0.4,0.3
			C82,132.9,83.3,134.3,84.6,135.7z M111.1,145.4c0-0.1,0-0.2,0.1-0.2c-1-0.4-2-0.7-3.2-1.2c1.1,1.3,3.5,2.7,4.6,2.5
			c-0.7-0.3-1.4-0.5-2.1-0.8c0-0.1,0-0.1,0-0.2C110.7,145.5,110.9,145.5,111.1,145.4z M21.8,66.8c0.4-1.5-0.3-2.6-0.9-3.9
			C20.4,64.5,20.9,65.7,21.8,66.8z M41,134.7c-0.2-0.2-0.5-0.5-0.9-0.8c-0.2,0.2-0.3,0.4-0.4,0.7c1.2,1.5,2.6,0.3,3.8,0.5
			C42.7,134.1,41.9,134.6,41,134.7z M35.4,130.2c-0.5-1.2-1.5-1.7-2.7-1.9C33.2,129.7,34.1,130.3,35.4,130.2z M24.5,59.5
			c-0.8,1.1-0.8,3.4,0,4.3C24.5,62.4,24.5,61,24.5,59.5z M56.5,122.6c-0.6,0.3-1.1,0.6-1.6,0.9c0.6,1.3,1,1.3,2.3,0.1
			C57,123.2,56.8,122.9,56.5,122.6z M31.9,132.7c-0.6,0.2-1,0.4-1.5,0.5c1.1,0.6,2.2,1.1,3.2,1.6c0-0.1,0.1-0.1,0.1-0.2
			C33.1,134,32.4,133.3,31.9,132.7z M52.2,125c1.1,0.1,2.1,1,3-0.3c-0.3-0.2-0.7-0.5-1.1-0.7C53.7,124.2,53.1,124.6,52.2,125z
			 M117.8,148.3c0,0.1-0.1,0.2-0.1,0.3c0.9-0.1,1.8-0.3,2.7-0.4c-1.9-0.4-3.6-0.7-5.4-1.1c0,0.1,0,0.1-0.1,0.2
			C115.9,147.6,116.8,147.9,117.8,148.3z M56.4,129.5c-0.3,0.3-0.7,0.6-1.1,1.1c0,0-0.3,0-0.5,0.1c0.3,1.1,1.2,0.9,2.5-0.4
			C57,130.1,56.8,129.8,56.4,129.5z M18.4,93c0.1,0,0.2-0.1,0.3-0.1c-0.1-1.3-0.6-2.5-1.7-3.2c-0.1,0-0.2,0.1-0.3,0.1
			C17.3,90.8,17.9,91.9,18.4,93z M25.5,57.1c0.1,0,0.3,0,0.4,0.1c1.3-0.9,0.1-2.2,0.4-3.3c-0.2,0-0.3,0-0.5-0.1
			C25.8,54.9,25.7,56,25.5,57.1z M65.5,54.8c0.7,1.4,2.3,1.6,3.4,2.5C68.3,55.7,66.6,55.7,65.5,54.8z M20.1,88.7
			c0.1-1.4-0.6-2.3-1.4-3C18.7,86.9,19,87.9,20.1,88.7z M61.5,123.9c0.4,0.3,0.7,0.5,1.1,0.9c0.4-0.3,0.8-0.5,1.2-0.9
			c-0.3-0.4-0.6-0.7-0.9-1.1C62.4,123.2,62,123.5,61.5,123.9z M59.4,125.5c-0.5,0.3-0.9,0.5-1.5,0.9c0.5,0.4,0.8,0.6,1.1,0.9
			c0.4-0.3,0.8-0.5,1.4-0.9C60,126.1,59.7,125.8,59.4,125.5z M51.7,129.5c-0.5-0.4-1.1-0.9-1.6-1.3c-0.3,0.2-0.5,0.3-0.8,0.5
			C50.5,130.2,50.6,130.2,51.7,129.5z M110.7,147.7c0.1-0.2,0.2-0.3,0.2-0.5c-1.2-0.6-2.4-1.3-3.7-1.9c-0.1,0.1-0.1,0.3-0.2,0.4
			C108.3,146.4,109.5,147.1,110.7,147.7z M59.8,125.2c0.4,0.3,0.7,0.6,1,0.9c0.4-0.3,0.8-0.6,1.3-0.9c-0.4-0.4-0.8-0.7-1.1-1
			C60.5,124.6,60.2,124.8,59.8,125.2z M32.2,48.7c-0.4,1.2,0.7,1.8,0.6,2.7c0.1,0,0.2,0,0.3,0c0.1-0.7,0.2-1.5,0.3-2.3
			C33,49,32.6,48.9,32.2,48.7z M74.7,122.3c-0.1,0.1-0.2,0.1-0.3,0.2c0.8,1.1,1.5,2.2,2.3,3.3c0.1-0.1,0.2-0.1,0.3-0.2
			C76.7,124.2,75.5,123.4,74.7,122.3z M76.8,11.1c1.7-0.4,3.5-0.8,5.4-1.2C80.1,9.5,78.4,10.3,76.8,11.1z M31.6,49.4
			c-0.6,0.3-0.8,2.1-0.5,3.9C32.5,52.1,31,50.7,31.6,49.4z M55.9,129.2c-0.6-0.9-0.9-1.2-2.3,0C55.1,130,55.3,130,55.9,129.2z
			 M52.5,132.2c0,0.1,0,0.1,0,0.2c-0.7,0.1-1.4,0.2-2.3,0.2c0.9,0.9,1.9,0.9,3.3,0C53,132.4,52.8,132.3,52.5,132.2z M64.3,54.6
			c0-0.1,0.1-0.2,0.1-0.3c-1.2-1.1-2.8-1.5-4.2-2.3c0,0.1-0.1,0.2-0.1,0.2C61.5,53.1,62.9,53.9,64.3,54.6z M67.4,55.3
			c-0.1-0.9-1.6-2-3-2.2C65.2,54.3,66.4,54.5,67.4,55.3z M64.3,33.1c0,0.1,0.1,0.2,0.1,0.3c1.7-0.4,2.8-1.8,4.4-2.4
			c0-0.1-0.1-0.2-0.1-0.3C67.2,31.5,65.7,32.3,64.3,33.1z M28,125.2c0.4,1.7,1.8,1.2,2.5,1.8c0.1-0.2,0.2-0.3,0.2-0.4
			C30,126.2,29.1,125.8,28,125.2z M27.8,128.9c0,0.1-0.1,0.1-0.1,0.2c1,0.7,2,1.4,3.2,2.2C30.4,129.4,28.8,129.5,27.8,128.9z
			 M82.5,46.2c-1.3-0.1-1.8,1.4-3,1.5C81.1,48.2,81.7,47,82.5,46.2z M60.2,128.5c0.5-0.4,0.9-0.7,1.5-1.1c-0.4-0.2-0.7-0.4-1-0.6
			c-0.4,0.3-0.8,0.6-1.3,0.9C59.7,128,59.9,128.2,60.2,128.5z M69.4,127.1c1.2,0.9,1.6,0.9,1.8-0.3c-0.3-0.2-0.6-0.4-1-0.6
			C69.9,126.5,69.6,126.8,69.4,127.1z M52.2,41.3c1.2,0.6,2.1-0.1,3.2-0.5C54.1,40.2,53.2,40.8,52.2,41.3z M27.5,52.1
			c-1,0.4-1.1,1.5-0.5,2.8c0.1,0,0.2,0,0.3,0C27.4,54,27.5,53.1,27.5,52.1z M70.4,122.8c-0.3,0.4-0.5,0.9-0.8,1.4
			c0.4,0.2,0.8,0.4,1.2,0.6C71.7,123.9,70.6,123.5,70.4,122.8z M39.7,133.5c-0.8-0.8-1.5-1.6-2.4-2.5
			C37.4,132.2,38.7,133.7,39.7,133.5z M72.3,59.4c-0.7-1-1.7-1.6-2.7-2.1C69.9,58.7,71.4,58.7,72.3,59.4z M56.4,131.7
			c0,0.1,0,0.2,0.1,0.2c0.8-0.1,1.6-0.1,2.4-0.2c0-0.1,0-0.1,0.1-0.2c-0.4-0.3-0.7-0.6-1.1-0.9C57.2,131.1,56.8,131.4,56.4,131.7z
			 M54.6,125.8c0.8,0.4,1.5,0.7,2.2,1c0.1-0.1,0.2-0.2,0.2-0.4c-0.4-0.4-0.9-0.8-1.4-1.3C55.3,125.4,55,125.6,54.6,125.8z M66,128
			c-0.4,0.3-0.7,0.6-1.1,1c0.3,0.2,0.6,0.4,0.9,0.7c0.4-0.3,0.8-0.6,1.2-0.9C66.6,128.4,66.3,128.2,66,128z M88.7,35.4
			c1.3,0.2,1.6-0.7,2.2-1.5C89.7,33.8,89.3,34.6,88.7,35.4z M63.3,126.2c-0.3-0.3-0.5-0.5-0.8-0.7c-0.4,0.3-0.8,0.5-1.3,0.9
			c0.4,0.2,0.7,0.4,1,0.6C62.6,126.7,62.9,126.5,63.3,126.2z M65.4,124.4c0.4-0.4,0.8-0.7,1.2-1.1c-0.3-0.2-0.5-0.4-0.7-0.6
			c-0.4,0.4-0.9,0.7-1.4,1.1C64.9,124.1,65.2,124.2,65.4,124.4z M94.7,29.4c-0.9-0.4-0.9-0.4-1.5,1.9C94.3,31,94.1,29.9,94.7,29.4z
			 M91.8,34.9c1.2-0.2,1.3-1.3,1.9-2C92.6,33.1,92.4,34.2,91.8,34.9z M51.2,130.4c0.4,0.3,0.8,0.6,1.3,0.9c0.2-0.1,0.5-0.3,0.9-0.5
			C52.6,130,52,129.7,51.2,130.4z M93.6,141.5c0.1-0.1,0.3-0.3,0.4-0.4c-0.9-0.9-1.7-1.7-2.6-2.6c-0.1,0.1-0.2,0.2-0.3,0.3
			C92,139.7,92.8,140.6,93.6,141.5z M69.7,125.8c-0.3-0.2-0.6-0.4-0.9-0.6c-0.3,0.4-0.6,0.7-1,1.1c0.4,0.2,0.8,0.3,1.1,0.5
			C69.3,126.5,69.5,126.2,69.7,125.8z M42.6,45.5c0,0.1,0.1,0.1,0.2,0.2c0.9-0.7,1.8-1.4,2.7-2.2c-0.1-0.1-0.1-0.2-0.2-0.3
			C44.1,43.7,43.4,44.6,42.6,45.5z M60.3,51.2c0,0.1-0.1,0.2-0.1,0.3c1.1,0.5,2.1,1,3.2,1.5c0-0.1,0.1-0.2,0.1-0.3
			C62.6,51.9,61.4,51.7,60.3,51.2z M66.9,19.2c0.7-0.5,1.4-0.9,2.1-1.4c0-0.1-0.1-0.1-0.1-0.2C67.3,17.8,67,18.1,66.9,19.2z
			 M67.4,128.2c0.3-0.3,0.6-0.5,1-0.9c-0.4-0.3-0.7-0.4-0.9-0.6c-0.3,0.3-0.6,0.5-1.1,0.8C66.8,127.8,67.1,128,67.4,128.2z
			 M30.2,125.1c0.7,1,1.5,1.3,2.5,1.3C32.2,125.3,31.2,125.4,30.2,125.1z M63.8,125.7c0.4-0.3,0.7-0.5,1.1-0.9
			c-0.3-0.3-0.5-0.4-0.8-0.7c-0.4,0.3-0.7,0.5-1.2,0.9C63.3,125.3,63.6,125.5,63.8,125.7z M47,129.1c-0.1,0.1-0.1,0.3-0.2,0.4
			c0.9,0.4,1.7,0.8,2.6,1.2c0.1-0.1,0.1-0.3,0.2-0.4C48.7,129.9,47.8,129.5,47,129.1z M51.2,36.2c-0.6,0.4-1.1,0.8-1.7,1.2
			c0.7,0.3,0.7,0.3,2.5-0.9C51.7,36.3,51.4,36.3,51.2,36.2z M60.7,131.8c0.7,1,1.3,1,2.2,0.2c0-0.1,0-0.2,0-0.3
			C62.2,131.7,61.5,131.7,60.7,131.8z M86.5,35.5c1.2,0.3,1.3,0.2,2.4-1c-0.1-0.1-0.1-0.2-0.2-0.3C88,34.6,87.4,35,86.5,35.5z
			 M50.4,125.9c0.8,0.2,1.2,1,2.3,0.6C51.7,125.4,51.3,125.3,50.4,125.9z M93,34.8c0.7-0.1,1.6-1.2,2.1-2.7C95.1,32.1,95,32,95,32
			C94.3,32.9,93.7,33.8,93,34.8z M30.8,132.1c0.1-0.1,0.2-0.2,0.2-0.4c-0.7-0.5-1.5-1-2.2-1.4c-0.1,0.1-0.2,0.2-0.3,0.4
			C29.3,131.2,30.1,131.7,30.8,132.1z M33.9,127.7c-0.7-0.3-1.5-0.7-2.3-1.1C31.8,127.4,33.1,128.1,33.9,127.7z M70.1,128.3
			c-0.4-0.3-0.8-0.5-1.2-0.8c0,0.5-0.1,0.9-0.1,1.3c0.2,0.1,0.4,0.2,0.7,0.3C69.7,128.8,69.9,128.6,70.1,128.3z M67.1,31
			c-1.4-0.5-1.8,0.7-2.6,0.8c0.1,0.2,0.1,0.3,0.2,0.4C65.3,31.8,66.1,31.5,67.1,31z M30.2,50.6c-1,0.2-1,0.3-0.6,2
			c0.1,0,0.2,0,0.3,0.1C30,51.9,30.1,51.3,30.2,50.6z M29.3,53.2c-0.9,0.4-1.1,1-0.6,2.3C28.9,54.7,29.1,54,29.3,53.2z M44.8,31.9
			c0,0.1,0,0.3,0,0.9c0.8-0.9,1.5-1.7,2.2-2.5c-0.1-0.1-0.1-0.1-0.2-0.2C46.2,30.7,45.5,31.2,44.8,31.9z M94.7,30.8
			c0.9-0.1,1-1,1.6-1.7C94.9,29,95.2,30.3,94.7,30.8z M46.6,28c-0.1,0-0.2-0.1-0.4-0.1c-0.3,0.9-0.6,1.7-1,2.6
			c0.1,0,0.3,0.1,0.4,0.1C46,29.7,46.3,28.8,46.6,28z M60.3,33.7c0-0.1-0.1-0.2-0.1-0.3c-0.7,0.1-1.3,0.2-2,0.3c0,0.1,0,0.2,0,0.3
			c0.4,0.1,0.8,0.2,1.2,0.3C59.8,34.1,60,33.9,60.3,33.7z M82.3,47.3c0.1,0.1,0.1,0.2,0.2,0.3c0.8-0.5,1.5-0.9,2.4-1.5
			C83.4,45.7,83.1,46.8,82.3,47.3z M58.5,129.9c0.4,1.2,1.3,1.6,2,1C59.9,130.6,59.3,130.3,58.5,129.9z M47.2,38.8
			c1.1,0.6,1.5-0.2,2.3-0.7C48.4,37.7,47.9,38.5,47.2,38.8z M82.7,43.5c0.1,0.1,0.1,0.2,0.2,0.3c0.6-0.3,1.2-0.7,1.9-1
			c-0.1-0.1-0.1-0.3-0.2-0.4C83.6,42.2,83.3,43.1,82.7,43.5z M50.9,37.7c1.1,0.4,1.3,0.4,2.7-0.9C52.5,36.7,51.9,37.5,50.9,37.7z
			 M59.4,129.6c0.8,0.4,1.4,0.7,2.1,1C60.9,129.5,60.2,129.2,59.4,129.6z M15.7,124.5c0.1-0.1,0.2-0.1,0.3-0.2
			c-0.5-0.8-1.1-1.6-1.6-2.3c-0.1,0.1-0.2,0.2-0.3,0.2C14.6,123,15.1,123.7,15.7,124.5z M48.5,126.3c0.1-0.1,0.2-0.3,0.2-0.4
			c-0.8-0.5-1.6-0.9-2.3-1.4c0,0.1-0.1,0.2-0.1,0.3C47,125.3,47.8,125.8,48.5,126.3z M59.6,132.3c-0.8,0.1-1.4,0.2-2.2,0.2
			C58.3,133.4,58.6,133.3,59.6,132.3z M54.1,126.1c-0.1,0.1-0.1,0.2-0.2,0.3c0.5,0.5,1,1.1,1.8,0.9c0-0.1,0.1-0.2,0.1-0.3
			C55.3,126.7,54.7,126.4,54.1,126.1z M62.1,11.5c-0.9,0.4-1.6,0.7-2.5,1.1C60.5,13,61.4,12.6,62.1,11.5z M89,36.4
			c-1.1-0.4-1.6,0.2-2.1,0.8c0.1,0.1,0.1,0.1,0.1,0.2C87.7,37,88.4,36.7,89,36.4z M64.3,129.3c-0.2,0.3-0.4,0.5-0.7,0.7
			c0,0.1,0.1,0.2,0.1,0.2c0.5,0,1,0,1.5,0c0-0.1,0-0.2,0-0.3C64.9,129.8,64.6,129.6,64.3,129.3z M52.7,39.3c-0.8-0.8-1.3-0.6-1.8,0
			c0,0.1,0,0.2,0.1,0.3C51.6,39.6,52.2,39.4,52.7,39.3z M62.4,32.6c0-0.1-0.1-0.3-0.1-0.4c-0.7,0.2-1.3,0.3-2,0.5
			c0,0.2,0.1,0.3,0.1,0.5C61,33,61.7,32.8,62.4,32.6z M44.2,129.2c0.1-0.1,0.2-0.2,0.3-0.2c-0.7-0.8-1.4-1.5-2.1-2.3
			c-0.1,0.1-0.1,0.1-0.2,0.2C42.8,127.6,43.5,128.4,44.2,129.2z M27.4,124c-0.1,0.1-0.1,0.2-0.2,0.3c0.8,0.3,1.5,0.7,2.3,1
			c0.1-0.1,0.1-0.3,0.2-0.4C28.9,124.6,28.1,124.3,27.4,124z M65.9,11.5c0-0.1-0.1-0.2-0.1-0.2c-1.1,0.4-2.2,0.8-3.3,1.3
			c0.1,0.1,0.1,0.2,0.2,0.2C63.7,12.3,64.8,11.9,65.9,11.5z M102.7,5.9c0.1-0.3,0.3-0.6,0.5-1c-0.1-0.1-0.1-0.1-0.2-0.2
			c-0.6,0.4-1.2,0.8-1.7,1.2c0,0,0.1,0.1,0.1,0.1C101.8,6,102.2,6,102.7,5.9z M62.2,34c-0.9-0.4-1-0.4-2,0.4c0,0.1,0.1,0.2,0.1,0.3
			C61,34.5,61.5,34.2,62.2,34z M49.2,39.1c0,0.1,0.1,0.2,0.1,0.3c0.5-0.2,1.1-0.4,1.6-0.7c0-0.1-0.1-0.2-0.1-0.4
			C50,38.1,49.7,38.8,49.2,39.1z M91.3,36c0,0-0.2-0.1-0.4-0.3c-0.1,0.2-0.3,0.4-0.4,0.6c0,0.1,0.1,0.2,0.1,0.2
			c0.7-0.2,1.4-0.4,2.1-0.6c0-0.1-0.1-0.3-0.1-0.4C92.2,35.7,91.8,35.9,91.3,36z M50.8,40.4c0-0.1-0.1-0.3-0.1-0.4
			c-0.6,0.2-1.1,0.3-1.7,0.5c0.1,0.2,0.1,0.3,0.2,0.5C49.7,40.8,50.3,40.6,50.8,40.4z M22.5,68.6c0.1,0,0.3,0,0.4,0
			c-0.1-0.7-0.1-1.5-0.2-2.2c-0.1,0-0.2,0-0.4,0C22.4,67.1,22.4,67.8,22.5,68.6z M91.1,31.9c-0.3,0.4-0.5,0.8-0.7,1.2
			c0.1,0.1,0.1,0.1,0.2,0.2c0.4-0.2,0.8-0.5,1.4-0.9C91.5,32.2,91.3,32.1,91.1,31.9z M16.3,127.3C16.3,127.3,16.4,127.2,16.3,127.3
			c-0.6-0.8-1.4-1.5-2.1-2.2c0,0-0.1,0.1-0.1,0.1C14.9,125.9,15.6,126.6,16.3,127.3z M25.8,52.2c-0.8,0.5-1.1,1-0.4,1.8
			C25.5,53.5,25.7,52.8,25.8,52.2z M54.8,26.6c0.3,0,0.6,0,0.8-0.1c0.1-0.5,0.1-1,0.2-1.5c-0.1,0-0.2-0.1-0.3-0.1
			C55.3,25.5,55.1,26,54.8,26.6z M47.7,127c0.7,1.2,1.1,1.4,1.8,0.9C49,127.6,48.4,127.3,47.7,127z M100.1,16.4
			c-0.1,0-0.2-0.1-0.2-0.1c-0.3,0.8-0.6,1.5-0.9,2.3c0.1,0,0.3,0.1,0.4,0.1C99.6,18,99.8,17.2,100.1,16.4z M59.6,15
			c-0.1-0.1-0.1-0.1-0.2-0.2c-0.8,0.1-1,0.9-1.3,1.5c0.1,0.1,0.1,0.1,0.2,0.2C58.8,15.9,59.2,15.5,59.6,15z M55.9,127.7
			c0.7,0.3,1.1,0.9,1.9,0.5C57.2,127.7,56.8,127.2,55.9,127.7z M77.7,9.9c0-0.1,0-0.1,0-0.2c-0.6-0.1-1.2-0.1-1.8-0.2
			c0,0.1,0,0.1-0.1,0.2c0.2,0.2,0.4,0.3,0.7,0.5C77,10.1,77.3,10,77.7,9.9z M62.4,32.9c0,0.1,0.1,0.3,0.1,0.4c0.5-0.1,1-0.2,1.5-0.4
			c0-0.2-0.1-0.3-0.1-0.5C63.4,32.6,62.9,32.7,62.4,32.9z M81.2,44.7c1,0.3,1.6,0.1,1.9-0.8C82.3,44.2,81.8,44.4,81.2,44.7z
			 M52.6,40.7c0-0.1-0.1-0.3-0.1-0.4c-0.5,0.2-1.1,0.3-1.6,0.5c0.1,0.2,0.1,0.3,0.2,0.5C51.6,41.1,52.1,40.9,52.6,40.7z M78.5,36.5
			c0-0.1,0-0.3-0.1-0.4c-0.6,0.1-1.1,0.2-1.7,0.3c0,0.1,0,0.3,0.1,0.4C77.4,36.6,77.9,36.5,78.5,36.5z M90.5,35.2
			c1.2-0.2,1.1-1.1,1.6-1.6c-0.1-0.1-0.2-0.1-0.2-0.2C91.5,33.9,91.1,34.5,90.5,35.2z M96,35.5c-0.1-0.1-0.2-0.2-0.2-0.4
			c-0.4,0.3-0.8,0.5-1.3,0.8c0.1,0.1,0.2,0.3,0.3,0.5C95.2,36,95.6,35.8,96,35.5z M26.1,59.2c0.1,0,0.3,0,0.4,0.1
			c0.1-0.7,0.2-1.3,0.3-2c-0.1,0-0.2,0-0.4-0.1C26.3,57.9,26.2,58.5,26.1,59.2z M75.4,10.7c0-0.1-0.1-0.2-0.1-0.4
			c-0.6,0.2-1.2,0.5-1.8,0.7c0,0.1,0.1,0.2,0.1,0.3C74.1,11.2,74.8,11,75.4,10.7z M58,128.4c0,0.1,0,0.2-0.1,0.3
			c0.4,0.3,0.8,0.8,1.4,0.4c0-0.1,0-0.2,0.1-0.4C58.9,128.7,58.5,128.6,58,128.4z M46,39.6c0,0.1,0,0.2,0,0.3c0.4,0,0.9,0,1.3,0
			c0-0.2,0-0.4-0.1-0.6C46.9,39.4,46.4,39.5,46,39.6z M47.9,27.1c-0.1-0.1-0.2-0.1-0.3-0.2c-0.3,0.5-0.6,1.1-0.9,1.6
			c0.1,0.1,0.3,0.1,0.4,0.2C47.4,28.2,47.6,27.7,47.9,27.1z M98.6,145.6c0-0.1,0.1-0.2,0.1-0.2c-0.7-0.4-1.4-0.8-2.1-1.3
			c0,0.1-0.1,0.2-0.1,0.3C97.2,144.8,97.9,145.2,98.6,145.6z M114.1,148.6c0.5,0,1,0,1.4,0c0-0.1,0-0.1,0.1-0.2
			c-0.5-0.2-0.9-0.4-1.5-0.7C114.1,148.2,114.1,148.4,114.1,148.6z M83.8,44.1c0.1,0.1,0.1,0.2,0.2,0.4c0.5-0.3,0.9-0.5,1.4-0.8
			c-0.1-0.1-0.1-0.3-0.2-0.4C84.8,43.6,84.3,43.9,83.8,44.1z M65.7,35.2c0-0.1,0-0.2,0-0.3c-0.6,0-1.1-0.1-1.7-0.1
			c0,0.1,0,0.3,0,0.4C64.6,35.2,65.2,35.2,65.7,35.2z M73.4,12.3c-0.1-0.3-0.3-0.5-0.4-0.8c-0.3,0.3-0.7,0.6-1,0.9
			c0,0.1,0.1,0.2,0.1,0.2C72.5,12.5,72.9,12.4,73.4,12.3z M67.7,19.7c-0.1-0.1-0.1-0.2-0.2-0.3c-0.5,0.3-1,0.6-1.4,0.9
			c0.1,0.1,0.2,0.2,0.3,0.4C66.8,20.3,67.2,20,67.7,19.7z M41.6,40.1c0.1,0.1,0.2,0.1,0.2,0.2c0.5-0.5,0.9-1.1,1.4-1.6
			c-0.1-0.1-0.2-0.1-0.2-0.2C42.5,39,42,39.6,41.6,40.1z M27.9,51c0.4-0.4,0.7-0.7,1-1.1c-0.1-0.1-0.2-0.2-0.3-0.2
			C28.1,49.8,27.5,49.9,27.9,51z M55.1,132.4c0,0.1-0.1,0.2-0.1,0.4c0.5,0.2,0.9,0.4,1.4,0.6c0-0.1,0.1-0.2,0.2-0.4
			C56.1,132.8,55.6,132.6,55.1,132.4z M49,40.1c0-0.1-0.1-0.3-0.1-0.4c-0.4,0.1-0.9,0.3-1.3,0.4c0,0.2,0.1,0.3,0.2,0.5
			C48.2,40.4,48.6,40.2,49,40.1z M29.7,54.6c0.1,0.1,0.2,0.1,0.4,0.2c0.2-0.5,0.4-0.9,0.6-1.4c-0.1-0.1-0.3-0.1-0.4-0.2
			C30.1,53.6,29.9,54.1,29.7,54.6z M135.1,141.6c0-0.1,0-0.1,0-0.2c-0.7,0-1.3,0-2,0c0,0.1,0,0.1,0,0.2
			C133.8,141.6,134.5,141.6,135.1,141.6z M27,51.6c0.1-0.4,0.2-0.7,0.3-1.1c-0.1,0-0.1-0.1-0.2-0.1c-0.2,0.2-0.5,0.4-0.8,0.7
			C26.6,51.3,26.7,51.4,27,51.6z M47,42.5c0-0.1,0-0.2,0-0.3c-0.4,0-0.9,0-1.3,0c0,0.1,0,0.3,0,0.4C46.2,42.6,46.6,42.5,47,42.5z
			 M46.2,40.7c0-0.1,0-0.2,0-0.4c-0.4,0-0.8,0-1.2-0.1c0,0.1,0,0.3,0,0.4C45.4,40.7,45.8,40.7,46.2,40.7z M49.2,131.5
			c0,0.1-0.1,0.2-0.1,0.4c0.4,0.1,0.8,0.2,1.2,0.4c0-0.1,0-0.3,0.1-0.4C50,131.8,49.6,131.6,49.2,131.5z M86.5,42.5
			c-0.3-0.2-0.5-0.3-0.7-0.4c-0.2,0.3-0.4,0.5-0.6,0.8c0.1,0.1,0.1,0.1,0.2,0.2C85.7,42.9,86,42.8,86.5,42.5z M67.4,130.7
			c0.5-0.4,0.9-0.7,1.3-1C68,129.5,67.8,129.6,67.4,130.7z M67.6,34.7c0,0.1,0,0.2,0,0.3c0.5,0.1,1,0.1,1.5,0.2c0-0.1,0-0.2,0-0.3
			C68.6,34.8,68.1,34.8,67.6,34.7z M58.4,34.6c0,0.1,0,0.2-0.1,0.2c0.6,0.2,1.2,0.3,1.8,0.5c0-0.1,0.1-0.2,0.1-0.3
			C59.6,34.9,59,34.8,58.4,34.6z M47,130.9c0.1-0.1,0.1-0.2,0.2-0.3c-0.3-0.2-0.6-0.4-1-0.6c-0.1,0.1-0.1,0.2-0.2,0.3
			C46.3,130.5,46.7,130.7,47,130.9z M43,129.6c0.1-0.1,0.1-0.1,0.2-0.2c-0.2-0.3-0.5-0.7-0.7-1c-0.1,0.1-0.2,0.2-0.3,0.2
			C42.4,129,42.7,129.3,43,129.6z M57.2,17.9c0.1,0.1,0.2,0.2,0.2,0.3c0.3-0.3,0.6-0.5,0.9-0.8c-0.1-0.1-0.2-0.2-0.3-0.3
			C57.8,17.4,57.5,17.6,57.2,17.9z M87,44.9c0.1,0.1,0.1,0.1,0.2,0.2c0.5-0.4,1-0.8,1.5-1.2c0,0-0.1-0.1-0.1-0.1
			C88.1,44.2,87.6,44.6,87,44.9z M54.3,131.8c0-0.1,0-0.2,0.1-0.3c-0.4-0.1-0.7-0.1-1.1-0.2c0,0.1,0,0.2-0.1,0.4
			C53.6,131.7,54,131.8,54.3,131.8z M54.5,33.3c0,0.1,0.1,0.2,0.1,0.3c0.5-0.2,1-0.4,1.6-0.7c0-0.1,0-0.1-0.1-0.2
			C55.5,32.9,55,33.1,54.5,33.3z M46.4,129.1c0.1-0.1,0.2-0.2,0.3-0.3c-0.3-0.2-0.5-0.4-0.8-0.7c-0.1,0.1-0.1,0.2-0.2,0.2
			C46,128.7,46.2,128.9,46.4,129.1z M55.4,24.1c0.1,0.1,0.2,0.1,0.3,0.2c0.2-0.3,0.4-0.5,0.6-0.8c-0.1-0.1-0.2-0.1-0.3-0.2
			C55.8,23.5,55.6,23.8,55.4,24.1z M50.4,126.4c0,0.1-0.1,0.2-0.1,0.3c0.3,0.2,0.6,0.4,0.9,0.6c0.1-0.1,0.1-0.2,0.2-0.4
			C51.1,126.7,50.7,126.6,50.4,126.4z M90.4,36.1c-0.1-0.1-0.1-0.2-0.2-0.3c-0.3,0.2-0.7,0.5-1,0.7c0.1,0.1,0.1,0.2,0.2,0.3
			C89.7,36.6,90.1,36.4,90.4,36.1z M60.5,133c-0.3-0.6-0.3-0.6-1.2,0.2C59.8,133.1,60.2,133.1,60.5,133z M82.1,135
			c0.1-0.1,0.1-0.2,0.2-0.2c-0.3-0.3-0.6-0.6-1-0.9c-0.1,0.1-0.1,0.2-0.2,0.2C81.4,134.4,81.7,134.7,82.1,135z M18.5,65.5
			c-0.1,0-0.1,0-0.2,0c0,0.4,0.1,0.9,0.1,1.3c0.1,0,0.2,0,0.3,0C18.6,66.3,18.5,65.9,18.5,65.5z M66.6,21.4c0-0.1-0.1-0.2-0.1-0.2
			c-0.3,0.2-0.7,0.4-1,0.7c0.1,0.1,0.1,0.2,0.2,0.2C65.9,21.9,66.3,21.6,66.6,21.4z M29.2,49.6c0.1,0.1,0.2,0.1,0.3,0.2
			c0.2-0.2,0.3-0.5,0.5-0.7c-0.1-0.1-0.2-0.1-0.3-0.2C29.6,49.1,29.4,49.4,29.2,49.6z M28.3,131.7c0,0.1-0.1,0.1-0.1,0.2
			c0.3,0.2,0.7,0.4,1,0.7c0.1-0.1,0.1-0.2,0.2-0.2C29,132.1,28.7,131.9,28.3,131.7z M93.2,35.6c0,0.1,0,0.2,0,0.2
			c0.4,0,0.8,0,1.1-0.1c0-0.1,0-0.2,0-0.3C94,35.5,93.6,35.6,93.2,35.6z M57.6,19.3c-0.1-0.1-0.1-0.2-0.2-0.3
			c-0.2,0.1-0.5,0.3-0.7,0.4c0.1,0.1,0.2,0.2,0.2,0.3C57.2,19.6,57.4,19.5,57.6,19.3z M78,46.1c0.3,0.6,0.3,0.6,1,0
			C78.6,46.1,78.3,46.1,78,46.1z M66.3,129.9c0.1,0.1,0.2,0.2,0.3,0.3c0.1-0.3,0.3-0.7,0.5-1.1C66.8,129.4,66.6,129.6,66.3,129.9z
			 M63.8,34.1c0-0.1-0.1-0.2-0.1-0.4c-0.3,0.1-0.6,0.2-0.9,0.3c0,0.1,0.1,0.2,0.1,0.3C63.2,34.3,63.5,34.2,63.8,34.1z M129.6,144.3
			c0,0.1,0,0.2,0,0.4c0.3,0,0.6-0.1,1-0.1c0-0.1,0-0.2,0-0.3C130.2,144.3,129.9,144.3,129.6,144.3z M79.7,36.1c0,0.1,0,0.2,0,0.3
			c0.4-0.1,0.8-0.1,1.2-0.2c0-0.1,0-0.2,0-0.3C80.5,36,80.1,36.1,79.7,36.1z M64.9,23.2c0,0.1,0.1,0.2,0.1,0.2
			c0.3-0.2,0.7-0.3,1-0.5c0-0.1-0.1-0.2-0.1-0.3C65.6,22.8,65.2,23,64.9,23.2z M56.7,22.1c-0.1-0.1-0.1-0.2-0.2-0.2
			c-0.2,0.2-0.5,0.3-0.7,0.5c0.1,0.1,0.1,0.2,0.2,0.2C56.2,22.4,56.5,22.3,56.7,22.1z M92.4,36.9c0-0.1,0-0.1,0-0.2
			c-0.4,0.1-0.8,0.2-1.2,0.2c0,0.1,0,0.1,0,0.2C91.6,37,92,37,92.4,36.9z M83.9,45.3c0-0.1,0-0.2-0.1-0.2c-0.3,0.1-0.6,0.1-0.8,0.2
			c0,0.1,0,0.2,0.1,0.3C83.3,45.4,83.6,45.3,83.9,45.3z M29.3,48.1c0,0.1,0,0.2,0,0.2c0.3,0,0.5,0.1,0.8,0.1c0-0.1,0-0.2,0-0.2
			C29.8,48.2,29.5,48.1,29.3,48.1z M57.1,20.7c-0.1-0.1-0.1-0.1-0.2-0.2c-0.2,0.2-0.4,0.4-0.6,0.6c0.1,0.1,0.2,0.2,0.3,0.3
			C56.7,21.1,56.9,20.9,57.1,20.7z M72.5,123.4c-0.1,0-0.2,0.1-0.3,0.1c0.1,0.3,0.2,0.6,0.3,0.8c0.1,0,0.2-0.1,0.3-0.1
			C72.7,124,72.6,123.7,72.5,123.4z M53.7,127.4c0-0.1,0.1-0.1,0.1-0.2c-0.3-0.1-0.5-0.3-0.8-0.4c0,0.1-0.1,0.2-0.1,0.3
			C53.2,127.2,53.5,127.3,53.7,127.4z M111.7,148.6c0-0.1,0-0.1,0-0.2c-0.3-0.1-0.6-0.1-0.9-0.2c0,0.1,0,0.2,0,0.3
			C111.1,148.5,111.4,148.6,111.7,148.6z M47.2,34.5c-0.1-0.1-0.2-0.2-0.3-0.3c-0.1,0.2-0.3,0.3-0.4,0.5c0.1,0.1,0.2,0.2,0.3,0.3
			C47,34.9,47.1,34.7,47.2,34.5z M57.3,126.9c0,0.1-0.1,0.2-0.1,0.3c0.2,0.1,0.4,0.2,0.7,0.2c0-0.1,0.1-0.2,0.1-0.2
			C57.7,127.1,57.5,127,57.3,126.9z M80,133.1c0.1-0.1,0.1-0.1,0.2-0.2c-0.2-0.2-0.3-0.4-0.5-0.6c-0.1,0.1-0.2,0.2-0.2,0.3
			C79.7,132.8,79.9,132.9,80,133.1z M48,42.5c0,0.1,0,0.1,0,0.2c0.3,0,0.6,0.1,0.9,0.2c0-0.1,0-0.2,0-0.3
			C48.6,42.6,48.3,42.6,48,42.5z M30.6,48.7c0.1,0.1,0.1,0.1,0.2,0.2c0.2-0.1,0.3-0.2,0.5-0.3c-0.1-0.1-0.2-0.2-0.2-0.3
			C30.8,48.4,30.7,48.6,30.6,48.7z M82,36c0,0.1,0,0.1,0,0.2c0.2,0,0.5,0,0.8-0.1c0-0.1,0-0.2,0-0.3C82.5,35.9,82.3,36,82,36z
			 M65.3,130.5c0,0.1,0,0.2,0,0.3c0.2,0,0.4,0,0.6,0c0-0.1,0-0.2,0-0.3C65.8,130.5,65.6,130.5,65.3,130.5z M71.7,125.6
			c0.1-0.1,0.2-0.1,0.2-0.2c-0.1-0.2-0.2-0.4-0.3-0.6c-0.1,0.1-0.2,0.1-0.3,0.2C71.5,125.2,71.6,125.4,71.7,125.6z M93.1,32.3
			c0-0.1-0.1-0.2-0.1-0.2c-0.2,0.1-0.4,0.2-0.6,0.3c0,0.1,0.1,0.2,0.2,0.3C92.7,32.5,92.9,32.4,93.1,32.3z M83.1,35.9
			c0,0.1,0,0.2,0,0.2c0.3,0,0.5,0,0.8-0.1c0-0.1,0-0.2,0-0.3C83.7,35.8,83.4,35.8,83.1,35.9z M48.4,41.1c0,0.1,0,0.1,0,0.2
			c0.2,0,0.5,0.1,0.7,0.1c0-0.1,0-0.2,0-0.2C48.8,41.1,48.6,41.1,48.4,41.1z M85,35.7c0,0.1,0,0.2,0,0.2c0.3,0,0.6-0.1,0.8-0.1
			c0-0.1,0-0.2-0.1-0.3C85.6,35.5,85.3,35.6,85,35.7z M25.2,58.9c0.1,0,0.1,0,0.2,0c0-0.2,0.1-0.5,0.1-0.7c-0.1,0-0.2,0-0.3,0
			C25.3,58.5,25.2,58.7,25.2,58.9z M29,52.1c-0.1,0-0.1,0-0.2-0.1c-0.1,0.2-0.1,0.4-0.2,0.6c0.1,0,0.2,0,0.2,0.1
			C28.9,52.4,28.9,52.2,29,52.1z M47.1,26.1c-0.1,0-0.1,0-0.2,0c-0.1,0.2-0.1,0.5-0.2,0.7c0.1,0,0.2,0,0.3,0
			C47,26.5,47,26.3,47.1,26.1z M29,56c0.1,0,0.2,0.1,0.2,0.1c0.1-0.1,0.2-0.3,0.3-0.4c-0.1,0-0.1-0.1-0.2-0.1
			C29.2,55.7,29.1,55.8,29,56z M72,56.6c0.1,0,0.1-0.1,0.2-0.1c-0.2-0.2-0.3-0.4-0.5-0.6c0,0-0.1,0.1-0.1,0.1
			C71.7,56.1,71.8,56.4,72,56.6z"/>
		<path class="st0" d="M67.1,49.4c1.4-0.1,2.9-0.3,4.1-1.2c0-0.1,0-0.2-0.1-0.3c-1.3,0.3-2.6,0.6-4,1C67.1,49,67.1,49.3,67.1,49.4
			L67.1,49.4z"/>
		<path class="st0" d="M113.5,104c-0.2-0.5-0.3-1-0.6-1.5c-0.7-1.2-1.4-2.3-2.1-3.4c-0.3-0.5-0.7-1-1.1-1.4c0.1-0.1,0.2-0.2,0.3-0.2
			c0.6,0.8,1.3,1.5,1.7,2.4c0.9,1.9,2.2,3.4,3.7,4.9c1.5,1.4,3,2.8,4.5,4.1c1.2,1,2.5,1.9,3.8,2.9c0.2,0.2,0.5,0.2,1,0.5
			c-0.1-0.5-0.1-0.9-0.3-1c-1-0.8-2-1.7-3.1-2.4c-1.2-0.9-2.3-1.7-3.5-2.6c-0.9-0.7-1.8-1.4-2.6-2.2c-0.9-1-1.7-2-2.3-3.1
			c-1.2-2.1-2.5-4.1-4.5-5.5c-0.3-0.2-0.7-0.3-1.2-0.5c0.1,0.6,0.1,1,0.1,1.3c-0.1,0-0.1,0-0.2,0c-0.5-0.6-0.9-1.3-1.4-1.9
			c-0.1,0.1-0.2,0.1-0.3,0.2c0.9,1.5,1.7,3,2.6,4.5c0.2-0.1,0.3-0.1,0.5-0.2c-0.3-0.9-0.5-1.7-0.8-2.6c0.9,0.3,2.2,3.3,2.2,5
			c0.3,0.1,0.6,0.2,1,0.3c0.2,0.5,0.3,1.1,0.5,1.7c0.2,0,0.5,0,0.7,0c0.3,0.4,0.5,0.7,0.8,1.1C113.3,104.1,113.4,104.1,113.5,104z"
			/>
		<path class="st0" d="M113,91.4c-0.4-0.3-0.8-0.5-1.4-0.9c0.6,1.5,1.8,2.5,1.7,4c-0.3-0.2-0.6-0.4-0.7-0.7
			c-0.2-0.6-0.4-1.1-0.7-1.7c-0.2-0.6-0.6-1.2-0.8-1.8c-0.2-0.5-1-1-1.5-0.9c0.2,1.1,1.6,1.7,1.3,3.1c-1.6,0.2-0.9-1.4-1.6-1.9
			c-0.9,0.9-1.4-0.1-1.9-0.5c-0.7-0.6-1.2-1.3-1.8-1.9c-0.1,0.1-0.2,0.2-0.3,0.3c0.6,1.2,1.3,2.3,1.9,3.5c-0.1,0-0.1,0.1-0.2,0.1
			c-0.5-0.7-0.9-1.3-1.4-2c-1.1,0.1-4.2-2.8-4-3.8c1.2,1.1,2.5,2.2,3.7,3.3c0.1,0,0.1-0.1,0.2-0.1c-0.5-0.9-0.9-1.7-1.5-2.8
			c1.1,0.6,2,1.1,2.9,1.6c0.1-0.3,0.3-0.6,0.4-0.9C108.8,87.5,112.7,90.2,113,91.4z M108.1,88.3c-0.1,0-0.1,0.1-0.2,0.1
			c0.1,0.2,0.3,0.4,0.4,0.6c0.1-0.1,0.1-0.1,0.2-0.2C108.4,88.7,108.2,88.5,108.1,88.3z"/>
		<path class="st0" d="M121.7,106.1c0-0.2,0-0.4-0.1-0.5c-0.5-0.7-1.1-1.4-1.6-2.2c-1-1.3-2-2.6-3-3.9c-0.4-0.5-0.7-1-1.1-1.4
			c-0.7-0.8-1.4-1.6-2.1-2.3c-0.9-0.8-1.9-1.4-2.9-2.1c-0.6-0.4-1.2-0.9-1.8-1.3c-0.1,0.1-0.1,0.2-0.2,0.3c0.9,0.8,1.8,1.6,2.6,2.4
			c1.4,1.2,2.8,2.5,4.1,3.7c0.4,0.4,0.6,1,0.9,1.4c1.4,1.8,2.8,3.5,4.2,5.3c0.2,0.3,0.5,0.5,0.7,0.7
			C121.6,106.2,121.7,106.2,121.7,106.1z"/>
		<path class="st0" d="M139.5,88.6c-0.2-0.3-0.2-0.5-0.3-0.6c-1-0.8-2-1.7-3.1-2.4c-2.9-2-5.9-3.9-8.8-5.8c-0.4-0.3-0.9-0.5-1.4-0.7
			c-0.3-0.1-0.6,0-1,0C130,81.9,134.7,85.1,139.5,88.6z"/>
		<path class="st0" d="M118.8,99.5c-0.4-0.2-0.8-0.4-1.3-0.6c-0.1,0.8,0.6,1,1,1.3c0.1,0,0.5-0.4,0.8-0.7c0.3,0.4,0.8,1,1,1.6
			c0.2,0.6,0,1.2,0,2.1c0.6-0.6,0.6-0.6,0.4-3.2c-0.7-0.7-1.2-1.2-1.6-1.7c-0.9-1.1-1.9-2.2-2.8-3.2c-0.1,0.1-0.2,0.1-0.3,0.2
			c1,1.3,2,2.7,3,4C119,99.2,118.9,99.3,118.8,99.5z"/>
		<path class="st0" d="M88.9,108.9c-0.4-0.3-0.8-0.7-1.3-0.9c-2.3-1.3-4.6-2.5-6.9-3.7c-1.3-0.7-2.5-1.4-3.8-2.1
			c-0.4-0.2-0.9-0.4-1.4-0.4C79.7,104.4,84.3,106.6,88.9,108.9L88.9,108.9z"/>
		<path class="st0" d="M143.6,95.1c-3-3.4-6.9-5.4-10.7-7.6C136.3,90.1,140.2,92.2,143.6,95.1z"/>
		<path class="st0" d="M125.8,129.1c-4.8-2.9-9.6-5.8-14.5-8.8c0.3,0.3,0.4,0.6,0.7,0.7c2.8,1.7,5.6,3.4,8.4,5.1
			c1.2,0.7,2.3,1.4,3.5,2.1c0.2,0.1,0.3,0.4,0.5,0.5c0.4,0.3,0.8,0.5,1.1,0.7C125.7,129.4,125.8,129.2,125.8,129.1z"/>
		<path class="st0" d="M123,131.9c0-0.2,0-0.4-0.1-0.5c-1.6-1.1-3.2-2.2-4.9-3.2c-1.6-1-3.4-1.8-5.1-2.7c-1.2-0.6-2.3-1.3-3.5-2
			c-0.1-0.1-0.2-0.1-0.4-0.1C113.5,126.4,118.5,128.5,123,131.9z"/>
		<path class="st0" d="M101.7,87.8c-0.1,0-0.3,0.1-0.5,0.1c-0.3-0.4-0.5-0.7-0.7-1.1c-0.1,0.1-0.1,0.1-0.2,0.2
			c0.7,1.8,1.7,3.5,3.3,4.7c0.1-0.1,0.2-0.1,0.3-0.2c-0.3-0.4-0.7-0.8-1-1.2c-0.4-0.5-0.7-1-1-1.5c0.9,0.9,1.8,1.7,2.7,2.6
			c0.1-0.1,0.2-0.2,0.3-0.4C103.9,89.9,102.8,88.9,101.7,87.8z"/>
		<path class="st0" d="M99.9,81.6c-0.2,0-0.5,0-0.8,0c-0.2,1.9,0.5,3.4,1.5,4.9c0.4-0.8,0.7-1.6,1-2.3c-0.1-0.1-0.2-0.1-0.3-0.2
			c-0.3,0.2-0.5,0.4-0.8,0.7C100.3,83.7,100.1,82.6,99.9,81.6C99.8,81.6,99.9,81.6,99.9,81.6z"/>
		<g>
			<path class="st0" d="M95.6,97.1c0.4,2.8,1.3,5.4,2.7,7.9c1.1,2,2.7,3.8,4.5,5.2c1.9,1.4,3.9,2.8,6,4c1.2,0.7,2.6,1.1,3.8,1.7
				c1.5,0.8,3,1.1,4.7,1.1c1.2,0,2.3,0.1,3.5,0.1c0,0,0.1,0,0.1,0c0,0,0,0.1,0.1,0.1c3.9,2.5,7.7,5,11.6,7.4
				c0.3,0.2,0.7-0.3,0.3-0.5c-3.7-2.4-7.5-4.6-11.3-7c1,0,1.9-0.1,2.9-0.1c0,0.1,0,0.2,0.1,0.2c1.3,1,2.7,1.9,4.1,2.7
				c0.3,0.2,0.5-0.3,0.3-0.4c-1.4-0.8-2.8-1.7-4.1-2.5c1.2-0.1,2.4-0.1,3.6-0.2c1.1-0.1,1.9,0.2,2.6,1.1c0.4,0.5,0.8,1.1,1.5,0.1
				c-0.4-1.7-0.8-3.4-1.1-5.1c0.2-0.1,0.3-0.2,0.6-0.5c-1.3-1.2-0.9-2.6-0.7-4.1c0.1-0.7-0.1-1.4-0.1-2c0-0.4,0.3-0.9,0.2-1.3
				c-0.2-0.8-0.4-1.7-0.7-2.5c-0.4-1.2-0.9-2.4-1.3-3.6c-0.4-1.3-0.4-2.8-1.4-4c-0.6-0.7-0.6-1.8-1.1-2.5c-0.8-1.2-1.7-2.4-2.6-3.5
				c-1.2-1.4-2.2-3-3.6-4.2c-2-1.9-4.5-2.9-7.3-3.4c-1.5-0.3-2.9-0.7-4.4-0.8c-1.7-0.1-3.3,0-5,0.1c-1.1,0-2.3,0.2-3.4,0.3
				c-0.5,0-0.8,0.3-0.7,0.9c0.9-0.1,1.8-0.3,2.6-0.3c1.9,0,3.8,0.1,5.6,0.1c0.8,0,1.7,0,2.4,0.2c0.9,0.3,1.7,0.9,2.5,1.4
				c-0.1,0.2-0.1,0.3-0.2,0.5c-0.7-0.2-1.4-0.3-2.2-0.5c-2.8,0.3-5.6,0-8.4-1.6c0.9,2,2.4,2.2,3.9,2.4c1.8,0.2,3.5,0.2,5.3,0.3
				c1,0.1,1.9,0.4,2.8,0.6c0.6,0.1,1.3,0.2,1.8,0.5c1.1,0.7,2.1,1.6,3.1,2.4c0.2,0.2,0.5,0.4,0.7,0.6c0.1-0.1,0.1-0.1,0.2-0.2
				c-0.3-0.3-0.6-0.7-0.9-1c0,0,0.1-0.1,0.1-0.1c-0.2-0.5-0.5-0.9-0.8-1.6c0.6,0.4,1.2,0.7,1.7,1c0.1-0.1,0.1-0.2,0.2-0.3
				c-0.8-1.4-2.6-1.6-3.6-2.8c0.1-0.1,0.1-0.2,0.2-0.3c0.9,0.6,2,1,2.8,1.8c1.7,1.8,3.4,3.7,4.8,5.6c0.8,1.1,1.3,2.5,1.9,3.7
				c0.4,0.7,0.8,1.3,1.2,1.9c0.1,0.2,0.2,0.5,0.1,0.8c-0.8-1.1-1.5-2.3-2.4-3.5c-0.5,1.1,1.1,1.9,0.2,2.7c-0.4-0.9-0.8-1.8-1.1-2.7
				c-0.3,0.1-0.5,0.1-0.6,0.1c-1-0.8-2-1.6-2.9-2.4c-0.9-0.8-1.6-1.9-2.4-2.7c-0.7-0.7-1.6-1.4-2.4-2c-0.1-0.1-0.4-0.1-0.6,0
				c-2.2,0.7-4.2-0.3-6.3-0.8c-0.9-0.2-1.7-0.6-2.5-0.9c-0.2-0.1-0.4,0-0.6,0.1c1.2,1.3,3,1,4.6,1.9h-1.5c0,0.1,0,0.1,0,0.2
				c0.3,0.2,0.6,0.3,0.7,0.4c0.3,0.5,0.4,0.9,0.7,1.1c1.5,0.8,3,1.5,4.6,2.3c0,0,0.1,0,0.4-0.2c-0.3-0.3-0.5-0.5-0.8-0.7
				c-1.2-0.7-2.5-1.3-3.7-1.9c0.3-0.2,0.6-0.4,0.9-0.5c-0.2-0.2-0.4-0.4-0.5-0.6c0.6,0.1,1.2,0.1,1.7,0.3c0.8,0.3,1.5,0.2,2.2,0
				c0.7-0.2,1.3,0.4,1.3,1.5c-0.4-0.4-0.8-0.7-1.2-1.1l-0.3,0.2c0.3,0.5,0.6,1,0.9,1.6c-0.1,0.2-0.3,0.4-0.5,0.7
				c0.5,0.3,1,0.5,1.6,0.9c0-0.5,0.1-0.8,0.1-1c0.1,0,0.1,0,0.2,0l0.6,1.8l-0.2,0.1c0.2,0.2,0.5,0.3,0.8,0.5
				c0.2-0.3,0.3-0.5,0.6-0.8c0.2,0.6,0.3,1,0.4,1.4c0.1,0.3,0.3,0.5,0.5,0.7c0.1-0.3,0.2-0.5,0.3-0.8c0-0.1,0-0.1,0-0.3
				c0.6,1.2,1.2,2.3,1.7,3.4c0.6-0.2,0.6-0.4,0.3-1c-0.2-0.4-0.4-0.8-0.6-1.3c0.4-0.1,0.7-0.1,1-0.2c0.5,0.8,0.8,1.8,1.4,2.5
				c0.6,0.9,1.5,1.7,2.2,2.6c1.2,1.7,2.5,3.3,3.6,5.1c0.2,0.3,0.2,0.8,0.2,1.3c0,0.9,0,1.8-0.2,2.7c-0.2-0.6-0.3-1.2-0.5-1.8
				c-0.1,0-0.3,0.1-0.4,0.1c-0.1,1.5,0.5,3,0.9,4.5c-0.4-0.2-0.7-0.4-1.1-0.6c-0.1,0-0.2,0.1-0.3,0.1c0.1,0.8,0.1,1.5,0.2,2.3
				c0,0-0.1,0-0.1,0.1c-0.6-1.2-1.4-2.4-1.9-3.7c-0.9-2.2-1.5-4.6-2.4-6.8c-0.2-0.5-0.6-0.8-0.9-1.2c-0.4-0.5-0.9-0.9-0.7-1.7
				c1.3,0.7,2.4,1.2,2.6,2.8c0.2,1.3,0.8,2.5,1.2,3.7c0.1,0.3,0.3,0.5,0.6,0.8c0.2-0.7,0.4-1.3,0.6-2c0.3,0.7,0.5,1.1,0.7,1.5
				l0.3-0.1c-0.4-2.9-2.7-4.7-4.1-7.1c0,0.1-0.1,0.1-0.1,0.2c-0.5-0.2-1.1-0.4-1.5-0.7c-0.9-0.7-1.6-1.4-2.5-2.1
				c-0.4-0.3-0.8-0.4-1.5-0.4c0.6,0.8,1.3,1.5,1.9,2.3c-0.1,0.1-0.1,0.1-0.2,0.2c-0.5-0.5-1.1-1-1.7-1.7c0,0.4-0.1,0.6-0.1,0.7
				c0.8,1,1.6,2,2.4,2.9c0.5,0.5,1.1,0.8,1.7,1.2c0.2,0.1,0.4,0.3,0.6,0.5l-0.3,0.1c-0.1,0.5-0.3,0.9-0.3,1.4c0,1.2,0.1,2.4,0.2,3.6
				c0,0.2,0.2,0.5,0.4,0.9c0.2-0.4,0.4-0.6,0.5-0.9c0.2,0.6,0.3,1.1,0.5,1.8c0.6-1.2-0.1-4-0.9-4.5c-0.1-0.5-0.2-0.9-0.3-1.4
				c0.1,0,0.2-0.1,0.2-0.1c0.3,0.7,0.8,1.3,1,2c0.4,1.5,0.7,3,1,4.5c0,0.2,0.1,0.4,0,0.5c-0.5,0.8,0,1,0.7,1.2
				c0,0.3,0.1,0.5,0.1,0.8c-0.2,0.1-0.3,0.3-0.2,0.5c0.3,0.4,0.5,0.9,0.8,1.3c-0.1,0-0.1,0-0.2,0c-0.6-0.8-1.2-1.5-2-2.1
				c-0.4-0.3-0.9,0.2-0.6,0.6c0.7,0.7,1.4,1.5,2.1,2.2c0,0,0,0,0,0.1c-0.4-0.4-0.8-0.8-1.2-1.2c-0.3-0.4-0.9,0.2-0.6,0.6
				c0.3,0.3,0.6,0.6,0.9,0.9c0,0.1,0,0.2,0,0.2c-0.9-0.9-1.7-1.9-2.7-2.8c-0.4-0.4-1.1,0.2-0.7,0.7c0.9,1,2,2,2.9,3
				c-0.6,0.1-1.2,0.2-1.8,0.4c0,0,0-0.1-0.1-0.1c-0.3-0.2-0.5-0.5-0.8-0.8c0,0,0,0,0,0c0.1-0.1,0.1-0.1,0.2-0.2l0.3,0.3
				c0.4,0.3,1-0.2,0.6-0.6c-1.1-1-2.1-1.9-3.2-2.9c0,0-0.1-0.1-0.1-0.1c0-0.1-0.1-0.1-0.1-0.2c-1.4-0.1-1.8-1.7-2.9-2.2
				c-0.1,0.1-0.1,0.1-0.2,0.2c0.6,0.6,1.1,1.3,1.7,1.9c0.8,0.9,1.6,1.7,2.4,2.6c0,0,0,0,0,0.1c0.1,0.1,0.2,0.2,0.3,0.4
				c-0.2,0.1-0.2,0.6,0.1,0.6c0.1,0,0.2,0,0.2-0.1c0.4,0.4,0.7,0.8,1.1,1.2c-0.4,0.1-0.9,0.2-1.3,0.3c-0.4,0.1-0.9,0-1.3,0.1
				c-0.7,0.3-1.5,0.4-2.2,0.4c-0.1-0.2-0.2-0.3-0.3-0.5c0.1,0,0.2,0.1,0.3,0.1c0.4,0.2,0.8-0.4,0.4-0.6c-0.4-0.2-0.9-0.4-1.3-0.6
				c-1-1.8-1.8-3.7-2.5-5.7c-0.2-0.5-0.9-0.3-0.7,0.2c0.5,1.8,1.2,3.4,2,5c-0.3,0-0.6,0.6-0.2,0.7c0.3,0.1,0.5,0.2,0.8,0.3
				c0.2,0.4,0.4,0.7,0.7,1.1c-0.7,0-1.5-0.1-2.2-0.1c-1.4-2.1-2.4-4.5-3.2-6.9c-0.2-0.5-1-0.3-0.8,0.2c0.8,2.3,1.9,4.5,3.2,6.5
				c-0.4-0.1-0.8-0.2-1.2-0.4c-1.6-0.6-3.3-1-4.8-1.9c-2.1-1.3-4-3-6-4.4c-1.6-1.1-2.8-2.6-3.7-4.3c-1.3-2.5-2.2-5.1-2.5-7.9
				c-0.2-1.4-0.2-2.8-0.2-4.2c0.5,0.7,0.9,1.4,1.4,2.1c0,0-0.1,0.1-0.1,0.1c-0.2-0.1-0.3-0.2-0.5-0.3c-0.1,0-0.1,0.1-0.2,0.1
				c0.7,1.1,1.3,2.2,2,3.3c0.4-0.4,0.4-0.4-0.2-1.5c0.1-0.2,0.2-0.3,0.4-0.6c-0.9-1.3-1.8-2.7-3-4.6c0.1-0.8,0.2-2.2,0.7-3.6
				c0.4-1.3,1.1-2.5,1.7-3.8c0.3-0.6,0.3-1.3,0.5-2c-0.1-0.1-0.2-0.1-0.3-0.2c-0.2,0.4-0.5,0.7-0.7,1.1c-0.3,0.5-0.5,1-0.8,1.5
				C94.7,88.4,95,92.7,95.6,97.1z M113.6,82.1c0.7,0.6,1.5,1.3,2.3,1.9C115.3,84.1,113.9,83.1,113.6,82.1z M116,82.8
				c0,0.1-0.1,0.2-0.1,0.3c-0.3-0.1-0.7-0.2-1.1-0.3c0-0.1,0.1-0.2,0.1-0.3C115.3,82.6,115.7,82.7,116,82.8z M130.3,115.9l0.2-0.2
				c0.3,0.3,0.5,0.5,0.8,0.8c-0.1,0.1-0.2,0.2-0.3,0.3C130.8,116.5,130.5,116.2,130.3,115.9z M129.5,110.5c1.1,0.4,0.8,1.1,0.6,1.7
				C129.9,111.7,129.7,111.2,129.5,110.5z M128.2,112.5c-0.3-0.5-0.6-1-1-1.6c-0.1-0.1-0.2-0.2-0.2-0.2c0-0.2,0-0.4,0.1-0.7
				c0.5,0.9,0.9,1.6,1.4,2.4C128.3,112.5,128.3,112.5,128.2,112.5z"/>
			<path class="st0" d="M99.8,81.6C99.8,81.6,99.8,81.6,99.8,81.6C99.9,81.6,99.9,81.6,99.8,81.6L99.8,81.6z"/>
		</g>
		<path class="st0" d="M108.5,100.4c-1.8-2.3-3.4-4.4-5.1-6.8c0,0.4,0,0.7,0.1,0.8c1.1,1.9,2.2,3.9,3.9,5.4
			C107.6,100,108,100.1,108.5,100.4z"/>
		<path class="st0" d="M90.4,92.2c-0.6-1.1-6.4-4.9-9.3-6C84.2,88.2,87.3,90.2,90.4,92.2z"/>
		<path class="st0" d="M87.7,105.5c-0.8-0.6-1.6-1.2-2.5-1.7c-1.9-1.2-3.9-2.4-5.8-3.6c-0.6-0.3-1.2-0.6-1.7-0.9
			c0,0.1-0.1,0.1-0.1,0.2c0.7,0.4,1.3,0.9,2,1.3c2.4,1.5,4.8,2.9,7.3,4.3C87.1,105.3,87.5,105.4,87.7,105.5L87.7,105.5z"/>
		<path class="st0" d="M135.7,87.7c-0.1-0.8-6.1-5.3-7.1-5.2C131,84.3,133.3,86,135.7,87.7z"/>
		<path class="st0" d="M137.4,93.3c2.6,1.7,5.2,3.4,7.8,5.1C144.7,97.3,140.8,94.7,137.4,93.3z"/>
		<path class="st0" d="M126.1,131.5c-3-1.9-6-3.8-9.1-5.7c0,0.1-0.1,0.1-0.1,0.2c3,1.9,6,3.9,9,5.8
			C126,131.7,126.1,131.6,126.1,131.5z"/>
		<path class="st0" d="M90.1,96.5c-2-2.1-4.2-3.8-6.9-4.7C85.5,93.4,87.8,94.9,90.1,96.5z"/>
		<path class="st0" d="M122.6,105.1c0.2-1.8-0.2-3.3-0.6-4.8c-0.1,0-0.2,0-0.4,0c0.1,0.8,0,1.6,0.2,2.4
			C122.1,103.4,121.4,104.4,122.6,105.1z"/>
		<path class="st0" d="M142.6,92.4c-2.2-1.7-4.3-3.2-6.4-4.8c-0.1,0-0.1,0-0.2,0.1c0.1,0.2,0.1,0.4,0.2,0.5c1.9,1.4,3.8,2.8,5.8,4.1
			C142.1,92.4,142.3,92.4,142.6,92.4z"/>
		<path class="st0" d="M121.4,132.5c-1.5-1.6-3.4-2.8-5.4-3.8c1.8,1.3,3.5,2.7,5.3,4C121.3,132.7,121.3,132.6,121.4,132.5z"/>
		<path class="st0" d="M143.6,102.4c-0.6-0.6-1.2-1.2-1.8-1.8c-0.7-0.6-1.4-1.2-2-1.7c-0.7-0.6-1.3-1.2-2.1-1.7
			c0.5,0.5,1.1,1.1,1.6,1.6c1.3,1.2,2.7,2.4,4,3.6C143.4,102.4,143.5,102.3,143.6,102.4L143.6,102.4z"/>
		<path class="st0" d="M83.2,86.5c1.9,1.1,3.7,2.1,5.5,3.2C88.6,88.9,85.1,86.9,83.2,86.5z"/>
		<path class="st0" d="M141.2,103.8c1.2,0.9,2.3,1.9,3.5,2.8C144.2,104.9,142.9,104.1,141.2,103.8z"/>
		<path class="st0" d="M119.7,106.9c0.1-1.4-0.5-2.6-1.3-2.7C118.3,105.6,118.9,106.9,119.7,106.9z"/>
		<path class="st0" d="M103.5,84.8c-0.1,1,1.7,2.1,3,1.9C105.4,86,104.5,85.5,103.5,84.8z"/>
		<path class="st0" d="M89.1,92.4c-0.2-0.2-0.3-0.5-0.6-0.7c-1.2-0.8-2.5-1.5-3.7-2.2c0,0.1-0.1,0.1-0.1,0.2
			C86.1,90.7,87.6,91.5,89.1,92.4L89.1,92.4z"/>
		<path class="st0" d="M124.8,108.3c2.2,2.1,4.2,4.4,5.9,6.9c0.3,0.5-0.4,0.9-0.7,0.4c-1.4-2-3-3.9-4.8-5.7c-0.5,0-0.9-0.4-1.1-1.1
			c0,0,0,0,0,0C123.8,108.5,124.4,107.9,124.8,108.3z"/>
		<path class="st0" d="M117.1,104.2c0-0.4,0-0.8-0.1-1c-0.5-0.1-0.8-0.2-1.1-0.3C115.8,103.7,116.1,104.1,117.1,104.2z"/>
		<path class="st0" d="M114.2,87.8c-0.1,0.4-0.1,0.8-0.2,1.3c0.4,0,0.7,0,1.2,0c-0.3-0.5-0.5-0.9-0.6-1.3
			C114.5,87.7,114.3,87.8,114.2,87.8z"/>
		<path class="st0" d="M118.5,132.4c0.9,0.6,1.6,1.1,2.3,1.7C121.1,133.6,119.9,132.7,118.5,132.4z"/>
		<path class="st0" d="M86.5,100c-0.5-1-1.3-1.4-2.4-1.4C84.9,99,85.7,99.5,86.5,100L86.5,100z"/>
		<path class="st0" d="M109.4,121.1c0,0.1,0,0.3,0,0.4c0.7,0.4,1.5,0.9,2.3,1.3l0,0C110.9,122.2,110.2,121.7,109.4,121.1
			L109.4,121.1z"/>
		<path class="st0" d="M88.9,108.8c0.8,0.4,1.6,0.9,2.4,1.3c0-0.1,0.1-0.2,0.1-0.3C90.5,109.5,89.7,109.2,88.9,108.8
			C88.9,108.9,88.9,108.8,88.9,108.8z"/>
		<path class="st0" d="M95.4,112c-0.5-0.3-1.1-0.6-1.6-0.9c0,0.1-0.1,0.1-0.1,0.2c0.5,0.3,1.1,0.6,1.6,0.9
			C95.3,112.2,95.4,112.1,95.4,112z"/>
		<path class="st0" d="M118.7,133.6c0.4,0.3,0.8,0.5,1.2,0.8c0.1-0.1,0.1-0.2,0.2-0.3c-0.4-0.2-0.8-0.5-1.3-0.7
			C118.7,133.4,118.7,133.5,118.7,133.6z"/>
		<path class="st0" d="M86.5,100c0.4,0.3,0.9,0.7,1.3,1c0-0.1,0.1-0.2,0.2-0.3C87.5,100.5,87,100.2,86.5,100L86.5,100z"/>
		<path class="st0" d="M111.7,122.7c0.3,0.3,0.7,0.6,1,0.9c0.1-0.1,0.1-0.2,0.2-0.3C112.5,123.2,112.1,123,111.7,122.7
			C111.7,122.8,111.7,122.7,111.7,122.7z"/>
		<path class="st0" d="M92.3,113.5c-0.4-0.2-0.7-0.4-1.1-0.7c0,0.1-0.1,0.1-0.1,0.2c0.4,0.2,0.7,0.4,1.1,0.7
			C92.2,113.7,92.2,113.6,92.3,113.5z"/>
		<path class="st0" d="M109.4,121.1c-0.4-0.2-0.7-0.4-1.1-0.7c0,0.1-0.1,0.2-0.1,0.2C108.6,120.8,109,121,109.4,121.1L109.4,121.1z"
			/>
		<path class="st0" d="M89.7,106.8c-0.2-0.2-0.5-0.4-0.7-0.6c0,0.1-0.1,0.1-0.1,0.2c0.2,0.2,0.5,0.4,0.7,0.6
			C89.7,106.9,89.7,106.8,89.7,106.8z"/>
		<path class="st0" d="M87.7,105.5c0.2,0.3,0.4,0.6,0.5,0.9c0.1-0.2,0.2-0.3,0.4-0.5C88.3,105.8,88,105.6,87.7,105.5L87.7,105.5z"/>
		<path class="st0" d="M115.3,125.1c0.3,0.2,0.6,0.3,0.8,0.5c0,0,0.1-0.1,0.1-0.1c-0.3-0.2-0.5-0.4-0.8-0.5
			C115.4,124.9,115.3,125,115.3,125.1z"/>
		<path class="st0" d="M89.1,92.4c0.2,0.2,0.4,0.4,0.7,0.5c0-0.1,0.1-0.2,0.1-0.3C89.6,92.6,89.3,92.5,89.1,92.4
			C89.1,92.4,89.1,92.4,89.1,92.4z"/>
		<path class="st0" d="M114.9,124.6c-0.2-0.1-0.5-0.2-0.7-0.3c0,0,0,0.1-0.1,0.1c0.2,0.1,0.5,0.2,0.7,0.4
			C114.9,124.8,114.9,124.7,114.9,124.6z"/>
		<path class="st0" d="M143.6,102.3c0.1,0.2,0.2,0.4,0.2,0.7c0.1-0.1,0.2-0.1,0.3-0.2C144,102.7,143.8,102.5,143.6,102.3
			C143.6,102.4,143.6,102.3,143.6,102.3z"/>
		<path class="st0" d="M31.2,91.6c0.2-0.7,0.5-0.3,0.7,0c1.6,1.4,3.3,2.8,4.9,4.1c0.1,0.1,0.3,0.1,0.5,0.1c-0.3-0.3-0.6-0.7-1-1
			c-1.7-1.4-3.3-2.9-5-4.3c-0.3-0.3-0.6-0.7-0.8-1.1c-0.5-1-0.9-2-1.3-2.9c0-0.1,0.1-0.2,0.2-0.5c1.8,3.5,4.9,5.7,7.7,8
			c0.1-0.1,0.1-0.1,0.2-0.2c-0.5-0.5-1.1-1.1-1.6-1.6c-1.1-1-2.2-2-3.2-3.1c-0.8-0.9-1.5-1.9-2.3-2.8c-0.2-0.3-0.6-0.4-1-0.5
			c-0.2-0.5-0.4-1.1-0.6-1.5c-0.4,2.6,0.1,5.1,0.9,7.5c0.1,0.3,0.1,0.5,0,0.8c-0.3-0.4-0.7-0.8-1-1.2c-0.1,0-0.1,0-0.2,0.1
			c0,0.2-0.1,0.4,0,0.5c0.4,0.6,0.9,1.3,1.4,1.8c0.9,1,1.4,2.2,1.7,3.7c-1.5-1-1.9-2.6-2.8-3.7c-0.1,0-0.2,0.1-0.3,0.1
			c0,0.2,0,0.5,0.1,0.7c0.8,1.6,1.9,3,3.3,4.2c0.6,0.5,0.9,1.3,1.4,2c0.1-0.1,0.2-0.1,0.3-0.2c2.3,1.8,4.5,3.6,6.7,5.3
			c0.1-0.1,0.2-0.2,0.2-0.3c-0.4-0.3-0.7-0.7-1.1-1c-0.4-0.3-0.8-0.6-1.1-0.9c-1.7-1.4-3.5-2.8-4.9-4.4c-0.8-0.9-1.1-2.2-1.7-3.4
			c0.1,0,0.2-0.1,0.2-0.1c2.6,2,5.1,4,7.7,6c0.1-0.1,0.1-0.1,0.2-0.2c-0.2-0.3-0.4-0.6-0.7-0.8c-2.5-2.1-5.1-4.2-7.6-6.4
			c-0.5-0.4-0.7-1.2-0.9-1.9c2.7,2.3,5.4,4.5,8.4,6.3C36.5,96.4,33.2,94.6,31.2,91.6c-0.1,0.1-0.2,0.3-0.3,0.2
			c-0.6-0.2-1.3-1.8-1-2.7C30.4,90.1,30.8,90.8,31.2,91.6z"/>
		<path class="st0" d="M35.1,86.8c-0.8-0.8-1.6-1.6-2.4-2.3c-0.9-0.7-0.9-1.5-0.7-2.4c1,1.1,1.9,2.1,2.8,3.1c0.1,0,0.1-0.1,0.2-0.1
			c-1-1.4-2-2.8-2.9-4.3c-0.9-1.5-1.4-3.2-1.6-5.1c1.5,1.8,2.9,3.5,4.3,5.1c0.1-0.1,0.2-0.1,0.3-0.2c-0.1-0.2-0.3-0.4-0.4-0.6
			c-1.3-1.7-2.6-3.3-3.8-5c-0.5-0.7-0.7-1.6-0.9-2.4c-0.3-1.3-0.5-2.7-0.7-4c-0.1-1,0-2-0.1-3c0-0.4-0.1-0.8-0.2-1.2
			c-0.1,0-0.2,0-0.3,0c0,1.6-0.1,3.2,0,4.8c0,0.9,0.3,1.7,0.4,2.5c0.1,0.4,0,0.8,0.1,1.2c0.8,3.3,1.6,6.6,2.3,9.9
			c-0.1,0-0.2,0.1-0.3,0.1c-1.5-2.3-2.9-4.6-3.5-7.4c-0.1,0.1-0.3,0.1-0.4,0.2c0.4,1.1,0.8,2.3,1.2,3.4c0.3,0.9,0.8,1.9,1,2.8
			c0.2,0.6,0,1.3,0.3,1.9c0.7,1.4,1.4,2.8,2.7,3.9c0.8,0.7,1.5,1.6,2.2,2.4C34.9,90,35,90,35,89.9c-0.6-0.7-1.2-1.5-1.8-2.2
			c-0.8-1.1-1.6-2.2-2.3-3.3c-0.2-0.3-0.2-0.7-0.4-1.3c1.6,1.5,3,2.7,4.3,4C34.9,87,35,86.9,35.1,86.8z"/>
		<path class="st0" d="M33.4,55.5c-0.2,1.6-0.6,3.3-0.6,4.9c0,1.6,0.4,3.1,0.6,4.7c-0.2,0-0.5-0.1-0.8-0.1c-0.2-1-0.5-1.9-0.7-2.9
			c-0.5,2.3,0.3,4.2,1.5,6.1c-0.1,0-0.2,0-0.2,0.1c-0.2-0.3-0.4-0.5-0.7-0.9c0,0.8,0,1.5,0,2.3c0.1,0.2,0.3,0.6,0.5,0.9
			c-0.1,0.1-0.2,0.1-0.3,0.2c-0.7-1.3-1.5-2.6-2.3-4c0.2,3.1,2.3,5.2,3.3,7.8c-0.9-1.3-1.8-2.5-2.8-4c0,3.3,2.8,5,3.8,7.5
			c-0.5-0.4-1-0.9-1.4-1.5c-1.3-1.7-2.9-3.2-2.9-5.6c0-0.2-0.1-0.3-0.1-0.5c-0.5-2.3-0.9-4.7-0.1-7.1c0.8,0,0.8-0.5,0.8-1.1
			c0.1-1.2,0.2-2.3,0.3-3.5c0.4,0.1,0.6,0.1,0.9,0.2c0.3-1.2,0.5-2.4,0.8-3.5C33.1,55.5,33.3,55.5,33.4,55.5z M30.9,66.7
			c0.4,0.4,0.4,1.1,0.7,1.7c0.1,0.3,0.3,0.5,0.4,0.7c0.1,0,0.2-0.1,0.3-0.1c-0.4-1.7-0.9-3.3-1.3-5c-0.1,0-0.2,0-0.3,0
			C30.7,64.9,30,65.8,30.9,66.7z"/>
		<path class="st0" d="M25.5,98.3c-0.9-5.6-1.2-11.2-0.8-16.8c-0.1,0-0.2-0.1-0.3-0.1c-0.1,0.3-0.3,0.6-0.3,0.9c0,3.3,0,6.7,0.2,10
			c0.1,1.8,0.4,3.5,0.7,5.2c0,0.3,0.1,0.5,0.2,0.8C25.3,98.3,25.4,98.3,25.5,98.3z"/>
		<path class="st0" d="M40.6,108.2c-3.7-3.6-8.1-6.5-10.8-11c-0.1,0-0.2,0.1-0.3,0.1c0.1,0.3,0.1,0.5,0.2,0.8c1,1.7,2.2,3.2,3.8,4.5
			c2.1,1.7,4.2,3.6,6.3,5.3c0.2,0.2,0.4,0.3,0.7,0.4C40.5,108.3,40.5,108.3,40.6,108.2z"/>
		<path class="st0" d="M77.4,76.5c-0.2-0.4-0.4-0.9-0.7-1.3c-0.7-0.7-1.5-1.3-2.1-2c-0.4-0.4-0.5-1.1-0.7-1.5c0,0.1,0,0.3,0,0.8
			c-1.2-0.8-2.3-1.6-3.5-2.2c-1.1-0.5-1.9-1.7-3.3-1.7c3.4,2.7,7.6,4.3,10.1,8.1C77.2,76.6,77.3,76.5,77.4,76.5z"/>
		<path class="st0" d="M49.5,63.7c2.5,3.5,5.9,6.4,7.1,10.8c0-0.3,0.1-0.7,0-0.9c-0.7-1.5-1.4-3-2.3-4.4c-1-1.6-2.3-3-3.4-4.5
			c-0.3-0.4-0.7-0.8-1.1-1.3C49.7,63.5,49.6,63.6,49.5,63.7z"/>
		<path class="st0" d="M57.1,70.3c-2.1-4-4.8-7.6-8.3-10.4C51.7,63.2,55,66.3,57.1,70.3z"/>
		<path class="st0" d="M41.7,52.5c2-0.4,4-0.7,6-1c0.2,0.3,0.4,0.5,0.5,0.7c0.4-0.3,0.7-0.5,1.3-0.8c-0.3-0.1-0.6-0.3-0.9-0.3
			c-1.4,0.1-2.9,0.3-4.3,0.5c-0.9,0.2-1.8,0.5-2.7,0.7C41.7,52.3,41.7,52.4,41.7,52.5z"/>
		<path class="st0" d="M34.1,57.6c0-1.1,0-2.1,0-3.2c-0.1,0-0.1,0-0.2,0c0,1.1,0,2.1,0,3.2C33.9,57.6,34,57.6,34.1,57.6z"/>
		<path class="st0" d="M25.9,115.6c-0.7-0.9-1.3-1.8-2-2.7c-0.1,0-0.1,0.1-0.2,0.1c0.7,0.9,1.3,1.8,1.9,2.7
			C25.7,115.7,25.8,115.6,25.9,115.6z"/>
		<path class="st0" d="M26.2,116.3c0.4,0.5,0.9,1,1.3,1.5c0,0,0.1-0.1,0.1-0.1c-0.4-0.5-0.8-1-1.3-1.6
			C26.3,116.2,26.2,116.2,26.2,116.3z"/>
		<path class="st0" d="M55.8,77c-0.2-0.4-0.3-0.9-0.5-1.3c-0.1,0-0.2,0.1-0.2,0.1c0.2,0.4,0.4,0.9,0.5,1.3
			C55.7,77.1,55.8,77,55.8,77z"/>
		<path class="st0" d="M54,135.9c0.4-0.2,0.8-0.3,1.2-0.5c0-0.1-0.1-0.1-0.1-0.2c-0.4,0.2-0.8,0.4-1.2,0.5
			C54,135.8,54,135.8,54,135.9z"/>
		<path class="st0" d="M13.2,61.1c-0.3,0.2-0.6,0.3-0.8,0.5c-0.6,1.2-1,2.4-1.7,3.5c-0.7,1.2-1.3,2.3-1.4,3.7
			C9,71.2,8.9,73.6,8.7,76c0,0.2,0.1,0.5,0.3,0.7c0.2-2.4,0.4-4.9,0.6-7.3c0.1,0,0.3,0,0.4,0c0,1.4,0,2.8,0,4.2
			c0.2-4.3,0.8-8.5,3.4-12.1C13.3,61.3,13.3,61.2,13.2,61.1z"/>
		<path class="st0" d="M7.7,78.3c0-2.6,0-5.1,0-7.4C6.9,71.4,6.8,76.1,7.7,78.3z"/>
		<path class="st0" d="M94.9,140.5c0.4,0.1,0.9,0.3,1.3,0.4C95.8,140.6,95.6,139.9,94.9,140.5C94.9,140.5,94.9,140.5,94.9,140.5z"/>
		<path class="st0" d="M77.9,18.9c2.5-2.8,5.6-4.8,9.4-5.5c0-0.3-0.1-0.5-0.1-0.8c1.9-1.1,4.4-0.3,6.3-1.7c-0.2-0.2-0.2-0.3-0.3-0.3
			c-2,0.3-4.1,0.5-6.1,1c-1,0.2-2.1,0.6-2.7,1.3c-1.1,1.3-2.9,1.5-4,2.7c-0.9,1-1.8,2-2.7,3C77.8,18.7,77.9,18.8,77.9,18.9z"/>
		<path class="st0" d="M72.6,23.6c1.1-0.8,2.1-1.7,3.2-2.5c-0.1-0.1-0.2-0.3-0.3-0.4c-1.1,0.9-2.1,1.7-3.2,2.6
			C72.4,23.4,72.5,23.5,72.6,23.6z"/>
		<path class="st0" d="M56.6,29.6c-0.9-0.3-1.7,0.1-3.1,1.3c0.1,0.1,0.2,0.3,0.2,0.3C54.6,30.7,55.5,30.2,56.6,29.6z"/>
		<path class="st0" d="M55.5,27.9c-0.9,0.6-1.6,1.1-2.4,1.5C54.1,29.7,55.3,28.9,55.5,27.9z"/>
		<path class="st0" d="M45.3,38.6c-0.5,0.4-0.9,0.8-1.4,1.3c0.1,0.1,0.1,0.1,0.2,0.2C44.6,39.6,45.3,39.4,45.3,38.6
			C45.3,38.6,45.3,38.6,45.3,38.6z"/>
		<path class="st0" d="M96.7,96.7c0,0.5,0.8,0.5,0.8,0c0.1-1.2,0.3-2.3,0.5-3.4c0.2,0.3,0.4,0.7,0.6,1.1c-0.2,1.2-0.4,2.3-0.5,3.5
			c-0.2-0.2-0.4-0.3-0.5-0.4c0.2,0.2,0.3,0.5,0.5,0.7c0,0.2,0,0.4-0.1,0.5c0,0.4,0.5,0.5,0.7,0.3c0,0,0,0,0,0
			c-0.2,1.4-0.3,2.8-0.1,4.3c0.1,0.6,1,0.6,0.9,0c-0.1-1.1-0.1-2.1-0.1-3.2c0,0,0,0,0,0c0.2,0.4,0.4,0.8,0.6,1.1
			c-0.2,1.7-0.2,3.5,0,4.9c0.1,0.6,1,0.4,0.9-0.3c-0.2-0.9-0.2-1.9-0.2-3c0,0.1,0.1,0.2,0.1,0.3l0.3-0.1c-0.1-0.3-0.2-0.6-0.3-1
			c0-0.6,0.1-1.1,0.2-1.7c0.2,0.2,0.3,0.4,0.5,0.6c-0.2,2.5,0.1,5,0.9,7.4c0.2,0.6,1.2,0.3,1-0.3c-0.3-0.8-0.5-1.7-0.7-2.6
			c0.3-0.6,0.2-1.1-0.2-1.4c-0.1-0.8-0.1-1.5-0.1-2.3c0.2,0.2,0.4,0.4,0.7,0.6c-0.2,2.1-0.1,4.2,0.7,6.3c0.2,0.5,1.1,0.3,0.9-0.2
			c-0.1-0.3-0.2-0.6-0.3-0.9c0.1,0.2,0.4,0.2,0.7,0.3c0,0,0.1-0.1,0.1-0.1c0.3,1,0.7,2,1.4,2.9c-0.9-0.4-1.8-0.9-2.7-1.4
			c-0.6-0.3-1.1,0.5-0.5,0.9c2.1,1.2,4.3,2.2,6.6,2.9c-0.2,0.2-0.2,0.7,0.2,0.9c0.3,0.1,0.6,0.2,0.9,0.3c0,0,0,0.1,0.1,0.1
			c0.1,0.2,0.3,0.1,0.3,0c2.8,0.8,5.7,1,8.6,0.7c0,0,0.1,0,0.1,0c0.2,0.1,0.4,0,0.5-0.1c0.5-0.1,1.1-0.2,1.6-0.3
			c0.1,0,0.1,0.1,0.2,0.1c0.3,0.2,0.6,0,0.6-0.3c0,0,0.1,0,0.1,0c0.5-0.1,0.3-0.9-0.2-0.8c-0.2,0-0.3,0.1-0.5,0.1
			c-1-0.7-2.1-1.4-3.1-2.1c-0.1-0.3-0.3-0.5-0.4-0.8c-0.1-0.3-0.5-0.3-0.6-0.1c-0.6-0.7-1.3-1.3-1.9-2c0,0.1-0.1,0.2-0.2,0.4
			c-1.2-0.6-2.5-1.1-3.7-1.7c-0.5,0.4-0.5,0.8-0.1,1.1c0.6,0.5,1.2,1.1,1.8,1.7c0.4,0.4,0.8,0.7,1.3,0c0.3,0.4,0.6,0.8,0.9,1.2
			c0,0.1-0.1,0.1-0.1,0.2c-0.6-0.3-1.3-0.4-1.8-0.8c-1.7-1.2-3.6-1.7-5.5-2.5c-0.2-0.8-0.4-1.7-0.4-2.5c0,0,0,0,0.1,0
			c0.1,0.1,0.2,0.3,0.4,0.3c0,0,0.1,0,0.1,0c0.1,0,0.2,0.1,0.2,0.1c0.1,0,0.2,0,0.2,0c0,0.2,0.1,0.3,0.3,0.3c0.2,0,0.3-0.1,0.3-0.2
			c0.1,0,0.1,0.1,0.2,0.1c0.2,0.1,0.3-0.1,0.3-0.3c0.1,0,0.1-0.1,0.1-0.2c0.3,0,0.6,0.1,0.9,0.1c0.1,0,0.1,0,0.2-0.1
			c0.2,0.1,0.3,0,0.4-0.1c0.8,0.7,1.6,1.4,2.5,2c0.4,0.3,0.8-0.4,0.4-0.7c-1.4-1-2.7-2.2-3.9-3.4c-0.3-0.3-0.7,0-0.7,0.3
			c-0.1-0.1-0.2-0.1-0.2-0.2c-0.3-0.3-0.8,0.2-0.5,0.5c0.5,0.4,1,0.8,1.5,1.2c-0.9,0-1.9-0.2-2.7-0.5c-0.1-0.1-0.2-0.1-0.4-0.2
			c0,0,0,0,0,0c-0.1-0.1-0.2-0.1-0.3-0.2c0-0.2-0.2-0.4-0.4-0.4c-0.2,0-0.3,0.1-0.3,0.2c-0.1-0.1-0.3-0.1-0.4-0.2
			c-0.3-0.2-0.6,0.3-0.3,0.5c0.3,0.1,0.5,0.2,0.8,0.3c0,0,0.1,0,0.1,0c0.1,0,0.3,0.1,0.4,0.2c-0.1,0.9,0,1.8,0.3,2.7
			c-0.5-0.3-1-0.5-1.5-0.9c-0.1-0.7-0.2-1.4-0.3-2.1c0-0.6-0.9-0.6-0.9,0c0,0.5,0.1,1,0.2,1.5c0,0-0.1-0.1-0.1-0.1
			c-0.1-0.7-0.2-1.4-0.2-2.1c0,0,0,0,0,0c0.2,0.1,0.4,0.2,0.6,0.2c-0.7-0.7-1.4-1.3-2.1-2c0.1-0.8,0.2-1.6,0.3-2.4c0,0,0,0,0,0
			c0.5,0.5,1,0.9,1.6,1.2c0,0,0.1,0.1,0.1,0.1c0.4,1.6,2,1.8,3,2.6c0.1,0.1,0.4,0.1,0.5,0.2c0.1,0,0.1-0.1,0.2-0.1
			c-0.1-0.3-0.2-0.7-0.5-0.9c-0.9-0.8-1.7-1.7-2.7-2.2c-1.4-0.7-2.1-2-3.1-3.1c-0.2-0.2-0.3-0.3-0.4-0.5c0,0,0-0.1,0-0.1
			c0.1-0.3-0.1-0.5-0.4-0.5c-0.1-0.1-0.1-0.2-0.1-0.3c0-0.1,0.1-0.2,0.1-0.2c0.3-0.4-0.1-0.9-0.5-0.7c-0.1-0.4-0.2-0.7-0.4-1.1
			c-0.1-0.3-0.3-0.6-0.5-1c-0.2,0.4-0.3,0.5-0.5,0.9c-0.5-0.9-0.8-1.8-1-2.8c0.1-0.3,0.2-0.7,0.3-1c0.1-0.3-0.2-0.5-0.5-0.4
			c-0.1-1.1-0.2-2.2-0.6-3.4c-0.2,0.4-0.4,0.7-0.4,0.9c0.1,0.5,0.2,1,0.3,1.5c-0.1-0.3-0.6-0.4-0.8,0c0,0.1-0.1,0.1-0.1,0.2
			c-0.1-0.5-0.3-1-0.5-1.3c0,0.7-0.1,1.2-0.1,1.8c-0.2,0-0.4-0.1-0.6-0.1c0,0.2-0.1,0.4,0,0.6c-0.2,0.1-0.3,0.2-0.3,0.4l-0.1,1.3
			c0,0.4,0.3,0.5,0.6,0.5C97,94.1,96.7,95.4,96.7,96.7z M115.6,109.9c-0.1,0.1-0.1,0.2-0.2,0.3c-0.4-0.3-0.9-0.6-1.3-0.9
			c0.1-0.1,0.1-0.2,0.2-0.3C114.7,109.2,115.2,109.5,115.6,109.9z M111.5,110.1c0,0,0.1-0.1,0.1-0.1c1.6,0.8,3.2,1.7,4.8,2.5
			c-0.2,0.2-0.2,0.5,0.1,0.7l2.3,1.2c-0.5,0-1,0-1.6,0c0.1-0.2-0.1-0.5-0.4-0.6c-1.1-0.1-2.1-0.3-3.2-0.6c-0.1-0.4-0.1-0.7-0.2-1.1
			c0.4,0.1,0.7,0.2,1.1,0.3c0.4,0.1,0.6-0.5,0.2-0.6c-0.9-0.2-1.7-0.5-2.5-0.9C112,110.7,111.7,110.4,111.5,110.1z M107.7,109.8
			c0.1,0.1,0.3,0.1,0.4,0.2c0.5,1,1.2,2,1.8,2c-0.3-0.5-0.5-1-0.8-1.5c0.1,0,0.2,0.1,0.3,0.1c0.2,0.5,0.5,1.1,0.7,1.6
			c-0.6-0.2-1.1-0.4-1.7-0.6C108.1,111,107.9,110.4,107.7,109.8z M104.1,105.6c0.3,0.3,0.6,0.6,0.9,0.8c0,0.4,0.1,0.7,0.2,1.1
			c-0.2-0.4-0.5-0.7-0.7-1.1c-0.1,0-0.2,0.1-0.3,0.1C104.1,106.2,104.1,105.9,104.1,105.6z M104,103.3c0.3,0.3,0.7,0.5,1,0.7
			c-0.1,0-0.2,0.1-0.2,0.3c0,0.5,0.1,1,0.1,1.6c-0.1,0-0.1-0.1-0.2-0.1c-0.2-0.1-0.3-0.2-0.4-0.4c-0.1,0.1-0.1,0.1-0.2,0.2
			C104,104.8,104,104.1,104,103.3z M102.6,100.9c0.1-0.8,0.2-1.7,0.4-2.5c0.3,0.4,0.6,0.8,0.9,1.1c-0.1,0-0.2,0.1-0.3,0.3
			c-0.1,0.6-0.2,1.2-0.3,1.9C103.1,101.4,102.8,101.2,102.6,100.9z M101.4,99.5c0.2-0.8,0.5-1.6,0.9-2.2c0,0.1,0.1,0.1,0.1,0.2
			c-0.2,0.8-0.4,1.7-0.6,2.5C101.7,99.8,101.6,99.7,101.4,99.5z M99.6,99.5c0-0.4,0.1-0.8,0.2-1.2c0.2,0.4,0.4,0.9,0.7,1.3
			c-0.1,0.3-0.2,0.7-0.2,1.1C100,100.2,99.8,99.9,99.6,99.5z M98.9,98.3c0.1-1.1,0.2-2.3,0.4-3.4c0,0,0.1,0,0.1,0c0,0,0-0.1-0.1-0.1
			c0.1-0.6,0.2-1.2,0.4-1.8c0.3,1.1,0.8,2.1,1.7,2.9c0.2,0.2,0.3,0.3,0.4,0.5c-0.4,0.7-0.8,1.4-1.1,2.2c-0.3-0.4-0.6-0.9-0.8-1.4
			c0.2-0.6,0.3-1.1,0.6-1.7c0.2-0.5-0.6-0.7-0.8-0.2C99.4,96.3,99.1,97.3,98.9,98.3z M98.5,92.7c0.2-0.2,0.2-0.9,0.1-1.8
			c0.2-0.5,0.3-1,0.5-1.5c0-0.1,0-0.1,0-0.1c0,0.3,0.1,0.5,0.1,0.8c0.1,0.4,0,0.9,0.1,1.3c-0.2,0.7-0.4,1.4-0.6,2.1
			C98.7,93.3,98.6,93,98.5,92.7z"/>
		<path class="st0" d="M128.6,116.7c0.2,0.1,0.4,0.1,0.5,0.2c0.2,0.1,0.1,0.5-0.1,0.4c-0.2-0.1-0.4-0.1-0.5-0.2
			C128.3,117,128.4,116.6,128.6,116.7z"/>
		<path class="st0" d="M129.4,118c1.5,1,3,1.9,4.4,2.9c0.2,0.1,0,0.4-0.2,0.3c-1.5-1-3-2-4.4-2.9C129,118.1,129.2,117.9,129.4,118z"
			/>
		<path class="st0" d="M123.4,117.4c1.1,0.6,2.2,1.2,3.4,1.8c0.3,0.1,0,0.5-0.2,0.4c-1.1-0.6-2.2-1.2-3.4-1.9
			C122.9,117.6,123.1,117.3,123.4,117.4z"/>
		<path class="st0" d="M107,103.6c0.2,0,0.2,0.4,0,0.4C106.7,103.9,106.7,103.6,107,103.6z"/>
	</g>
</g>
</svg>
