<?xml version="1.0" encoding="utf-8"?>
<!-- Generator: Adobe Illustrator 19.1.0, SVG Export Plug-In . SVG Version: 6.00 Build 0)  -->
<svg version="1.1" id="Layer_1" xmlns="http://www.w3.org/2000/svg" xmlns:xlink="http://www.w3.org/1999/xlink" x="0px" y="0px"
	 viewBox="-487 489 48 48" style="enable-background:new -487 489 48 48;" xml:space="preserve">
<style type="text/css">
	.st0{fill:none;}
	.st1{fill:#FFFFFF;}
</style>
<path class="st0" d="M-487,489h48v48h-48V489z"/>
<path class="st1" d="M-473,499h20v4h4v-8c0-2.2-1.8-4-4-4l-20,0c-2.2,0-4,1.8-4,4v8h4V499z M-456.2,522.2l9.2-9.2l-9.2-9.2l-2.8,2.8
	l6.3,6.3l-6.3,6.3L-456.2,522.2z M-467,519.3l-6.3-6.3l6.3-6.3l-2.8-2.8l-9.2,9.2l9.2,9.2L-467,519.3z M-453,527h-20v-4h-4v8
	c0,2.2,1.8,4,4,4h20c2.2,0,4-1.8,4-4v-8h-4V527z"/>
</svg>
