<svg xmlns="http://www.w3.org/2000/svg" viewBox="0 0 122.41 119.4"><defs><style>.cls-1{fill:#515151;}</style></defs><title>fruits</title><g id="Layer_2" data-name="Layer 2"><g id="Layer_1-2" data-name="Layer 1"><path class="cls-1" d="M1.79,75.72c1.66.32,3.32.64,5,1,1.26.28,2.49.69,3.76.92,1.69.31,3.4.51,5.1.75l4,.52c1.3.16,2.61.28,3.91.47,1.63.24,3.26.53,4.89.81.56.09,1.13.16,1.69.29,1.76.4,3.5.83,5.26,1.22a.79.79,0,0,0,.67-.15,1.05,1.05,0,0,0,.06-.74,17.19,17.19,0,0,1-.57-2.63c-.12-3-.26-6-.13-9a37.5,37.5,0,0,1,1-7.13,46.85,46.85,0,0,1,3.56-10.38A44.48,44.48,0,0,1,46,42.57c.55-.63,1.33-1.07,1.84-1.73,1.57-2,3.74-3.33,5.78-4.73a44.73,44.73,0,0,1,8.59-4.32c1.58-.64,3.08-1.48,4.64-2.17a18.66,18.66,0,0,1,4.61-1.39A43.37,43.37,0,0,1,83,27.93c1.17.12,2.35.13,3.5.33s2.16.66,3.26.88a33.52,33.52,0,0,1,6.92,2.31,43.34,43.34,0,0,1,4.8,2.63,46.05,46.05,0,0,1,5.86,3.79,31.17,31.17,0,0,1,5.24,5.41c.51.7,1.09,1.35,1.63,2a15.74,15.74,0,0,1,1.13,1.45,28.28,28.28,0,0,1,2.31,4.7c.43,1.09,1,2.11,1.46,3.2a67.69,67.69,0,0,1,2.8,10.75,25.54,25.54,0,0,1,.49,4.81,40.83,40.83,0,0,1-.72,8.66,55.43,55.43,0,0,1-3,11.4,15.68,15.68,0,0,1-.75,1.67c-.58,1-1.32,2-1.82,3.07-1.13,2.41-3.06,4.17-4.83,6-1,1-2.08,1.87-3.12,2.81a10.11,10.11,0,0,1-.87.83c-1.47,1-3,2-4.44,3-.37.24-.75.47-1.14.67l-3,1.57a14.15,14.15,0,0,1-2,1.05c-1.93.65-3.88,1.25-5.84,1.77-1.15.3-2.36.39-3.53.6a27.41,27.41,0,0,1-3.56.65c-2.21.09-4.42,0-6.63,0a33.18,33.18,0,0,1-7.89-1.64c-1.36-.38-2.69-.88-4-1.28a1.07,1.07,0,0,0-.73.21c-.51.32-1,.74-1.48,1-1.18.69-2.37,1.38-3.58,2a36.68,36.68,0,0,1-4.14,2c-1.91.69-3.89,1.17-5.83,1.77A39.55,39.55,0,0,1,37.5,119.4c-1.53,0-3.08-.27-4.6-.18a23.06,23.06,0,0,1-7.75-1.27A41,41,0,0,1,17.89,115a7,7,0,0,1-1.13-.56c-1.42-1.09-2.85-2.17-4.2-3.35a48,48,0,0,1-4.26-4A19,19,0,0,1,5,102.54c-1.22-2.61-2.77-5.08-3.53-7.9C1.17,93.4.81,92.16.58,90.9a36.49,36.49,0,0,1-.4-3.73A34.65,34.65,0,0,1,0,83.29c.06-1.59.27-3.17.44-4.75.09-.92.21-1.84.33-2.83A5.94,5.94,0,0,1,1.79,75.72Zm108,25.49c-.33.27-.62.6-.94.92a4.15,4.15,0,0,0,2.19-1.81l.4-.55-.15-.07-.24.64C110.6,100.62,110.16,100.89,109.77,101.21ZM115.4,90.3l-.17-.11-.53.77.09.05.6-.4c-.26.48-.53,1-.77,1.43-.16.31-.3.64-.44,1l.22.11c.38-.77.77-1.53,1.14-2.31,0,0-.1-.12-.16-.18S115.39,90.41,115.4,90.3ZM41.66,69.6l-.2,0,.22.54a2.88,2.88,0,0,0,1.42,2.22l-.93-2L42,71l-.36-.78Zm38.61,42.8-1,.68,0,.2,1.77-.25.75-.31,0-.1h-.71V113Zm-7.65-.13,0-.18-1.29-.22-.74-.38.51-.45-1-.13v-.15l-1,.66,2.31.45Zm-18.79-30A2.89,2.89,0,0,0,55.46,84l-.87-1.79a1.17,1.17,0,0,1-.11-.24,6.6,6.6,0,0,0-2-3s-.07,0-.19,0c.6,1.27.81,2.73,2.3,3.33Zm63.44-7.64A5.86,5.86,0,0,0,116.14,70c.05.83-.56,1.72.27,2.51l.78.12-.5.31v.91c-.12-.18-.24-.36-.37-.54s-.26-.3-.39-.45l-.14.08c0,.37,0,.74-.07,1.17l1,.19-.06-.47ZM115.48,67l1.62,4.55.27-.06a23,23,0,0,0-.44-4.67,18,18,0,0,0-2.26-4.08c0,1.65-.4,3.31.55,4.83l-.63-.59c0,.79-.07,1.57-.09,2.13L115.66,71c-.14-1.09.23-2.07-.4-3-.08-.11,0-.31,0-.46S115.35,67.29,115.48,67ZM.92,80.78C.83,81.71.7,82.64.7,83.57c0,1.23.1,2.46.17,3.73l2.37.47,0,.22c-.7.45-1.35.12-2.1-.37l.29,1.21,2,.73-.82.71.47.27-1.4.83L2.2,94l1.4-.71.11.21c-.23.58-.82.64-1.38.88L3.28,97c.72.2.91-.86,1.68-.23l-1.43.88a3.8,3.8,0,0,0,.28.77c.67,1.13,1.39,2.23,2.06,3.37.45.77.8,1.6,1.25,2.37a8.83,8.83,0,0,0,2.59,3.16L11,106.11l.23.23L10,107.66l.72.77,1.38-1.82c-.65-.94-1.26-1.86-1.9-2.76-.46-.64-1-1.25-1.42-1.9s-.92-1.42-1.36-2.15a21,21,0,0,1-1.06-1.93c-.37-.8-.61-1.67-1-2.46a7,7,0,0,1-.71-2.32c-.12-1-.27-2.06-.41-3.09-.07-.49-.15-1-.26-1.45a16.33,16.33,0,0,1-.17-5.83c.09-.69.07-1.4.13-2.1.05-.54.16-1.08.22-1.51l-2.9-.61c.67.49,1.57.2,1.88,1l-.09.23-1.91-.6-.17.6,1,.09-.21.59L1,79.95l0,.44h0A1.55,1.55,0,0,0,.92,80.78ZM72.58,98.25l.07-.21-1.33-.32-.74-.49c.84-.37,1.44.2,2.16.24l.31-.33-1.19-.76.08-.2,1.4.51.26-.47-.79-.44,0-.14,1,.09,1.14-3c-.48-1.09-1.62-.82-2.29-1.54a1.61,1.61,0,0,1,.53,0c.57.15,1.14.34,1.71.49a3.08,3.08,0,0,0,.61,0c-1.08-.92-2.32-.46-3.18-.93-.57,1.16-1.18,2.3-1.7,3.48-.59,1.36-1,2.78-1.66,4.12s-1.49,2.91-2.25,4.36a18.31,18.31,0,0,1-3.46,4.24c-.2.2-.23.57-.42.78a14.28,14.28,0,0,1-1.22,1.1c-.5.42-1,.83-1.52,1.25-.34.27-.58.23-.7-.22,1.2-1.21,2.4-2.41,3.58-3.62A21.3,21.3,0,0,0,65,104.18a19.76,19.76,0,0,0,1.86-2.94c1-1.9,1.82-3.84,2.67-5.79.61-1.39,1.18-2.8,1.71-4.21a13.49,13.49,0,0,0,.42-1.7l-.58-.63-1.82-.27c0,.2-.11.41,0,.53a2.25,2.25,0,0,1,0,1.93,26,26,0,0,1-1.06,3.11,16.54,16.54,0,0,1-1.47,2.5c-.63.93-1.33,1.81-2,2.71a1.47,1.47,0,0,1-2.35.34c-1-.72-2-1.42-3.05-2.09-1.61-1-3.26-2-4.86-3.09-.51-.34-.92-.83-1.42-1.2-.77-.59-1.57-1.13-2.35-1.7-1.05-.77-2.08-1.56-3.15-2.31-.85-.59-1.73-1.14-2.59-1.71a11.5,11.5,0,0,1-1-.69c-.71-.59-1.6-.92-2.14-1.77s-.46-1,.47-1.44L37,82.53l-.49.38a2.4,2.4,0,0,0-2.89-.76,1,1,0,0,0-.23-.14c-.17-.07-.41-.23-.51-.16-.67.44-1.33,0-2,0-1.17,0-2.34,0-3.51.14-.94.09-1.86.32-2.79.49.16-.4.15-.43,2.82-.92,1-.18,2-.17,3.08-.35-.37-.1-.73-.23-1.1-.29-1.61-.27-3.22-.55-4.83-.77-1.45-.2-2.92-.36-4.38-.51s-3-.3-4.55-.44l-4.16-.39c-.74-.06-1.49-.11-2.23-.13a.84.84,0,0,0-.61.18c-.41.52-.75,1.09-1.11,1.65a.21.21,0,0,0,0,.17c.44,1.14-.1,2.27,0,3.4,0,.76.16,1.52.24,2.28,0,.26.07.52.1.78l.3,2.34a9.64,9.64,0,0,1,6.51-2.65l.06.18c-.44.12-.88.25-1.32.35a12.11,12.11,0,0,0-4.3,1.82,4.5,4.5,0,0,0-.61.61l.14.24c.76-.31,1.55-.57,2.28-.95s1.39-.87,2.25-1.42c-.06.31,0,.51-.12.56-.79.5-1.57,1-2.39,1.45a11,11,0,0,1-1.53.61,2.23,2.23,0,0,1-.46,0c-.15,0-.43,0-.44.08A1.43,1.43,0,0,0,8.3,91c0,.12.17.2.23.31.28.49.56,1,.8,1.42l3-.94-.39-.45a8.74,8.74,0,0,1,1-.86,13.87,13.87,0,0,1,5.43-2.07A5.29,5.29,0,0,0,21.56,87c.5.33.21.55,0,.69-.87.55-1.76,1.07-2.65,1.6a2.81,2.81,0,0,0-.66.47l6.41-2.43-.12-.28c.22-.14.44-.27.65-.43.4-.29.79-.6,1.18-.89l2.89-2.11a11,11,0,0,0-1.84.75c-.86.55-1.86.31-2.76.65s-1.94.63-2.9,1c-1.35.46-2.69,1-4.06,1.4-.27.09-.65-.14-1-.22.12-.31.14-.74.37-.92a11.75,11.75,0,0,1,7.33-3.17,16.86,16.86,0,0,1,2.67-.27c.88.13,1.69-.12,2.57,0-.59.13-1.18.3-1.78.38s-1.06,0-1.59.08c-1.06.11-2.11.27-3.17.39a10.63,10.63,0,0,0-4.75,2.13c-.45.31-.85.67-1.28,1l.1.21a9.32,9.32,0,0,0,1.34-.28c1.74-.63,3.47-1.31,5.21-1.95a13.36,13.36,0,0,1,1.82-.51,1.13,1.13,0,0,1,.53.12l5.78-2.07.11.21-1,.58,0,.06-2.7,1.67.09.15c.86-.48,1.73-1,2.59-1.45s1.64-1,2.46-1.44l.26.2c-.07.2-.09.48-.23.57-.59.4-1.23.75-1.85,1.12-.92.56-1.83,1.15-2.76,1.69s-1.77,1-2.64,1.46a26.31,26.31,0,0,1-4.58,1.94c-1.3.47-2.62.85-3.92,1.3-.75.27-1.47.64-2.21.92s-1.46.52-2.2.77q-1.7.57-3.4,1.11c-.41.13-.84.23-1.43.38a11.11,11.11,0,0,0-.05-1.29,5.27,5.27,0,0,0-.31-.73,15.61,15.61,0,0,1-.69-2.33,25.66,25.66,0,0,1-.26-3.4c0-1.31,0-2.62.07-3.94a3.52,3.52,0,0,0,0-.35l-.2,0-.22,2H6.63c-.06-.12-.18-.26-.17-.37.09-.87.21-1.73.31-2.59.05-.42.1-.83.15-1.25L7,78.9l.48.17,1.39-1a2.54,2.54,0,0,0-2.4-.84A1.38,1.38,0,0,0,5.3,78.5c0,.46-.17.92-.23,1.38a21.93,21.93,0,0,1-.26,2.23,13.38,13.38,0,0,0-.11,6.19c.21.92.25,1.87.37,2.81a17.12,17.12,0,0,0,1.41,5.47c.48,1,1.11,1.9,1.55,2.89a12.5,12.5,0,0,0,1.59,2.41c.86,1.14,1.63,2.36,2.49,3.49a22.45,22.45,0,0,0,1.75,1.94c.47.49,1,.94,1.47,1.4a1.47,1.47,0,0,0,.27.21c1,.58,2,1.17,3.07,1.73s2.11,1.22,3.22,1.7a14.79,14.79,0,0,0,3.21,1.26c2.2.4,4.35,1.07,6.54,1.53a18.73,18.73,0,0,0,2.22,0c1.34.11,2.68.31,4,.46a7.81,7.81,0,0,0,.86.05,33.42,33.42,0,0,0,3.67,0,44.55,44.55,0,0,0,4.9-.84,34.12,34.12,0,0,0,3.7-1.14c1.15-.4,2.27-.89,3.41-1.32a4.82,4.82,0,0,1,.87-.16l.14.22c-.19.17-.36.41-.58.5-1.18.45-2.36.87-3.55,1.28S49,115,47.9,115.32a8.66,8.66,0,0,1-1.37.36c-1.2.18-2.41.31-3.61.48a7.13,7.13,0,0,0-.86.22c-.1.59.47,1.18-.06,1.73-.48-.13-.56-.38-.43-.79a4.7,4.7,0,0,0,.08-.95c-.83,0-1.56,0-2.3,0-1.06-.05-2.12-.14-3.17-.22-1.29-.1-2.58-.17-3.86-.34s-2.82-.45-4.22-.73-2.55-.56-3.81-.9a9.34,9.34,0,0,1-1.62-.65c-.93-.45-1.85-.93-2.77-1.42-.18-.09-.31-.26-.5-.3a31.84,31.84,0,0,1-4-2.07,25.68,25.68,0,0,1-3-2.93,2.57,2.57,0,0,1-.9,2.3l.4.42c.62-.17.48-1.18,1.45-1.14-.18.34-.29.6-.44.83s-.33.47-.53.74l.42.41.58-1.06.48.17-.65,1.22c.28.33.51.1.73-.14s.32-.39.48-.58l.21.15L14,111.25l.58.43c.4-.19.44-.83,1.19-.78l-.74,1,.54.58.43-.92.28.21-.41.91c.48.52.66-.3,1.15-.27l-.36.82.67.22,1-.78.18.17-.25,1a23.12,23.12,0,0,0,8,3.31c.9-.39.28-1.51,1.24-2a2.72,2.72,0,0,1-.67,2.13l.56.09c.21-.57.42-1.13.64-1.69l.33.11L28,117.62l.63.12.61-2,.22,0c.28.72-.24,1.38-.36,2.1a6.26,6.26,0,0,0,3.16.16c2.43.64,4.83.3,7.21.52l.07-1,.18-.07.37.89c.42,0,.67-.13.72-.66,0-.3,0-.79.59-.94-.05.51-.1.95-.16,1.55l4.83-.58c.23-.41-.24-1,.48-1.49l.18,1.59,6.42-1.77-.6-2c.52,0,.76.42,1.13,1.84l.48-.14-.36-1.44.29-.11.69,1.35c.59-.18-.47-.93.4-1l.32.6.44,0c-.11-.63-.22-1.2-.31-1.78,0,0,.13-.1.15-.12l1.49,1.33L59.76,113,59.31,112l.17-.15.75.57c-.08-.61-.88-1-.48-2l1.16,1.91.28-.13L60.53,110l.61.08.14-.52,1,.17a4.45,4.45,0,0,0,.4.43,1.27,1.27,0,0,0,.62.31l-.8-1c.4-.49.56-.39,1.39.85l.14-.07c-.14-.22-.26-.44-.41-.65s-.37-.45-.59-.71c.5-.15.5-.15,1.66,1.05l1.39-1.1c-1.48-1.44-1.48-1.44-1.45-2,.34.22.64.39.91.6,1,.73,1.25.71,2-.22a30.59,30.59,0,0,0,3.53-6l-1.47-.88c.76-.28,1.15.29,1.67.46l.18-.32-1.53-1,.12-.21,1.62.76c.39-.49.35-.7-.2-.92s-1-.36-1.51-.55a5.22,5.22,0,0,1-.48-.25c.64-.37,1.07.08,1.52.16s.92.31,1.48.37c-.1-.09-.19-.23-.3-.27-.78-.24-1.56-.45-2.34-.68-.08-.51.2-.52.51-.46s.7.17,1,.26Zm31.25-49.49c-.62-1-1.21-2.05-1.84-3.06-.44-.71-.93-1.39-1.43-2a1.57,1.57,0,0,0-.73-.39A21.75,21.75,0,0,1,103.47,50L100.6,44.9l-.22.11c.66,1.29,1.74,2.41,1.75,4a1.12,1.12,0,0,1-.27.05,1,1,0,0,1-.22-.08c.43-.65-.14-1.06-.34-1.53a10.45,10.45,0,0,0-.83-1.45c-.64-1-1.31-2-1.95-3a2.78,2.78,0,0,1-.2-.59l-.93-.45v.45c.92.74,1.15,1.87,1.71,2.78a6.24,6.24,0,0,1,.56,1.59c0,.14-.08.32-.15.58l-.79-.53.56-.1L97.6,43.35l-.24.06a7.13,7.13,0,0,0,.17.92c.15.49.38,1,.52,1.45a.74.74,0,0,1-.2.61l-.5-1.51a13.09,13.09,0,0,1-2.53,4.39l-1.65-2.89-1.67-1-.24.07-1.49-3.19-1.16.47.41.65c-.37.44-.91.21-1.37-.53a24.9,24.9,0,0,1-3.84-.47,11.72,11.72,0,0,0-3.45-.24,2.58,2.58,0,0,1-.64-.21,25.36,25.36,0,0,1,3-4.81L82.35,37l-1,.85-.23-.29c.62-.54,1.22-1.1,1.88-1.6s1.39-.93,2.12-1.41l-.2-.29-4.16,2.93L80.6,37a19,19,0,0,1,4.13-3.19l-.64-1.72a11.15,11.15,0,0,1-3.2,2c-.06,0-.19-.08-.35-.16l3.38-2.25-.39-.61-5,3.38A13.48,13.48,0,0,1,82,31.37c1.29-.92,2.64-1.74,4-2.72a5.48,5.48,0,0,0-1.71.31c-1.13.62-2.18,1.38-3.25,2.11s-1.93,1.32-2.89,2c-.41.29-.79.63-1.18.95l-.16-.11a1.5,1.5,0,0,1,.24-.44c1.09-.94,2.19-1.86,3.27-2.83-.37.19-.75.38-1.12.58a16.56,16.56,0,0,0-2,1.15c-.88.65-1.67,1.42-2.5,2.13l-.15-.09c0-.12.06-.27.14-.34,1.28-1.15,2.53-2.33,3.86-3.43,1-.81,2.06-1.5,3.14-2.28H77.73a13.84,13.84,0,0,0-3.58,3.34l0,0-.86.72c-.22.17-.44.33-.72.55l-.06-.43.49-.33L72.85,32l-.32.49c-.63.5-1.28,1-1.89,1.5s-1.25,1.17-1.87,1.75l-.16-.1.58-.87-.09,0a1.68,1.68,0,0,1,.15-.58c.72-1,1.47-2,2.21-3a3.69,3.69,0,0,0,.27-.51l-.12-.13c-1.1,1-2.16,2-3.32,2.93a16.2,16.2,0,0,0-2.84,3.42l-.25-.17.63-1,.73-1.17.71-1.08-.12-.13a26.85,26.85,0,0,0-2.09,2c-.63.73-.66,1.86-1.57,2.46l.7-1.8a3.41,3.41,0,0,0-1.6,1.42c-.51,1-1,2.12-1.46,3.17a.9.9,0,0,1-.42.41,34.18,34.18,0,0,1,3-6.88c-.58.5-1.12,1.05-1.74,1.5-1.7,1.24-2.44,3.08-3.11,4.94C58.32,42,58,43.52,57.6,45a1.17,1.17,0,0,1-.34.54A22.12,22.12,0,0,1,59.43,38,4.6,4.6,0,0,0,57,41.24c-.18,1.18-.55,2.34-.85,3.5a.88.88,0,0,1-.32.45A35.63,35.63,0,0,1,58,37.05a1.34,1.34,0,0,0-.34.17,19.74,19.74,0,0,0-2.13,2.38,6.47,6.47,0,0,0-.79,2.29c-.36,1.83-.63,3.69-.95,5.53a3.58,3.58,0,0,1-.34,1,70.68,70.68,0,0,1,.9-7.6l-.64.8-.14-.09,1.81-3c-.24,0-.31,0-.33,0a9.88,9.88,0,0,0-2.77,5.59c-.21,1.9-.6,3.78-.93,5.67a9.56,9.56,0,0,1-.26.93h-.2a2.74,2.74,0,0,1,0-.59c.4-2.54.81-5.08,1.24-7.78-.77,1.26-1.92,2.12-1.95,3.66,0,2-.12,4-.31,6a5.11,5.11,0,0,0,.24,2.06,1.31,1.31,0,0,1,0,.44l0,0L49.8,54l-.27.17s-.07-.07-.07-.1c.12-1.36-.54-2.57-.76-3.87A26.35,26.35,0,0,0,48,47a6.47,6.47,0,0,0-.74,2.3,17,17,0,0,0,.92,3.4c.19.64.4,1.27.63,1.89.71,2,1.44,3.93,2.17,5.9.12.33.24.67.36,1l-.21.09c-.4-.91-.82-1.82-1.19-2.74s-.73-1.93-1.09-2.9L47.77,53l-.15,0,1.61,5.38-.18.06a15.75,15.75,0,0,1-1.53-4.19c-.36-1.43-.57-2.9-.88-4.53-.1.26-.21.4-.19.52a25.2,25.2,0,0,0,.43,2.89,27.83,27.83,0,0,0,1,3c.82,2.2,1.67,4.38,2.51,6.58a2.29,2.29,0,0,1,.07.38l-.2.06-2.93-7.08c.17,1.35.58,2.48.63,3.66l-.28,0-1.79-8h-.23l-.89,1.35c.39,1.67.76,3.35,1.19,5A15.93,15.93,0,0,0,46.7,60c.26.64.52,1.28.73,1.93.05.16-.09.39-.14.59l-.18-.05-.44-1.29-.19.06.61,2a24.75,24.75,0,0,1-2.88-6l1.6,3.42c-.06-2.12-1.21-3.84-1.92-5.76a1.45,1.45,0,0,0-.32,1.71,26.29,26.29,0,0,0,.79,2.58,10.56,10.56,0,0,0,.76,1.29q.73,1.32,1.43,2.66c.39.74.74,1.5,1.15,2.23a6.67,6.67,0,0,0,.77.9l-.08-.73c.12.22.22.31.2.38-.19.69.28,1.15.58,1.65a17.68,17.68,0,0,0,5.45,5.9,2.31,2.31,0,0,1,.42.49l-.18.2-2.73-2-.07.07,2.35,3.51-.17.11q-4.63-6.71-8.79-13.72l-.17.07,1.19,3.09-.26.09-3.3-8.44h-.17a3.9,3.9,0,0,0-.12.9,10.89,10.89,0,0,0,1.65,4.7c1.34,2.15,2.64,4.32,4,6.44,1,1.54,2.06,3,3.08,4.53a.4.4,0,0,1,.07.29,12.52,12.52,0,0,1-2.12-2.68l-2-3c-.65-1-1.31-1.93-1.92-2.93s-1.18-2-1.91-3a62.11,62.11,0,0,0,2.32,6.53,61.75,61.75,0,0,0,3.63,5.89l1.66,2.22.15-.06-.11-.92.2-.08A7.13,7.13,0,0,0,53.7,80v-.6l.11,0c.2.49.38,1,.62,1.46.61,1.21,1.22,2.42,1.89,3.61.16.28.52.45.78.67l.23-.07c-.08.15-.14.42-.24.44-.72.11-.92-.54-1.17-.8a8.92,8.92,0,0,1-4-2.29c.18,1.07.87,1.9,1.51,1.85.07.44-.24.53-.51.42A3,3,0,0,1,52.2,84c-.24-.23-.47-.47-.7-.71l-.13.12.36.54a2.08,2.08,0,0,1,.3.6c-1.38-.66-1.55-2.44-3.06-3.19l1.48,3.24.51-.25,0,.16c.61.18,1.21.41,1.84.53,1.11.22,2.25.35,3.36.56s2.38.52,3.62.8a21,21,0,0,1-3.93-6.19L56,80.1c.47.81.94,1.62,1.42,2.42A22,22,0,0,0,59.95,86a2.58,2.58,0,0,0,1.68.76c1,.2,2,.44,2.95.64a4.87,4.87,0,0,0,1.19.14,15.08,15.08,0,0,1,4.42.52,15.26,15.26,0,0,0,1.87.2q1.39.17,2.78.37c.64.09,1.27.22,1.91.32.36.06.5.22.38.6-.56,1.69-1.05,3.42-1.68,5.08-.49,1.29-1.15,2.51-1.73,3.76a.73.73,0,0,0,0,.49,17.92,17.92,0,0,0,2.1,4.51c.31.45.7.85,1.1,1.32l.87-1.24a22.27,22.27,0,0,1-3.35-5.28l.18-.12c.51.81,1,1.63,1.52,2.42s1.15,1.69,1.72,2.53L78,103a6.87,6.87,0,0,0-.21-.72c-.66-1.63-1.33-3.26-2-4.9,0,0,0-.11.07-.32l1.44,1.47-.32-1,.12-.13c.14.15.36.28.4.45A14.73,14.73,0,0,0,79,101.62c.44.84,1,1.59,1.57,2.38l-.12.11-.61-.72-.14.09.72,1.19.89-1.26L76.46,92l.1-.1c.13.1.32.17.37.3.4.89.76,1.79,1.15,2.68s.78,1.61,1.13,2.43c.58,1.35,1.14,2.71,1.7,4.06l.61,1.41.29-.61H82a7.78,7.78,0,0,0,0,1.7,7.63,7.63,0,0,0,.73,1.53l.91-1.25-.47-.87h0c-.37-.9-.73-1.81-1.12-2.7Q80.55,97.15,79,93.7c-.25-.55-.59-1.06-.9-1.62.52-.23.66.24.8.49.33.58.57,1.22.85,1.83.65,1.44,1.31,2.88,1.94,4.33s1.13,2.66,1.72,4.05l.38-.09q0,.55-.09,1.1l.23.07,1-1.52-.12-.11-1,.47,1.3-1.78c-1.32-2.35-2.43-5.35-4.45-7.86l.23-.21a3,3,0,0,1,.65.54,21.36,21.36,0,0,1,1.2,2q1.51,2.84,3,5.71c.39.77.73,1.58,1.18,2.56a21.29,21.29,0,0,0,1-2.1c.08-.22-.11-.59-.26-.85Q85.67,97.32,83.68,94a13.38,13.38,0,0,0-1-1.22c-.14-.18-.24-.37-.36-.56l.14-.16c.19.13.44.22.57.4.71,1,1.4,2.1,2.06,3.17.81,1.32,1.59,2.66,2.36,4,.25.44.46.91.77,1.53L89,98.71l-.7.35L88.24,99l.5-.6-4.39-7.08.22-.14c1.6,2.19,2.93,4.57,4.44,7l1.48-2.44L87.31,90l.29-.16,3,5.26.11-.2L92.06,98c.9-1.1.53-2.06-.15-3.06-1.54-2.28-3-4.6-4.54-6.91a1,1,0,0,1-.05-.24c.16,0,.33,0,.37.11.6.87,1.17,1.74,1.77,2.62.29.43.6.85.9,1.27.09.12.18.25.26.38.3.48.61,1,.91,1.45.41.67.8,1.34,1.2,2l.18.25c.28-.89.55-1.7.78-2.52a.74.74,0,0,0-.15-.47q-1.33-2.22-2.68-4.43L90,87l.09-.17c.16.08.4.11.48.24.67,1.11,1.31,2.24,2,3.35s1.25,2,1.85,3,1.29,2.21,2,3.43l.33-1.34.22,0-.14,2.32H97c.24-.94.75-1.86.22-2.88l-1-.11,0-.19.72-.31-.8-1.58-.19,0a6.52,6.52,0,0,0-.35-1c-.89-1.64-1.8-3.27-2.8-5.08.25.1.46.13.54.24A8.44,8.44,0,0,1,94,88c1,1.78,1.91,3.58,2.87,5.36.15.28.34.55.62,1,.22-.39.39-.65.51-.93.58-1.42-.41-2.42-1-3.54-.09-.17-.25-.31-.3-.49-.33-1.34-1.44-1.68-2.56-2a.91.91,0,0,1-.51-.42l2,.51-1.58-3.08.17-.16c.16.14.37.25.47.43.53,1,1,2,1.59,3.06l1.06.09.07-.73.42.51c-.12.86-.76.57-1.27.62l1.71,3c.12-1.11.88-2.16.07-3.34a29.57,29.57,0,0,1-1.69-3.2,5.4,5.4,0,0,1-.24-.72l.21-.14a2.59,2.59,0,0,1,.41.48c.51,1,1,2,1.51,3a2.85,2.85,0,0,0,.33.41l.25-1.36h.09a3.51,3.51,0,0,1,0,.75,3,3,0,0,0,.56,2.36c.5.78.94,1.61,1.49,2.56a18.14,18.14,0,0,1,.54-2.51c.42-1.14-.1-2-.63-2.88-.93-1.59-1.82-3.2-2.72-4.8a.61.61,0,0,1,0-.49c.16.11.37.19.46.34,1,1.75,2,3.51,3,5.27a4.17,4.17,0,0,0,.3.38c.19-1.29.38-2.46.53-3.63a1.18,1.18,0,0,0-.17-.7c-.8-1.32-1.64-2.62-2.45-3.94a2.72,2.72,0,0,1-.38-1c1,.42,1.21,1.37,1.67,2.16l1.49,2.56a39.79,39.79,0,0,0,.31-5.6l-.1-2.19.11,0a3,3,0,0,1,.26,1c-.11,1.19.68,2,1.2,2.89.24.41.45.85.74,1.41l.22-2.33h.17c0,.8-.08,1.6-.13,2.46l2.19.44c.35-2-1.15-3.13-1.68-4.67l-.2,0-.1,1.26h-.17a4.56,4.56,0,0,1,0-1.24c.18-.61-.15-1-.44-1.4s-.66-1-1.08-1.67c1.12,0,1,1,1.58,1.45,0-1.18,0-2.28,0-3.39s-.24-2.2-.24-3.32a1.35,1.35,0,0,1,.13.34c.14,1.46.27,2.92.4,4.38a3.3,3.3,0,0,1,0,.89c-.35,1.79.91,3,1.55,4.45a9,9,0,0,0,.46.78,8.93,8.93,0,0,0-1-6.83l-.63-.27.64-.21-.4-.37c.52-.74-.5-1.13-.46-2l.79.55.41-.12.41.91-.32,0-.07.16,1.06.48c-.23-1.76.38-3.46-.91-4.87l.3.09.35.15A24.46,24.46,0,0,0,107,59.92l.2-.06a7.77,7.77,0,0,1,.58,1.44,3.85,3.85,0,0,0,.93,1.87,10.2,10.2,0,0,1,.82,1.11c.45.67,1.13.74,2,.78a3,3,0,0,0-.25-.94c-1.29-1.79-2.61-3.54-3.91-5.32-.15-.2-.27-.43-.4-.64l.16-.17a2.05,2.05,0,0,1,.51.38c.51.72,1,1.48,1.48,2.2.25.35.62.6.89.94s.66,1,1,1.45c.06.09.14.17.21.26l.17,0c-.16-.88-.35-1.75-.47-2.63a7.33,7.33,0,0,0-1.21-2.37h0l.48-.26-.64-1.54.17-.14c.17.19.42.36.5.59.37,1,.64,2,1,3a18.15,18.15,0,0,0,1.07,1.91c.33.58.66,1.16,1,1.75a20.94,20.94,0,0,0,1,1.89,14.58,14.58,0,0,1,0-1.71c.22-1.92-.9-3.27-1.93-4.63s-2.31-2.86-3.46-4.3a2.13,2.13,0,0,1-.22-.48l.13-.13a2.93,2.93,0,0,1,.65.45c.93,1.12,1.86,2.24,2.75,3.39.49.63.9,1.32,1.36,2a1.39,1.39,0,0,0,.41.39c-.3-1.19-.24-2.44-1.05-3.5-1.12-1.46-2.13-3-3.2-4.5h-.51l.13-.12c-.19-.33-.37-.65-.57-1s-.77-.59-.61-1.37l1.55,1.46c.21.36.39.73.62,1,.88,1.21,1.77,2.4,2.66,3.6l.17-.08a10,10,0,0,0-.93-1.94c-1.21-1.58-2.5-3.1-3.8-4.6a19.57,19.57,0,0,0-1.62-1.52l.14-.2c.3.23.6.45.9.68a6.82,6.82,0,0,1,.89.77c1,1.12,1.93,2.26,3,3.26.22.09.54.12.65.29.29.44.46,1,.73,1.42.78,1.3,1.59,2.58,2.47,4a7.64,7.64,0,0,0-1.77-4.2c-1.22-1.67-2.42-3.37-3.74-5s-2.79-3.11-4.19-4.66c-.11-.12-.2-.25-.41-.52l1.18.56a4.3,4.3,0,0,0-2.15-2.67l.49,1-.15.14c-.13-.08-.32-.12-.4-.24-.77-1.09-1.52-2.18-2.27-3.28-.17-.25-.32-.52-.49-.78l.2-.17L104.32,41l.17-.14-2.69-3.77.15-.19,2,1.18.15-.14a1.8,1.8,0,0,0-.35-.47c-.75-.51-1.51-1-2.27-1.47-.34.68-1.56.52-1.38,1.68a10.68,10.68,0,0,1,3.19,4.11c.17.35.41.66.6,1a2.94,2.94,0,0,1,.32.72c.15.65.27,1.31.42,2.09-.2.26-.46.18-1-.22-.78-.57-1.62-1.05-2.43-1.57l-.16.21,1.09.85a3.41,3.41,0,0,1,.54.47c.5.62,1,1.25,1.41,1.92.41.36.88.67.91,1.29l-.16.12-2.18-2.75-.12.08,1.6,3h0C104,48.88,103.89,48.85,103.84,48.76ZM64.56,88c-.92-.13-1.83-.31-2.75-.49-1.1-.21-2.2-.43-3.29-.68s-2.29-.58-3.45-.83c-.8-.18-1.62-.28-2.43-.42l-3.37-.63a2.28,2.28,0,0,0-.92,0l.37.3c-.41.29-.59.21-1.08-.45a13.83,13.83,0,0,0-5.3-.45l-.15.2a6.59,6.59,0,0,0,.87,1c.47.37,1,.62,1.53,1s1,.74,1.45,1.11c1.07.8,2.13,1.62,3.22,2.4s2.1,1.41,3.14,2.15c.56.4,1.08.86,1.61,1.29a18.58,18.58,0,0,0,3.13,2.08c1.41.74,2.69,1.73,4,2.61.6.4,1.21.79,1.81,1.19.34.23.58.25.86-.13a36.82,36.82,0,0,0,2.66-3.63A31,31,0,0,0,68.33,91a5.33,5.33,0,0,0,.13-1.48c0-.29,0-.59,0-.88l.09-.18C67.22,88.31,65.89,88.15,64.56,88ZM89.67,37.16a5.56,5.56,0,0,0-.25-.7l-.55.39-.78-.72.62-.06-.42-2.8.22-.05c.66.87.43,2,.8,3l.19,0-.38-2.93.23-.09.5,1,.35-.76c-1.3-1.67-4.21-2.48-5.54-1.6.38.78.74,1.56,1.13,2.31a3,3,0,0,0,.53.57l.18-.16-1.34-2.44.3-.19a7.85,7.85,0,0,1,.63.81,11,11,0,0,1,.5,1.06c.29-.57.72-.51,1.19.08A2.6,2.6,0,0,1,88,36a1,1,0,0,1-.69.41,5.33,5.33,0,0,0-3.66.85l.27.28a11.69,11.69,0,0,1,1.2-.53,11,11,0,0,1,1.24-.26l.08.23L83.6,38.28l-.66,1.17c-.36-.92.3-1.41.5-2l-.14-.09c-.24.36-.48.71-.71,1.08s-.33.6-.52.89a13.69,13.69,0,0,0-1.17,2l3.87-1.15.29.41.14,0a4.15,4.15,0,0,1,.06-.86,2.08,2.08,0,0,1,.37-.55,2,2,0,0,1,.31.52,5.43,5.43,0,0,1,.06.88l.81-.13c0-.38,0-.75.06-1.2.83-.17.4.62.78,1,.08-.37.13-.63.18-.88s.12-.68.6-.34l.48-.4.26.81.49-1.09c.69.38.28,1.18.6,1.71l.66.19-.51-2.16C89.82,38,89.76,37.6,89.67,37.16Zm4.56.87c-1.11.05-2.22.7-3.37-.17l.49,2.33c.61,0,.71.37.72.93s0,1.38.81,1.71c.19.07.24.49.35.75.23.57.45,1.15.67,1.72l.18-.05V44.7c.56,0,.42.44.52.7s.16.61.24.92l.16,0-.4-2.1.22-.08a12.55,12.55,0,0,1,.47,1.28c.12.47.16,1,.25,1.55L96,46.4l-.7-3.53.59.67.07,0-1.38-3.09.64.13-.8-1.08.09-.18.94.45ZM47.62,73.21A6.79,6.79,0,0,0,49.5,77l.1-.47.16-.08c.16,1.69,1.48,2.53,2.44,3.66a8.91,8.91,0,0,0-1.45-3.34c-.93-1.14-1.81-2.33-2.65-3.54S46.72,71.05,46,70c-.81-1.23-1.64-2.45-2.5-3.72l-.15,0-1.8-3.41-.17.08c.4,1.12.78,2.24,1.19,3.35s.71,2.09,1.19,3.08a17,17,0,0,0,1.51,2.38c.71,1,1.48,2,2.23,2.95l.12-.05ZM105.28,83l-.19,0a11.25,11.25,0,0,1,.16-1.53.91.91,0,0,0-.5-1.16,4.36,4.36,0,0,0-1.2-2.19c0,.58-.1,1.16-.15,1.74a19.77,19.77,0,0,1-.21,2.35,2.1,2.1,0,0,0,.32,1.77c.39.56.7,1.17,1.15,1.92l.25-2.57c.4-.35.67.27,1.11.33.06.84-.57.41-.87.46a13.1,13.1,0,0,0-.42,1.91c0,.32.25.66.4,1,.28.58.57,1.16.92,1.88.08-.92.16-1.71.23-2.52h.2l.16,1.53.12,0c0-.33.08-.67.13-1a6.41,6.41,0,0,1,.23-1.07,2.5,2.5,0,0,0-.44-2.2c-.4-.71-.76-1.45-1.13-2.18l-.11,0Zm-3.85-41.26c-.22-.48-.48-1-.65-1.46a1.38,1.38,0,0,1,.06-.78,5.3,5.3,0,0,0-2.61-2A8.82,8.82,0,0,0,96.84,37a1.09,1.09,0,0,0-1.41.79L95.18,37l-.47.82,1.23,1.67.06-.11.93.46.29-.11.66,1c0-.48-.06-.83-.08-1.18l.25,0,.62,1.28-.23,1-1.09-1-.51-.07-.07.14,2.85,1.58-.81-1.33.15-.1.75.88.12-.07-1-2.28c.58,0,1.54,1.85,1.68,3.2l.63.22L99.8,39.73l.14-.15c.15.12.36.21.43.37.44,1,.85,2,1.29,3.07a1.81,1.81,0,0,0,.32.4l.18-.14Zm-31,62.53,1.28,2.42.31-.37c-.37-.86-.73-1.66-1.06-2.47,0,0,.13-.1.19-.14l1.24,2.1.56-.79-1.16-2.81.31-.15.7,1.4,1,.68.71-.82c.24.32.24.32-.57,1.32l.64,1,.68,1,.75-.69a2.19,2.19,0,0,0-.11-.55c-.78-1.64-1.58-3.27-2.35-4.91a4.65,4.65,0,0,1-.23-1Zm50.7-37.95c-.13-1.06-.25-2.13-.44-3.18s-.41-1.85-.65-2.77c-.34-1.32-.7-2.64-1.06-4-.22-.81-.42-1.62-.69-2.41a9.63,9.63,0,0,0-.6-1c-.65-1.33-1.27-2.67-1.92-4a1.93,1.93,0,0,0-.55-.64l.34,1.43-.1,0-2.6-3.37-.18.12a7.57,7.57,0,0,0,.56,1.08c.79,1.07,1.63,2.09,2.41,3.17.33.45.54,1,.82,1.48.5.86,1,1.69,1.52,2.57.27.5.47,1.06.21,1.46a12.18,12.18,0,0,1,.82,1.74,7.44,7.44,0,0,1,.22,1.83,9.33,9.33,0,0,0,.74,3.68,11.17,11.17,0,0,1,.63,3.53c.07.56.15,1.12.23,1.68A4.26,4.26,0,0,0,121.11,66.28ZM104.73,92.79h.13c.29-1,.58-2,.85-3.07a1.08,1.08,0,0,0,0-.65c-.3-.72-.65-1.41-1-2.27l-.46,2.28-.26,0A4.4,4.4,0,0,0,103,84l-.16,1.21a19.91,19.91,0,0,1-.29,2,1.53,1.53,0,0,0,.23,1.24c.22.36.35.77.57,1.12a1.57,1.57,0,0,0,.44.37Zm3.82-52.55a21.38,21.38,0,0,0-1.72-1.92,12.16,12.16,0,0,0-1.35-.94c-.27-.2-.51-.43-.71-.61l-6.89-4.26c-.37.1-.67.19-1,.26s-.48.07-.72.1l.12-.75-4-1.63L90.1,31.9l0,.15a1.65,1.65,0,0,0,.32,0,.56.56,0,0,0,.24-.15,2.41,2.41,0,0,1,3.06-.41c1,.44,1,.41,1.9,1.71,2.63.36,5.49,1.63,5.73,2.48a3.81,3.81,0,0,1,.93.31c1.16.78,2.34,1.53,3.41,2.42,1.25,1,2.39,2.19,3.58,3.29,0,0,.06,0,.22,0C109.19,41.16,108.91,40.67,108.55,40.24ZM90.29,37l1.22.14L91,36.55l.79-.48-.43-.18-.21-.24.52-.47.14.18-.42-.61.13-.22,1.59.68.1-.1-.47-.43a5.82,5.82,0,0,1-.69-.64c-.24-.31-.22-.61.08-.73.56.33,1.06.61,1.54.93.13.08.19.27.27.42l.57,1c0,.12,0,.38,0,.68.13-.06.19-.08.19-.09a20.13,20.13,0,0,0,0-2.79,3,3,0,0,0-2.46-1.52c-.33.11-.54.6-.79.94s-.24.4-.36.6A4.41,4.41,0,0,0,90.29,37Zm18.26,29.67a8,8,0,0,0,1.07,2c.42.71.89,1.4,1.39,2.19l.33,0c.05-.06.09-.09.1-.12a10.38,10.38,0,0,0,.08-2.4,6,6,0,0,0-1-1.92c-.46-.74-1-1.45-1.52-2.15a7.14,7.14,0,0,0-.77-.75A19.47,19.47,0,0,0,108.56,66.69Zm-1.79-23.1c.1.17.26.33.27.5a1.43,1.43,0,0,1-.15.53c1.38,1.58,2.79,3.1,4.08,4.72s2.42,3.3,3.65,5C113.2,49.86,110.16,46.6,106.77,43.59Zm4.49,33.2a5.22,5.22,0,0,0,.55,1.79c.25.64.55,1.25.84,1.87a3.16,3.16,0,0,0,.36.45c.18-1,.3-1.84.51-2.67a2.87,2.87,0,0,0-.45-2.44c-.46-.68-.48-1.68-1.42-2.14A25.26,25.26,0,0,0,111.26,76.79ZM59.56,37.2c.92-1.05,1.79-2.15,2.69-3.23a9,9,0,0,1,.76-.86,1.48,1.48,0,0,1,.52-.2l.08.15-.24.48,3.71-3a14.65,14.65,0,0,0-5.66,3.06A24.46,24.46,0,0,0,59,36.17a11.76,11.76,0,0,0-1.1,2.42l.14.1C58.53,38.19,59.09,37.73,59.56,37.2Zm41.37,56.17.19,0-.52,2.51.62,1.16.38-.74a2.76,2.76,0,0,0-.49-3.19c-.23-.26-.25-.7-.42-1-.51-1-1-1.94-1.65-3.06a9.39,9.39,0,0,1-.29,1.66c-.51,1.36.58,2.2,1,3.46l.28-.81h.2v2l.24,0Zm11.55-46c-.82-1-1.64-2-2.52-2.89s-1.75-1.67-2.54-2.42a8.36,8.36,0,0,1,1,1.6,14.38,14.38,0,0,0,2.8,4c.81,1,1.69,2,2.56,2.95A4,4,0,0,0,112.48,47.33ZM45.7,75.55A7.23,7.23,0,0,0,48,77.85l.56.84.18-.09c-.62-1.19-.5-2.65-1.59-3.7a26.71,26.71,0,0,1-2.09-2.56C45.2,73.43,44.94,74.62,45.7,75.55ZM93.2,96.07c0,.56.5,1.14.82,1.77l1.15-1.25.23,0a4.35,4.35,0,0,1,0,.85,1.71,1.71,0,0,1-.32.61c-.4.57-.5,1.11.11,1.61a2.76,2.76,0,0,0,.7-2.8c-.6-1.08-1.23-2.14-1.92-3.33A10.15,10.15,0,0,0,93.2,96.07Zm17.57-15.34h.06l-2.17-5.09c-.14,1.25-.29,2.39-.37,3.54,0,.26.24.54.36.82l.51,1.15c.52-.17,1,.55,1.51,0l.28.4.21-.13Zm-19.33,19-.17-.28.69-1-1.2-2.24c-.46.59-.9,1.18-1.36,1.75-.27.33-.28.54,0,.93a15.07,15.07,0,0,1,1.06,2,2.16,2.16,0,0,0,.18.22ZM36.14,71.53l.17-.06c.17.4.38.78.52,1.19.39,1.17.75,2.36,1.14,3.61.19-1,0-1.27-.43-2.71A13.75,13.75,0,0,1,37,66.33a4,4,0,0,0-.08-2.61A27.07,27.07,0,0,0,36.14,71.53Zm13,11.61c-.28.24-.28.24-1.93-.67L47.78,84l2.12.39c-.23-.44-.42-.74-.55-1.07-.26-.63-.45-1.3-.74-1.92a4.55,4.55,0,0,0-.79-1.21c-.49-.52-1.06-1-1.63-1.47A4.82,4.82,0,0,0,49.17,83.14Zm63.58-13.79c.53.71.85,1.57,1.33,2.35.07-1.13.42-2.26-.25-3.35-.43-.7-.78-1.45-1.21-2.16a2.5,2.5,0,0,0-.58-.5A5,5,0,0,0,112.75,69.35Zm-45,40.8.13.17,2.95-1.88-.15.88.86-.06L70.92,108c-.72.34-1.22,1.21-2.26,1.19l2.62-2.06-.42-1.07a7.53,7.53,0,0,0-1,.64c-.57.5-1.35.76-1.67,1.57-.1.26-.56.38-1,.64h1.16Zm43.77-37.62-2.94-.47c.19.53.3.91.47,1.26.49,1,1,2,1.51,3a4.87,4.87,0,0,0,.39.56l.15-.06.26-3.21c-.3.13-.56.35-.81.33a2.56,2.56,0,0,1-.83-.43c.42-.55.82-.35,1.41-.05ZM73.11,30.68l-.18-.08L73,30l-3.46,4.37,7.08-6.12-3.2.34c0,.05,0,.11,0,.16L74,29Zm33.95,56.76c-.14.7-.34,1.39-.5,2.09a1.05,1.05,0,0,0,0,.49c.1.34.23.67.37,1.07a5.3,5.3,0,0,0,1.48-3.24,8.92,8.92,0,0,0-.8-2.67l-.21,0C107.32,86,107.21,86.7,107.06,87.44Zm-3.74,3.42c0-.22-.22-.51-.34-.77l-.77-1.53a25.09,25.09,0,0,0-.7,3.78c0,.65.53,1.32.82,2l.19,0C102.78,93.19,103.09,92,103.32,90.86ZM50.07,40.34s.1,0,.28.07a12.8,12.8,0,0,1-.59,1.39,11.53,11.53,0,0,1-1,1.47,1.28,1.28,0,0,0-.08,1.42,14.52,14.52,0,0,0,2.4-5.49c-1.93,1-3.37,2.36-3.37,4.72Zm64.45,11.94A54.11,54.11,0,0,0,118.91,62C119,60.75,115.63,53.39,114.52,52.29Zm-1,14.68c.21.41.39.84.66,1.41.09-1.21.31-2.23-.43-3.19a14.31,14.31,0,0,1-1.09-1.94c-.34-.63-.66-1.26-1-1.89l-.19.06.65,3.76,1-.56c.41.51,0,.74-.3,1C113.07,66.13,113.32,66.54,113.54,67ZM95.7,34.3l.19,1.91,2.19.21L98,35.48c-.52.09-.83.78-1.48.33.4-.29.72-.57,1.09-.79s.63-.09.71.34.11.63.19,1.09l.66-1.3.54.61.4-.25C98.11,34.24,96.14,33.74,95.7,34.3Zm20.16,27.28a15.92,15.92,0,0,1-1.28-2.15l-.35-.6c-.12,2.69,1.59,4.54,2.61,6.68C116.8,64.14,116.84,62.76,115.86,61.58ZM84.1,104.35l.82,2a9.33,9.33,0,0,1,1-1.36c1.17-1.14,0-2-.23-3.08ZM37.76,79.75c.54.24.11,1.34,1.25,1.2l-.69-1.57c.26-.6-.74-2.81-1.61-3.33a6.11,6.11,0,0,0,.74,3.8Zm66.08-40.65a18.88,18.88,0,0,0,4.73,5.38C108.18,43.32,105.18,39.07,103.85,39.11Zm6.83,46.31-1,3.64.57,1.51,1.29-3.09ZM98.42,92.69c-.55,1.59-.69,3.15.5,4.55C99.84,95.17,99.75,94.33,98.42,92.69Zm10.67.21c-.35.43-.73.83-1.07,1.22l.4,1,.42.06-.13,1.11c.63-.49,1.71-4,1.44-4.79C109.76,92,109.44,92.47,109.09,92.9Zm-6.16,1.33c0,.07,0,.15,0,.22-.31.8-.31.8.14,1.51,2-2,1.62-2.64.67-4.29Zm-11.86,7.21c-.11.4.25.94.4,1.42l.19,0,1.45-2.34-.84-1.66A16.38,16.38,0,0,0,91.07,101.44Zm23.48-51.36c.06,1.23,2,4.68,3.35,6C117.94,55.08,115.9,51.44,114.55,50.08ZM87.74,105.73c.45-.64.87-1.21,1.25-1.8a.6.6,0,0,0,0-.48c-.21-.47-.45-.92-.74-1.5L87,104Zm1.66-2.46c.31-.51.62-1,.91-1.54a.46.46,0,0,0,0-.38c-.33-.61-.68-1.22-1-1.81C88.59,100.77,88.21,102,89.4,103.26ZM45.27,47.66c.63-.61.73-1.1.65-3.61a9.51,9.51,0,0,0-1.54,2.35,10.65,10.65,0,0,0-.06,2.94l.21,0a11.49,11.49,0,0,0,.21-1.19c0-.61,0-1.22.07-1.83,0-.14.21-.26.32-.39l.14.08ZM40.86,60.59a3.79,3.79,0,0,0-.48-4.43A5.72,5.72,0,0,0,40.86,60.59Zm70.89,11.61,2.16.26L112.08,69l-.19,0v2.21Zm-67,.86a4.25,4.25,0,0,0-.06-.94,3.76,3.76,0,0,0-.48-.87c-.29-.46-.6-.9-1-1.45-.31,2,.74,3.33,1.43,4.81l.19,0C44.86,74.05,44.82,73.55,44.78,73.05Zm5.87,6c-.1,1.16,1.83,3.76,3.21,4.32A10.14,10.14,0,0,0,50.66,79.07Zm26.4,26.09,1.58,1.74c.81-.6.88-1,.3-1.89-.25-.38-.57-.71-.93-1.15ZM12.48,91.42a2.79,2.79,0,0,0,.66-.1q2.08-.86,4.15-1.75c.49-.21,1-.46,1.43-.7A13,13,0,0,0,12.48,91.42ZM118.66,64,117,61.06a1.84,1.84,0,0,0-.22-.26c-.18,2.07,1.45,3.35,2,5.08A2,2,0,0,0,118.66,64Zm-3,10.57c-.06,1.21.79,2.07,1,3.27a2.72,2.72,0,0,0,.24-3.2ZM113.69,56c0,2.15,1.78,3.48,2.55,5.28C116.29,59.13,114.67,57.74,113.69,56Zm5.14,7.44.19-.06a3.93,3.93,0,0,0-.23-1c-.78-1.5-1.6-3-2.42-4.46a2.85,2.85,0,0,0-.27-.3C116.42,60,117.78,61.68,118.83,63.48Zm-9.48,20.45-1.48-.52c-.41.57-.16,1.06.07,1.58s.54,1.32.86,2.13Zm-60.58-35a20.22,20.22,0,0,1,.57,2.54h.2V46.15C49,46.95,48.34,47.74,48.76,48.93Zm60,25.74c.62,1.5,1.28,3,1.92,4.47,0,.06.07.11.12.21a2.17,2.17,0,0,0-.16-2.08c-.6-1.07-1.14-2.17-1.7-3.26a2.31,2.31,0,0,0-.27-.29A3.82,3.82,0,0,0,108.73,74.67Zm-1.34,9.25.44-2.76-2.14-.55ZM77.66,108.82c.09.16.17.33.26.48s.27.58.43.59a1.6,1.6,0,0,0,.91-.28,4,4,0,0,0,.67-.74l-1.17-1.23ZM70.2,29.61c-.7-.14-1.87.54-2.67,1.38l-.31,1.69.14.11Zm-14.43,9C57,37,58.62,35.86,59.48,34,57.94,35.3,56.33,36.52,55.77,38.59ZM108.7,70.83l1.87.25-1.82-3.15-.18.05C108.61,68.9,108.65,69.81,108.7,70.83Zm.47,17.85c-1.06.84-1.9,3.62-1.41,4.63A17.88,17.88,0,0,0,109.16,88.67Zm-61-9a3.35,3.35,0,0,0-.4-1.19c-.69-.78-1.47-1.47-2.25-2.22C45.56,78.07,46.93,78.82,48.21,79.71Zm-6-20.27-.13,0c.2.92.42,1.85.61,2.77a19.23,19.23,0,0,0,.48,2.28,22.74,22.74,0,0,0,1.09,2.33l.18-.1ZM115.13,76a3.72,3.72,0,0,0-.25-1.38c-.05-.16-.35-.24-.58-.38-.07,1-.19,1.92-.16,2.8a4.27,4.27,0,0,0,.49,1.29l.12,0C114.89,77.54,115.08,76.78,115.13,76Zm3.22,12.57c.37-1,.71-2.1,1.05-3.15.1-.31.07-.68.47-.85.11,0,.14-.27.11-.47l-.26.42-.12-.52c-.41.71-.82,1.33-1.13,2a4.09,4.09,0,0,0-.09,1,7.36,7.36,0,0,1-.27,1.09,7.29,7.29,0,0,1-.35.77l.15.15C118.06,88.88,118.29,88.76,118.35,88.58ZM93.49,99.93a1.51,1.51,0,0,0,0-2.21,6.77,6.77,0,0,1-.51-.9c-.77,1.25-.69,1.81.38,3.16Zm3.87,9.57-.13-.14.38-.43,0-.08L95.35,110c-.48.25-.86.66-1.51.63-.32,0-.67.42-.94.76,2.18-1,4.59-1.46,6.37-3.18l-.13-.19ZM40.31,66.27c-.64.93-.23,2.67.86,3.72C41.75,68.53,40.7,67.49,40.31,66.27ZM45,79.69a3.08,3.08,0,0,0,1.23,1.16,10.39,10.39,0,0,1-.56-2c-.08-.95-.92-1.22-1.25-1.92l-.18.12A20.42,20.42,0,0,0,45,79.69Zm35.65,25.46.85,1.79c1-1,1-1.1.06-3ZM53.55,39.53c.87-1.32,2.37-2.21,2.69-3.93C54.39,36.28,54.24,38.09,53.55,39.53Zm54.26,43.63,2,.41c-.32-.69-.61-1.39-1-2-.1-.18-.48-.2-.73-.3ZM104.6,95.52l-.15-.05,0-.22c-.29,0-1,1.89-.87,2.53l2-1.8-.6-1.36Zm13.25-22.22a5.08,5.08,0,0,0,0-4.86Zm-76.91.31a4.38,4.38,0,0,0,1.58,4.17l-.67-2.87-.17,0Zm74.64,2.56-.13,0-.48,3.3.71-.15.72-1.16ZM93.48,103a.67.67,0,0,0,.37-1.06c-.13-.27-.3-.52-.5-.88-.41,1-1.3,1.62-1.44,2.64l.19.1A14.46,14.46,0,0,1,93.48,103Zm-54-35.7c.07-.85.59-1.68,0-2.57,0,.47-.05.95-.08,1.42l-.22,0-.28-3.59-.21,0A6.07,6.07,0,0,0,39.49,67.28Zm44.4,37.49a1.36,1.36,0,0,0-.4,2.36l1.21-.31ZM52.82,39.65c-1,1.25-2.3,2.27-2.24,4.11C51.37,42.42,52.66,41.36,52.82,39.65ZM113.08,91.2l.17.08c1.27-.9,2.2-2.85,1.7-3.94Zm-23,13.5c1.23-.47,1.41-1.23.53-2.63C90.29,103,89.11,103.61,90.08,104.7Zm9.6-6.7-.11.8.12.08L101,97.69l-.67-1.22L99.84,98c-.32-.85.57-1.44.09-2.16l-.83,2.54.22.07Zm12.16.63c1.38-1,2.79-2.06,3.36-3.83C114.62,95,111.74,98.28,111.84,98.63Zm8.83-26.27a5.12,5.12,0,0,1,0,1.1c-.12.58-.37,1.13-.53,1.71a2.54,2.54,0,0,0,0,.66l.16,0,.27-1.33.21-.1.22.44c.09-1.4.5-2.8-.36-4.2C120.66,71.28,120.66,71.82,120.67,72.36ZM39.3,77.51l-.21-1.19.1,0,.58,1.66.16-.06c-.37-1.26-.45-2.65-1.58-3.75C38.55,75.72,38.48,76.83,39.3,77.51Zm73.39,13.35a3.43,3.43,0,0,0-1.71,3A4.16,4.16,0,0,0,112.69,90.85ZM43.63,48a2.32,2.32,0,0,0-.2,3.27C44.1,50.22,43.83,50.47,43.63,48Zm8.52-8.39c.5-.6,1-1.2,1.51-1.81a1.33,1.33,0,0,0,.13-.38,3.66,3.66,0,0,0-2.52,3.24ZM42.89,68.35l-2-5.28A8,8,0,0,0,42.89,68.35Zm76.29-.76c.23,1.22-.1,2.51.6,3.79A3.36,3.36,0,0,0,119.18,67.58ZM43.07,82l1,.6c-.3-1.41-1.2-2.29-2.16-2.24C42.33,81,42.22,81.9,43.07,82Zm49.3,23.38-.52-1c-1.56.58-1.77,1.23-1.06,1.85ZM48.61,76.81c.62,1.32.63,2.8,2,3.62C50.08,79.18,50,77.72,48.61,76.81Zm46.86,23.52.52,1c1.31-.42,1.74-1.09,1.17-1.84Zm11-2.68a2.2,2.2,0,0,0,1.14-3.21ZM45.39,50.86c-.14-.47-.28-.95-.41-1.41-.75.59-.6,1.22-.25,2.86C45.49,52,45.63,51.66,45.39,50.86ZM3.61,78c-.55-.16-1.11-.26-1.65-.44-.17-.06-.27-.3-.4-.46L1.7,77l2,.62,0-.16a5.24,5.24,0,0,1-.94-.27A5.39,5.39,0,0,1,2,76.5c-.67.11-.7.16-.67,1.45l2.92.63C4.33,78.17,3.92,78.12,3.61,78Zm109.85,2.84h.82a2.94,2.94,0,0,0-.3-3ZM87.19,111.74c-1.19-.45-1.89-.15-1.91.71l-.9.25A2.21,2.21,0,0,0,87.19,111.74ZM38.56,67a4.25,4.25,0,0,0,.62,3.69A6.39,6.39,0,0,0,38.56,67Zm76.86,5.58c.4-1.17-.56-1.85-.92-2.76v2.65Zm3.82,8.65h.55a7.46,7.46,0,0,0,1.27-4.82A10.35,10.35,0,0,1,119.24,81.23Zm-2.39-1.31-1.78-.21.46,1.38C116.52,81.37,116.75,81.16,116.85,79.91ZM39.36,55.78l.39.63,1.12-4.06C39.72,53.24,39.82,54.64,39.36,55.78Zm33,50.77L72,107l-.2,2,1.61-1.13Zm39.94-21.71-1.43-.45-.16.09,1,2.31.16-.05Zm-70.51-25c-1,1.57.12,2.65.85,3.79ZM97.75,96l-.12,0a3.07,3.07,0,0,1,0,.65c-.09.42-.24.83-.34,1.25-.06.24-.09.49-.13.74l.21.11,1.27-.9ZM113,93.65l-.15-.11-2.78,3.95C111.87,96.73,112.18,95,113,93.65ZM47.17,47.72c.45-1.06,1.31-2,.91-3.35A3.84,3.84,0,0,0,47.17,47.72Zm58.57,45.94c-.5.67-.5.88.14,1.59l1.19-3.13-.17-.06C106.51,92.59,106.14,93.13,105.74,93.66Zm-19,10.87-1.41,2,.08.13,2-.66ZM111,84l1.53.44-1-2.38-.19,0ZM88.35,107.51l1.61-2-.17-.19-1.81.84Zm-8.44-2.84c-.31-.72-.64-1.42-1-2.14-.57.52-.18,1.75.92,2.92l.2,0A3.69,3.69,0,0,0,79.91,104.67Zm.31-74.57,1.24-.26,0,.11,2.12-1.45C82,28.25,81.29,29.56,80.22,30.1Zm8.84,82.27c-.33,0-.67.07-1,.1l-.07-.2,1.16-.43-.86-.51-1.46,1.33.05.19,3.23-.47,0-.2C89.74,112.25,89.41,112.32,89.07,112.37ZM95,100.43l-.31-.24-.18-.88c-1,1.14-1,1.21-.18,2.58Zm9.32-.7c1.31-.78,1.92-2.24,1.37-3.22ZM86.09,109.87c.93-.16,1.36-.83,1.88-1.66l-2.16.64Zm26-37.26.26.85,1.61.36.15-1Zm-2.39,18.61a4.13,4.13,0,0,0-.06-1.53h-.24l-.89,3,.13.06A7,7,0,0,0,109.69,91.22Zm-65.94-17a3.15,3.15,0,0,0,1.53,3c0-.44-.07-.81-.1-1.23C44.12,75.87,44.52,74.6,43.75,74.24Zm43.5,32.23-2,.64.43,1.45ZM41.12,55.09a11.18,11.18,0,0,1,.57,2.31.44.44,0,0,0,.24.31L41.27,53C41.12,53.68,40.73,54.3,41.12,55.09ZM112.61,85c0,1.11-.79,2.15-.33,3.31C112.47,87.19,113.5,86.18,112.61,85ZM86.72,30.61c1.28.21,2.14-.49,3.25-.92l-1.56-.42,0,.48Zm2.15,77.32c-.16.09-.09.58-.13.9,1.13,0,1.45-.75,1.78-1.52A10,10,0,0,0,88.86,107.93Zm15.39-2.27-.1-.18c-1.46,1.09-3.37,1.43-4.71,2.72l.11.2Zm-.84-7.15c-1.08.33-1.26,1-.54,2.21C103.09,99.94,103.79,99.37,103.42,98.51Zm6-17L110.6,84l.4-2ZM41.52,52l1,2.15-.29-3.69-.1-.05Zm38,59.12c.59.2,1-.19,1.41-.58.08-.08,0-.31,0-.55l-2,.42c0,.08,0,.15,0,.23Zm40.61-42.76c.23-1.23-.43-2.07-.83-3C118.71,66.6,119.63,67.37,120.17,68.38ZM63.34,35.9c1.49-.68,1.77-2,2.29-3.08l-.17-.12ZM49.92,43.71c-.48,1-1.37,1.85-1.32,3.09C49.2,45.83,50.09,45,49.92,43.71Zm-2.4-1.48c-1,.54-1.12,1-.89,2.1a4.61,4.61,0,0,1-.07,1.23l.1,0Zm69.38,13.35,1.82,4.16C118.9,58.71,118,56.65,116.89,55.57ZM99.52,99.83a1.84,1.84,0,0,0-.19-.22l-1.11.82.43,1c.7-.15.7-.83,1-1.27C99.62,100,99.57,99.93,99.52,99.83Zm-23.72-9.2-2.7-.54-.32-.93h-.14l-.32,1.2a9.47,9.47,0,0,1,3.38.68Zm16,18.92.34.87.87-.67-.27-.69.55.15.21-.65-.19-.16ZM42.84,70.86a3.28,3.28,0,0,0-1.08-3.16l-.18.06Zm57.27,29.39c1.28-.26,1.7-1.07,1.07-2.11Zm-5.4,2.49.45,1c.84-.41,1.11-1,.73-1.69ZM43.57,79.39a2.6,2.6,0,0,0,1.58,2.29A3.41,3.41,0,0,0,43.57,79.39Zm58.5,19.47a1.84,1.84,0,0,0,.67-1.93l-1.15.88Zm-23.94,3.36h.24c0-.21.18-.47.11-.63-.43-.85-.91-1.67-1.37-2.5l-.15.06Zm39-38.59-.11,0,.64,3.06.51-1.18Zm1.68,6.58-.47,4,.19,0A7.12,7.12,0,0,0,118.8,70.23Zm-4.63,12.42c0,.61.08,1.16.11,1.7l.2,0,1-1.56ZM40.95,79.27l-.15,0a9,9,0,0,0,.28,1.88c.13.36.6.59.92.88l.09-.12Zm2-6.07-1-1.29-.17.08.89,2.5.18,0ZM75,110a1.45,1.45,0,0,0-1.73.49c.85,0,1.59.53,2.3-.17Zm23.33-8.28-.55-1.18-1.15,2.06.24.16.51-.68Zm14.32-27.82,1,2.13.13,0V74.21ZM107.09,99l1.48-1.72-.71-.15-1.07,1.17Zm-34.55,7c.59.53.69,1.33,1.63,1.31l-1-2ZM82.72,109c.79-.49.86-.76.42-1.34H82ZM113,83.22a2.86,2.86,0,0,1-.11.61c-.23.5-.14.67.44.76.52-.69.29-1.36-.15-2.2C113.1,82.77,113,83,113,83.22Zm-29,29.4L83.3,112l-1.44,1.25.06.21ZM119.5,74.2c.63-.32.11-.89.36-1.37-.61.34-.86,1.54-.62,2.82C119.35,75.17,120,74.79,119.5,74.2ZM109.2,87l.08,0,.29-1.06.59-.29c-.49-.46.64-1.34-.46-1.6Zm-28.31,21.7.4.82.86-.16-.78-1.61Zm24-70.51a4.86,4.86,0,0,0,2.76,2.45ZM94.76,104.1l-.44-1.22-1.12,1.86.11.13.76-.52s0-.06,0-.09ZM43.56,76.67a2,2,0,0,0,.81,2.61Zm56.81,24.17.3,1.15,1.14-2.18-.15-.09ZM117.5,85.52l.58-1.9-.19-.1-1.23,1.94ZM77.35,112.1l-1.21.88h1.92l0-.24Zm-9-1,2.19-1.24-.06-.2a2.58,2.58,0,0,0-.67.15c-.65.35-1.29.73-2,1.13ZM91.11,30.6l.5-.3-1.29-.47.07.18-2,1c.23.3.54.26.91,0s1-.6,1.57-.94ZM105.5,91.34l.25.27.29-.15-.29,1.34.09.05.9-1.35-.45-1.11-.16.71L106,91ZM96.26,107l.1.08-1.26,1.61c1.19-.37,1.57-1.3,2-2.21Zm-18.18-.08-1.25-1.46c-.39.72.34,1.11.2,1.69ZM44,51.26c-.7.46-.58,1.13,0,2.27C44.46,52.74,44,52,44,51.26Zm60,51.64.12.13a6.69,6.69,0,0,0,2.43-2.15l-.11-.12ZM51.4,83l.16-.11a3,3,0,0,0-1.44-2.08l-.17.12Zm56.17,10.93-.34-1.09L106.32,95l.14.1Zm1.14-22.52c.67.65,1.57.39,2.37.57C110.44,71.16,109.51,71.5,108.7,71.39ZM80.12,108.64l.26-.2-.76-1.87-.47.66Zm38.35-31.2.34-2.52A2,2,0,0,0,118.47,77.44ZM37.24,75.8,36.45,73C36.25,74.46,36.56,75.54,37.24,75.8Zm8.39,5.14c-.08.95.62,1.89,1.29,1.59Zm29.61,27.72c-.08,0-.16.23-.13.28s.24.31.36.31c.44,0,.88-.08,1.42-.15A1.36,1.36,0,0,0,75.23,108.67ZM114.6,84.92l.22.15c.7-.18.65-1,1.19-1.38l-.22-.65Zm-14.19,20.35a4.05,4.05,0,0,0-.69-.19.51.51,0,0,0-.39.14c-.31.4-.6.83-.89,1.24l.1.13ZM88,107.54l-.34-1-1.14,1.49.09.11Zm-2.65,1-.46-1.31L84,108.9Zm21.25-9.82-.21-.15-1.19,1.71.17.13C105.79,99.85,106.84,99.75,106.59,98.71ZM90.85,111.43,91,111l.71-.07-.07-.79-2.08,1.69,0,.06Zm19.52-69.49-.14.12c.3,1,1.21,1.55,1.89,2.25l.15-.13ZM101,103l-.14.54-.09-.1-.85.6a3,3,0,0,0,2.21-1.9Zm-18.24,6.71.35,1,1.15-.5-.28-.79-.73.14.42.58-.12.16Zm-5.05,2,.81.9,1.08-.9Zm20.72-9.52c-.76.32-.92,1-1.19,1.78A2,2,0,0,0,98.42,102.16ZM47.28,84,47,83.27H45.21C45.76,84,46.53,83.76,47.28,84Zm62.32,16.62-.16-.18-2.28,1.91.25.24ZM38.95,61.2h.22V58.65l-.22,0ZM87.06,29.08l-1.48,1.37.09.14,2.26-1.39ZM38.95,78.14a2.17,2.17,0,0,0,1.22,2.39Zm9.66,1-.29.17,1,1.8.35-.21Zm64.14,2.64c0-.88-.69-.72-1.23-.87C111.54,81.68,111.75,81.82,112.74,81.79Zm5.67-15.1a1.34,1.34,0,0,0,.17,1.95l.18,0Zm-27.07,41c.68,0,1.06-.28,1.5-1.26C91.93,106.49,91.83,107.29,91.35,107.73Zm10.74-7.7-.87,1.69.07.08,1.2-.87ZM114.7,85.47c-.88,0-1.22.71-.83,1.55ZM94,109.44l1.52-1.94C94.95,107.63,93.93,108.85,94,109.44ZM38.31,71.33l-.77-3.61C37.46,69.22,37.83,71,38.31,71.33ZM95.44,104.6l.1.14.67-.18c.53-1,.53-1,.07-1.19Zm-28.05,5.17-1.38.36,1.22.77Zm43.11-44.34,1,1.73v-1.4ZM42.91,52.73l.3,2.15A1.6,1.6,0,0,0,42.91,52.73ZM40.56,75.64l.2,0c-.31-1-.1-2.07-.77-3Zm63.63,25.13-.09-.08-.8,1.07a2,2,0,0,0,1.45-1.63l-.16-.1ZM45.8,50.48H46c-.05-.8-.1-1.61-.16-2.6C45.15,48.89,45.72,49.67,45.8,50.48Zm56.48,55.32.11.2,2.54-1.46-.11-.19Zm17.26-42.18c-.46.9.1,1.59.51,2.3Zm-4.23,18-.74-.12-.15.69,1.12.16ZM75,107.13l-1.38-2.07C74.6,107.21,74.6,107.21,75,107.13ZM117.82,77l-.38,2C117.84,78.45,118.49,77.92,117.82,77Zm-2.69-2.91.22-.06.08-1.11h-.92Zm-2.62,14.58c.54-.07,1-1.19.73-2.07ZM89,109.72a2,2,0,0,0-2.22.85Zm16.12-12.61c-1.1.33-.62,1.29-.94,1.9l.14.07ZM82.64,106.4l-.78.88.05.15,1.12-.15ZM93,45.07l.17-.09-1-1.78C91.83,44.23,92.67,44.5,93,45.07Zm-.38,59.86.76-1.29-.08-.1-1.05.62Zm3-3.27-.37-.82-.66,1.36.14.05ZM113,45.37l-.17.14,1.8,2.16.16-.13Zm3.62,37.86c0,.42-.06.81-.09,1.2l.19.06.66-1.08Zm4.72-12.11V69.07A1.65,1.65,0,0,0,121.38,71.13Zm-52,35.22.08.09,1.12-.77-.34-.69Zm.84-75.11-.16-.17-1.9,1.84.12.12Zm20.39,78.54c-1,.12-1.32.4-1,1.06Zm22.72-28.55V82l.72.12.1-.68ZM41.83,77.94,43,79.89A2,2,0,0,0,41.83,77.94Zm-1.68-1.75-.2.05.59,2.35.23-.06Zm67.49,24,.22.21L109,99.27l-.26-.25Zm4.56-10.49-.68,1.66.2.08C111.75,90.84,112.73,90.6,112.2,89.74ZM86.92,41.91l.78-.87-1.8.68Zm-47,21.52.27-.06-.48-1.94-.24.06Zm33.3,48.08a1.49,1.49,0,0,0-2,.12ZM110.59,98a1.47,1.47,0,0,0-1.42,1.25Zm-22.08,7.3.06.09,1-.5-.29-.74ZM42.3,56.84A2.32,2.32,0,0,0,42,54.59C42.09,55.28,42.18,56,42.3,56.84Zm-3.62,17,.24-.1-.87-1.91-.19.09Zm56.7,31.66-.18-.17-.95,1,.15.13C94.74,106.15,95.49,106.23,95.39,105.49Zm7.21-.86c-.75-.05-.83,0-1.16,1l.13.12Zm-25.94,2.62-.33-1-.69.72,0,.19Zm35.91-18.14.26,1,.78-1.28Zm-69.2-6.37-.1.23,1.48.67.14-.31Zm73.33,4.09-.06-.78-.55-.08-.17.8ZM93.57,107.6c.54-.07,1-.2,1.24-.76A1.91,1.91,0,0,0,93.57,107.6ZM88.43,41.51l.27-.84-.19-.07L88,41.74l.78,0Zm-7.12,70.91.24-.57c-.47-.19-.78-.18-1,.31ZM85.77,110l-.23-1-.7,1.21ZM71,29.75l.95-.59,0-.12-1.43.18ZM111.3,78.62h-.15c0,.52-.38,1,.15,1.69Zm-7.32,25,0,.53,1.39-1.2-.09-.1Zm-23,3.89-.89-1.12C80.2,107.41,80.45,107.7,81,107.47Zm31.82-25.09-.81-.21.4,1.09.13,0ZM77.27,110.93c.09,0,.25-.26.45-.49l-1.1-.1-.11.2A3.39,3.39,0,0,0,77.27,110.93Zm12-3.77.65-.17-.12-.13.48-.42-.25-.52ZM41.36,71.8l.18-.1-1.06-1.78-.13.07ZM113.5,94l-.18-.11-1.1,1.77.16.1Zm4.71-14.07c-.69,0-.9.32-.64,1.05Zm-73.78-26a1.36,1.36,0,0,0,.38,1.7Zm39.07,57.83.63.58.64-.51-.05-.15Zm-5.06-4.4-1.09.18.22.78Zm15.07-62c-.12.28-.12.28.92,1.5l.16-.1Zm-4-5.74-.37,1.1C89.86,40.61,89.85,40.26,89.48,39.64ZM99,98.43l-.77,1.41C98.64,99.55,99.19,99.29,99,98.43ZM77.71,110l-.47-.56-.72.55.14.15ZM77,108.65l.14-.07-.31-.94h-.65ZM102.6,96.39l-.27-.57L101.76,97l.1.11Zm11.84-9.29c-.83.27-.55.86-.51,1.32ZM99.71,102.62l.1.1.62-.44-.27-.75Zm3-58.75.22-.08-.61-1.55-.14,0Zm-18-2.68H83.57l0,.12,1.19.31ZM44.54,81.86l-.09.05.39.82h.74Zm71.55-2.41h.67l-.24-.82h-.18Zm-75.54.92.15-.06-.61-1.71-.22.09Zm34.57,27.86.72-.12,0-.18-.83-.25-.1.17Zm-32.78-33,.39,1.54C42.72,76.29,43.12,75.67,42.35,75.23ZM111.27,44.9l-.18.12.94,1.37.14-.1Zm-1.9,51.55.14.12,1.1-1.2-.15-.14ZM118,73.73h-.22v1.43h.12ZM95,104.5c-.82-.1-.71.44-.82.79l.18.1Zm23.75-26,.17,0,.42-1.63-.21,0ZM85.66,35.65c-.13-.24-.82,0-1.45.56ZM105.6,92.19l-.18-.05L105,93.53l.26.07ZM96.8,108.44l.09.18,1.24-.62-.09-.23ZM119,82l-.23-.06-.34,1.3.21.06Zm-3.75,4.63.51-.78L115,85.6Zm5.21-9.78-.12,0-.58,1.42.2.06ZM71.95,110.1l-.09-.25-.92.34.11.31Zm13,.6.06.24,1-.25-.09-.29ZM96.53,98.14,96,99.36C96.58,99,96.75,98.63,96.53,98.14ZM73.35,108.8l-.12-.16-.9.66.15.21ZM66.84,32.49l-.13-.07L66,33.56l.21.13ZM40.2,81.28l-.91-.76C39.22,81.29,39.83,81.14,40.2,81.28ZM116,91.45l.2.12.61-1-.19-.12Zm.67-13.28.14.61H117l.14-1.14ZM40,70.87l-.19,0,.3,1.14.23-.08ZM115.88,87.2l-.13,0v1l.44-.57ZM85.38,30.11l-.1-.17-1,.59.11.19Zm21.27,65.5-.2-.07-.39.88.27.08Zm5.27-7.16-.23,0,.06.91.29,0ZM1.63,89.52l.06.61.84-.44ZM119.5,77.09l.19,0,.22-1.28-.19,0Zm-7.59,2.69-.25.74.62.19Zm7.14.16.19,0,.24-1.16-.19,0ZM74.31,109l-.1-.23-.74.33.1.26Zm17-.25-.14-.23-.78.46.15.22Zm24.19-23.56.33.09.24-1-.12,0Zm-.64-5.09c-.22.72-.19.82.3.93ZM97.22,104.74l-.18-.2-.62.57.16.19ZM110,94.93l.13.08.68-1-.19-.1ZM94.09,106l-.18-.12-.56.89.14.1Zm-.49-.71-.16-.17-.53.46.21.21Zm-5.92,4,.91-.35-.18-.46Zm28.44-16.59-.19-.09-.36.91.16.07Zm-1.89-42.6-.23.07.35,1,.17,0ZM75.88,89.7l-.21.06.14.61.27-.05Zm32-18.57-.12.18.48.39.19-.26ZM40.39,56l.43.07-.09-.77h-.12Zm59.74,48.71.08.19.78-.32-.12-.23Zm-.24-5,.36-.62C99.62,99.2,99.62,99.2,99.89,99.68Zm-19.25,6.84.15-.07-.33-.77-.25.12Zm20.42-1-.14-.11-.57.79.12.1Zm-26.47,6.28V112l1.06.09,0-.17Zm23-12.6.2.48.47-.85Zm17.59-6.53.11.08.61-.8-.16-.1ZM80.69,109.63c-.34-.52-.5-.2-.64.17Zm18.47-4.89-.12-.19-.58.34.12.2Zm-1.58.71-.21-.13-.32.49.17.13Zm21.75-23.71.2.57.31-.62-.11-.1Zm-1.57.19c0,.12.1.24.31.34l.13-.58C117.94,81.82,117.75,81.87,117.75,81.93ZM37.93,66.25h.16l0-.79h-.21Zm76.28,18.58-.24-.61h-.16c0,.18,0,.36-.05.57ZM42.8,52.36l.21,0-.13-.61-.13,0C42.77,51.94,42.79,52.15,42.8,52.36Zm46.33,58.29h-.18v.49l.23,0Zm-32.78,3.58-.09.09.41.44.16-.18Zm41.46-9.9.1.14.55-.37-.15-.18Zm-1.83,2,.18.12.34-.46-.21-.14Zm.22-4.39.18.14.37-.45-.19-.14ZM39.13,71.34l-.19,0,.11.65.17,0Zm23.11,40.4.1-.17-.46-.29-.13.18Zm.51-.89-.07.14.49.27.07-.23ZM60.29,33.71l.18.18.48-.55-.16-.16Zm-19,39.1-.14.07.36.74.15-.1ZM97,107.46l.07.07.62-.56-.12-.12Zm18.81-25.36H116V81.6l-.22,0Zm-6.2,5.41-.1,0-.29.77.2,0ZM87.23,35.27c-.11,0-.21-.12-.38-.06l.65.31,0-.24A1.11,1.11,0,0,1,87.23,35.27Zm-3.68,72.25,0,.2.48-.09,0-.2Zm-37.05-59h-.15l0,.62.16,0ZM103.68,104l-.18-.1-.3.6.15.09Zm4.43-31.42-.15.06.29.73.17-.07ZM99.36,102l-.16-.06-.21.51.23.07Zm-27.9,5.59c-.13.06-.27.11-.26.14a2.12,2.12,0,0,0,.12.39l.15,0ZM90.24,31.24l-.1-.14-.55.41.09.1ZM41.93,79l-.11.06.28.59.17-.11Zm40.51,31.23-.21.07.13.42.23-.09ZM36.63,80.35h.13v-.6h-.13Zm47.69,29.13.15.16.31-.32-.13-.16Zm24-29.1-.16.07.19.49.21-.11ZM92,111.62l0-.1-.67.25.08.14Zm-10.19.22.05.2.39-.12,0-.17Zm17.12-5,.08.1.49-.33-.11-.13Zm-22.72-2.2-.13.07.22.5.17-.09Zm25.78-.92-.12-.07-.31.47.17.11Zm1.58-60.42-.13.05.2.57.19-.07ZM11.49,108.51l-.07-.13-.46.19.09.18Zm83.49,1-.08-.14-.54.34.07.12ZM115.46,94l-.08-.08-.41.38.14.13ZM2.29,90.52l0-.11-.45.15.08.2ZM37.7,62.11h-.12v.42h.15ZM114.18,52l.1-.07-.25-.36-.11.08ZM103.44,96.23l-.15-.09-.24.38.17.1ZM114.4,74l.16-.06-.16-.39-.17.07ZM94.33,98.31h.16c0-.13,0-.27,0-.4h-.23ZM40.39,61.57l-.09,0,.06.49.17,0ZM84.15,111l.06.16.39-.15-.09-.2Zm-27-75.82.14.14.32-.37-.13-.12ZM3.67,76.74l0-.12L3.2,76.5l0,.16Zm97,30,.09.13.42-.3-.11-.12Z"/><path class="cls-1" d="M74.17,31.67v.77l-1.6,2,.21.22a19,19,0,0,1,6.37-4.93l0-.45.13.07.37-.59-.21-.19a18.1,18.1,0,0,0-4.54,3.3l-.72-.13Z"/><path class="cls-1" d="M73.66,45.16c.56,1.36,9.8,6.21,11.94,6.16-2.17-1-4.24-1.79-6.22-2.81S75.57,46.29,73.66,45.16Z"/><path class="cls-1" d="M72.4,43.06c3.16,3.77,7.59,5.28,12,6.82C80.12,48.12,75.76,46.46,72.4,43.06Z"/><path class="cls-1" d="M69.55,77.78c.78.9,8.59,4.2,9.81,4.2l-.78-.35c-1.7-.71-3.42-1.38-5.1-2.12-1.12-.49-2.2-1.09-3.31-1.62A2.31,2.31,0,0,0,69.55,77.78Z"/><path class="cls-1" d="M78.35,49.37a2.42,2.42,0,0,0,.54.47c1.59.7,3.18,1.38,4.78,2.06.31.13.62.24,1,.37.14-.54-.28-.51-.51-.6-1.27-.51-2.56-1-3.82-1.5-.62-.26-1.2-.62-1.8-.93Z"/><path class="cls-1" d="M60,63.79c.08.16.11.38.24.47q2.1,1.48,4.23,2.92a1.54,1.54,0,0,0,.72.2l-5.08-3.66Z"/><path class="cls-1" d="M109.7,58.19a1.66,1.66,0,0,0-.39-1.24,15,15,0,0,1-.86-1.53,13.38,13.38,0,0,0-1.14-1.5c-.2-.23-.49-.43-.71-.2l3.1,4.45Z"/><path class="cls-1" d="M84,33.16c-.92.15-2.87,1.74-3,2.49a1.78,1.78,0,0,0,.41-.14c.79-.54,1.57-1.1,2.38-1.63C84.11,33.68,84.24,33.5,84,33.16Z"/><path class="cls-1" d="M100.87,53.4l-.8.07c-.07-1-.65-.57-1.17-.36l-.18,1,1.9.2Z"/><path class="cls-1" d="M95.65,66.76a21,21,0,0,0,5.64,1.11l0-.23-5.65-1.08Z"/><path class="cls-1" d="M58.71,65c1.43,1.46,3.3,2.1,5.08,2.93l.11-.21Z"/><path class="cls-1" d="M75.61,40.08c-.37-.37-.69-.69-1-1a1,1,0,0,1-.13-.28c-.14-.33-.33-.58-.76-.45C73.88,39.55,74.64,40.45,75.61,40.08Z"/><path class="cls-1" d="M58.82,66.45c0,.69,2.1,2.1,3.73,2.53Z"/><path class="cls-1" d="M59.12,83.55c.17,1.32,1.76,3.08,2.3,2.74Z"/><path class="cls-1" d="M58.82,81.47l-3.9-2.77C55,79.33,57.21,80.94,58.82,81.47Z"/><path class="cls-1" d="M55.56,78.9a11.4,11.4,0,0,0,4.07,2.2l-4-2.35Z"/><path class="cls-1" d="M72.9,65.27c-.59.46,0,.71.15.9.32.46.82.54,1.5.12Z"/><path class="cls-1" d="M63.24,86.53l-.49-.36.13-.09-.63-.92-.81-.08C61.74,86,62.43,86.65,63.24,86.53Z"/><path class="cls-1" d="M62.17,49.34l-2.69-2.41C59.39,47.46,60.28,48.31,62.17,49.34Z"/><path class="cls-1" d="M52.26,65.16c-.06.37-.18.64-.1.75.32.43.48,1.09,1.28,1C53.39,66.17,52.86,65.78,52.26,65.16Z"/><path class="cls-1" d="M83,46.21,81.6,45.14l-.27.61C82,46.45,82.51,46.66,83,46.21Z"/><path class="cls-1" d="M93,90.38l1.26-.3a1.33,1.33,0,0,0-1.79-.35Z"/><path class="cls-1" d="M81.75,52.17l3.07,1.14.1-.27-3.05-1.19Z"/><path class="cls-1" d="M64.51,81.15l-.19.77a6.45,6.45,0,0,0,.67.55c.09.05.33,0,.36,0s.16-.41.09-.52a6.86,6.86,0,0,0-.72-.83Z"/><path class="cls-1" d="M71.69,53.68l-.46.44c.21.72.92.41,1.32.71C72.7,54.08,72.24,53.86,71.69,53.68Z"/><path class="cls-1" d="M83.54,58.88l-.47.24c0,.89.32,1,1.64.62l-.77-.42,0,.07Z"/><path class="cls-1" d="M91.94,83.82l.38.62c.45.09,1,.5,1.35-.19l-.17-.35Z"/><path class="cls-1" d="M73.16,73.39l-1.6-.19a1.09,1.09,0,0,0,1.25.81C73.13,73.91,73.34,73.72,73.16,73.39Z"/><path class="cls-1" d="M54.29,60.74v-.49l-.88-1-.25.14c.1.32.11.75.33.94S53.71,61.14,54.29,60.74Z"/><path class="cls-1" d="M52.15,49.95c-.65.16-.71.57-.22,1.48C52.52,51.27,52.6,50.79,52.15,49.95Z"/><path class="cls-1" d="M64.17,61.41l-1.54.07c.37.59.78.82,1.28.66C64.05,62.1,64.08,61.7,64.17,61.41Z"/><path class="cls-1" d="M104.09,63.54c.75.4,1.08.28,1.44-.46C105.17,62.67,104.83,62.77,104.09,63.54Z"/><path class="cls-1" d="M99.87,61.16l.93,1.13.25-.06c0-.22.12-.56,0-.65A6.45,6.45,0,0,0,100,61Z"/><path class="cls-1" d="M90.34,67.48c.08-.34-.54-.89-1.21-1.12C89,66.95,89.38,67.3,90.34,67.48Z"/><path class="cls-1" d="M74.73,87.8c.4.81.68,1,1.15.64C75.68,87.68,75.3,87.46,74.73,87.8Z"/><path class="cls-1" d="M88.17,76.84c1,0,1.37-.28,1.24-1C89.13,76.35,88.22,75.94,88.17,76.84Z"/><path class="cls-1" d="M82.59,73l.91,0,.28-.61c-.26-.11-.58-.36-.73-.28S82.79,72.62,82.59,73Z"/><path class="cls-1" d="M61.88,76.13l1.12.12c0-.2,0-.49-.08-.57a1.15,1.15,0,0,0-.72-.2C62.1,75.49,62,75.82,61.88,76.13Z"/><path class="cls-1" d="M62.56,84.88l1.81,1.56.17-.2-1.81-1.57Z"/><path class="cls-1" d="M74.61,83.33,71.76,82.1l-.07.15,2.83,1.26Z"/><path class="cls-1" d="M66.9,45c0,.32,0,.65.05,1l.83-.11-.61-1Z"/><path class="cls-1" d="M101.35,69.07,99.27,67.9A2.55,2.55,0,0,0,101.35,69.07Z"/><path class="cls-1" d="M83.45,89.68c-.38-.33-.67-.69-1.22-.26l.75.69Z"/><path class="cls-1" d="M58.57,55c0,.73.3.91.9.63C59.47,55.08,59.12,55,58.57,55Z"/><path class="cls-1" d="M106.78,52.31c.51.59.77.62,1.25.16A1,1,0,0,0,106.78,52.31Z"/><path class="cls-1" d="M96.46,77.68h1.17L97,77.07l-.59.37Z"/><path class="cls-1" d="M85.68,83.29l-.25.79.83.2-.34-1Z"/><path class="cls-1" d="M88.9,50.24c.22.65.57.69,1.21.07Z"/><path class="cls-1" d="M55.6,77.31,54.68,76l-.16.11.93,1.32Z"/><path class="cls-1" d="M52.06,74.69l1,1.28.18-.15-1.16-1.18Z"/><path class="cls-1" d="M47.95,64.77l-.6-1.15-.13.07.61,1.14Z"/><path class="cls-1" d="M52.11,74.64l-.41-.7-.17.12.53.63Z"/><path class="cls-1" d="M50.1,54.58l.2.7.19-.08-.41-.6Z"/><path class="cls-1" d="M104.14,48.94l.08.69.21-.05-.31-.63Z"/><path class="cls-1" d="M83.18,103.32l-.58.35.13.15.44-.52Z"/><path class="cls-1" d="M21.91,93.46a17.41,17.41,0,0,1,6.26-5.05c.49-.26,1-.55,1.43-.83l1.48-.86c-.8,1.42-1.89,2.64-2.12,4.28l.18.12,5.63-6.35-.1-.27-1-.22-.08.61a9.36,9.36,0,0,0-1.52.54c-1,.56-2,1.2-3,1.8s-1.83,1.17-2.8,1.65c-1.92,1-3.88,1.83-5.82,2.75-1.44.68-2.87,1.4-4.32,2.05a27.79,27.79,0,0,0-5.69,2.91c-.31.24-.74.77-.66,1,.32.73.1,1.83,1.23,2.1.15,0,.27.26.38.42s.35.58.54.87c.34.5.69,1,1,1.49a13.4,13.4,0,0,0,1.31,1.84c1,1,2.17,2,3.26,3a1.84,1.84,0,0,1,.26.44l-.16.1a1.56,1.56,0,0,1-.3-.15c-.76-.63-1.47-1.32-2.26-1.9A18,18,0,0,1,12,102.4c-.78-.94-1.46-2-2.21-2.91A2.43,2.43,0,0,1,10,96a7.61,7.61,0,0,1,1.62-.89c.93-.43,1.9-.78,2.82-1.21,1.15-.54,2.28-1.13,3.43-1.7,1.36-.67,2.7-1.4,4.09-2a46,46,0,0,0,7-3.6c1.06-.7,2.06-1.49,3.09-2.23a2.62,2.62,0,0,0,1.37-.41c.94-.7,1.23-.72,1.76.29a1.76,1.76,0,0,1,.07,2,26.13,26.13,0,0,0-1.56,2.94c-.39.78-.7,1.6-1.09,2.38q-1.05,2.07-2.17,4.1c-.58,1-1.18,2.08-1.8,3.1-.52.85-1.09,1.68-1.6,2.53-.66,1.08-1.28,2.17-1.93,3.25-.42.71-.88,1.4-1.28,2.12s-.75,1.52-1.18,2.26a1.76,1.76,0,0,1-2.47.7,4.5,4.5,0,0,1-.84-.48,2.85,2.85,0,0,1-.44-.63l.56-.26c1.27.89,1.84,1.05,2.37.69a1.64,1.64,0,0,0,.67-1.6,1.75,1.75,0,0,1-.26.39c-.36.28-.73.68-1.22.38s-.3-.81-.13-1.19a26,26,0,0,1,1.38-2.76,14.89,14.89,0,0,1,3.46-4.2c.13-.11.37-.08.71-.15-2.38,2.44-4.48,4.78-5.27,8,2.84-1.94,4-5,5.56-8l.23.32a62.63,62.63,0,0,0,5.84-10.57l-.16-.09-3.06,5.65-.34-.28,2.24-4-.18-.11-1.41,2.35L29.74,93a1.47,1.47,0,0,1,0-.21,2.52,2.52,0,0,1,.12-.38,14.19,14.19,0,0,1,2.85-4.16A20.39,20.39,0,0,0,34.1,86.5c-.27,0-.34,0-.37.06-.72.83-1.43,1.69-2.16,2.51s-1.37,1.5-2.09,2.22a.87.87,0,0,1-.66.19c-.09,0-.21-.38-.18-.57a8.82,8.82,0,0,1,.29-1.13l-6,4.68c.09.5-.48.64-.87.92-1.24.92-2.51,1.8-3.73,2.75-.56.44-1.25.81-1.48,1.7a3.41,3.41,0,0,0,.8-.29c1-.75,2.07-1.5,3-2.32s2-1.87,3-2.8c.26-.23.53-.34.65.08-.86.8-1.66,1.59-2.51,2.33s-2,1.73-3,2.53a6.16,6.16,0,0,1-1.58.8.77.77,0,0,1-.7-.16.85.85,0,0,1,0-.72,4.88,4.88,0,0,1,.62-.81l-.55.09-.05-.11,2.08-1.55c1.66-.63,2.55-1.67,3.66-2.36l-.53.13C21.37,94.19,21.66,93.81,21.91,93.46Zm.22.73a42,42,0,0,0,7.61-6C27.21,89.12,22.4,92.88,22.13,94.19Z"/><path class="cls-1" d="M24.65,109.48a8.16,8.16,0,0,0,1-1.73,26.85,26.85,0,0,1,2.52-5.53c.61-1.17,1.33-2.28,2-3.44.81-1.5,1.52-3.06,2.37-4.55a40,40,0,0,0,2.57-6.15,3.56,3.56,0,0,1,.41-.65l.15.07c.08-.48.15-1,.24-1.45.14-.73.86-.93,2-.5.19.68.45,1.43.61,2.19.29,1.37.52,2.74.77,4.11.19,1.07.35,2.14.58,3.21.14.67.39,1.32.58,2,.17.51.3,1,.44,1.55.05.2.11.41.15.61.18,1,.32,2.06.55,3.08.18.81.5,1.59.7,2.4.26,1.07.48,2.16.69,3.24s.42,2.09.56,3.14a2,2,0,0,1-1.39,2c-1.19.22-2.39.37-3.6.5a3.54,3.54,0,0,1-1-.2,24.15,24.15,0,0,1-12.24-1.9c-.12-.41-.17-.81.33-.8a2.71,2.71,0,0,1,1.08.38c.51.26,1,.61,1.5.83s1.24.32,1.84.56a10,10,0,0,0,3.63.6l-.13-.34a1.68,1.68,0,0,1,.47-.12c1,0,1.92.18,2.87.16,1.5,0,3-.19,4.5-.29.95-.06,1.41-.46,1.35-1.42s-.31-1.83-.41-2.76a56.49,56.49,0,0,0-1.73-7.15l-1.06-4.4-.34-1.38c-.12.18-.07.35-.13.48a7.45,7.45,0,0,1-.44.75,2.94,2.94,0,0,1-.62-.39,2.19,2.19,0,0,1-.38-.64c-.26-.6-.5-1.2-.75-1.8-.15.85-.17,1.69-.25,2.52s-.18,1.87-.35,2.79c0,.23-.37.42-.56.62-.17-.2-.46-.39-.49-.61a12.76,12.76,0,0,1-.21-2.67,25.1,25.1,0,0,1,.56-2.91c.09-.47.15-.94.23-1.41l.2,0a16.18,16.18,0,0,1-.52,3.54,6.21,6.21,0,0,0,.27,3.61A11.25,11.25,0,0,0,36.24,97c.08-1,.07-1.94.14-2.91a6.42,6.42,0,0,1,.23-1V86.61h-.22c-.11.95-.21,1.89-.33,2.84s-.21,2-.41,3-.49,1.82-.74,2.72l-.27-.06a31.35,31.35,0,0,0,1-6.08l-.17,0L34,93.58l-.39-.26-.2.47c-.8,1.78-2,3.36-2.4,5.33-.2,1-.47,2.09-.7,3.13-.08.37-.16.75-.24,1.13l-.3-.06.56-3.29a5.27,5.27,0,0,0-.57.87c-.73,1.29-1.51,2.56-2.18,3.88s-1.19,2.6-1.76,3.91a14.39,14.39,0,0,0-.49,1.43c-.13.42-.53.6-1.13.36A7.78,7.78,0,0,1,24.65,109.48ZM37.23,86.25c-1,2.57-.1,8.56,1.54,9.91A39.46,39.46,0,0,0,37.23,86.25Z"/><path class="cls-1" d="M41.65,88.64c1.16,1.4,2.42,2.72,3.58,4.12a10.19,10.19,0,0,1,1.09,1.81,2.71,2.71,0,0,1,.09.85l-.77-.29.47-.3a23.31,23.31,0,0,0-5.44-6.09c.1.43.31.81.42,1.22.58,2,1.15,4.1,1.69,6.16.36,1.35.65,2.71,1,4.06s.59,2.42,1,3.61.87,2.46,1.33,3.68a19.81,19.81,0,0,0,.87,2.17,7,7,0,0,0,1,1.17l-.57.43c-.29-.24-.67-.42-.81-.71-.61-1.35-1.21-2.7-1.7-4.09s-.82-2.78-1.22-4.16a31.2,31.2,0,0,1-1-3.36c-.32-1.86-.66-3.72-1.15-5.54-.28-1-.65-2-1-3a3.71,3.71,0,0,0-.5-.74l-.22.09-.34-2.82.2-.44-.54-.08c-.09-.68.35-1.13,1-.91a10.44,10.44,0,0,1,1.88,1c.31.2.49.59.79.83C43.81,88.19,45,89,46.1,90c.8.65,1.56,1.36,2.34,2,.43.37.85.76,1.29,1.12,1,.77,2,1.51,2.93,2.3.58.48,1.08,1.06,1.67,1.53,1.11.89,2.27,1.71,3.38,2.59.7.55,1.37,1.15,2,1.74a13.43,13.43,0,0,1,1.38,1.35c.12.14,0,.5,0,.76-.2-.07-.45-.09-.59-.23-.32-.32-.53-.75-.87-1-1.16-1-2.36-1.92-3.52-2.9s-2.1-1.84-3.18-2.72-2-1.41-2.9-2.18c-1.36-1.13-2.67-2.33-4-3.5a4.37,4.37,0,0,0-.49-.29c.63.88,1.49,1.37,1.64,2.44l-.47.06a2.87,2.87,0,0,0-.35-.87c-1-1-2.07-2-3.07-3s-2.45-1.6-2.84-3.14h-.7C40.41,86.93,41,87.83,41.65,88.64Zm-1.36-1.37c0,.89.16,1.15.73,1.08Z"/><path class="cls-1" d="M61.89,103.68l-.74-.17L59.24,106l.12.13,1.28-1.16.07.06a2.34,2.34,0,0,1-.33.49,34.94,34.94,0,0,1-3.62,3.14,31,31,0,0,1-4.4,2.26,9.47,9.47,0,0,1-2.54.81,4.12,4.12,0,0,1-1.79-.36c-.45-.15-.58-.16-.83.33a.92.92,0,0,0,1.13.59c.71-.11,1.45-.06,2.16-.15a5.43,5.43,0,0,0,1.18-.38,19.38,19.38,0,0,0,3.47-1.39c1.24-.78,2.72-1.23,3.69-2.46.46-.58,1.14-1,1.61-1.55a20.44,20.44,0,0,0,1.44-2.14C62,104.07,61.89,103.88,61.89,103.68Z"/><path class="cls-1" d="M48.59,102a26.75,26.75,0,0,1,3.67,6.64,11.58,11.58,0,0,1-3.18-2.76c-.95-1-1.22-2.45-2.05-3.54l-.2,0a3,3,0,0,0,.08.58c.36,1.06.74,2.12,1.11,3.18a1.43,1.43,0,0,1,0,.37,11.85,11.85,0,0,1-1.93-3.11,5.07,5.07,0,0,0,.9,2.48,3.8,3.8,0,0,0,.62.89,2.16,2.16,0,0,0,.68.31,2.54,2.54,0,0,0,.26-.77,8.89,8.89,0,0,0-.17-.93,11.08,11.08,0,0,0,2.71,3.15,3.24,3.24,0,0,0,.88.54c.57.24,1-.08.84-.69a4.36,4.36,0,0,0-.4-1.12c-.56-1.08-1.13-2.16-1.76-3.2A23,23,0,0,0,49.13,102c-.08-.11-.29-.12-.44-.18Z"/><path class="cls-1" d="M49.24,94.43c.18,0,.4,0,.53.08a15,15,0,0,1,1.22,1c.88.8,1.74,1.61,2.61,2.42s1.59,1.43,2.32,2.2c.2.21.14.66.2,1-.31,0-.67.18-.94.09a9.33,9.33,0,0,1-4.78-3.81,8.64,8.64,0,0,1-.68-2l.17-.05-.73-.69Zm.93,1.1c.15,2.1,3.42,5,5.64,5.34C54.22,98.65,51.92,97.43,50.16,95.53Z"/><path class="cls-1" d="M19.54,93.62c-.14,0-.31-.1-.42-.05a29,29,0,0,0-6.66,3.77,2,2,0,0,0-.44.45c-.15.26-.41.63-.32.83a1,1,0,0,0,.8.39A3.67,3.67,0,0,0,14,98.67c1.56-.81,3.09-1.69,4.63-2.55A2.31,2.31,0,0,0,19,95.8l-.11-.18-1.37.68c-1.32.68-2.63,1.39-4,2a1.73,1.73,0,0,1-1.63.15c2.16-2.3,5-3.33,7.66-4.7Z"/><path class="cls-1" d="M27.85,94.51l-.39-.42-4.34,4.8-.18-.15c.58-.84,1.18-1.66,1.72-2.53s1.36-1.47,1.82-2.35l-.18-.15a1.44,1.44,0,0,0-.31.2,23,23,0,0,0-3.36,4.57c-.22.4-.47.84.33,1.23Z"/><path class="cls-1" d="M14.06,82.62a15,15,0,0,1-5.33-.94,8.06,8.06,0,0,0,6,1.05c.2-.15.39-.41.61-.43a38.84,38.84,0,0,1,4.34-.23,33.07,33.07,0,0,1,3.61.52c.35.05.7.05,1.12.08-.34-.48-2.52-1-5.13-1.12A7.89,7.89,0,0,0,14.06,82.62Z"/><path class="cls-1" d="M17.87,84.77c-2.65.14-5.14,1.26-7.8,1.38a7.71,7.71,0,0,1,4.81-1.8c-.12-.15-.17-.28-.23-.28a7.56,7.56,0,0,0-4.43,1.36c-.24.18-.33.55-.49.83.32.1.66.34,1,.29,1.24-.19,2.47-.45,3.7-.7,1.06-.22,2.12-.45,3.18-.69a1.53,1.53,0,0,0,.33-.16Z"/><path class="cls-1" d="M33.25,105.41a4.48,4.48,0,0,0-.11.47c-.16,1.21-.28,2.42-.49,3.62a13.6,13.6,0,0,1-.7,2.45c-.87-1.54-.21-3.06.09-4.57l-.23-.05c-.12.28-.26.55-.36.83a5.29,5.29,0,0,0-.15,3.59,1.07,1.07,0,0,0,.58.65c.17,0,.54-.28.64-.52a9.08,9.08,0,0,0,.52-1.82c.21-1.21.36-2.42.52-3.64a5.45,5.45,0,0,0,0-.73Z"/><path class="cls-1" d="M21.16,100.33c-.18.07-.43.08-.53.21-.6.72-1.14,1.49-1.74,2.21s-1.24,1.4-1.87,2.08a1.12,1.12,0,0,1-.57.28,10,10,0,0,1,3-4.64l-.2-.17a6,6,0,0,0-1,.87,10.6,10.6,0,0,0-2.08,3.46,2.68,2.68,0,0,0,.08.9c.29-.05.68,0,.86-.17A21.57,21.57,0,0,0,19,103.43c.8-.95,1.54-1.94,2.31-2.91Z"/><path class="cls-1" d="M52.45,100.81a35.09,35.09,0,0,1,4.88,5.95,10.1,10.1,0,0,1-3.12-2.14c-.11.89,2.44,2.69,3.6,2.6.29-.64-.21-1.09-.52-1.46-1.37-1.67-2.82-3.28-4.24-4.91a1.6,1.6,0,0,0-.4-.25Z"/><path class="cls-1" d="M49,98.95c-.09,1,2.67,3.52,3.84,3.76a3.6,3.6,0,0,0-.3-1.07c-.59-.84-1.24-1.64-1.89-2.44s-1.1-1.31-1.67-2a3,3,0,0,0-.42-.34l-.18.11a1.49,1.49,0,0,0,.17.46c1.11,1.31,2.23,2.61,3.34,3.93a3.47,3.47,0,0,1,.31.52l-.14.13c-.54-.47-1.11-.92-1.62-1.43S49.55,99.56,49,98.95Z"/><path class="cls-1" d="M37,111c.74,0,.8-.54.78-1-.06-1.75-.16-3.5-.27-5.25a3.61,3.61,0,0,0-.32-1.31c0,2.37.57,4.73,0,7.11a9.61,9.61,0,0,1-.77-4.82C35.66,106.41,36.09,110.11,37,111Z"/><path class="cls-1" d="M40.28,109c.46,0,.46-.46.42-.78-.17-1.23-.36-2.45-.6-3.67-.38-2-.79-3.9-1.19-5.85a3.15,3.15,0,0,0-.18-.48l-.22,0a3.69,3.69,0,0,0,0,.76c.58,2.69,1.2,5.36,1.75,8.06A10,10,0,0,1,40.28,109Z"/><path class="cls-1" d="M30.21,104.95c.62-.13.89-.69,1.1-1.16.76-1.7,1.49-3.42,2.15-5.17a5.13,5.13,0,0,0,.2-2A42.67,42.67,0,0,1,30.21,104.95Z"/><path class="cls-1" d="M16.1,83.32l-1.75-.14,0,.2c1.88.68,3.87.11,5.92.49L20,83.4l1.48-.51,0-.18c-1.84.2-3.67.91-5.68,0Z"/><path class="cls-1" d="M46.61,100.81a.84.84,0,0,0,.18-1.14q-1.16-2.36-2.36-4.7a16.75,16.75,0,0,0-.86-1.49.84.84,0,0,0-.54-.3C44.12,95.76,46.16,97.83,46.61,100.81Z"/><path class="cls-1" d="M9.69,80.57a21.05,21.05,0,0,1,7.28.38l.08-.22c-.12-.1-.22-.25-.35-.28a14.24,14.24,0,0,0-5-.38c-.52.1-1.06.09-1.59.14a2.23,2.23,0,0,0-.44.14Z"/><path class="cls-1" d="M27.31,109.88c.11.28.14.69.34.82a.87.87,0,0,0,.84-.14c.68-.85,1.28-1.77,1.94-2.72l-.6-.29a7.08,7.08,0,0,1-1.91,2.78l-.36-.53Z"/><path class="cls-1" d="M34.31,105.45c.77-.08,2-3.57,1.29-4.62a24.27,24.27,0,0,1-.44,2.46A21.57,21.57,0,0,1,34.31,105.45Z"/><path class="cls-1" d="M38,99.06a12.73,12.73,0,0,0,.54,4.91L38.19,99Z"/><path class="cls-1" d="M72.43,93.93c-.08.35-.08.34.55.72.29.17.56.37.84.56C74.25,94.77,74,94.51,72.43,93.93Z"/><path class="cls-1" d="M41.78,90.68l1.72,2.55.21-.14L42,90.52Z"/><path class="cls-1" d="M24.83,81.32,22.38,81c.29.52,1.17.69,2.4.56Z"/><path class="cls-1" d="M25.56,116.92c.72-.16,1-.54,1-1.52C26.19,115.32,25.71,116,25.56,116.92Z"/><path class="cls-1" d="M24,116.24c.41.38,1-.08,1.27-1.35a2.82,2.82,0,0,0-.58.38C24.48,115.57,24.27,115.9,24,116.24Z"/><path class="cls-1" d="M57.7,111.27c-.4-.42-1.5.08-1.73.85Z"/><path class="cls-1" d="M74.35,94.19c-.06-.68-.65-1-1.51-.87Z"/><path class="cls-1" d="M72.8,92.58l1.75.62C74.58,92.71,74.58,92.71,72.8,92.58Z"/><path class="cls-1" d="M58.46,113.19c.52-.3.51-.46,0-1C57.93,112.51,58.5,112.81,58.46,113.19Z"/><path class="cls-1" d="M22.23,115.06c.56.34.88.16,1-.51Z"/><path class="cls-1" d="M51.86,115.23V116l.17,0,.07-.76Z"/><path class="cls-1" d="M29.66,117l-.11.69.15.07a2.08,2.08,0,0,0,.28-.41S29.84,117.23,29.66,117Z"/><path class="cls-1" d="M54.08,88A5.63,5.63,0,0,0,58,89.19l-.64-.78c.75-.06,1.6.61,2.4-.13a29.66,29.66,0,0,0-5.65-2.21l-.1.26,4.91,1.83-.05.15a26.21,26.21,0,0,1-5.17-1.63H52.41c0,.07,0,.14,0,.2.81.29,1.64.56,2.43.88s1.55.69,2.32,1l-.08.21Z"/><path class="cls-1" d="M55.87,91.1c.11.13.2.3.34.38,1.52.84,3.07,1.63,4.57,2.5a9,9,0,0,1,1.82,1.5,7,7,0,0,1-3.24-1.25c-1-.62-1.88-1.34-2.93-1.94a7.49,7.49,0,0,0,.94,1.09,13.89,13.89,0,0,0,4.73,2.5s.08,0,.11,0l.84-.15c-.12-.26-.17-.64-.37-.77-1.46-1-3-1.91-4.44-2.84-.5-.31-1-.58-1.54-.86L56,90.93Z"/><path class="cls-1" d="M64.42,93.38l-3.41-1c.34.68,3.41,1.49,4.21,1-.17-.18-.29-.41-.48-.51-1.54-.77-3.08-1.52-4.63-2.26-.38-.18-.78-.32-1.17-.47a1.78,1.78,0,0,0-.39-.05l-.06.19,6,2.81Z"/><path class="cls-1" d="M62.91,88.78c.93.37,1.86.74,2.79,1.13a1.29,1.29,0,0,1,.58.57l.62,0,0,.2-2.2-.35a3.37,3.37,0,0,0,2.92.4,2.07,2.07,0,0,0-1.32-1.21c-.94-.28-1.84-.7-2.77-1a1.7,1.7,0,0,0-.59,0C62.92,88.61,62.92,88.7,62.91,88.78Z"/><path class="cls-1" d="M56.88,90.8c-.1-.25-.13-.45-.23-.52a10.73,10.73,0,0,0-1.32-.82c-1.57-.79-3.15-1.57-4.74-2.32a19.1,19.1,0,0,0-2.63-1C50.79,87.84,54,88.85,56.88,90.8Z"/><path class="cls-1" d="M49.3,85.9l-4.13-1.14-.07.23a12.87,12.87,0,0,0,4.13,1.16Z"/><path class="cls-1" d="M48.43,88.06a3.4,3.4,0,0,0-2.8-1.68Z"/><path class="cls-1" d="M50.14,88.15,53,90l.13-.2L50.3,87.9Z"/><path class="cls-1" d="M1.16,83.42,2.87,84,3,84l-.25-.65-.15.06.19-.62H1.61l0,.17.89.42-1.25-.07Z"/><path class="cls-1" d="M3,85.43l.15-.74-2-.47-.1.21Z"/><path class="cls-1" d="M1.14,86.2c.42,1,1.27,1.33,1.8.83Z"/><path class="cls-1" d="M3,81.89c-.16-.37-1.08-.68-1.74-.59A1.47,1.47,0,0,0,3,81.89Z"/><path class="cls-1" d="M3.2,95.08l1.45-.77c-.36-.5-1.19-.13-1.54.6Z"/><path class="cls-1" d="M8.41,105.68c.53,0,.94-.47,1.08-1.27C9.1,104.38,8.76,104.78,8.41,105.68Z"/><path class="cls-1" d="M4.35,95.1l-1,.87.18.26a9.37,9.37,0,0,0,.93-.55C4.52,95.65,4.42,95.39,4.35,95.1Z"/><path class="cls-1" d="M1.08,80.38c.07.15.09.35.21.45a5.05,5.05,0,0,0,.74.45c.08-.09.26-.22.24-.32A.52.52,0,0,0,2,80.63a8.42,8.42,0,0,0-.9-.24Z"/><path class="cls-1" d="M1.12,85.72l1.06.33C2.09,85.5,1.76,85.39,1.12,85.72Z"/><path class="cls-1" d="M4.21,98.65l.94-.39L5.06,98c-.4-.15-.65.19-.94.39Z"/><path class="cls-1" d="M4.57,99.57l.58-.21-.08-.22-.58.22Z"/><path class="cls-1" d="M86.72,37.47l-.59.41.12.19.64-.37Z"/><path class="cls-1" d="M110.47,82.24l-.11.72.13,0,.15-.72Z"/><path class="cls-1" d="M36.29,29h0v0Z"/><path class="cls-1" d="M33.77,78.45l.33,0c0-.07,0-.15,0-.22l-.15,0,.13-.52s0-.08,0-.13l-.47.55-.74-.07,0,.1.7.26-.82,2.42.27,0Z"/><path class="cls-1" d="M80.7,24a63.58,63.58,0,0,0-8.21-7.62,17.33,17.33,0,0,0-2.61-1.66c-1.28-.63-2.63-1.12-4-1.66A15.81,15.81,0,0,0,59,11.86a27.27,27.27,0,0,0-7.61,1.36c-1.76.61-3.47,1.36-5.17,2.11-.86.38-1.66.89-2.49,1.33L40.78,18.2l-2.61,1.32c-.1-.59-.17-1-.25-1.48A35.12,35.12,0,0,1,37,10.92a8.93,8.93,0,0,1,1.66-5.3c.86-1.14,1.88-2.16,2.87-3.27-.19-.51-.36-1-.59-1.5A.84.84,0,0,0,40.4.42c-1-.17-2-.32-3-.42a.89.89,0,0,0-.7.29,12.52,12.52,0,0,0-1.48,2.45,22.9,22.9,0,0,0-1.13,4,14.73,14.73,0,0,0-.21,3.49c.07,1.2.4,2.38.58,3.58.3,2,.59,4,.84,6.06,0,.24-.11.66-.28.73a28.59,28.59,0,0,1-3.54,1.3c-2.33.62-4.8.44-7.13,1.18-.88.28-1.87.23-2.75.53-1.43.49-2.77,1.23-4.21,1.7a18.68,18.68,0,0,0-5.46,3.33,25.93,25.93,0,0,0-2.77,2.24c-1,1-1.79,2.25-2.77,3.29a18.41,18.41,0,0,0-3.08,5.2,21.66,21.66,0,0,0-1.89,6.74c-.2,2-.28,4-.36,5.94a26.16,26.16,0,0,0,1.35,9.44C3.12,63.75,4,66,5,68.15A55.61,55.61,0,0,0,8.11,74.6a25.18,25.18,0,0,0,2.25,3.07q.91.33,1.83.6A36.38,36.38,0,0,1,7.79,72l.14-.13L12.52,77c0,.39.4.76.88,1.07a6.18,6.18,0,0,1,1.05.82q.94.21,1.88.38A10.14,10.14,0,0,1,14,77.35l.17-.2,2.38,1.91-.16.2.74.13a1.76,1.76,0,0,1-.1-.23l.48.28.73.1-.59-.7.17-.16,1.08.63-.12.31.48.06.16-.14.23.18.63.07-.43-.22.07-.15.71.32,0,.08.81.08.09,0-1-.65.11-.18,1.08.47v.41l1.45.13-1-.5.23-1.06.7-.44c-.44-.38-.44-.39-.33-1.15-.05.1-.1.2-.16.3s-.15.22-.22.33l-.18-.06.41-2.23c.78.32.4.79.41,1.25l.68-2,.75-2.28,2.1.61-1,2.87-.4-.08-.37.25.51.41-1,3.9.22,0,.25-1.09,2.58.93-.09.35.26,0,.08-.31,1.47.43,1.82.15a1.86,1.86,0,0,1-.83-.41l0,0v0a2.42,2.42,0,0,1-.84.08,13.44,13.44,0,0,1-1.49-.58l.87-2.54,2.17.52-.7,2.52h0a2.39,2.39,0,0,0,.31-.42c.31-.66.64-1.32.88-2s.3-1.2.47-1.79c.12-.41.3-.8.45-1.2L32,74.75,31.34,76l-1.71-.49,0,.14,1.72.53-.42,1.37L28.7,77l1.11-3.22,2,.38,0-.1L30,73.55l.18-.52L30.13,73l-.41.46L29,73.37l0,.1.62.27L28.39,76.9l-2.62-1,1-3,1.79.45,0-.17L24.53,72l1-2.44,1.92.43-.61,2.13.19.06.67-2.09c2.22.39,4.41.9,6.6,1.18l0-.19c-2.16-.3-4.32-.74-6.48-1.22l.27-.69L28,69.09l-.57.66-1.77-.46c.23-.63.41-1.18.64-1.71,0-.1.25-.13.39-.19l-.2-.39.66-1.1L27,65.78l-.86,1.28-1.52-.34.82-2.48-.13-.08a8.71,8.71,0,0,0-.62,1.1,11.55,11.55,0,0,0-.37,1.38L23,66.26l.75-2.69L31.66,65l0-.12-7.77-1.54.84-2.61c-.9.52-1.78,1-1.88,2.18l-2-.6,1.18-4c-.4,0-.48.41-.58.75-.31,1-.6,2-.92,3.07l-.78-.21a9.31,9.31,0,0,1,1.71-4.1l-.09-.17c-.17.09-.43.14-.49.27-.48,1-.92,2.09-1.36,3.14a5.77,5.77,0,0,0-.2.75l-1.4-.56,1.87-5,1,.14L20,55.9A35.93,35.93,0,0,1,22.77,49c-.47-.24-.65-.13-1,.46a7.8,7.8,0,0,1-.59.82c-.26-1.06.17-1.74,1-1.84,1.56-.19,3.11-.4,4.67-.58a3,3,0,0,1,1,.08l13.51-3-.05-.31c-.2,0-.4,0-.59.09-2.17.51-4.34,1.07-6.52,1.53a9.77,9.77,0,0,1-2.29.09c-.58,0-.71-.33-.43-.83l2.41-4.28c-.23.14-.44.2-.53.34-.76,1.21-1.84,2.21-2.3,3.61a.34.34,0,0,1-.21.21c-.63.11-1.25.2-2,.32.53-.91.87-1.78,2-1.75l-.73-.1L32,41.49l-.12-.14a2.39,2.39,0,0,0-.48.34c-.46.54-.92,1.09-1.33,1.67a1.1,1.1,0,0,1-1.1.53c-.47,0-1,0-1.54,0L29,41.7l-.17-.15c-.25.27-.51.52-.74.8-.35.44-.65.91-1,1.34a.94.94,0,0,1-.6.27c-.61,0-1.23,0-2,0l2.21-2.83L26.61,41a1.63,1.63,0,0,0-.46.28,25.65,25.65,0,0,1-1.84,2.29,4.88,4.88,0,0,1-1.56.68l-.3-.56-.74,0,1.84-2.52c-.34,0-.34,0-1.16,1.06l-1.06,1.36-1.83-.13,1.7-2.37L21,40.92l-1.83,2.44L17.24,43l1-1.18,1.42.56,0-.1-1.07-.57.48-.14-.42-.32,1.17-1.74-.12-.08,1.18-1.12-.19-.21c-.39.28-.79.54-1.16.84s-.57.55-.88.8a1.11,1.11,0,0,0-.41,1.53l-.18,0-1-.66h0l.85,1.07L17,42.79h-.21l0-.74-.6.26L15.76,42c0-.48,1-1.41,1.3-1.35h0a4.69,4.69,0,0,1,.42-1c.59-.82,1.24-1.61,1.87-2.41l-.18-.15-3.9,4.72c0-.31-.14-.51-.08-.63.44-.88.87-1.76,1.39-2.6a2.83,2.83,0,0,1,.95-.77c1-.59,1.93-1.14,2.9-1.71l-.11-.21-2.82,1.45L18.58,36l-.17-.16c-.71.74-1.39,1.52-2.15,2.21s-1.61,1.34-2.46,2L13,39.16c.66-1.68,2.06-2.49,3.5-3.24,1.17-.61,2.35-1.2,3.53-1.79A20.2,20.2,0,0,0,22.18,33a2.56,2.56,0,0,0-.8.1c-1.24.6-2.47,1.22-3.7,1.86-.89.46-1.77,1-2.73,1.37l1.9-2.18L16.76,34a2.84,2.84,0,0,0-.64.42c-.76.86-1.47,1.77-2.24,2.62a19.21,19.21,0,0,1-1.49,1.33l-.5-.58a6.86,6.86,0,0,1,2.92-3.16c2.25-1.38,4.53-2.71,6.82-4,.49-.28,1.09-.39,1.63-.74a4.08,4.08,0,0,0-1.23.19c-1.79.9-3.58,1.81-5.32,2.8a23.79,23.79,0,0,0-2.28,1.66,1,1,0,0,1-.41.2,13.52,13.52,0,0,1,5.4-4.92c2.22-1,4.35-2.34,6.95-2.16a1.87,1.87,0,0,0-1.89-.33,36.72,36.72,0,0,0-8.31,3.95C15,32,14,32.87,13,33.61c.21-.88,5.1-5.67,6.84-6.5,2.92-1.4,5.87-2.75,9.32-3a5.77,5.77,0,0,0-3.64.31c-1.72.69-3.41,1.49-5.18,2-1.14.35-1.9,1.27-3,1.62a6.06,6.06,0,0,0-.72.34,6.56,6.56,0,0,1,2.78-2.07c1.08-.49,2.14-1,3.25-1.45s2.19-.73,3.17-1l-.66-.06c3.4-.86,7-.69,10.36-2.48a69.83,69.83,0,0,1,.73,7.7h0l0,0c0,.31,0,.61,0,.92H35.2l-.14-.16,1.21-.76v0c-.66-.21-.67-.16-1.46.58a6.62,6.62,0,0,1-1.3.76l-.16-.21,2.53-2.62-.14-.16c-1.17.28-1.5,1.92-2.95,1.79l2-1.71,0-.12c-.17,0-.39,0-.52.11-.7.56-1.41,1.11-2.06,1.73a2.91,2.91,0,0,1-1.93.85l3.3-3.42c-.32.08-.56.06-.68.18-.81.79-1.58,1.61-2.38,2.41a8.3,8.3,0,0,1-1.24,1.08c-.2.13-.55,0-.88,0l2.9-2.68-.13-.15c-1.68,1.14-2.75,3.07-4.84,3.68l.08.18.53-.1.07.09-.77.65c.09.6-.11,1-.79.85-.33.64-.2.87.51.87,1.53,0,3.06-.05,4.59,0s3.33.24,5,.43,3.51.71,5.26.06c.79-.29,1.52-.75,2.31-1.05,2.32-.9,3.78-2.82,5.47-4.49a13.07,13.07,0,0,1,2.59-2c1.89-1.1,3.83-2.11,5.78-3.12a17.94,17.94,0,0,1,2-.76l-.11-.31-6.15,2.34-.07-.1,1.9-1.68a4.55,4.55,0,0,0-3,2.54l-1.38.74c.06-1,2.36-3.76,3.39-4.11-.27-.51-.67-.34-1.62.49-.24.1-.55.13-.71.31-1,1.12-2,2.28-3,3.4a3.65,3.65,0,0,1-.85.52l-.1-.14,2.19-2-.07-.2L48,25.07l-.1-.1,2.66-2.48-.07-.15a1.48,1.48,0,0,0-.49.18c-.88.78-1.71,1.6-2.61,2.35-.6.51-1.28.94-1.92,1.4L45.3,26l4-3.88L49.22,22a1.5,1.5,0,0,0-.46.2c-1.1,1-2.19,2.07-3.26,3.13a6.28,6.28,0,0,1-3.3,2.16l3.86-4.14-.15-.19a6,6,0,0,0-.82.61q-1.45,1.51-2.86,3.06c-.5.55-1,1.14-1.46,1.72-.47-.32-.25-.56,0-.82A28.56,28.56,0,0,0,43,25.15l-2.5,2.51-.19-.12c-.13-.92,1.05-1.23,1.11-2.25L40,26.78l-1.78-6.34c1-.57,1.91-1.09,2.82-1.53a25.57,25.57,0,0,0,2.59-1.28l1-.43,0-.08a9.76,9.76,0,0,1,1.08-.63c2-.83,4-1.65,5.95-2.46a.64.64,0,0,1,.47,0l-2.5,1.16.08.15-.84-.08,0,.15h.33l.06.11c-.8.46-1.62.9-2.41,1.38-1.21.73-2.53,1.36-3.18,2.74a1.78,1.78,0,0,0-.17.71c.56-1.61,2-2.35,3.29-3.1,1.63-.92,3.29-1.81,5-2.62a22.78,22.78,0,0,1,2.75-.92l.07-.37a26.68,26.68,0,0,1,6.7-.5,2.2,2.2,0,0,1-1.91,2L60,13.15,59.68,13l-.86,2.16c-1.82,1-4.09,1.39-5.79,2.88l.09.26h1.09v-.13l-.68-.08L53.49,18c2.21-1.24,4.61-2.05,7-3.13,0,.66-.1,1-.62,1.25-.68.28-1.35.57-2,.91a6.6,6.6,0,0,0-.91.69c.44.68,1.45.82,2.65.37l-2.06-.15-.07-.2c1-.87,2.3-1.12,3.31-1.87-.31-1.1.69-1.86.74-3l3,.81-1.9,4.06.19.1,2-4,1.57.5c-.55,2.74-2.16,4.89-3.58,7.15a6.07,6.07,0,0,0,1.52-1.89c.46-.71.9-1.44,1.36-2.18a2.76,2.76,0,0,1-.25,3.39,36.58,36.58,0,0,0-2.17,3.58,25.1,25.1,0,0,0,3.12-4.57,3.69,3.69,0,0,1-.18,3c-.81,1.27-1.51,2.62-2.26,3.94,0,.09,0,.21.06.38l.37-.42h0l.83-1.53.17,0-.36,1.61.38.06c.09-.69.17-1.39.27-2.08a1.87,1.87,0,0,1,.15-.64,4.48,4.48,0,0,1,.85-1.1l-.19,2c1.56-3.13.84-6.44,1.36-9.59l-.17.6-.34.17L67,18.07c-.81-1-.81-2.07-.18-3.53A20.67,20.67,0,0,1,74.06,19a48,48,0,0,1,8.36,8.93l1.42.12A24.28,24.28,0,0,0,80.7,24ZM28.38,77.12l-1,2.66-2.52-1,.75-2.55ZM2.71,43.8a28,28,0,0,1,2.93-7.15C6,36,6.4,35.42,6.85,34.7c.23.92,1.14,1.53.44,2.43L6.41,38.4,5.76,37l-.17,0a1.83,1.83,0,0,0,.12.72,1.37,1.37,0,0,1-.13,1.92,2.07,2.07,0,0,0-.26.51l-.49.11.15,1c1,.9.07,1.75,0,2.63L4.2,42.63l-.16,0a2.52,2.52,0,0,0,.23.77,1.1,1.1,0,0,1,0,1.41,3.65,3.65,0,0,0-.4,1.48c.36-.59.33-1.39.93-1.84l.2.07L4.64,47l.19.08-.48.32a.29.29,0,0,1-.12-.07c-.49-.63-1-1.27-1.48-1.9S2.57,44.32,2.71,43.8Zm5.86-8.36h0l.78-.68.08.07L8.57,35.9v-.46l0,0,0,0c0-.19-.14-.43-.06-.54a14.37,14.37,0,0,1,1.68-2.17c1.09-1,2.29-2,3.44-2.91a.46.46,0,0,1,.44-.09l-1,1.06c-1.41,1.38-2.82,2.76-4.22,4.16a1.45,1.45,0,0,0-.24.5Zm4.12-3.64.24.2L9,37.68l-.72-1.13Zm2.77,15.52-.6-.37.82-1.88,1.08.52-3.23,6.87-1.77-1.2,1-2,1.05.32.06-.07L13,49c.35-1.2,1.13-2.38,1.57-2.32l0,.61Zm1.69-.63.5-.79,2,.31c-.32.5-.63.94-.9,1.4s-.53.94-.83,1.48l-1.23-.45C16.71,47.93,17.62,47.48,17.14,46.69Zm4,21.33-1.76-.76.48-1.69,1.86.59Zm.93-1.8.52.2-.51,1.85L21.46,68Zm-2,6.88.16-.55.27.11-.22.52Zm.08.46-.12.47-.19,0,.11-.48ZM20,72.12c-1.73-.22-2-.62-1.35-2l1.61.69Zm-2.41,1.16-1-.39.26-1.23.92.47Zm0,2.25c1,.17,1.47.59,1.29,1.08C17.52,76.07,17.52,76.07,17.64,75.52ZM16,74.07l-1.34-.85.11-.83,1.52.61Zm1.3,1-.06.74-1.11-.47.15-.9ZM5,61.82l-.1-.56L4.36,62l-.18,0a11.77,11.77,0,0,1,.4-4.25c1,.29.85,1.18,1,1.9l-.37.08C5,60.38,5.62,61.15,5,61.82Zm6.56-16V45l.78.54-1.14,2.06h0c.34-.5.67-1,1-1.49a2.31,2.31,0,0,1,.52-.39l.14.15-1.19,2.25h0l1-1.39.45.26v-.92l.83.43-1.2,2.38-1.06-.76h0l-.49-.52h0v0l-2-1.64,1-2c.6.4,1.33.58,1,1.51C11.15,45.47,11.33,45.6,11.53,45.83Zm5.33,3.23.95.34-2.27,5.06-1.75-.67.74-.85C14.33,52.5,15.84,49.81,16.86,49.06Zm-1.05-.86.71-1.2.09.05-.55,1.3Zm1.54,20.65h-.87l.26-.23-.92-.45.41-1.63,1.6.62Zm.76-1.42h.8l-.39,2.13-.92-.37Zm-10.39-7c1.72,1,2,1.08,1.16,2.85A2.4,2.4,0,0,1,7.72,60.46Zm.78,3.92-.33-1C8.82,63.56,8.75,63.86,8.5,64.38Zm-2.84-9.7a1.51,1.51,0,0,1,.55,2.13C5.48,56.21,5.8,55.42,5.66,54.68Zm.25-10.1.17.07-.2.52-.21-.08Zm-.38-.8.34-1.12C6.32,43.22,5.94,43.5,5.53,43.78Zm5.32,4.63a1.37,1.37,0,0,1,.4-.24l.14.16L10.47,50c-.65-.15-.11-.56-.14-.83l-.41.44L8.18,48,9,46.16l1.9,1.73-.61,1.33C10.49,49,10.65,48.67,10.85,48.41ZM8,47.56c-1.08-.59-1.07-1.35,0-2.5l.73.91Zm.32,5.39.4-.45c.39.34.3.8-.32,1.63a8.86,8.86,0,0,1-1.64-1.66c-.22-.39.05-1.06.1-1.61l.23,0,1.25,1.59.2-.15-.26.62Zm5.24,8.31.49.27-.19.9-1-.55.73-.61h0c0-.4,0-.81,0-1.34l1,.31-.33,1.12-.62-.09Zm-6-4.9,1.15,1-.51,1.11-1.16-.88ZM7,57.14l-.12,0V55.67l.57.51Zm1.3,1.69.88.71L9,61l-1.22-.92Zm.09-.19.47-1c.81.45.85.63.38,1.65Zm1.28,2.74a3.42,3.42,0,0,1,.49-2.91h0a6.76,6.76,0,0,1-.73-.82,4.45,4.45,0,0,1-.34-.89h0L8.72,57,7.57,55.78c-.41,0-.5-.27-.34-.8L7,55.37H6.76q-.05-1-.11-2l.17-.11,1.39,1.3-.13.5.31-.28a4.32,4.32,0,0,1,.68.67,1.34,1.34,0,0,1,.16.71,2.57,2.57,0,0,1-.16.64h0l.5-.8c1.79,1.21,1.93,1.55,1.21,2.85l-.63-.36v0h0l.46.7Zm0,2.51-.21.06-.15-.5.22-.06Zm1.81-4.36a1.87,1.87,0,0,1-.23-.6l.2-.08,1.74,1c0,.36.07.82-.56.81,0,.31,0,.63.07.94l-.21.06-1.85-1.29.35-.79,1.64,1.07C12.27,60.26,11.87,59.91,11.51,59.51ZM13,62.14l.75.59-.15.17C12.87,62.89,12.7,62.72,13,62.14Zm2.45,3.21-.18.57-2.11-.71.37-1Zm-2.2-1.6-.84-.64C13.34,63.08,13.5,63.21,13.26,63.75Zm-2.77-3.23,2,1.3L12,63l-2-1.28Zm1.93,3,.81.51-.39,1.09L12,64.83Zm.33,1.92-.21.68-.79-.68.11-.21Zm1.74,2.65L12.57,67C12.94,66.59,14.31,67.3,14.49,68.08ZM12.89,66.3l.18-.75,2.13.64-.44,1.32ZM15,68l.51.28-.09.19-.52-.23Zm.41-.16c-.35-.28-.27-.78.22-1.44C16,66.67,15.9,67.12,15.38,67.82Zm.15-2.73c-.56-.32-1.09-.59-1.58-.93-.14-.1-.14-.39-.21-.6l.19-.14,2,.79Zm-2-6.07c0,.16,0,.33,0,.65L11.43,58.5l.69-.6.71-2.24,1.91.91Zm-2-1.7L9.77,55.45l.71-1.5,1.85,1.44Zm-1.9-2-1.09-.93L9.18,53l1.08.76ZM6.77,49.82l.2-2.4C7.92,47.76,7.87,48.51,6.77,49.82Zm1.13-5.49c-.36-.5-.13-1.39.58-2.4l.48.59Zm-.15.49-.82,1.49c-.9-.37-.65-1-.08-2.54ZM6,48l.16-1.61C6.67,46.88,6.64,47.34,6,48Zm.4.32v1.19l-.16.1-.34-.38.38-.93ZM6,49.69l.49.64-.3,1.43H5.93C5.44,51.13,5.94,50.4,6,49.69ZM6.28,53v1.54C5.78,54.23,5.78,54,6.28,53Zm.21,4.2v1.66A1,1,0,0,1,6.49,57.17Zm.32,4.67-.6-2.44A1.54,1.54,0,0,1,6.81,61.84ZM7,58.11,7.15,58l.92.69-.43,1.11-.26,0Zm2.27,6c1.09.58.82,1.77,1.35,2.8C8.79,66,8.47,65.24,9.24,64.1Zm1.1,1c1,.1,1.07.44.49,1.49ZM10,62c.33.2.67.39,1,.6s.65.45,1.07.74l-.44,1.26-.68-.13.58.71A2.34,2.34,0,0,1,10,62Zm1.73,3.88,1,.62-.59.08L12,68.08l-.8-.59Zm.71,1.56c.44.21.74.34,1,.49s.59.32,1,.53L14,69.56a14.93,14.93,0,0,1-1.58-1.21C12.31,68.22,12.43,67.81,12.43,67.39Zm1.73,2.77.82.36L14.56,72l-.84-.37Zm.15-.44.44-1.16.63.27-.32,1.35Zm1.29-.82,1.57.66-.48,1.38-1.37-.59ZM16.06,66s-.23,0-.45,0l.62-1.72.32.1C16.39,65,16.24,65.5,16.06,66Zm0-2.19-2.11-.61.92-2.85L17,61.2Zm-1.27-4.27-.71-.35L15.86,55l.64,0Zm1.65-4.67L16,54.62c.81-1.69,1.48-3.42,2.34-5l.18.15Zm-2.61-2.38,1.87-4C15.9,49.07,14.44,52.31,13.81,52.52Zm0,.43-.21.5-.16-.08.21-.49Zm-.11,1.15,1.72.54-.71,1.77L13.17,55.3Zm-.48.27L13,54.3l.17-.44.18.06Zm0-.87-1.28-.74-.07.1,1.08.82-.53,1.42-1.84-1.37.53-1.24L11,52.43l-.62,1c-.43-.31-1-.43-.91-1.13l-.64-.08.78-1.73L8.67,52l-.75-.72-.78-.8.8-2c.89.23,1.85,1.4,1.69,2l.5-.43.07.79c.49-.36.78.11,1.08.31.69.47,1.32,1,2.07,1.62Zm-2.6-3.22.93-1.8,1,.59-1,2ZM9,45.62c-.31-.56-.1-1.22.75-2.3C10,44.23,9.15,44.75,9,45.62ZM8.49,45c-.45-.46-.13-1.48.67-2.28l.23.08Zm.61-2.84-.54-.59,1.33-2,.28.15Zm-.67-.83c-.91-1.25.51-1.69.56-2.52l.33-.19.47.53ZM7.67,40l-.18-.09,1-1.41.16.1Zm.06,1.05.44.6-.82,1.94c-.5-.26-.49-.3.34-1.54L7.14,42Zm-1.62,1.3.75-1.12-.18-.39.71-.17C7.36,41.54,6.78,42.38,6.12,42.37Zm.39-1.53a5.78,5.78,0,0,0-.39.92C5,40.84,5,40.87,6.34,39.11,7.11,39.91,7.1,39.91,6.51,40.84Zm-.94,4.76.26,0-.33,3C5,48.15,5.14,46.23,5.57,45.61Zm-.33,3.71.18,0L5.34,50l-.18,0Zm.12,8.38c-.68-.46-.75-1-.22-1.74Zm-.59-2.48c-1-.75-1.09-1.24-.49-2.19l.23,1.17.24-.52.2,0Zm.16-1.93H4.78v-.71h.15Zm-.43-.46-.28-.06.43-1.4.18,0Zm.21-2.5c-.88-.39-.8-.48,0-2ZM4,52.3l-.52-.41.37-1.5C4.71,50.76,4.53,51.34,4,52.3Zm-.07.41-.25.93H3.4l-.2-1.21.21-.1Zm-.08,1.92a1.75,1.75,0,0,1,.61,2.09A1.37,1.37,0,0,1,3.83,54.64Zm1.9,6.64.23,0,.48,2.09C5.53,62.8,5.4,62.4,5.73,61.28Zm-.11,2.06.24-.09,1.24,2,0-.4h.14c0,.29.05.58.08.88.83.58.44,1.43.27,2.32a9,9,0,0,1-1.81-2.07A7.77,7.77,0,0,1,5.62,63.34Zm1.48-.88c.52.16,1.21,1.75,1.15,2.57A2.71,2.71,0,0,1,7.1,62.46Zm1.22,5.32.35.83-.26.11-.29-.87Zm.09-1.44.19-.12c.65,1,.79,2.27,1.36,3.39-.52-.14-.58-.19-1.06-1.51C8.69,67.53,8.57,66.93,8.41,66.34Zm.71.15c1.36.26,1.82,1.43,1.07,2.92Zm1.78,1.68c.41.71.88,1.36.4,2.25l-.79-.33Zm.55,0,.19-.07.23.54-.24.08Zm.86,3.16-.13.19-.5-.38.11-.16Zm-.7.19c1,.38,1.49,1.12,1.3,1.91C11.73,73,11.34,72.41,11.61,71.54Zm.55-2.62L13.86,70l-.39,1.39A1.78,1.78,0,0,1,12.16,68.93Zm1.55,3,.8.39-.19.58C13.92,72.69,13.38,72.63,13.71,71.93Zm.83,1.67c1.32.38,1.42.5,1.29,1.65l-1.37-.81Zm1.71-.85-1.39-.61.32-1.46,1.47.79Zm.82-1.65.38-1.43.84.37L18,71.39Zm1,1.32c1.66.69,1.74.87,1.31,1.57l-1.5-.57Zm0-.37c1-.13,1.82.3,1.73.91Zm.66-2.34.53-2.1,1.79.54-.65,2.34Zm.33-2.5-.7-.47.38-1.47.79.07Zm-1.46-.78h0l.16.23-.09.13-1.38-.55.11-.28,1.2.47h0l-1.05-.78.3-1.1,1.52.55C18.11,65.56,18.46,66.3,17.6,66.43ZM16.71,64l-.34-.1.71-1.94.2.06Zm.39-3.05-1.83-.66.5-.18-.61-.45,1.69-4.48,1.92.68ZM16.93,55A26.92,26.92,0,0,1,19,49.82l1.52.51L18.9,55.67Zm1.62-5.68c.09-.52.93-.75,2.45-.71L20.62,50ZM14.08,46.2l-.86-.48,1.32-2.05.68.11Zm.36-3-.18,0-.12-.51h0l0,0-.86-.05,0-.27c.14-.06.33-.21.4-.17a2.79,2.79,0,0,1,.48.49h0l.65-.11Zm-.84.39.49-.26.14.17L13,45.56l-.24-.1.45-1.19-.68,1-.84-.58,1.28-2C13.35,42.85,13.75,43,13.6,43.56Zm-2.19.88-1.07-.92,1.19-2.07,1.22,1Zm-1.27-1.27c-.28-.44.2-1.33,1.15-2.06Zm-.49-.57-.28-.11,1.09-2.37.51.65Zm.79-3.07-.24-.13a2.4,2.4,0,0,1,.33-.66c.09-.09.33,0,.51-.05h0l0,0,.06-.63.22.07-.28.57v0h0ZM10,39l-.56-.62,1.18-1.76.59.74ZM8.71,37.86,7.27,39.73l-.66-1L7.91,37ZM2.26,45.47c.68.8,1.27,1.48,1.83,2.17a.61.61,0,0,1,.14.46c-.11.46-.28.91-.47,1.5a9.89,9.89,0,0,1-1.55-2.05A5.49,5.49,0,0,1,2.26,45.47ZM2.19,48.3l.71,1.1c.62,0,.76.43.42,1.89l-.38-.4c-.15.42-.48.86-.39,1.16a4.75,4.75,0,0,1,.13,2.78l.4-1.33c.2.34.41.52.38.66a34,34,0,0,1-.89,3.36C1.72,54.46,2.06,51.39,2.19,48.3Zm.9,4.1H2.88v-.74H3ZM4.94,65.7c-.74-2.1-1.51-4-2.07-6a6,6,0,0,1,.42-3.35,1.74,1.74,0,0,1,.85,2.27,15.05,15.05,0,0,0-.29,2.8,4.7,4.7,0,0,0,.27,1.14l.64-.6A3.67,3.67,0,0,1,4.94,65.7Zm2.49,4.87-.41,0-.29-1.38,0,0v0c-.39-.73-.8-1.45-1.18-2.19a2.23,2.23,0,0,1-.22-1c.57.7,1.1,1.45,1.74,2.1a7.7,7.7,0,0,0,1.67,1.31c.87.5,1,1.34,1.31,2.21a8.59,8.59,0,0,1-3.15-3l-.17.59h0v0L9.93,72c.49.42,1.06.77,1.11,1.53C9.8,72.6,8.37,72,7.43,70.57Zm5.46,6.14-2.12-1.86.09-.13.87.44h0c-.49-.44-1-.89-1.47-1.32-.15-.13-.36-.2-.46-.37a3.75,3.75,0,0,1,2.32,1.76l-.41-.09,0,0h0l1.33,1.37Zm-.1-1.8L12.16,74l.27-.18.65.93Zm0-3.19.15-.14.46.4-.24.2Zm.64,2.86.17-.05.52,1-.24.13-.59-.46Zm.33,3.28-.59-.45.1-.13.61.42Zm.21-1-.6-.69.17-.17.6.68Zm.21-2.71-.19,0-.55-1.23.16-.11.69.4ZM14.31,77c.49-.28.86,0,1.19.82Zm1.23-.08-.77-1.2C15.57,75.79,15.84,76.15,15.54,76.92Zm-1.13-2,.1-.16,1.37.79-.15.24Zm2.71,1.78-1.24-.87C16.78,75.72,17.3,76.13,17.13,76.71Zm-1-.29c.49.38,1.28.37,1.08,1.26C16.19,77.46,16,77.24,16.11,76.43Zm0,1.43c.83.06,1.34.49,1.39,1.18A1.79,1.79,0,0,1,16.1,77.86Zm1.26-3-1-.61.17-1.06,1.06.28Zm1.38,3.76c-.4-.42-1.28-.26-1.19-1.2C18.55,77.67,18.94,78,18.74,78.63Zm.18-.93c-1.14-.4-1.41-.66-1.3-1.36l1.36.56Zm-1-4,1.61.51-.37,1.58C17.57,75,17.42,75.33,17.92,73.72Zm3.9,3.89-.1.21c-.71-.3-1.43-.58-2.13-.91-.08,0-.07-.29-.13-.6ZM20.2,79.2c-.37-.14-.84-.14-1-.64l.14-.2,1,.66Zm1.54.15L19.29,78c0-.28,0-.56,0-.89l2.53,1Zm.11-2-2.21-1.14.48-1.68,2.16.75ZM21.67,74h0l.74.73-.14.24-2-.64.09-.67,1.3.35h0l-1.11-.69.17-.65,1.5.58.06-.15-2-.82.35-1.51c.67.47.06.94.16,1.53l.51-1.07,1.24.16h0l-1.14-.55.52-1.63-.17-.07-.62,1.61-.45-.2.68-2.24,2.37.76-.57,2.3h-.61l.42.45-.47,2.48L21.65,74Zm1.43,1.2L22.56,75l.11-.24.54.25Zm.21-.54c-.6-.2-.62-.3-.29-1.13l.59.19Zm.52-2.85c.6.63-.05,1.12-.1,1.79l-.79-.26L24,69.19l1.15.21C24.61,71.47,24.41,71.83,23.83,71.82Zm.72-4.89,1.55.36-.74,1.91-1.25-.33Zm-.38-.12-.42,2-1.47-.42.61-1.89Zm-.29-5.39.29.12-.62,1.55L23.24,63Zm-.62,1.84.22.08-.74,2.75-.64,0C22.56,65.05,22.63,64,23.26,63.27Zm-2.47-.72,2,.6-.89,2.79-2-.62Zm-1.14-.42.78.3-.8,2.72L18.83,65Zm-.34-.1-.81,2.81a6,6,0,0,1-1.16-.38.69.69,0,0,1-.23-.61c.19-.75.46-1.48.73-2.33Zm-1.6-1-.25-.07L19.15,56l.29.1C18.92,57.76,18.24,59.36,17.71,61Zm3.55-10.68.15.2q-.93,2.61-1.86,5.22s-.1.06-.25.15a3.35,3.35,0,0,1,.06-.5c.47-1.58.94-3.16,1.44-4.73C20.85,50.52,21.1,50.44,21.26,50.33Zm.19-2.27-2.33.42-.05-.27,1-1.94,2.21.1Zm1.07,0c-.48,0-.69-.15-.44-.63l.5-1h2.26l-.39,1.34C23.83,47.87,23.17,48,22.51,48Zm5-.62-2.68.31.5-1.17h2.44Zm4.6-.85,0,.14L28,47.36l.24-.78Zm-1.22-1v.68H28.55l0-.31Zm-1.52-1.39-1,1.52-1,.13V46l.75,0,0,.21c-.74-.08-1.54.38-2.18-.4A2.82,2.82,0,0,1,29.37,44.19Zm-2.9.12c-.87,1.6-1.71,2-3.4,1.65C23.33,44.61,24.24,44.16,26.47,44.3Zm-5-.31c.12-.13.57,0,.86.21l1.1.21c-.6,1.5-1.37,1.84-3.28,1.38A19.12,19.12,0,0,1,21.5,44Zm-1.94-.34c.49,0,1,.12,1.58.2l-1.4,2-1.84-.29c.43-.59.78-1.11,1.16-1.59A.76.76,0,0,1,19.56,43.65ZM17,43.29l1.9.3A2.41,2.41,0,0,1,17,45.26L15.75,45Zm-.35-.11-2,3.19c-.27-.25-.27-.25.33-1.33.25-.45.51-.9.77-1.35h.15l0-.52Zm-1.13-.92.47.25-.11.21-.47-.24Zm0,.6.15.38-.7.26-.13-.33Zm.11-3.57.15.11c-.11.35-.12.78-.82.83ZM15,40.46l.15.15-.28.61-.5-.4Zm-.58.66.12.87h0L15,41.8c.05.12.16.27.13.36s-.27.22-.31.19a1.23,1.23,0,0,1-.25-.37h0l-1-.09.6-.77Zm-1.69-1.73,1.33,1.43-.59.68-.7-.28.42.62c-.34.34-.59.21-1.44-.8Zm-.69-.95-.61,1.45.17.09-.49.46-.49-.58L11.75,38Zm3.24-6.06L11.43,37.1l-.51-.45A11.9,11.9,0,0,1,15.31,32.37ZM17,28.75a9,9,0,0,1-1.83,1.9c-1.48.83-2.08,2.37-3.2,3.48a2.52,2.52,0,0,0-.28.41l-.2-.16a14.37,14.37,0,0,1,.92-1.31c.89-1,1.91-1.92,2.69-3A4.18,4.18,0,0,1,17,28.75Zm-5.27,2.11-.35-.23c-.41,1-.82,1.89-2,1.76L7.8,35.95,7,34.51A27.55,27.55,0,0,1,18.55,25.6C16.22,27.25,13.72,28.67,11.76,30.86Zm6.36-4.34a7.44,7.44,0,0,1,5-2.19Zm17.63,3.77.06.17-1.44.45C34.65,30.23,35.21,30.29,35.75,30.29Zm-2.3.3.1.25-1,.38L32.45,31Zm-.51-1c-.15.89-.71,1-1.36,1l-.11-.21Zm-1,1.54-1.18.35-.09-.29,1.19-.32Zm-1.06-.94.13.33L29.53,31l-.12-.3Zm-1.91.45.08.19c-.35.14-.47.7-1.08.38-.15-.08-.48.16-.72.25l-.1-.2Zm-2.56,2.12-.07-.15,1.57-1.07.18.23-.75,1Zm1.34,0,.41-.57.59.5Zm.9-1.22,1.43-.38.08.24-1.4.49Zm1.3,1.16,0-.19.68,0,0,.16Zm.07-.39-.08-.28,1.15-.33.09.3Zm1.63-.12-.06.43h-.4a.59.59,0,0,1,0-.18c.49-.85.75-1,1.61-.76Zm2.67.64H33.18c0-.06,0-.11,0-.17l1.13-.09Zm-1-.39-.07-.28,1.34-.31.09.34Zm1.73.58L34.78,33,35,32.5l.21.06ZM33.53,31.7l-.05-.28,1.67-.31,0,.28Zm2.44.55-.69-.09L35.22,32l.75-.38.14.15Zm-.35-1,.55-.38.09.57ZM42,32.79l-.24-.7.77.31Zm.54-2.2-.6-.41.73-.29ZM42,29.36l1.56-.91C43.36,29.29,43,29.5,42,29.36Zm1.08,1-.17-.15.67-.75.16.14Zm.06.59,3-1C45.57,30.86,43.76,31.54,43.13,31Zm2.27-2.13.2.23-.41.75-1.14.27-.11-.2Zm-1.44,0,1.1-.91.17.2-1.07.93Zm1.65-.65,1.42-1,.15.27-1.38,1Zm6.06-5-2.29,3-.19-.15C50,25.15,50.49,23.92,51.67,23.24Zm-3,3.51.24.14-.71,1.16L48,27.91Zm-1,2-1.55.76-.29-.37.88-1,.21.28Zm-.08-3c-.71.54-1.15,1.44-2.14,1.64C46.11,26.77,46.6,25.94,47.61,25.78Zm-2,.8a3.74,3.74,0,0,1-2.24,1.68A2.84,2.84,0,0,1,45.59,26.58Zm-4.2,1.73,1.64-.8.11.14c-.31.34-.63.68-.93,1s-.53.65-.84,1L40.81,29l.62-.15Zm-3-3.31-.76-.48a2.49,2.49,0,0,0,.05.71c.41.91.87,1.79,1.27,2.7.06.13-.05.33-.12.69L37.66,27l-.28.13.42,1.21-.22.39,1.54.78,0,.12,1.08-.13.27.73-2.77-.8c-.23.79.7.48.81,1.06l-.16.49-.64-.29c-.43.4-.07.52.21.66l1.12.52-.1.26-1.33-.35c-.12.49-.1.51.77.79l1.24.39-.05.23-2.2-.53c-.15.36-.15.36.82.83l-1.62-.11c.92-2.82.54-5.57.18-8.32-.3-2.3-.54-4.6-.9-6.89-.29-1.84-.72-3.65-1.06-5.48a13.79,13.79,0,0,1-.17-4.46,24.19,24.19,0,0,1,.66-3.8,20,20,0,0,1,1.55-3.2c.3-.58.87-.6,1.43-.52A6.35,6.35,0,0,1,40,1.06c.37.18.58.67.87,1l-1.64,2L38,3.7l-.15.12.62.93h-.84l-.78-1.09c-.16.34-.16.34.69,2.27L37,5.15a3.24,3.24,0,0,0-.75-.83,1.43,1.43,0,0,0,0,.58c.2.41.48.78.68,1.2a5.3,5.3,0,0,1,.26.89l-.26.09L35.81,5c-.43.28-.4.26-.09,1.09a5.83,5.83,0,0,1,.19,1.22l-.4.29.22.76-.34.14ZM36.44,9.29l-.26-.37.15-.14.33.35Zm0,.64-.35.19-.1-.2.37-.16Zm.09-1.66L36,7.6l.12-.23a1.71,1.71,0,0,1,.58.31c.09.11,0,.36,0,.55ZM67.31,18.38l.13.72-.22,0-.13-.72Zm-.21.87.28,1.95-.25,0-.23-2Z"/><path class="cls-1" d="M30.06,80.25h0v0l0,0Z"/><path class="cls-1" d="M11.18,47.58h0v0Z"/><path class="cls-1" d="M14.58,42h0Z"/><path class="cls-1" d="M17.06,40.65h0Z"/><circle class="cls-1" cx="11.67" cy="48.11" transform="translate(-30.6 22.34) rotate(-45)"/><path class="cls-1" d="M6.71,69.2v0l0,0v0Z"/><path class="cls-1" d="M17.62,66.45h0Z"/><polygon class="cls-1" points="10.17 58.46 10.17 58.46 10.17 58.46 10.17 58.46"/><path class="cls-1" d="M36,81c.31-.87.66-1.73,1-2.59l-.2-.09-1.21,2.91.37.06A.91.91,0,0,1,36,81Z"/><path class="cls-1" d="M35.9,81.71h0Z"/><polygon class="cls-1" points="11.72 75.17 11.72 75.16 11.72 75.16 11.72 75.17"/><path class="cls-1" d="M8.57,35.44h0v0l0,0Z"/><path class="cls-1" d="M11.06,38.65l0,0h0Z"/><path class="cls-1" d="M36.07,78.8l0-.09-2-.43c0,.07,0,.15,0,.22Z"/><path class="cls-1" d="M24.77,75.87h0Z"/><path class="cls-1" d="M13.54,61.24h0Z"/><path class="cls-1" d="M20.8,56.38h0l0,0Z"/><path class="cls-1" d="M79.94,25.68c-.07-.21-.1-.43-.16-.68-.6.23-.84,0-1-.52a5.36,5.36,0,0,0-.68-1l-.16.09.37,1.08c-.65-.68-1.66-1.11-1.51-2.3,0-.11-.2-.24-.45-.29l.06.73-.15.09a18.69,18.69,0,0,0-1.84-1.56c-.79-.52-.28-1.52-.94-2.25l-.16,1.42h-.2L72,18.75l-.23.07a3.53,3.53,0,0,1,.32,2.73c-.16.92-.4,1.82-.61,2.73l-.19,0c0-.54.1-1.08.09-1.62,0-1.59-.08-3.18-.15-4.78a1.41,1.41,0,0,0-.42-.82,48.57,48.57,0,0,1-.34,11.63l.11,0,2.07-8a1.2,1.2,0,0,1,.7,1.54c-.37,1.78-.77,3.55-1.15,5.33-.06.3-.11.6-.16.9l.22,0,.46-1.81.24.05-.37,1.71.38-.06a49.39,49.39,0,0,0,1-6.2l1.18,1.58L73.7,28.15l.26,0,1.62-4.7.74.64c-.37-.43-.74-.87-1.13-1.28a9.34,9.34,0,0,0-.8-.68l.14-.15c.61.49,1.23,1,1.8,1.5.12.11,0,.42.05.64-.13,1.28-.19,2.58-.41,3.85l.54,0c.27-1.13.54-2.27.81-3.41l.2-.11c.47.63,1.2,1.21,1.32,1.9a3,3,0,0,1-.13,1.53H79l.27-1.31a2.77,2.77,0,0,1,0,1.31h.46l.12-.45.41.45h.29l-.26-.52.14-.1.51.63.39,0c-.35-.46-.69-.92-1-1.39A2.88,2.88,0,0,1,79.94,25.68Zm-3-1.17L76.86,24l.19,0,.08.47Z"/><path class="cls-1" d="M23.07,78.06h0Z"/><path class="cls-1" d="M34.13,77.54l-.05.06s0,.08,0,.13Z"/><path class="cls-1" d="M80.69,28.22l-.19-.39H80.2l.4.45Z"/><polygon class="cls-1" points="22.57 71.38 22.56 71.38 22.56 71.38 22.57 71.38"/><path class="cls-1" d="M26.69,67.39h0Z"/><path class="cls-1" d="M14.11,42.62l0,0h0Z"/><polygon class="cls-1" points="21.67 74.02 21.67 74.01 21.67 74.02 21.67 74.02"/><path class="cls-1" d="M9.07,56.77h0Z"/><path class="cls-1" d="M70.57,28.65l-.11,0c0,.26-.06.52-.1.79Z"/><path class="cls-1" d="M38.62,71.45a39.22,39.22,0,0,1-4.32-.38l0,.19A22.36,22.36,0,0,0,38.62,71.45Z"/><path class="cls-1" d="M72.25,28.36l-.22,0a9.22,9.22,0,0,0-.12,1.31Z"/><path class="cls-1" d="M73,28.26l-.38.06"/><path class="cls-1" d="M76.52,27.9l-.54,0c0,.09,0,.17,0,.26"/><path class="cls-1" d="M74,28.13l-.26,0"/><path class="cls-1" d="M34.6,45.47l.8-.16-.66-.53,2.45-.73.24.63L38,44.5l-.15-.57,9.51-3.34,0-.06-2.17.14.05-.5c-.66.1-.75.24-.81,1.14L41,42.43l-.07-.16,1.42-1.74c-.72-.22-1.72.89-2.12,2.29l-2.06.59L38,43.3l2.08-2.67L40,40.47a2.31,2.31,0,0,0-.68.42c-.65.84-1.25,1.71-1.88,2.57a.78.78,0,0,1-.33.26c-.62.23-1.24.43-1.88.65,0-.08-.09-.16-.07-.19l2.32-3.42c-.51-.1-2.22,2-3,3.73l-2.72.7,0,.16,2.59-.54Z"/><path class="cls-1" d="M68.35,16.71l.53-.37a20.68,20.68,0,0,1,0,4.72c-.22,1.53-.52,3-.79,4.58l-.45.07-.08.6-.34-.15-.72.9-.16-.13a4.58,4.58,0,0,1,.59-.88c1-1,1-2.27,1.2-3.48a12.2,12.2,0,0,0,.23-1.93C68.37,19.37,68.35,18.12,68.35,16.71Z"/><path class="cls-1" d="M65.22,38.92a12.74,12.74,0,0,1-3,4c-1.54,1.4-3.24,2.62-4.87,3.93-.18.14-.34.31-.51.46,3.52-2.27,6.95-4.63,8.92-8.48l-.14-.2C65.5,38.7,65.29,38.77,65.22,38.92Z"/><path class="cls-1" d="M56.49,45.86a19.81,19.81,0,0,0,8-8.32c-1.3,1.46-2.41,3.1-3.75,4.52S57.83,44.68,56.49,45.86Z"/><path class="cls-1" d="M58,15.16l.46-1.31c-1,.28-1.94.47-2.08,1.89l-.49-1c-1.75.92-3.49,1.82-5.2,2.76-.38.21-.88.49-.47,1.19l-.7-.21a3.45,3.45,0,0,1,1.93-1.79l4.85-2.29c.51-.24,1-.53,1.52-.76a6.55,6.55,0,0,1,1-.24l-.63,1.77Z"/><path class="cls-1" d="M46.39,19.78a2.47,2.47,0,0,1,.24-.67,8.58,8.58,0,0,1,2.85-2.28c1.11-.57,2.14-1.3,3.23-1.9.93-.51,1.89-.94,2.85-1.38.15-.07.37,0,.56,0l0,.19a5,5,0,0,0-.89.27c-1.76.92-3.52,1.84-5.25,2.8a17.31,17.31,0,0,0-2.24,1.48A13.58,13.58,0,0,0,46.39,19.78Z"/><path class="cls-1" d="M70.42,17.37c.73,3.48-.55,6.64-1.05,10-.12-.14-.21-.2-.21-.25.35-3.19,1.55-6.3,1-9.59C70.16,17.49,70.29,17.44,70.42,17.37Z"/><path class="cls-1" d="M63.76,44.78l-5.5,4.12C59.63,48.61,63.38,45.66,63.76,44.78Z"/><path class="cls-1" d="M63.38,13.63l-1.26,2.91-.25-.1,1.2-2.94Z"/><path class="cls-1" d="M64.84,26.63l-.37.05c0,.11.12.24.08.32-.21.5-.44,1-.68,1.47s-.47.9-.71,1.34l.22.1A8.73,8.73,0,0,0,64.84,26.63Z"/><polygon class="cls-1" points="64.46 26.69 64.46 26.69 64.46 26.68 64.46 26.69"/><path class="cls-1" d="M49.47,38c-.95,0-1.91.77-1.76,1.43Z"/><path class="cls-1" d="M62.12,47.47,59.8,49.26A4,4,0,0,0,62.12,47.47Z"/><path class="cls-1" d="M26.68,67.4c.61.08,1.22.13,1.82.23.93.17,1.86.37,2.79.56l0,.17-4.56-1Z"/><path class="cls-1" d="M36.09,75l4,.2v-.14l-4-.28C36.09,74.86,36.09,74.93,36.09,75Z"/><path class="cls-1" d="M37.17,78.95l0,.19,4.35.62v-.1Z"/><path class="cls-1" d="M37,78.13l.52-.69-.07-.57c-.43.81-1,.16-1.51.36l1.06.29Z"/><path class="cls-1" d="M35.27,77.14l0-.15-1.24-.29c0,.05,0,.11,0,.16Z"/><path class="cls-1" d="M32.82,76.58l1.25.29c0-.05,0-.11,0-.16l-1.22-.28Z"/><path class="cls-1" d="M28.31,75.29l-1.21-.35,0-.14,1.23.37Z"/><path class="cls-1" d="M35.58,74.87l0-.18-1.12-.15,0,.13Z"/><path class="cls-1" d="M40.27,77.81l0,.14,1,.09v-.11Z"/><path class="cls-1" d="M20.79,56.4l1,.06,0,.18-1-.26Z"/><path class="cls-1" d="M32.41,74.12l.77.19v.07l-.79-.12Z"/><path class="cls-1" d="M32.32,77.91l-.65-.13,0,.16.66.13Z"/><path class="cls-1" d="M39.32,3.58l-.81-.3,1.27-2,.36.69-.64.42Z"/><path class="cls-1" d="M23.07,78.06v0h0Z"/><path class="cls-1" d="M24.38,78.83l.07-.23-1.37-.51.2.55Z"/><path class="cls-1" d="M24.78,75.86l-.93-.05,0-.26.87.32Z"/><path class="cls-1" d="M9.45,52.36l.77-1.54Z"/><path class="cls-1" d="M2.29,51l.12-.53.11,0L2.44,51Z"/><path class="cls-1" d="M13.5,59,12.1,57.88Z"/></g></g></svg>